ISO-10303-21;
HEADER;
FILE_DESCRIPTION (( 'STEP AP214' ),
    '1' );
FILE_NAME ('Ovonic AIR LIPO BATTERY.STEP',
    '2026-07-08T20:32:34',
    ( '' ),
    ( '' ),
    'SwSTEP 2.0',
    'SolidWorks 2026',
    '' );
FILE_SCHEMA (( 'AUTOMOTIVE_DESIGN' ));
ENDSEC;

DATA;
#1 = ORIENTED_EDGE ( 'NONE', *, *, #198, .F. ) ;
#2 = CARTESIAN_POINT ( 'NONE',  ( 40.49999999999997868, 1.000000000000000000, -15.60000000000000853 ) ) ;
#3 = CARTESIAN_POINT ( 'NONE',  ( -51.50000000000002842, 23.00000000000000000, 1.076364566419344857E-14 ) ) ;
#4 = UNCERTAINTY_MEASURE_WITH_UNIT (LENGTH_MEASURE( 1.000000000000000082E-05 ), #213, 'distance_accuracy_value', 'NONE');
#5 = ORIENTED_EDGE ( 'NONE', *, *, #230, .T. ) ;
#6 = EDGE_CURVE ( 'NONE', #88, #359, #137, .T. ) ;
#7 = PRODUCT_CONTEXT ( 'NONE', #129, 'mechanical' ) ;
#8 = CARTESIAN_POINT ( 'NONE',  ( -51.50000000000002132, 23.00000000000000000, -15.59999999999999254 ) ) ;
#9 = ORIENTED_EDGE ( 'NONE', *, *, #33, .F. ) ;
#10 = FILL_AREA_STYLE ('',( #96 ) ) ;
#11 = ORIENTED_EDGE ( 'NONE', *, *, #411, .F. ) ;
#12 = ADVANCED_FACE ( 'NONE', ( #326 ), #238, .T. ) ;
#13 = DIRECTION ( 'NONE',  ( 1.000000000000000000, 0.000000000000000000, -1.321694076934710155E-16 ) ) ;
#14 = EDGE_LOOP ( 'NONE', ( #453, #513, #446, #553 ) ) ;
#15 = PRODUCT_DEFINITION_FORMATION_WITH_SPECIFIED_SOURCE ( 'ANY', '', #208, .NOT_KNOWN. ) ;
#16 = VECTOR ( 'NONE', #571, 1000.000000000000000 ) ;
#17 = SPHERICAL_SURFACE ( 'NONE', #376, 1.000000000000000000 ) ;
#18 = CIRCLE ( 'NONE', #450, 1.000000000000000888 ) ;
#19 = ORIENTED_EDGE ( 'NONE', *, *, #54, .T. ) ;
#20 = DIRECTION ( 'NONE',  ( 1.000000000000000000, 0.000000000000000000, -2.090028284309399339E-16 ) ) ;
#21 = ORIENTED_EDGE ( 'NONE', *, *, #445, .T. ) ;
#22 = ORIENTED_EDGE ( 'NONE', *, *, #76, .T. ) ;
#23 = LINE ( 'NONE', #566, #282 ) ;
#24 = AXIS2_PLACEMENT_3D ( 'NONE', #92, #526, #482 ) ;
#25 = CARTESIAN_POINT ( 'NONE',  ( 52.48957880828177736, 11.50000000000000000, -15.60000000000001030 ) ) ;
#26 = AXIS2_PLACEMENT_3D ( 'NONE', #539, #342, #585 ) ;
#27 = DIRECTION ( 'NONE',  ( 4.180056568618812977E-16, 0.000000000000000000, 1.000000000000000000 ) ) ;
#28 = DIRECTION ( 'NONE',  ( -1.000000000000000000, 0.000000000000000000, 0.000000000000000000 ) ) ;
#29 = DIRECTION ( 'NONE',  ( -1.000000000000000000, 0.000000000000000000, 0.000000000000000000 ) ) ;
#30 = CYLINDRICAL_SURFACE ( 'NONE', #619, 1.000000000000000888 ) ;
#31 = EDGE_CURVE ( 'NONE', #58, #216, #525, .T. ) ;
#32 = LINE ( 'NONE', #172, #236 ) ;
#33 = EDGE_CURVE ( 'NONE', #596, #541, #247, .T. ) ;
#34 = DIRECTION ( 'NONE',  ( -2.090028284309406488E-16, 0.000000000000000000, -1.000000000000000000 ) ) ;
#35 = AXIS2_PLACEMENT_3D ( 'NONE', #2, #193, #241 ) ;
#36 = AXIS2_PLACEMENT_3D ( 'NONE', #544, #268, #115 ) ;
#37 = CARTESIAN_POINT ( 'NONE',  ( -52.50000000000001421, 1.000000000000000888, 15.60000000000000320 ) ) ;
#38 = DIRECTION ( 'NONE',  ( -1.000000000000000000, -0.000000000000000000, 1.321694076934710155E-16 ) ) ;
#39 = CYLINDRICAL_SURFACE ( 'NONE', #112, 1.000000000000000888 ) ;
#40 = DIRECTION ( 'NONE',  ( 2.090028284309406488E-16, 0.000000000000000000, 1.000000000000000000 ) ) ;
#41 = EDGE_CURVE ( 'NONE', #457, #416, #589, .T. ) ;
#42 = CARTESIAN_POINT ( 'NONE',  ( 40.49999999999997868, 11.00000000000000000, -15.60000000000000853 ) ) ;
#43 = DIRECTION ( 'NONE',  ( 0.000000000000000000, 0.000000000000000000, -1.000000000000000000 ) ) ;
#44 = VERTEX_POINT ( 'NONE', #615 ) ;
#45 = CIRCLE ( 'NONE', #523, 12.00000000000000000 ) ;
#46 = CIRCLE ( 'NONE', #36, 11.99999999999999645 ) ;
#47 = TOROIDAL_SURFACE ( 'NONE', #488, 11.00000000000000000, 1.000000000000000000 ) ;
#48 = DIRECTION ( 'NONE',  ( 0.000000000000000000, 0.000000000000000000, 1.000000000000000000 ) ) ;
#49 = LINE ( 'NONE', #255, #122 ) ;
#50 = ORIENTED_EDGE ( 'NONE', *, *, #368, .T. ) ;
#51 = DIRECTION ( 'NONE',  ( -1.652117596168388002E-16, 0.000000000000000000, -1.000000000000000000 ) ) ;
#52 = FACE_OUTER_BOUND ( 'NONE', #75, .T. ) ;
#53 = ORIENTED_EDGE ( 'NONE', *, *, #431, .F. ) ;
#54 = EDGE_CURVE ( 'NONE', #44, #155, #45, .T. ) ;
#55 = CARTESIAN_POINT ( 'NONE',  ( 52.49999999999999289, 1.000000000000000888, 15.59999999999998899 ) ) ;
#56 = DIRECTION ( 'NONE',  ( 0.000000000000000000, 0.000000000000000000, 1.000000000000000000 ) ) ;
#57 = UNCERTAINTY_MEASURE_WITH_UNIT (LENGTH_MEASURE( 1.000000000000000082E-05 ), #345, 'distance_accuracy_value', 'NONE');
#58 = VERTEX_POINT ( 'NONE', #279 ) ;
#59 = AXIS2_PLACEMENT_3D ( 'NONE', #408, #454, #587 ) ;
#60 = CIRCLE ( 'NONE', #169, 1.000000000000000888 ) ;
#61 = AXIS2_PLACEMENT_3D ( 'NONE', #378, #381, #367 ) ;
#62 = CARTESIAN_POINT ( 'NONE',  ( 51.62007457163836932, 11.50000000001739409, 16.59999999999998721 ) ) ;
#63 = ORIENTED_EDGE ( 'NONE', *, *, #66, .F. ) ;
#64 = EDGE_CURVE ( 'NONE', #359, #166, #607, .T. ) ;
#65 = EDGE_LOOP ( 'NONE', ( #175, #354, #270, #404 ) ) ;
#66 = EDGE_CURVE ( 'NONE', #549, #120, #608, .T. ) ;
#67 = CARTESIAN_POINT ( 'NONE',  ( -51.50000000000001421, 22.00000000000000000, 15.60000000000000320 ) ) ;
#68 = ORIENTED_EDGE ( 'NONE', *, *, #507, .F. ) ;
#69 = AXIS2_PLACEMENT_3D ( 'NONE', #173, #34, #28 ) ;
#70 = AXIS2_PLACEMENT_3D ( 'NONE', #417, #266, #110 ) ;
#71 = CARTESIAN_POINT ( 'NONE',  ( 51.48863048791795194, 11.50000000000000000, 16.59999999999999076 ) ) ;
#72 = VECTOR ( 'NONE', #329, 1000.000000000000000 ) ;
#73 = EDGE_LOOP ( 'NONE', ( #578, #418, #547, #352 ) ) ;
#74 = LINE ( 'NONE', #119, #301 ) ;
#75 = EDGE_LOOP ( 'NONE', ( #302, #484, #118 ) ) ;
#76 = EDGE_CURVE ( 'NONE', #210, #528, #60, .T. ) ;
#77 = DIRECTION ( 'NONE',  ( 0.000000000000000000, 0.000000000000000000, 1.000000000000000000 ) ) ;
#78 = ORIENTED_EDGE ( 'NONE', *, *, #158, .F. ) ;
#79 = LINE ( 'NONE', #603, #500 ) ;
#80 = CARTESIAN_POINT ( 'NONE',  ( 51.48863048791793773, 11.50000000000000000, -16.60000000000001208 ) ) ;
#81 = CIRCLE ( 'NONE', #70, 1.000000000000000888 ) ;
#82 = CIRCLE ( 'NONE', #61, 1.000000000000000888 ) ;
#83 = DIRECTION ( 'NONE',  ( -1.000000000000000000, 0.000000000000000000, 1.652117596168388002E-16 ) ) ;
#84 = CARTESIAN_POINT ( 'NONE',  ( -2.577303450022685333E-15, 22.00000000000000000, -15.60000000000000142 ) ) ;
#85 = CARTESIAN_POINT ( 'NONE',  ( -51.50000000000002842, 23.00000000000000000, -15.59999999999999254 ) ) ;
#86 = ADVANCED_FACE ( 'NONE', ( #331 ), #518, .T. ) ;
#87 = PRODUCT_DEFINITION_SHAPE ( 'NONE', 'NONE',  #561 ) ;
#88 = VERTEX_POINT ( 'NONE', #382 ) ;
#89 = PLANE ( 'NONE',  #420 ) ;
#90 = CARTESIAN_POINT ( 'NONE',  ( 40.49999999999997868, 11.00000000000000000, -16.60000000000000853 ) ) ;
#91 = AXIS2_PLACEMENT_3D ( 'NONE', #276, #218, #504 ) ;
#92 = CARTESIAN_POINT ( 'NONE',  ( -51.50000000000002132, 22.00000000000000000, -15.59999999999999254 ) ) ;
#93 = CARTESIAN_POINT ( 'NONE',  ( -51.50000000000002132, 23.00000000000000000, -16.59999999999999432 ) ) ;
#94 = ADVANCED_FACE ( 'NONE', ( #570 ), #30, .T. ) ;
#95 = CARTESIAN_POINT ( 'NONE',  ( -51.50000000000002132, 1.000000000000000888, -15.59999999999999254 ) ) ;
#96 = FILL_AREA_STYLE_COLOUR ( '', #271 ) ;
#97 = ORIENTED_EDGE ( 'NONE', *, *, #64, .T. ) ;
#98 = PLANE ( 'NONE',  #180 ) ;
#99 = DIRECTION ( 'NONE',  ( 4.180056568618812977E-16, -0.000000000000000000, 1.000000000000000000 ) ) ;
#100 = ORIENTED_EDGE ( 'NONE', *, *, #452, .F. ) ;
#101 = VECTOR ( 'NONE', #353, 1000.000000000000000 ) ;
#102 = DIRECTION ( 'NONE',  ( -1.000000000000000000, 0.000000000000000000, 0.000000000000000000 ) ) ;
#103 = LINE ( 'NONE', #405, #377 ) ;
#104 = EDGE_LOOP ( 'NONE', ( #361, #493, #63, #537 ) ) ;
#105 = DIRECTION ( 'NONE',  ( 1.000000000000000000, 0.000000000000000000, 0.000000000000000000 ) ) ;
#106 = ADVANCED_FACE ( 'NONE', ( #427 ), #179, .T. ) ;
#107 = CARTESIAN_POINT ( 'NONE',  ( -51.50000000000002132, 22.00000000000000000, -15.59999999999999254 ) ) ;
#108 = EDGE_LOOP ( 'NONE', ( #505, #126, #1, #461 ) ) ;
#109 = APPLICATION_PROTOCOL_DEFINITION ( 'draft international standard', 'automotive_design', 1998, #161 ) ;
#110 = DIRECTION ( 'NONE',  ( -6.938893903907222067E-15, 0.000000000000000000, 1.000000000000000000 ) ) ;
#111 = EDGE_LOOP ( 'NONE', ( #489, #592, #584, #397 ) ) ;
#112 = AXIS2_PLACEMENT_3D ( 'NONE', #55, #138, #534 ) ;
#113 = AXIS2_PLACEMENT_3D ( 'NONE', #107, #43, #355 ) ;
#114 =( NAMED_UNIT ( * ) SI_UNIT ( $, .STERADIAN. ) SOLID_ANGLE_UNIT ( ) );
#115 = DIRECTION ( 'NONE',  ( 1.000000000000000000, 0.000000000000000000, -1.445602896647339656E-16 ) ) ;
#116 = ORIENTED_EDGE ( 'NONE', *, *, #398, .T. ) ;
#117 = EDGE_CURVE ( 'NONE', #596, #120, #545, .T. ) ;
#118 = ORIENTED_EDGE ( 'NONE', *, *, #298, .F. ) ;
#119 = CARTESIAN_POINT ( 'NONE',  ( 2.061842760018147241E-15, 23.00000000000000000, 15.59999999999999609 ) ) ;
#120 = VERTEX_POINT ( 'NONE', #475 ) ;
#121 = ADVANCED_FACE ( 'NONE', ( #481 ), #258, .T. ) ;
#122 = VECTOR ( 'NONE', #396, 1000.000000000000000 ) ;
#123 = AXIS2_PLACEMENT_3D ( 'NONE', #237, #287, #125 ) ;
#124 = ORIENTED_EDGE ( 'NONE', *, *, #243, .T. ) ;
#125 = DIRECTION ( 'NONE',  ( 0.000000000000000000, 0.000000000000000000, -1.000000000000000000 ) ) ;
#126 = ORIENTED_EDGE ( 'NONE', *, *, #188, .F. ) ;
#127 = DIRECTION ( 'NONE',  ( 0.000000000000000000, -1.000000000000000000, 0.000000000000000000 ) ) ;
#128 = CARTESIAN_POINT ( 'NONE',  ( 51.61888538615789201, 11.50000000000000178, -16.60000000000001563 ) ) ;
#129 = APPLICATION_CONTEXT ( 'automotive_design' ) ;
#130 = DIRECTION ( 'NONE',  ( 1.000000000000000000, 0.000000000000000000, -2.891205793294679312E-16 ) ) ;
#131 = DIRECTION ( 'NONE',  ( -1.000000000000000000, 0.000000000000000000, 0.000000000000000000 ) ) ;
#132 = AXIS2_PLACEMENT_3D ( 'NONE', #315, #163, #502 ) ;
#133 = ORIENTED_EDGE ( 'NONE', *, *, #6, .T. ) ;
#134 = CARTESIAN_POINT ( 'NONE',  ( -51.50000000000001421, 1.000000000000000888, 15.60000000000000320 ) ) ;
#135 = DIRECTION ( 'NONE',  ( 0.000000000000000000, -1.000000000000000000, 0.000000000000000000 ) ) ;
#136 = CARTESIAN_POINT ( 'NONE',  ( 52.48957880828179157, 11.50000000000000888, 15.73210740145494135 ) ) ;
#137 = LINE ( 'NONE', #139, #562 ) ;
#138 = DIRECTION ( 'NONE',  ( -1.000000000000000000, 0.000000000000000000, 1.321694076934710155E-16 ) ) ;
#139 = CARTESIAN_POINT ( 'NONE',  ( 40.49999999999999289, 0.000000000000000000, 16.59999999999999432 ) ) ;
#140 = FACE_OUTER_BOUND ( 'NONE', #73, .T. ) ;
#141 = DIRECTION ( 'NONE',  ( 0.000000000000000000, -1.000000000000000000, 0.000000000000000000 ) ) ;
#142 = ORIENTED_EDGE ( 'NONE', *, *, #390, .T. ) ;
#143 = FACE_OUTER_BOUND ( 'NONE', #369, .T. ) ;
#144 = EDGE_LOOP ( 'NONE', ( #321, #394, #540, #159 ) ) ;
#145 = ADVANCED_FACE ( 'NONE', ( #441 ), #320, .T. ) ;
#146 = DIRECTION ( 'NONE',  ( -2.090028284309406488E-16, -0.000000000000000000, -1.000000000000000000 ) ) ;
#147 = DIRECTION ( 'NONE',  ( 0.000000000000000000, -0.000000000000000000, -1.000000000000000000 ) ) ;
#148 = ORIENTED_EDGE ( 'NONE', *, *, #220, .F. ) ;
#149 = AXIS2_PLACEMENT_3D ( 'NONE', #90, #520, #288 ) ;
#150 = AXIS2_PLACEMENT_3D ( 'NONE', #421, #229, #334 ) ;
#151 = DIRECTION ( 'NONE',  ( -1.321694076934710155E-16, 0.000000000000000000, -1.000000000000000000 ) ) ;
#152 = FACE_OUTER_BOUND ( 'NONE', #451, .T. ) ;
#153 = ORIENTED_EDGE ( 'NONE', *, *, #455, .F. ) ;
#154 = LINE ( 'NONE', #93, #191 ) ;
#155 = VERTEX_POINT ( 'NONE', #294 ) ;
#156 = APPLICATION_PROTOCOL_DEFINITION ( 'draft international standard', 'automotive_design', 1998, #129 ) ;
#157 = FACE_OUTER_BOUND ( 'NONE', #108, .T. ) ;
#158 = EDGE_CURVE ( 'NONE', #549, #155, #346, .T. ) ;
#159 = ORIENTED_EDGE ( 'NONE', *, *, #431, .T. ) ;
#160 = B_SPLINE_CURVE_WITH_KNOTS ( 'NONE', 3,
 ( #71, #62, #221, #167, #363, #372, #429, #281, #136, #285 ),
 .UNSPECIFIED., .F., .F.,
 ( 4, 2, 2, 2, 4 ),
 ( -2.098817671989519355E-05, 0.0003733224502040530615, 0.0007676330771280012386, 0.001161943704051949470, 0.001556254330975897701 ),
 .UNSPECIFIED. ) ;
#161 = APPLICATION_CONTEXT ( 'automotive_design' ) ;
#162 = TOROIDAL_SURFACE ( 'NONE', #225, 11.00000000000000000, 1.000000000000000000 ) ;
#163 = DIRECTION ( 'NONE',  ( 1.321694076934710155E-16, -0.000000000000000000, 1.000000000000000000 ) ) ;
#164 = ORIENTED_EDGE ( 'NONE', *, *, #426, .F. ) ;
#165 = SURFACE_STYLE_USAGE ( .BOTH. , #458 ) ;
#166 = VERTEX_POINT ( 'NONE', #296 ) ;
#167 = CARTESIAN_POINT ( 'NONE',  ( 51.99273120262388659, 11.50000000000008171, 16.47368103257130656 ) ) ;
#168 = EDGE_LOOP ( 'NONE', ( #100, #148, #153, #53 ) ) ;
#169 = AXIS2_PLACEMENT_3D ( 'NONE', #283, #559, #131 ) ;
#170 = CYLINDRICAL_SURFACE ( 'NONE', #365, 1.000000000000000888 ) ;
#171 = ORIENTED_EDGE ( 'NONE', *, *, #299, .T. ) ;
#172 = CARTESIAN_POINT ( 'NONE',  ( -52.50000000000002132, 23.00000000000000000, -15.59999999999999254 ) ) ;
#173 = CARTESIAN_POINT ( 'NONE',  ( -51.50000000000002132, 1.000000000000000888, -16.59999999999999432 ) ) ;
#174 = FACE_OUTER_BOUND ( 'NONE', #356, .T. ) ;
#175 = ORIENTED_EDGE ( 'NONE', *, *, #411, .T. ) ;
#176 = ADVANCED_FACE ( 'NONE', ( #152 ), #583, .T. ) ;
#177 = DIRECTION ( 'NONE',  ( 0.000000000000000000, 0.000000000000000000, 1.000000000000000000 ) ) ;
#178 = AXIS2_PLACEMENT_3D ( 'NONE', #223, #273, #20 ) ;
#179 = PLANE ( 'NONE',  #428 ) ;
#180 = AXIS2_PLACEMENT_3D ( 'NONE', #295, #250, #196 ) ;
#181 = CIRCLE ( 'NONE', #24, 1.000000000000000888 ) ;
#182 = CARTESIAN_POINT ( 'NONE',  ( 40.49999999999999289, 22.00000000000000000, 16.59999999999999076 ) ) ;
#183 = CARTESIAN_POINT ( 'NONE',  ( 40.49999999999999289, 11.00000000000000000, 16.59999999999999076 ) ) ;
#184 = ADVANCED_FACE ( 'NONE', ( #52 ), #197, .T. ) ;
#185 = CARTESIAN_POINT ( 'NONE',  ( 40.49999999999997868, 23.00000000000000000, -15.60000000000000853 ) ) ;
#186 = ORIENTED_EDGE ( 'NONE', *, *, #33, .T. ) ;
#187 = ORIENTED_EDGE ( 'NONE', *, *, #468, .T. ) ;
#188 = EDGE_CURVE ( 'NONE', #362, #407, #307, .T. ) ;
#189 = DIRECTION ( 'NONE',  ( -1.000000000000000000, 0.000000000000000000, 4.180056568618812484E-16 ) ) ;
#190 = DIRECTION ( 'NONE',  ( -0.000000000000000000, 1.000000000000000000, -0.000000000000000000 ) ) ;
#191 = VECTOR ( 'NONE', #190, 1000.000000000000000 ) ;
#192 = EDGE_LOOP ( 'NONE', ( #78, #265, #316, #19 ) ) ;
#193 = DIRECTION ( 'NONE',  ( 1.000000000000000000, 0.000000000000000000, 0.000000000000000000 ) ) ;
#194 = FACE_OUTER_BOUND ( 'NONE', #574, .T. ) ;
#195 = ORIENTED_EDGE ( 'NONE', *, *, #496, .F. ) ;
#196 = DIRECTION ( 'NONE',  ( -2.090028284309406488E-16, 0.000000000000000000, -1.000000000000000000 ) ) ;
#197 = SPHERICAL_SURFACE ( 'NONE', #26, 1.000000000000000000 ) ;
#198 = EDGE_CURVE ( 'NONE', #314, #362, #351, .T. ) ;
#199 = ORIENTED_EDGE ( 'NONE', *, *, #468, .F. ) ;
#200 = DIRECTION ( 'NONE',  ( -4.180056568618812977E-16, 0.000000000000000000, -1.000000000000000000 ) ) ;
#201 = DIRECTION ( 'NONE',  ( 0.000000000000000000, -1.000000000000000000, 0.000000000000000000 ) ) ;
#202 = CIRCLE ( 'NONE', #35, 0.9999999999999991118 ) ;
#203 = ORIENTED_EDGE ( 'NONE', *, *, #274, .T. ) ;
#204 = ADVANCED_FACE ( 'NONE', ( #527 ), #622, .F. ) ;
#205 = AXIS2_PLACEMENT_3D ( 'NONE', #435, #580, #246 ) ;
#206 = CIRCLE ( 'NONE', #546, 12.00000000000000000 ) ;
#207 = SHAPE_DEFINITION_REPRESENTATION ( #87, #259 ) ;
#208 = PRODUCT ( 'Ovonic AIR LIPO BATTERY', 'Ovonic AIR LIPO BATTERY', '', ( #7 ) ) ;
#209 = PLANE ( 'NONE',  #337 ) ;
#210 = VERTEX_POINT ( 'NONE', #448 ) ;
#211 = ADVANCED_FACE ( 'NONE', ( #194 ), #393, .T. ) ;
#212 = ADVANCED_FACE ( 'NONE', ( #143 ), #209, .F. ) ;
#213 =( LENGTH_UNIT ( ) NAMED_UNIT ( * ) SI_UNIT ( .MILLI., .METRE. ) );
#214 = ORIENTED_EDGE ( 'NONE', *, *, #533, .T. ) ;
#215 = LINE ( 'NONE', #409, #564 ) ;
#216 = VERTEX_POINT ( 'NONE', #495 ) ;
#217 = VECTOR ( 'NONE', #341, 1000.000000000000000 ) ;
#218 = DIRECTION ( 'NONE',  ( 1.000000000000000000, -0.000000000000000000, 6.938893903907221278E-15 ) ) ;
#219 = EDGE_LOOP ( 'NONE', ( #171, #187, #267, #422 ) ) ;
#220 = EDGE_CURVE ( 'NONE', #391, #58, #49, .T. ) ;
#221 = CARTESIAN_POINT ( 'NONE',  ( 51.75213682687154204, 11.50000000000016165, 16.57346698666444240 ) ) ;
#222 = VERTEX_POINT ( 'NONE', #444 ) ;
#223 = CARTESIAN_POINT ( 'NONE',  ( -51.50000000000002132, 22.00000000000000000, 1.076364566419344699E-14 ) ) ;
#224 = VERTEX_POINT ( 'NONE', #350 ) ;
#225 = AXIS2_PLACEMENT_3D ( 'NONE', #310, #510, #357 ) ;
#226 = DIRECTION ( 'NONE',  ( 0.000000000000000000, -1.000000000000000000, 0.000000000000000000 ) ) ;
#227 = CARTESIAN_POINT ( 'NONE',  ( 51.75198154149241248, 11.50000000000000355, -16.57351105701315319 ) ) ;
#228 = EDGE_CURVE ( 'NONE', #312, #596, #103, .T. ) ;
#229 = DIRECTION ( 'NONE',  ( 1.000000000000000000, 0.000000000000000000, -1.321694076934710155E-16 ) ) ;
#230 = EDGE_CURVE ( 'NONE', #222, #312, #154, .T. ) ;
#231 = DIRECTION ( 'NONE',  ( 0.000000000000000000, 0.000000000000000000, -1.000000000000000000 ) ) ;
#232 = CARTESIAN_POINT ( 'NONE',  ( -52.50000000000002132, 22.00000000000000000, -15.59999999999999254 ) ) ;
#233 = DIRECTION ( 'NONE',  ( 0.000000000000000000, 0.000000000000000000, -1.000000000000000000 ) ) ;
#234 = CARTESIAN_POINT ( 'NONE',  ( -52.50000000000002132, 22.00000000000000000, -16.59999999999999432 ) ) ;
#235 = DIRECTION ( 'NONE',  ( 1.321694076934710155E-16, -0.000000000000000000, 1.000000000000000000 ) ) ;
#236 = VECTOR ( 'NONE', #127, 1000.000000000000000 ) ;
#237 = CARTESIAN_POINT ( 'NONE',  ( -51.50000000000002132, 1.000000000000000888, -15.59999999999999254 ) ) ;
#238 = CYLINDRICAL_SURFACE ( 'NONE', #69, 1.000000000000000888 ) ;
#239 = MANIFOLD_SOLID_BREP ( 'Redondeo2', #560 ) ;
#240 = ADVANCED_FACE ( 'NONE', ( #157 ), #388, .T. ) ;
#241 = DIRECTION ( 'NONE',  ( 0.000000000000000000, 0.000000000000000000, -1.000000000000000000 ) ) ;
#242 = CARTESIAN_POINT ( 'NONE',  ( 0.000000000000000000, 23.00000000000000000, 0.000000000000000000 ) ) ;
#243 = EDGE_CURVE ( 'NONE', #166, #58, #81, .T. ) ;
#244 = DIRECTION ( 'NONE',  ( -1.000000000000000000, 0.000000000000000000, 1.321694076934710155E-16 ) ) ;
#245 = CIRCLE ( 'NONE', #498, 10.99999999999999645 ) ;
#246 = DIRECTION ( 'NONE',  ( 1.000000000000000000, 0.000000000000000000, 6.938893903907222067E-15 ) ) ;
#247 = CIRCLE ( 'NONE', #375, 1.000000000000000888 ) ;
#248 = ORIENTED_EDGE ( 'NONE', *, *, #31, .T. ) ;
#249 = AXIS2_PLACEMENT_3D ( 'NONE', #278, #226, #440 ) ;
#250 = DIRECTION ( 'NONE',  ( 1.000000000000000000, 0.000000000000000000, -2.090028284309406488E-16 ) ) ;
#251 = ADVANCED_FACE ( 'NONE', ( #456 ), #162, .T. ) ;
#252 = DIRECTION ( 'NONE',  ( -1.000000000000000000, 0.000000000000000000, 1.321694076934710155E-16 ) ) ;
#253 = EDGE_LOOP ( 'NONE', ( #324, #199, #9, #555 ) ) ;
#254 = CARTESIAN_POINT ( 'NONE',  ( 52.48957880828177736, 11.50000000000000000, -15.60000000000001030 ) ) ;
#255 = CARTESIAN_POINT ( 'NONE',  ( -51.50000000000002132, 23.00000000000000000, 16.60000000000000497 ) ) ;
#256 = EDGE_LOOP ( 'NONE', ( #497, #581, #11, #277 ) ) ;
#257 = CARTESIAN_POINT ( 'NONE',  ( 40.49999999999997868, 22.00000000000000000, -16.60000000000000853 ) ) ;
#258 = SPHERICAL_SURFACE ( 'NONE', #205, 1.000000000000000000 ) ;
#259 = ADVANCED_BREP_SHAPE_REPRESENTATION ( 'Ovonic AIR LIPO BATTERY', ( #239, #59 ), #385 ) ;
#260 = TOROIDAL_SURFACE ( 'NONE', #466, 11.00000000000000000, 1.000000000000000000 ) ;
#261 = ORIENTED_EDGE ( 'NONE', *, *, #323, .F. ) ;
#262 = STYLED_ITEM ( 'NONE', ( #415 ), #239 ) ;
#263 = EDGE_CURVE ( 'NONE', #88, #549, #46, .T. ) ;
#264 =( NAMED_UNIT ( * ) SI_UNIT ( $, .STERADIAN. ) SOLID_ANGLE_UNIT ( ) );
#265 = ORIENTED_EDGE ( 'NONE', *, *, #507, .T. ) ;
#266 = DIRECTION ( 'NONE',  ( -1.000000000000000000, -0.000000000000000000, -6.938893903907221278E-15 ) ) ;
#267 = ORIENTED_EDGE ( 'NONE', *, *, #188, .T. ) ;
#268 = DIRECTION ( 'NONE',  ( 1.652117596168388002E-16, -0.000000000000000000, 1.000000000000000000 ) ) ;
#269 = EDGE_CURVE ( 'NONE', #407, #44, #74, .T. ) ;
#270 = ORIENTED_EDGE ( 'NONE', *, *, #445, .F. ) ;
#271 = COLOUR_RGB ( '',0.7921568627450980005, 0.8196078431372548767, 0.9333333333333333481 ) ;
#272 = CIRCLE ( 'NONE', #611, 11.99999999999999645 ) ;
#273 = DIRECTION ( 'NONE',  ( 2.090028284309406488E-16, 0.000000000000000000, 1.000000000000000000 ) ) ;
#274 = EDGE_CURVE ( 'NONE', #216, #457, #412, .T. ) ;
#275 = EDGE_LOOP ( 'NONE', ( #124, #433, #551 ) ) ;
#276 = CARTESIAN_POINT ( 'NONE',  ( -51.50000000000002842, 22.00000000000000000, -15.59999999999999254 ) ) ;
#277 = ORIENTED_EDGE ( 'NONE', *, *, #41, .F. ) ;
#278 = CARTESIAN_POINT ( 'NONE',  ( -51.50000000000002132, 1.000000000000000888, 15.60000000000000320 ) ) ;
#279 = CARTESIAN_POINT ( 'NONE',  ( -51.50000000000002132, 1.000000000000000888, 16.60000000000000497 ) ) ;
#280 = EDGE_CURVE ( 'NONE', #416, #391, #215, .T. ) ;
#281 = CARTESIAN_POINT ( 'NONE',  ( 52.46355153258188864, 11.49999999999999645, 15.86173961218755046 ) ) ;
#282 = VECTOR ( 'NONE', #83, 1000.000000000000000 ) ;
#283 = CARTESIAN_POINT ( 'NONE',  ( -51.50000000000002132, 1.000000000000000000, -15.59999999999999254 ) ) ;
#284 = PRODUCT_DEFINITION_CONTEXT ( 'detailed design', #161, 'design' ) ;
#285 = CARTESIAN_POINT ( 'NONE',  ( 52.48957880828179157, 11.50000000000000000, 15.59999999999998899 ) ) ;
#286 = CARTESIAN_POINT ( 'NONE',  ( -52.50000000000002132, 0.000000000000000000, 15.60000000000000320 ) ) ;
#287 = DIRECTION ( 'NONE',  ( -0.000000000000000000, -1.000000000000000000, -0.000000000000000000 ) ) ;
#288 = DIRECTION ( 'NONE',  ( 1.000000000000000000, -1.734723475976807686E-15, -3.154042683594195614E-16 ) ) ;
#289 = ADVANCED_FACE ( 'NONE', ( #599 ), #170, .T. ) ;
#290 = DIRECTION ( 'NONE',  ( 1.652117596168388002E-16, -0.000000000000000000, 1.000000000000000000 ) ) ;
#291 = ADVANCED_FACE ( 'NONE', ( #548 ), #17, .T. ) ;
#292 = CARTESIAN_POINT ( 'NONE',  ( 52.28876620402559183, 11.50000000000000178, -16.21483542344252271 ) ) ;
#293 = CYLINDRICAL_SURFACE ( 'NONE', #400, 12.00000000000000000 ) ;
#294 = CARTESIAN_POINT ( 'NONE',  ( 52.48957880828179157, 11.50000000000000000, 15.59999999999998899 ) ) ;
#295 = CARTESIAN_POINT ( 'NONE',  ( -52.50000000000002132, 23.00000000000000000, -16.59999999999999432 ) ) ;
#296 = CARTESIAN_POINT ( 'NONE',  ( -51.50000000000001421, 0.000000000000000000, 15.60000000000000320 ) ) ;
#297 = EDGE_LOOP ( 'NONE', ( #511, #21, #164 ) ) ;
#298 = EDGE_CURVE ( 'NONE', #312, #362, #476, .T. ) ;
#299 = EDGE_CURVE ( 'NONE', #44, #541, #413, .T. ) ;
#300 = CARTESIAN_POINT ( 'NONE',  ( -52.50000000000002132, 1.000000000000000888, -15.59999999999999254 ) ) ;
#301 = VECTOR ( 'NONE', #13, 1000.000000000000000 ) ;
#302 = ORIENTED_EDGE ( 'NONE', *, *, #616, .T. ) ;
#303 = LINE ( 'NONE', #480, #217 ) ;
#304 = DIRECTION ( 'NONE',  ( 1.000000000000000000, -0.000000000000000000, -1.652117596168388002E-16 ) ) ;
#305 = ORIENTED_EDGE ( 'NONE', *, *, #76, .F. ) ;
#306 = FACE_OUTER_BOUND ( 'NONE', #104, .T. ) ;
#307 = LINE ( 'NONE', #3, #532 ) ;
#308 = ORIENTED_EDGE ( 'NONE', *, *, #117, .T. ) ;
#309 = EDGE_CURVE ( 'NONE', #457, #155, #160, .T. ) ;
#310 = CARTESIAN_POINT ( 'NONE',  ( 40.49999999999999289, 11.00000000000000000, 15.59999999999999076 ) ) ;
#311 = AXIS2_PLACEMENT_3D ( 'NONE', #95, #105, #48 ) ;
#312 = VERTEX_POINT ( 'NONE', #464 ) ;
#313 =( NAMED_UNIT ( * ) PLANE_ANGLE_UNIT ( ) SI_UNIT ( $, .RADIAN. ) );
#314 = VERTEX_POINT ( 'NONE', #232 ) ;
#315 = CARTESIAN_POINT ( 'NONE',  ( 40.49999999999999289, 12.00000000000000000, 16.59999999999999076 ) ) ;
#316 = ORIENTED_EDGE ( 'NONE', *, *, #299, .F. ) ;
#317 = ADVANCED_FACE ( 'NONE', ( #332 ), #558, .T. ) ;
#318 = DIRECTION ( 'NONE',  ( 1.000000000000000000, 0.000000000000000000, 6.938893903907222067E-15 ) ) ;
#319 = ORIENTED_EDGE ( 'NONE', *, *, #368, .F. ) ;
#320 = TOROIDAL_SURFACE ( 'NONE', #572, 11.00000000000000000, 1.000000000000000000 ) ;
#321 = ORIENTED_EDGE ( 'NONE', *, *, #387, .T. ) ;
#322 = DIRECTION ( 'NONE',  ( -1.000000000000000000, 0.000000000000000000, 0.000000000000000000 ) ) ;
#323 = EDGE_CURVE ( 'NONE', #314, #528, #32, .T. ) ;
#324 = ORIENTED_EDGE ( 'NONE', *, *, #298, .T. ) ;
#325 = LINE ( 'NONE', #423, #72 ) ;
#326 = FACE_OUTER_BOUND ( 'NONE', #618, .T. ) ;
#327 = AXIS2_PLACEMENT_3D ( 'NONE', #183, #235, #371 ) ;
#328 = AXIS2_PLACEMENT_3D ( 'NONE', #8, #576, #536 ) ;
#329 = DIRECTION ( 'NONE',  ( 1.000000000000000000, -0.000000000000000000, -1.652117596168388002E-16 ) ) ;
#330 = CIRCLE ( 'NONE', #591, 1.000000000000000888 ) ;
#331 = FACE_OUTER_BOUND ( 'NONE', #253, .T. ) ;
#332 = FACE_OUTER_BOUND ( 'NONE', #462, .T. ) ;
#333 = DIRECTION ( 'NONE',  ( 0.000000000000000000, -0.000000000000000000, -1.000000000000000000 ) ) ;
#334 = DIRECTION ( 'NONE',  ( -1.321694076934708183E-16, 0.000000000000000000, -1.000000000000000000 ) ) ;
#335 = DIRECTION ( 'NONE',  ( 1.000000000000000000, 0.000000000000000000, -1.652117596168388002E-16 ) ) ;
#336 = CARTESIAN_POINT ( 'NONE',  ( 51.48863048791795194, 11.50000000000000000, 16.59999999999999076 ) ) ;
#337 = AXIS2_PLACEMENT_3D ( 'NONE', #530, #487, #252 ) ;
#338 = DIRECTION ( 'NONE',  ( -1.321694076934710155E-16, 0.000000000000000000, -1.000000000000000000 ) ) ;
#339 = AXIS2_PLACEMENT_3D ( 'NONE', #569, #29, #177 ) ;
#340 = ADVANCED_FACE ( 'NONE', ( #554 ), #370, .T. ) ;
#341 = DIRECTION ( 'NONE',  ( -1.000000000000000000, 0.000000000000000000, 1.652117596168388002E-16 ) ) ;
#342 = DIRECTION ( 'NONE',  ( 0.000000000000000000, 1.000000000000000000, -0.000000000000000000 ) ) ;
#343 = ORIENTED_EDGE ( 'NONE', *, *, #616, .F. ) ;
#344 = EDGE_CURVE ( 'NONE', #166, #439, #18, .T. ) ;
#345 =( LENGTH_UNIT ( ) NAMED_UNIT ( * ) SI_UNIT ( .MILLI., .METRE. ) );
#346 = LINE ( 'NONE', #492, #402 ) ;
#347 = VERTEX_POINT ( 'NONE', #512 ) ;
#348 = DIRECTION ( 'NONE',  ( 1.000000000000000000, 0.000000000000000000, -1.652117596168388002E-16 ) ) ;
#349 = AXIS2_PLACEMENT_3D ( 'NONE', #383, #102, #443 ) ;
#350 = CARTESIAN_POINT ( 'NONE',  ( -52.50000000000001421, 22.00000000000000000, 15.60000000000000320 ) ) ;
#351 = CIRCLE ( 'NONE', #113, 1.000000000000000888 ) ;
#352 = ORIENTED_EDGE ( 'NONE', *, *, #274, .F. ) ;
#353 = DIRECTION ( 'NONE',  ( 2.090028284309406488E-16, 0.000000000000000000, 1.000000000000000000 ) ) ;
#354 = ORIENTED_EDGE ( 'NONE', *, *, #269, .F. ) ;
#355 = DIRECTION ( 'NONE',  ( -1.000000000000000000, 0.000000000000000000, 0.000000000000000000 ) ) ;
#356 = EDGE_LOOP ( 'NONE', ( #5, #588, #308, #214, #116 ) ) ;
#357 = DIRECTION ( 'NONE',  ( -1.000000000000000000, 0.000000000000000000, 1.321694076934710155E-16 ) ) ;
#358 = EDGE_CURVE ( 'NONE', #210, #88, #325, .T. ) ;
#359 = VERTEX_POINT ( 'NONE', #605 ) ;
#360 = DIRECTION ( 'NONE',  ( 0.000000000000000000, 0.000000000000000000, -1.000000000000000000 ) ) ;
#361 = ORIENTED_EDGE ( 'NONE', *, *, #606, .T. ) ;
#362 = VERTEX_POINT ( 'NONE', #85 ) ;
#363 = CARTESIAN_POINT ( 'NONE',  ( 52.10427871859788240, 11.50000000000006750, 16.39920039889889125 ) ) ;
#364 = ORIENTED_EDGE ( 'NONE', *, *, #471, .F. ) ;
#365 = AXIS2_PLACEMENT_3D ( 'NONE', #550, #590, #360 ) ;
#366 = CIRCLE ( 'NONE', #339, 1.000000000000000888 ) ;
#367 = DIRECTION ( 'NONE',  ( 1.000000000000000000, 0.000000000000000000, 0.000000000000000000 ) ) ;
#368 = EDGE_CURVE ( 'NONE', #528, #222, #403, .T. ) ;
#369 = EDGE_LOOP ( 'NONE', ( #406, #248, #203, #470, #586 ) ) ;
#370 = CYLINDRICAL_SURFACE ( 'NONE', #150, 1.000000000000000888 ) ;
#371 = DIRECTION ( 'NONE',  ( -1.000000000000000000, 0.000000000000000000, 0.000000000000000000 ) ) ;
#372 = CARTESIAN_POINT ( 'NONE',  ( 52.28881464361582232, 11.50000000000003730, 16.21476924712334267 ) ) ;
#373 = CARTESIAN_POINT ( 'NONE',  ( 52.10419080822348548, 11.50000000000000178, -16.39927048200116388 ) ) ;
#374 = CIRCLE ( 'NONE', #349, 1.000000000000000888 ) ;
#375 = AXIS2_PLACEMENT_3D ( 'NONE', #424, #604, #231 ) ;
#376 = AXIS2_PLACEMENT_3D ( 'NONE', #67, #593, #318 ) ;
#377 = VECTOR ( 'NONE', #304, 1000.000000000000000 ) ;
#378 = CARTESIAN_POINT ( 'NONE',  ( -51.50000000000002132, 22.00000000000000000, 15.60000000000000320 ) ) ;
#379 = CARTESIAN_POINT ( 'NONE',  ( 52.46354475528207217, 11.50000000000000178, -15.86177252637569701 ) ) ;
#380 = ADVANCED_FACE ( 'NONE', ( #174 ), #89, .F. ) ;
#381 = DIRECTION ( 'NONE',  ( -0.000000000000000000, 0.000000000000000000, -1.000000000000000000 ) ) ;
#382 = CARTESIAN_POINT ( 'NONE',  ( 40.49999999999997868, 0.000000000000000000, -15.60000000000000675 ) ) ;
#383 = CARTESIAN_POINT ( 'NONE',  ( 40.49999999999999289, 1.000000000000000000, 15.59999999999998543 ) ) ;
#384 = CARTESIAN_POINT ( 'NONE',  ( 52.48957880828177025, 11.50000000000000000, -15.73212366931021577 ) ) ;
#385 =( GEOMETRIC_REPRESENTATION_CONTEXT ( 3 ) GLOBAL_UNCERTAINTY_ASSIGNED_CONTEXT ( ( #57 ) ) GLOBAL_UNIT_ASSIGNED_CONTEXT ( ( #345, #543, #114 ) ) REPRESENTATION_CONTEXT ( 'NONE', 'WORKASPACE' ) );
#386 = CARTESIAN_POINT ( 'NONE',  ( -51.50000000000001421, 22.00000000000000000, 15.60000000000000320 ) ) ;
#387 = EDGE_CURVE ( 'NONE', #224, #314, #609, .T. ) ;
#388 = CYLINDRICAL_SURFACE ( 'NONE', #178, 1.000000000000000888 ) ;
#389 = CIRCLE ( 'NONE', #620, 1.000000000000000888 ) ;
#390 = EDGE_CURVE ( 'NONE', #155, #359, #206, .T. ) ;
#391 = VERTEX_POINT ( 'NONE', #425 ) ;
#392 = FACE_OUTER_BOUND ( 'NONE', #14, .T. ) ;
#393 = CYLINDRICAL_SURFACE ( 'NONE', #328, 1.000000000000000888 ) ;
#394 = ORIENTED_EDGE ( 'NONE', *, *, #323, .T. ) ;
#395 = DIRECTION ( 'NONE',  ( 1.000000000000000000, 0.000000000000000000, -1.445602896647339656E-16 ) ) ;
#396 = DIRECTION ( 'NONE',  ( 0.000000000000000000, -1.000000000000000000, 0.000000000000000000 ) ) ;
#397 = ORIENTED_EDGE ( 'NONE', *, *, #358, .F. ) ;
#398 = EDGE_CURVE ( 'NONE', #347, #222, #23, .T. ) ;
#399 = DIRECTION ( 'NONE',  ( 0.000000000000000000, 0.000000000000000000, 1.000000000000000000 ) ) ;
#400 = AXIS2_PLACEMENT_3D ( 'NONE', #617, #200, #189 ) ;
#401 = CARTESIAN_POINT ( 'NONE',  ( 40.49999999999997868, 11.00000000000000000, -15.60000000000000853 ) ) ;
#402 = VECTOR ( 'NONE', #99, 1000.000000000000000 ) ;
#403 = CIRCLE ( 'NONE', #123, 1.000000000000000888 ) ;
#404 = ORIENTED_EDGE ( 'NONE', *, *, #280, .F. ) ;
#405 = CARTESIAN_POINT ( 'NONE',  ( 52.49999999999997868, 22.00000000000000000, -16.60000000000001208 ) ) ;
#406 = ORIENTED_EDGE ( 'NONE', *, *, #220, .T. ) ;
#407 = VERTEX_POINT ( 'NONE', #478 ) ;
#408 = CARTESIAN_POINT ( 'NONE',  ( 0.000000000000000000, 0.000000000000000000, 0.000000000000000000 ) ) ;
#409 = CARTESIAN_POINT ( 'NONE',  ( 52.49999999999999289, 22.00000000000000000, 16.59999999999999076 ) ) ;
#410 = ORIENTED_EDGE ( 'NONE', *, *, #263, .T. ) ;
#411 = EDGE_CURVE ( 'NONE', #416, #44, #366, .T. ) ;
#412 = CIRCLE ( 'NONE', #132, 11.00000000000000000 ) ;
#413 = LINE ( 'NONE', #499, #449 ) ;
#414 = EDGE_LOOP ( 'NONE', ( #623, #563, #133, #97 ) ) ;
#415 = PRESENTATION_STYLE_ASSIGNMENT (( #165 ) ) ;
#416 = VERTEX_POINT ( 'NONE', #182 ) ;
#417 = CARTESIAN_POINT ( 'NONE',  ( -51.50000000000001421, 1.000000000000000000, 15.60000000000000320 ) ) ;
#418 = ORIENTED_EDGE ( 'NONE', *, *, #390, .F. ) ;
#419 =( GEOMETRIC_REPRESENTATION_CONTEXT ( 3 ) GLOBAL_UNCERTAINTY_ASSIGNED_CONTEXT ( ( #4 ) ) GLOBAL_UNIT_ASSIGNED_CONTEXT ( ( #213, #313, #264 ) ) REPRESENTATION_CONTEXT ( 'NONE', 'WORKASPACE' ) );
#420 = AXIS2_PLACEMENT_3D ( 'NONE', #521, #290, #472 ) ;
#421 = CARTESIAN_POINT ( 'NONE',  ( 2.061842760018147241E-15, 22.00000000000000000, 15.59999999999999609 ) ) ;
#422 = ORIENTED_EDGE ( 'NONE', *, *, #269, .T. ) ;
#423 = CARTESIAN_POINT ( 'NONE',  ( 40.49999999999997868, 0.000000000000000000, -15.60000000000000853 ) ) ;
#424 = CARTESIAN_POINT ( 'NONE',  ( 40.49999999999997868, 22.00000000000000000, -15.60000000000000675 ) ) ;
#425 = CARTESIAN_POINT ( 'NONE',  ( -51.50000000000002132, 22.00000000000000000, 16.60000000000000497 ) ) ;
#426 = EDGE_CURVE ( 'NONE', #224, #407, #82, .T. ) ;
#427 = FACE_OUTER_BOUND ( 'NONE', #414, .T. ) ;
#428 = AXIS2_PLACEMENT_3D ( 'NONE', #567, #135, #333 ) ;
#429 = CARTESIAN_POINT ( 'NONE',  ( 52.36312882349282916, 11.50000000000001243, 16.10387602127944717 ) ) ;
#430 = CARTESIAN_POINT ( 'NONE',  ( 40.49999999999999289, 1.000000000000000888, 16.59999999999999076 ) ) ;
#431 = EDGE_CURVE ( 'NONE', #439, #224, #79, .T. ) ;
#432 = CARTESIAN_POINT ( 'NONE',  ( -51.50000000000002132, 22.00000000000000000, 15.60000000000000320 ) ) ;
#433 = ORIENTED_EDGE ( 'NONE', *, *, #452, .T. ) ;
#434 = DIRECTION ( 'NONE',  ( 1.000000000000000000, 0.000000000000000000, -3.154042683594195614E-16 ) ) ;
#435 = CARTESIAN_POINT ( 'NONE',  ( -51.50000000000001421, 1.000000000000000000, 15.60000000000000320 ) ) ;
#436 = DIRECTION ( 'NONE',  ( 1.652117596168388002E-16, -0.000000000000000000, 1.000000000000000000 ) ) ;
#437 = VECTOR ( 'NONE', #38, 1000.000000000000000 ) ;
#438 = CARTESIAN_POINT ( 'NONE',  ( -51.50000000000002132, 1.000000000000000000, -15.59999999999999254 ) ) ;
#439 = VERTEX_POINT ( 'NONE', #37 ) ;
#440 = DIRECTION ( 'NONE',  ( 0.000000000000000000, 0.000000000000000000, -1.000000000000000000 ) ) ;
#441 = FACE_OUTER_BOUND ( 'NONE', #459, .T. ) ;
#442 = ORIENTED_EDGE ( 'NONE', *, *, #117, .F. ) ;
#443 = DIRECTION ( 'NONE',  ( 0.000000000000000000, 0.000000000000000000, 1.000000000000000000 ) ) ;
#444 = CARTESIAN_POINT ( 'NONE',  ( -51.50000000000002132, 1.000000000000000888, -16.59999999999999432 ) ) ;
#445 = EDGE_CURVE ( 'NONE', #391, #407, #389, .T. ) ;
#446 = ORIENTED_EDGE ( 'NONE', *, *, #243, .F. ) ;
#447 = DIRECTION ( 'NONE',  ( 0.000000000000000000, 1.000000000000000000, 0.000000000000000000 ) ) ;
#448 = CARTESIAN_POINT ( 'NONE',  ( -51.50000000000002132, 0.000000000000000000, -15.59999999999999254 ) ) ;
#449 = VECTOR ( 'NONE', #506, 1000.000000000000000 ) ;
#450 = AXIS2_PLACEMENT_3D ( 'NONE', #134, #514, #519 ) ;
#451 = EDGE_LOOP ( 'NONE', ( #22, #50, #531 ) ) ;
#452 = EDGE_CURVE ( 'NONE', #58, #439, #516, .T. ) ;
#453 = ORIENTED_EDGE ( 'NONE', *, *, #598, .T. ) ;
#454 = DIRECTION ( 'NONE',  ( 0.000000000000000000, 0.000000000000000000, 1.000000000000000000 ) ) ;
#455 = EDGE_CURVE ( 'NONE', #224, #391, #330, .T. ) ;
#456 = FACE_OUTER_BOUND ( 'NONE', #256, .T. ) ;
#457 = VERTEX_POINT ( 'NONE', #336 ) ;
#458 = SURFACE_SIDE_STYLE ('',( #552 ) ) ;
#459 = EDGE_LOOP ( 'NONE', ( #186, #68, #601, #442 ) ) ;
#460 = AXIS2_PLACEMENT_3D ( 'NONE', #242, #201, #147 ) ;
#461 = ORIENTED_EDGE ( 'NONE', *, *, #387, .F. ) ;
#462 = EDGE_LOOP ( 'NONE', ( #501, #410, #508, #142 ) ) ;
#463 = ADVANCED_FACE ( 'NONE', ( #140 ), #47, .T. ) ;
#464 = CARTESIAN_POINT ( 'NONE',  ( -51.50000000000002132, 22.00000000000000000, -16.59999999999999432 ) ) ;
#465 = CARTESIAN_POINT ( 'NONE',  ( 51.99261983650524854, 11.50000000000000178, -16.47374753278687365 ) ) ;
#466 = AXIS2_PLACEMENT_3D ( 'NONE', #490, #494, #348 ) ;
#467 = AXIS2_PLACEMENT_3D ( 'NONE', #438, #56, #141 ) ;
#468 = EDGE_CURVE ( 'NONE', #541, #362, #303, .T. ) ;
#469 = CARTESIAN_POINT ( 'NONE',  ( 40.49999999999997868, 12.00000000000000000, -16.60000000000000853 ) ) ;
#470 = ORIENTED_EDGE ( 'NONE', *, *, #41, .T. ) ;
#471 = EDGE_CURVE ( 'NONE', #528, #439, #582, .T. ) ;
#472 = DIRECTION ( 'NONE',  ( 1.000000000000000000, 0.000000000000000000, -1.652117596168388002E-16 ) ) ;
#473 = DIRECTION ( 'NONE',  ( -1.000000000000000000, 0.000000000000000000, 1.445602896647339163E-16 ) ) ;
#474 = CARTESIAN_POINT ( 'NONE',  ( 40.49999999999999289, 12.00000000000000000, 15.59999999999998543 ) ) ;
#475 = CARTESIAN_POINT ( 'NONE',  ( 51.48863048791793773, 11.50000000000000000, -16.60000000000001208 ) ) ;
#476 = CIRCLE ( 'NONE', #91, 1.000000000000000888 ) ;
#477 = VECTOR ( 'NONE', #517, 1000.000000000000000 ) ;
#478 = CARTESIAN_POINT ( 'NONE',  ( -51.50000000000002132, 23.00000000000000000, 15.60000000000000320 ) ) ;
#479 = DIRECTION ( 'NONE',  ( 4.180056568618812977E-16, -0.000000000000000000, 1.000000000000000000 ) ) ;
#480 = CARTESIAN_POINT ( 'NONE',  ( -2.577303450022685333E-15, 23.00000000000000000, -15.60000000000000142 ) ) ;
#481 = FACE_OUTER_BOUND ( 'NONE', #275, .T. ) ;
#482 = DIRECTION ( 'NONE',  ( 0.000000000000000000, 0.000000000000000000, 1.000000000000000000 ) ) ;
#483 = DIRECTION ( 'NONE',  ( 1.000000000000000000, 0.000000000000000000, -1.652117596168388002E-16 ) ) ;
#484 = ORIENTED_EDGE ( 'NONE', *, *, #198, .T. ) ;
#485 = CARTESIAN_POINT ( 'NONE',  ( 40.49999999999997868, 12.00000000000000000, -16.60000000000000853 ) ) ;
#486 = AXIS2_PLACEMENT_3D ( 'NONE', #84, #610, #613 ) ;
#487 = DIRECTION ( 'NONE',  ( -1.321694076934710155E-16, 0.000000000000000000, -1.000000000000000000 ) ) ;
#488 = AXIS2_PLACEMENT_3D ( 'NONE', #524, #151, #244 ) ;
#489 = ORIENTED_EDGE ( 'NONE', *, *, #542, .T. ) ;
#490 = CARTESIAN_POINT ( 'NONE',  ( 40.49999999999997868, 12.00000000000000000, -15.60000000000000853 ) ) ;
#491 = ADVANCED_FACE ( 'NONE', ( #624 ), #98, .F. ) ;
#492 = CARTESIAN_POINT ( 'NONE',  ( 52.48957880828178446, 11.50000000000000000, -1.153260001229847057E-14 ) ) ;
#493 = ORIENTED_EDGE ( 'NONE', *, *, #533, .F. ) ;
#494 = DIRECTION ( 'NONE',  ( 1.652117596168388002E-16, -0.000000000000000000, 1.000000000000000000 ) ) ;
#495 = CARTESIAN_POINT ( 'NONE',  ( 40.49999999999999289, 1.000000000000000000, 16.59999999999999076 ) ) ;
#496 = EDGE_CURVE ( 'NONE', #166, #210, #538, .T. ) ;
#497 = ORIENTED_EDGE ( 'NONE', *, *, #309, .T. ) ;
#498 = AXIS2_PLACEMENT_3D ( 'NONE', #485, #51, #434 ) ;
#499 = CARTESIAN_POINT ( 'NONE',  ( 40.49999999999998579, 23.00000000000000000, -1.692922910290618896E-14 ) ) ;
#500 = VECTOR ( 'NONE', #556, 1000.000000000000000 ) ;
#501 = ORIENTED_EDGE ( 'NONE', *, *, #6, .F. ) ;
#502 = DIRECTION ( 'NONE',  ( -1.000000000000000000, 0.000000000000000000, 0.000000000000000000 ) ) ;
#503 = ORIENTED_EDGE ( 'NONE', *, *, #230, .F. ) ;
#504 = DIRECTION ( 'NONE',  ( -6.938893903907222067E-15, 0.000000000000000000, 1.000000000000000000 ) ) ;
#505 = ORIENTED_EDGE ( 'NONE', *, *, #426, .T. ) ;
#506 = DIRECTION ( 'NONE',  ( -4.180056568618812977E-16, 0.000000000000000000, -1.000000000000000000 ) ) ;
#507 = EDGE_CURVE ( 'NONE', #549, #541, #272, .T. ) ;
#508 = ORIENTED_EDGE ( 'NONE', *, *, #158, .T. ) ;
#509 = PRESENTATION_LAYER_ASSIGNMENT (  '', '', ( #262 ) ) ;
#510 = DIRECTION ( 'NONE',  ( -1.321694076934710155E-16, 0.000000000000000000, -1.000000000000000000 ) ) ;
#511 = ORIENTED_EDGE ( 'NONE', *, *, #455, .T. ) ;
#512 = CARTESIAN_POINT ( 'NONE',  ( 40.49999999999997868, 1.000000000000000888, -16.60000000000000853 ) ) ;
#513 = ORIENTED_EDGE ( 'NONE', *, *, #31, .F. ) ;
#514 = DIRECTION ( 'NONE',  ( -0.000000000000000000, -0.000000000000000000, -1.000000000000000000 ) ) ;
#515 = CARTESIAN_POINT ( 'NONE',  ( 40.49999999999999289, 11.00000000000000000, 15.59999999999999076 ) ) ;
#516 = CIRCLE ( 'NONE', #249, 1.000000000000000888 ) ;
#517 = DIRECTION ( 'NONE',  ( -2.090028284309406488E-16, -0.000000000000000000, -1.000000000000000000 ) ) ;
#518 = CYLINDRICAL_SURFACE ( 'NONE', #486, 0.9999999999999991118 ) ;
#519 = DIRECTION ( 'NONE',  ( 1.000000000000000000, 0.000000000000000000, 0.000000000000000000 ) ) ;
#520 = DIRECTION ( 'NONE',  ( -1.652117596168388002E-16, 0.000000000000000000, -1.000000000000000000 ) ) ;
#521 = CARTESIAN_POINT ( 'NONE',  ( 52.49999999999997868, 23.00000000000000000, -16.60000000000001208 ) ) ;
#522 = CARTESIAN_POINT ( 'NONE',  ( 52.49999999999997868, 1.000000000000000888, -15.60000000000001030 ) ) ;
#523 = AXIS2_PLACEMENT_3D ( 'NONE', #515, #338, #473 ) ;
#524 = CARTESIAN_POINT ( 'NONE',  ( 40.49999999999999289, 12.00000000000000000, 15.59999999999998543 ) ) ;
#525 = LINE ( 'NONE', #430, #16 ) ;
#526 = DIRECTION ( 'NONE',  ( 0.000000000000000000, 1.000000000000000000, 0.000000000000000000 ) ) ;
#527 = FACE_OUTER_BOUND ( 'NONE', #219, .T. ) ;
#528 = VERTEX_POINT ( 'NONE', #300 ) ;
#529 = CARTESIAN_POINT ( 'NONE',  ( -51.50000000000002132, 0.000000000000000000, -16.59999999999999432 ) ) ;
#530 = CARTESIAN_POINT ( 'NONE',  ( 52.49999999999999289, 23.00000000000000000, 16.59999999999999076 ) ) ;
#531 = ORIENTED_EDGE ( 'NONE', *, *, #542, .F. ) ;
#532 = VECTOR ( 'NONE', #40, 1000.000000000000000 ) ;
#533 = EDGE_CURVE ( 'NONE', #120, #347, #245, .T. ) ;
#534 = DIRECTION ( 'NONE',  ( 0.000000000000000000, 0.000000000000000000, 1.000000000000000000 ) ) ;
#535 = VECTOR ( 'NONE', #146, 1000.000000000000000 ) ;
#536 = DIRECTION ( 'NONE',  ( 0.000000000000000000, 0.000000000000000000, -1.000000000000000000 ) ) ;
#537 = ORIENTED_EDGE ( 'NONE', *, *, #263, .F. ) ;
#538 = LINE ( 'NONE', #529, #535 ) ;
#539 = CARTESIAN_POINT ( 'NONE',  ( -51.50000000000002132, 22.00000000000000000, -15.59999999999999254 ) ) ;
#540 = ORIENTED_EDGE ( 'NONE', *, *, #471, .T. ) ;
#541 = VERTEX_POINT ( 'NONE', #185 ) ;
#542 = EDGE_CURVE ( 'NONE', #210, #222, #600, .T. ) ;
#543 =( NAMED_UNIT ( * ) PLANE_ANGLE_UNIT ( ) SI_UNIT ( $, .RADIAN. ) );
#544 = CARTESIAN_POINT ( 'NONE',  ( 40.49999999999997868, 12.00000000000000000, -15.60000000000000853 ) ) ;
#545 = CIRCLE ( 'NONE', #149, 10.99999999999999645 ) ;
#546 = AXIS2_PLACEMENT_3D ( 'NONE', #474, #612, #614 ) ;
#547 = ORIENTED_EDGE ( 'NONE', *, *, #309, .F. ) ;
#548 = FACE_OUTER_BOUND ( 'NONE', #297, .T. ) ;
#549 = VERTEX_POINT ( 'NONE', #254 ) ;
#550 = CARTESIAN_POINT ( 'NONE',  ( -51.50000000000002132, 23.00000000000000000, 15.60000000000000320 ) ) ;
#551 = ORIENTED_EDGE ( 'NONE', *, *, #344, .F. ) ;
#552 = SURFACE_STYLE_FILL_AREA ( #10 ) ;
#553 = ORIENTED_EDGE ( 'NONE', *, *, #64, .F. ) ;
#554 = FACE_OUTER_BOUND ( 'NONE', #65, .T. ) ;
#555 = ORIENTED_EDGE ( 'NONE', *, *, #228, .F. ) ;
#556 = DIRECTION ( 'NONE',  ( -0.000000000000000000, 1.000000000000000000, -0.000000000000000000 ) ) ;
#557 = CARTESIAN_POINT ( 'NONE',  ( 52.36309850022890799, 11.49999999999999645, -16.10393255680324742 ) ) ;
#558 = CYLINDRICAL_SURFACE ( 'NONE', #565, 11.99999999999999645 ) ;
#559 = DIRECTION ( 'NONE',  ( -0.000000000000000000, -0.000000000000000000, -1.000000000000000000 ) ) ;
#560 = CLOSED_SHELL ( 'NONE', ( #491, #212, #380, #204, #106, #621, #317, #463, #251, #577, #340, #289, #121, #291, #12, #240, #211, #176, #184, #94, #86, #568, #145 ) ) ;
#561 = PRODUCT_DEFINITION ( 'UNKNOWN', '', #15, #284 ) ;
#562 = VECTOR ( 'NONE', #479, 1000.000000000000000 ) ;
#563 = ORIENTED_EDGE ( 'NONE', *, *, #358, .T. ) ;
#564 = VECTOR ( 'NONE', #595, 1000.000000000000000 ) ;
#565 = AXIS2_PLACEMENT_3D ( 'NONE', #469, #27, #130 ) ;
#566 = CARTESIAN_POINT ( 'NONE',  ( -52.50000000000002132, 1.000000000000000888, -16.59999999999999432 ) ) ;
#567 = CARTESIAN_POINT ( 'NONE',  ( 0.000000000000000000, 0.000000000000000000, 0.000000000000000000 ) ) ;
#568 = ADVANCED_FACE ( 'NONE', ( #306 ), #260, .T. ) ;
#569 = CARTESIAN_POINT ( 'NONE',  ( 40.49999999999999289, 22.00000000000000000, 15.59999999999998899 ) ) ;
#570 = FACE_OUTER_BOUND ( 'NONE', #111, .T. ) ;
#571 = DIRECTION ( 'NONE',  ( 1.000000000000000000, 0.000000000000000000, -1.321694076934710155E-16 ) ) ;
#572 = AXIS2_PLACEMENT_3D ( 'NONE', #401, #573, #483 ) ;
#573 = DIRECTION ( 'NONE',  ( 1.652117596168388002E-16, -0.000000000000000000, 1.000000000000000000 ) ) ;
#574 = EDGE_LOOP ( 'NONE', ( #319, #261, #343, #503 ) ) ;
#575 = FACE_OUTER_BOUND ( 'NONE', #192, .T. ) ;
#576 = DIRECTION ( 'NONE',  ( 0.000000000000000000, -1.000000000000000000, 0.000000000000000000 ) ) ;
#577 = ADVANCED_FACE ( 'NONE', ( #392 ), #39, .T. ) ;
#578 = ORIENTED_EDGE ( 'NONE', *, *, #598, .F. ) ;
#579 = CARTESIAN_POINT ( 'NONE',  ( -52.50000000000001421, 1.000000000000000888, 16.60000000000000142 ) ) ;
#580 = DIRECTION ( 'NONE',  ( 6.018531076210100830E-30, 1.000000000000000000, -8.673617379884027583E-16 ) ) ;
#581 = ORIENTED_EDGE ( 'NONE', *, *, #54, .F. ) ;
#582 = LINE ( 'NONE', #579, #101 ) ;
#583 = SPHERICAL_SURFACE ( 'NONE', #467, 1.000000000000000000 ) ;
#584 = ORIENTED_EDGE ( 'NONE', *, *, #606, .F. ) ;
#585 = DIRECTION ( 'NONE',  ( 0.000000000000000000, 0.000000000000000000, 1.000000000000000000 ) ) ;
#586 = ORIENTED_EDGE ( 'NONE', *, *, #280, .T. ) ;
#587 = DIRECTION ( 'NONE',  ( 1.000000000000000000, 0.000000000000000000, 0.000000000000000000 ) ) ;
#588 = ORIENTED_EDGE ( 'NONE', *, *, #228, .T. ) ;
#589 = CIRCLE ( 'NONE', #327, 11.00000000000000000 ) ;
#590 = DIRECTION ( 'NONE',  ( 0.000000000000000000, -1.000000000000000000, 0.000000000000000000 ) ) ;
#591 = AXIS2_PLACEMENT_3D ( 'NONE', #386, #447, #399 ) ;
#592 = ORIENTED_EDGE ( 'NONE', *, *, #398, .F. ) ;
#593 = DIRECTION ( 'NONE',  ( 0.000000000000000000, 1.000000000000000000, -0.000000000000000000 ) ) ;
#594 = ORIENTED_EDGE ( 'NONE', *, *, #344, .T. ) ;
#595 = DIRECTION ( 'NONE',  ( -1.000000000000000000, -0.000000000000000000, 1.321694076934710155E-16 ) ) ;
#596 = VERTEX_POINT ( 'NONE', #257 ) ;
#597 = PRODUCT_RELATED_PRODUCT_CATEGORY ( 'part', '', ( #208 ) ) ;
#598 = EDGE_CURVE ( 'NONE', #359, #216, #374, .T. ) ;
#599 = FACE_OUTER_BOUND ( 'NONE', #168, .T. ) ;
#600 = CIRCLE ( 'NONE', #311, 1.000000000000000888 ) ;
#601 = ORIENTED_EDGE ( 'NONE', *, *, #66, .T. ) ;
#602 = MECHANICAL_DESIGN_GEOMETRIC_PRESENTATION_REPRESENTATION (  '', ( #262 ), #419 ) ;
#603 = CARTESIAN_POINT ( 'NONE',  ( -52.50000000000001421, 23.00000000000000000, 15.59999999999999964 ) ) ;
#604 = DIRECTION ( 'NONE',  ( 1.000000000000000000, 0.000000000000000000, 0.000000000000000000 ) ) ;
#605 = CARTESIAN_POINT ( 'NONE',  ( 40.49999999999999289, 0.000000000000000000, 15.59999999999999076 ) ) ;
#606 = EDGE_CURVE ( 'NONE', #88, #347, #202, .T. ) ;
#607 = LINE ( 'NONE', #286, #437 ) ;
#608 = B_SPLINE_CURVE_WITH_KNOTS ( 'NONE', 3,
 ( #25, #384, #379, #557, #292, #373, #465, #227, #128, #80 ),
 .UNSPECIFIED., .F., .F.,
 ( 4, 2, 2, 2, 4 ),
 ( 0.000000000000000000, 0.0003907432661187902351, 0.0007814865322375804703, 0.001172229798356370705, 0.001562973064475160941 ),
 .UNSPECIFIED. ) ;
#609 = LINE ( 'NONE', #234, #477 ) ;
#610 = DIRECTION ( 'NONE',  ( -1.000000000000000000, 0.000000000000000000, 1.652117596168388002E-16 ) ) ;
#611 = AXIS2_PLACEMENT_3D ( 'NONE', #42, #436, #395 ) ;
#612 = DIRECTION ( 'NONE',  ( -1.321694076934710155E-16, 0.000000000000000000, -1.000000000000000000 ) ) ;
#613 = DIRECTION ( 'NONE',  ( 1.652117596168390961E-16, 0.000000000000000000, 1.000000000000000000 ) ) ;
#614 = DIRECTION ( 'NONE',  ( -1.000000000000000000, 0.000000000000000000, 1.445602896647339163E-16 ) ) ;
#615 = CARTESIAN_POINT ( 'NONE',  ( 40.49999999999999289, 23.00000000000000000, 15.59999999999999076 ) ) ;
#616 = EDGE_CURVE ( 'NONE', #312, #314, #181, .T. ) ;
#617 = CARTESIAN_POINT ( 'NONE',  ( 40.49999999999998579, 11.00000000000000000, -1.692922910290618896E-14 ) ) ;
#618 = EDGE_LOOP ( 'NONE', ( #594, #364, #305, #195 ) ) ;
#619 = AXIS2_PLACEMENT_3D ( 'NONE', #522, #335, #233 ) ;
#620 = AXIS2_PLACEMENT_3D ( 'NONE', #432, #322, #77 ) ;
#621 = ADVANCED_FACE ( 'NONE', ( #575 ), #293, .T. ) ;
#622 = PLANE ( 'NONE',  #460 ) ;
#623 = ORIENTED_EDGE ( 'NONE', *, *, #496, .T. ) ;
#624 = FACE_OUTER_BOUND ( 'NONE', #144, .T. ) ;
ENDSEC;
END-ISO-10303-21;
