ISO-10303-21;
HEADER;
FILE_DESCRIPTION (( 'STEP AP214' ),
    '1' );
FILE_NAME ('BASSE DE SISTEMA DE TRANSMISION DE STEELBOT  CORTO.STEP',
    '2026-07-08T20:22:09',
    ( '' ),
    ( '' ),
    'SwSTEP 2.0',
    'SolidWorks 2026',
    '' );
FILE_SCHEMA (( 'AUTOMOTIVE_DESIGN' ));
ENDSEC;

DATA;
#1 = LINE ( 'NONE', #253, #1107 ) ;
#2 = EDGE_CURVE ( 'NONE', #1092, #712, #426, .T. ) ;
#3 = LINE ( 'NONE', #192, #270 ) ;
#4 = ADVANCED_FACE ( 'NONE', ( #682 ), #149, .T. ) ;
#5 = ORIENTED_EDGE ( 'NONE', *, *, #408, .F. ) ;
#6 = LINE ( 'NONE', #723, #556 ) ;
#7 = EDGE_CURVE ( 'NONE', #779, #193, #593, .T. ) ;
#8 = CARTESIAN_POINT ( 'NONE',  ( -1.000000000000000444, 79.00000000000000000, -0.7500000000000002220 ) ) ;
#9 = CIRCLE ( 'NONE', #924, 0.2500000000000000000 ) ;
#10 = PLANE ( 'NONE',  #496 ) ;
#11 = CARTESIAN_POINT ( 'NONE',  ( 0.7499999999999997780, 79.00000000000000000, 0.7499999999999998890 ) ) ;
#12 = VERTEX_POINT ( 'NONE', #52 ) ;
#13 = DIRECTION ( 'NONE',  ( -0.000000000000000000, -1.000000000000000000, -0.000000000000000000 ) ) ;
#14 = CYLINDRICAL_SURFACE ( 'NONE', #1065, 0.2500000000000002220 ) ;
#15 = DIRECTION ( 'NONE',  ( 1.000000000000000000, 0.000000000000000000, 0.000000000000000000 ) ) ;
#16 = VERTEX_POINT ( 'NONE', #1041 ) ;
#17 = ADVANCED_FACE ( 'NONE', ( #333 ), #698, .F. ) ;
#18 = DIRECTION ( 'NONE',  ( -0.000000000000000000, -1.000000000000000000, -0.000000000000000000 ) ) ;
#19 = SURFACE_SIDE_STYLE ('',( #818 ) ) ;
#20 = CARTESIAN_POINT ( 'NONE',  ( -0.5000000000000001110, 0.2500000000000002220, 2.250000000000000444 ) ) ;
#21 =( LENGTH_UNIT ( ) NAMED_UNIT ( * ) SI_UNIT ( .MILLI., .METRE. ) );
#22 = EDGE_LOOP ( 'NONE', ( #976, #299, #483, #1011 ) ) ;
#23 = CYLINDRICAL_SURFACE ( 'NONE', #653, 0.7500000000000001110 ) ;
#24 = FACE_OUTER_BOUND ( 'NONE', #685, .T. ) ;
#25 = AXIS2_PLACEMENT_3D ( 'NONE', #1071, #1047, #1141 ) ;
#26 = LINE ( 'NONE', #38, #972 ) ;
#27 = ORIENTED_EDGE ( 'NONE', *, *, #559, .T. ) ;
#28 = CARTESIAN_POINT ( 'NONE',  ( 0.7499999999999997780, 0.000000000000000000, 0.7499999999999998890 ) ) ;
#29 = AXIS2_PLACEMENT_3D ( 'NONE', #81, #1145, #352 ) ;
#30 = LINE ( 'NONE', #1006, #177 ) ;
#31 = AXIS2_PLACEMENT_3D ( 'NONE', #11, #432, #1048 ) ;
#32 = ADVANCED_FACE ( 'NONE', ( #858 ), #341, .T. ) ;
#33 = ORIENTED_EDGE ( 'NONE', *, *, #1119, .F. ) ;
#34 = CARTESIAN_POINT ( 'NONE',  ( 0.7500000000000000000, 79.00000000000000000, 2.000000000000000000 ) ) ;
#35 = ORIENTED_EDGE ( 'NONE', *, *, #1075, .F. ) ;
#36 = PRODUCT_RELATED_PRODUCT_CATEGORY ( 'part', '', ( #1085 ) ) ;
#37 = ADVANCED_FACE ( 'NONE', ( #767, #882 ), #889, .F. ) ;
#38 = CARTESIAN_POINT ( 'NONE',  ( 2.250000000000000000, 79.00000000000000000, 0.4999999999999998890 ) ) ;
#39 = EDGE_CURVE ( 'NONE', #880, #950, #535, .T. ) ;
#40 = VERTEX_POINT ( 'NONE', #627 ) ;
#41 = DIRECTION ( 'NONE',  ( 0.000000000000000000, 0.000000000000000000, 1.000000000000000000 ) ) ;
#42 = ORIENTED_EDGE ( 'NONE', *, *, #660, .F. ) ;
#43 =( BOUNDED_CURVE ( )  B_SPLINE_CURVE ( 3, ( #390, #203, #218, #928 ),
 .UNSPECIFIED., .F., .F. ) 
 B_SPLINE_CURVE_WITH_KNOTS ( ( 4, 4 ),
 ( 3.141592653589793116, 4.712388980384689674 ),
 .UNSPECIFIED. ) 
 CURVE ( )  GEOMETRIC_REPRESENTATION_ITEM ( )  RATIONAL_B_SPLINE_CURVE ( ( 1.000000000000000000, 0.8047378541243649375, 0.8047378541243649375, 1.000000000000000000 ) ) 
 REPRESENTATION_ITEM ( '' )  );
#44 = FACE_OUTER_BOUND ( 'NONE', #139, .T. ) ;
#45 = EDGE_CURVE ( 'NONE', #16, #388, #166, .T. ) ;
#46 = EDGE_LOOP ( 'NONE', ( #1089, #987, #922, #370 ) ) ;
#47 = CARTESIAN_POINT ( 'NONE',  ( -0.5000000000000005551, 78.75000000000000000, -2.249999999999999556 ) ) ;
#48 = ORIENTED_EDGE ( 'NONE', *, *, #61, .T. ) ;
#49 = AXIS2_PLACEMENT_3D ( 'NONE', #65, #848, #406 ) ;
#50 = DIRECTION ( 'NONE',  ( 0.000000000000000000, 0.000000000000000000, 1.000000000000000000 ) ) ;
#51 = VECTOR ( 'NONE', #92, 1000.000000000000000 ) ;
#52 = CARTESIAN_POINT ( 'NONE',  ( -2.000000000000000000, 0.000000000000000000, 0.7499999999999998890 ) ) ;
#53 = PLANE ( 'NONE',  #49 ) ;
#54 = ORIENTED_EDGE ( 'NONE', *, *, #397, .F. ) ;
#55 = EDGE_CURVE ( 'NONE', #721, #1098, #361, .T. ) ;
#56 = SHAPE_DEFINITION_REPRESENTATION ( #375, #651 ) ;
#57 = DIRECTION ( 'NONE',  ( 0.000000000000000000, 0.000000000000000000, -1.000000000000000000 ) ) ;
#58 = ORIENTED_EDGE ( 'NONE', *, *, #244, .T. ) ;
#59 = CARTESIAN_POINT ( 'NONE',  ( 2.250000000000000000, 78.75000000000000000, -0.5000000000000001110 ) ) ;
#60 = EDGE_LOOP ( 'NONE', ( #305, #1043, #33, #885 ) ) ;
#61 = EDGE_CURVE ( 'NONE', #405, #572, #411, .T. ) ;
#62 = DIRECTION ( 'NONE',  ( 0.000000000000000000, 0.000000000000000000, 1.000000000000000000 ) ) ;
#63 = EDGE_LOOP ( 'NONE', ( #959, #519, #437, #5 ) ) ;
#64 = AXIS2_PLACEMENT_3D ( 'NONE', #510, #863, #1135 ) ;
#65 = CARTESIAN_POINT ( 'NONE',  ( -0.7500000000000005551, 79.00000000000000000, -2.249999999999999556 ) ) ;
#66 = EDGE_LOOP ( 'NONE', ( #225, #231, #422, #335 ) ) ;
#67 = VECTOR ( 'NONE', #491, 1000.000000000000000 ) ;
#68 = VECTOR ( 'NONE', #564, 1000.000000000000000 ) ;
#69 = ADVANCED_FACE ( 'NONE', ( #435 ), #527, .F. ) ;
#70 = CARTESIAN_POINT ( 'NONE',  ( -0.7500000000000001110, 0.2500000000000002220, 2.000000000000000000 ) ) ;
#71 = ORIENTED_EDGE ( 'NONE', *, *, #2, .T. ) ;
#72 = CARTESIAN_POINT ( 'NONE',  ( 0.7499999999999994449, 0.000000000000000000, -1.999999999999999112 ) ) ;
#73 = VERTEX_POINT ( 'NONE', #255 ) ;
#74 = CARTESIAN_POINT ( 'NONE',  ( 2.000000000000000000, 0.000000000000000000, -0.7500000000000001110 ) ) ;
#75 = ORIENTED_EDGE ( 'NONE', *, *, #245, .T. ) ;
#76 = ORIENTED_EDGE ( 'NONE', *, *, #990, .T. ) ;
#77 = PLANE ( 'NONE',  #159 ) ;
#78 = CARTESIAN_POINT ( 'NONE',  ( 2.250000000000000000, 0.2500000000000002220, -0.5000000000000001110 ) ) ;
#79 = EDGE_CURVE ( 'NONE', #513, #1098, #541, .T. ) ;
#80 = ORIENTED_EDGE ( 'NONE', *, *, #138, .F. ) ;
#81 = CARTESIAN_POINT ( 'NONE',  ( -2.000000000000000000, 78.75000000000000000, 0.000000000000000000 ) ) ;
#82 = CARTESIAN_POINT ( 'NONE',  ( 0.000000000000000000, 79.00000000000000000, 0.000000000000000000 ) ) ;
#83 = DIRECTION ( 'NONE',  ( 0.000000000000000000, 1.000000000000000000, 0.000000000000000000 ) ) ;
#84 = AXIS2_PLACEMENT_3D ( 'NONE', #573, #382, #395 ) ;
#85 = DIRECTION ( 'NONE',  ( 0.000000000000000000, 0.000000000000000000, -1.000000000000000000 ) ) ;
#86 = EDGE_LOOP ( 'NONE', ( #118, #1124, #106, #764 ) ) ;
#87 = VECTOR ( 'NONE', #800, 1000.000000000000000 ) ;
#88 = LINE ( 'NONE', #293, #440 ) ;
#89 = EDGE_CURVE ( 'NONE', #981, #323, #1064, .T. ) ;
#90 = DIRECTION ( 'NONE',  ( 0.000000000000000000, -1.000000000000000000, 0.000000000000000000 ) ) ;
#91 = CARTESIAN_POINT ( 'NONE',  ( 0.9999999999999997780, 79.00000000000000000, -0.7500000000000002220 ) ) ;
#92 = DIRECTION ( 'NONE',  ( -1.445602896647340149E-16, -0.000000000000000000, -1.000000000000000000 ) ) ;
#93 = ORIENTED_EDGE ( 'NONE', *, *, #587, .T. ) ;
#94 = EDGE_CURVE ( 'NONE', #548, #209, #3, .T. ) ;
#95 = FACE_OUTER_BOUND ( 'NONE', #86, .T. ) ;
#96 = DIRECTION ( 'NONE',  ( 0.000000000000000000, 0.000000000000000000, -1.000000000000000000 ) ) ;
#97 = CARTESIAN_POINT ( 'NONE',  ( 0.000000000000000000, 74.00000000000000000, 0.000000000000000000 ) ) ;
#98 = CARTESIAN_POINT ( 'NONE',  ( 0.7499999999999998890, 79.00000000000000000, 1.000000000000000000 ) ) ;
#99 = ORIENTED_EDGE ( 'NONE', *, *, #988, .T. ) ;
#100 = DIRECTION ( 'NONE',  ( -0.000000000000000000, 1.000000000000000000, -0.000000000000000000 ) ) ;
#101 = AXIS2_PLACEMENT_3D ( 'NONE', #97, #639, #186 ) ;
#102 = FACE_OUTER_BOUND ( 'NONE', #22, .T. ) ;
#103 = EDGE_CURVE ( 'NONE', #950, #131, #105, .T. ) ;
#104 = AXIS2_PLACEMENT_3D ( 'NONE', #1046, #979, #259 ) ;
#105 = LINE ( 'NONE', #967, #291 ) ;
#106 = ORIENTED_EDGE ( 'NONE', *, *, #616, .T. ) ;
#107 = DIRECTION ( 'NONE',  ( 0.000000000000000000, 0.000000000000000000, -1.000000000000000000 ) ) ;
#108 = VECTOR ( 'NONE', #132, 1000.000000000000000 ) ;
#109 = DIRECTION ( 'NONE',  ( 0.000000000000000000, 0.000000000000000000, -1.000000000000000000 ) ) ;
#110 = EDGE_CURVE ( 'NONE', #16, #670, #809, .T. ) ;
#111 = CARTESIAN_POINT ( 'NONE',  ( 0.9999999999999997780, 0.000000000000000000, -1.000000000000000222 ) ) ;
#112 = DIRECTION ( 'NONE',  ( 0.000000000000000000, 0.000000000000000000, 1.000000000000000000 ) ) ;
#113 = ORIENTED_EDGE ( 'NONE', *, *, #221, .F. ) ;
#114 = EDGE_CURVE ( 'NONE', #376, #212, #1082, .T. ) ;
#115 = CARTESIAN_POINT ( 'NONE',  ( -2.146446609406726047, 2.531160059757831124E-16, -0.7500000000000000000 ) ) ;
#116 = CARTESIAN_POINT ( 'NONE',  ( -2.000000000000000000, 0.000000000000000000, 0.7499999999999998890 ) ) ;
#117 = CARTESIAN_POINT ( 'NONE',  ( 0.000000000000000000, 5.000000000000000000, 0.000000000000000000 ) ) ;
#118 = ORIENTED_EDGE ( 'NONE', *, *, #152, .T. ) ;
#119 = ADVANCED_FACE ( 'NONE', ( #1148 ), #10, .F. ) ;
#120 = LINE ( 'NONE', #745, #233 ) ;
#121 = ORIENTED_EDGE ( 'NONE', *, *, #110, .F. ) ;
#122 = CARTESIAN_POINT ( 'NONE',  ( -0.5000000000000001110, 78.75000000000000000, 2.250000000000000444 ) ) ;
#123 = CARTESIAN_POINT ( 'NONE',  ( -2.250000000000000000, 78.75000000000000000, -0.5000000000000001110 ) ) ;
#124 = VECTOR ( 'NONE', #1023, 1000.000000000000000 ) ;
#125 = ORIENTED_EDGE ( 'NONE', *, *, #289, .T. ) ;
#126 = CARTESIAN_POINT ( 'NONE',  ( -2.250000000000000000, 78.75000000000000000, -0.5000000000000001110 ) ) ;
#127 = ORIENTED_EDGE ( 'NONE', *, *, #643, .T. ) ;
#128 = AXIS2_PLACEMENT_3D ( 'NONE', #1073, #523, #279 ) ;
#129 = ADVANCED_FACE ( 'NONE', ( #444 ), #369, .F. ) ;
#130 = CARTESIAN_POINT ( 'NONE',  ( -0.7500000000000002220, 79.00000000000000000, -2.146446609406725159 ) ) ;
#131 = VERTEX_POINT ( 'NONE', #464 ) ;
#132 = DIRECTION ( 'NONE',  ( 0.000000000000000000, -1.000000000000000000, 0.000000000000000000 ) ) ;
#133 = ORIENTED_EDGE ( 'NONE', *, *, #289, .F. ) ;
#134 = CARTESIAN_POINT ( 'NONE',  ( 0.000000000000000000, 5.000000000000000000, 0.000000000000000000 ) ) ;
#135 = ORIENTED_EDGE ( 'NONE', *, *, #528, .T. ) ;
#136 = CARTESIAN_POINT ( 'NONE',  ( 2.146446609406726047, 79.00000000000000000, -0.7500000000000000000 ) ) ;
#137 = CARTESIAN_POINT ( 'NONE',  ( 0.9999999999999997780, 79.00000000000000000, -0.7500000000000002220 ) ) ;
#138 = EDGE_CURVE ( 'NONE', #998, #619, #278, .T. ) ;
#139 = EDGE_LOOP ( 'NONE', ( #188, #839, #902, #1000 ) ) ;
#140 = VECTOR ( 'NONE', #599, 1000.000000000000000 ) ;
#141 = VECTOR ( 'NONE', #714, 1000.000000000000000 ) ;
#142 = FACE_OUTER_BOUND ( 'NONE', #1033, .T. ) ;
#143 = CARTESIAN_POINT ( 'NONE',  ( -2.000000000000000000, 0.2500000000000002220, -0.7500000000000001110 ) ) ;
#144 = DIRECTION ( 'NONE',  ( 1.000000000000000000, 0.000000000000000000, -7.228014483236698281E-17 ) ) ;
#145 = ORIENTED_EDGE ( 'NONE', *, *, #138, .T. ) ;
#146 = DIRECTION ( 'NONE',  ( 0.000000000000000000, 0.000000000000000000, -1.000000000000000000 ) ) ;
#147 = ORIENTED_EDGE ( 'NONE', *, *, #326, .F. ) ;
#148 = LINE ( 'NONE', #410, #124 ) ;
#149 = CYLINDRICAL_SURFACE ( 'NONE', #64, 0.2500000000000002220 ) ;
#150 = CARTESIAN_POINT ( 'NONE',  ( -0.7500000000000005551, 79.00000000000000000, -2.249999999999999556 ) ) ;
#151 = ORIENTED_EDGE ( 'NONE', *, *, #2, .F. ) ;
#152 = EDGE_CURVE ( 'NONE', #548, #193, #836, .T. ) ;
#153 = ORIENTED_EDGE ( 'NONE', *, *, #787, .T. ) ;
#154 = VECTOR ( 'NONE', #412, 1000.000000000000000 ) ;
#155 = CARTESIAN_POINT ( 'NONE',  ( 2.000000000000000000, 79.00000000000000000, -0.7500000000000001110 ) ) ;
#156 = EDGE_LOOP ( 'NONE', ( #656, #1137, #865, #1144 ) ) ;
#157 = VECTOR ( 'NONE', #1036, 1000.000000000000000 ) ;
#158 = EDGE_CURVE ( 'NONE', #12, #998, #905, .T. ) ;
#159 = AXIS2_PLACEMENT_3D ( 'NONE', #621, #1070, #894 ) ;
#160 = DIRECTION ( 'NONE',  ( 0.000000000000000000, -1.000000000000000000, 0.000000000000000000 ) ) ;
#161 = EDGE_CURVE ( 'NONE', #73, #206, #525, .T. ) ;
#162 = CARTESIAN_POINT ( 'NONE',  ( -2.250000000000000000, 0.000000000000000000, -0.7500000000000001110 ) ) ;
#163 = DIRECTION ( 'NONE',  ( -0.000000000000000000, 1.000000000000000000, -0.000000000000000000 ) ) ;
#164 = EDGE_LOOP ( 'NONE', ( #54, #1150, #677, #918 ) ) ;
#165 = FACE_OUTER_BOUND ( 'NONE', #257, .T. ) ;
#166 = LINE ( 'NONE', #973, #810 ) ;
#167 = LINE ( 'NONE', #445, #87 ) ;
#168 = VERTEX_POINT ( 'NONE', #309 ) ;
#169 = DIRECTION ( 'NONE',  ( -2.168404344971008375E-16, -0.000000000000000000, -1.000000000000000000 ) ) ;
#170 = DIRECTION ( 'NONE',  ( 0.000000000000000000, 0.000000000000000000, -1.000000000000000000 ) ) ;
#171 = DIRECTION ( 'NONE',  ( 1.000000000000000000, 0.000000000000000000, 0.000000000000000000 ) ) ;
#172 = EDGE_CURVE ( 'NONE', #417, #938, #379, .T. ) ;
#173 = CARTESIAN_POINT ( 'NONE',  ( -1.000000000000000444, 0.000000000000000000, -0.7500000000000002220 ) ) ;
#174 = ORIENTED_EDGE ( 'NONE', *, *, #316, .F. ) ;
#175 = CYLINDRICAL_SURFACE ( 'NONE', #652, 0.7500000000000001110 ) ;
#176 = AXIS2_PLACEMENT_3D ( 'NONE', #246, #503, #50 ) ;
#177 = VECTOR ( 'NONE', #210, 1000.000000000000000 ) ;
#178 = CARTESIAN_POINT ( 'NONE',  ( 2.000000000000000000, 0.000000000000000000, 0.7499999999999998890 ) ) ;
#179 = AXIS2_PLACEMENT_3D ( 'NONE', #189, #1076, #447 ) ;
#180 = CARTESIAN_POINT ( 'NONE',  ( 0.7499999999999997780, 79.00000000000000000, 0.7499999999999998890 ) ) ;
#181 = CIRCLE ( 'NONE', #443, 0.7500000000000001110 ) ;
#182 = CYLINDRICAL_SURFACE ( 'NONE', #128, 0.7500000000000001110 ) ;
#183 = ORIENTED_EDGE ( 'NONE', *, *, #906, .F. ) ;
#184 = DIRECTION ( 'NONE',  ( 0.000000000000000000, -1.000000000000000000, 0.000000000000000000 ) ) ;
#185 = CARTESIAN_POINT ( 'NONE',  ( 0.7500000000000000000, 0.000000000000000000, 2.000000000000000000 ) ) ;
#186 = DIRECTION ( 'NONE',  ( 0.000000000000000000, 0.000000000000000000, 1.000000000000000000 ) ) ;
#187 = CARTESIAN_POINT ( 'NONE',  ( 0.4999999999999994449, 78.75000000000000000, -2.249999999999999556 ) ) ;
#188 = ORIENTED_EDGE ( 'NONE', *, *, #391, .F. ) ;
#189 = CARTESIAN_POINT ( 'NONE',  ( 0.4999999999999994449, 79.00000000000000000, -1.999999999999999112 ) ) ;
#190 = EDGE_CURVE ( 'NONE', #1131, #40, #459, .T. ) ;
#191 = CARTESIAN_POINT ( 'NONE',  ( -2.000000000000000000, 79.00000000000000000, -0.7500000000000001110 ) ) ;
#192 = CARTESIAN_POINT ( 'NONE',  ( -0.5000000000000001110, 79.00000000000000000, 2.250000000000000444 ) ) ;
#193 = VERTEX_POINT ( 'NONE', #1007 ) ;
#194 = FACE_OUTER_BOUND ( 'NONE', #739, .T. ) ;
#195 = FACE_OUTER_BOUND ( 'NONE', #66, .T. ) ;
#196 = EDGE_LOOP ( 'NONE', ( #837, #829 ) ) ;
#197 = VECTOR ( 'NONE', #146, 1000.000000000000000 ) ;
#198 = CARTESIAN_POINT ( 'NONE',  ( -1.000000000000000444, 79.00000000000000000, -1.000000000000000000 ) ) ;
#199 = AXIS2_PLACEMENT_3D ( 'NONE', #143, #286, #765 ) ;
#200 = EDGE_CURVE ( 'NONE', #73, #243, #914, .T. ) ;
#201 = DIRECTION ( 'NONE',  ( 0.000000000000000000, -1.000000000000000000, -0.000000000000000000 ) ) ;
#202 = ORIENTED_EDGE ( 'NONE', *, *, #833, .T. ) ;
#203 = CARTESIAN_POINT ( 'NONE',  ( 0.7499999999999991118, 2.531160059757831124E-16, -2.146446609406725159 ) ) ;
#204 = ORIENTED_EDGE ( 'NONE', *, *, #55, .F. ) ;
#205 = FACE_OUTER_BOUND ( 'NONE', #929, .T. ) ;
#206 = VERTEX_POINT ( 'NONE', #571 ) ;
#207 = ADVANCED_FACE ( 'NONE', ( #736 ), #488, .T. ) ;
#208 = LINE ( 'NONE', #34, #108 ) ;
#209 = VERTEX_POINT ( 'NONE', #20 ) ;
#210 = DIRECTION ( 'NONE',  ( -0.000000000000000000, 0.000000000000000000, 1.000000000000000000 ) ) ;
#211 = VECTOR ( 'NONE', #726, 1000.000000000000000 ) ;
#212 = VERTEX_POINT ( 'NONE', #754 ) ;
#213 = EDGE_CURVE ( 'NONE', #209, #769, #658, .T. ) ;
#214 = DIRECTION ( 'NONE',  ( -0.000000000000000000, 1.000000000000000000, -0.000000000000000000 ) ) ;
#215 = VECTOR ( 'NONE', #495, 1000.000000000000000 ) ;
#216 = CYLINDRICAL_SURFACE ( 'NONE', #537, 0.7500000000000001110 ) ;
#217 = ORIENTED_EDGE ( 'NONE', *, *, #39, .T. ) ;
#218 = CARTESIAN_POINT ( 'NONE',  ( 0.6464466094067257140, 0.1035533905932739668, -2.249999999999999112 ) ) ;
#219 = ORIENTED_EDGE ( 'NONE', *, *, #528, .F. ) ;
#220 = ADVANCED_FACE ( 'NONE', ( #205 ), #835, .T. ) ;
#221 = EDGE_CURVE ( 'NONE', #700, #275, #26, .T. ) ;
#222 = CARTESIAN_POINT ( 'NONE',  ( 0.5000000000000000000, 78.75000000000000000, 2.250000000000000444 ) ) ;
#223 = ORIENTED_EDGE ( 'NONE', *, *, #499, .T. ) ;
#224 = DIRECTION ( 'NONE',  ( 0.000000000000000000, 0.000000000000000000, 1.000000000000000000 ) ) ;
#225 = ORIENTED_EDGE ( 'NONE', *, *, #283, .F. ) ;
#226 = DIRECTION ( 'NONE',  ( 1.000000000000000000, 0.000000000000000000, 0.000000000000000000 ) ) ;
#227 = AXIS2_PLACEMENT_3D ( 'NONE', #878, #1127, #1037 ) ;
#228 = CARTESIAN_POINT ( 'NONE',  ( -0.7500000000000005551, 79.00000000000000000, -2.249999999999999556 ) ) ;
#229 = VERTEX_POINT ( 'NONE', #997 ) ;
#230 = DIRECTION ( 'NONE',  ( 0.000000000000000000, 0.000000000000000000, 1.000000000000000000 ) ) ;
#231 = ORIENTED_EDGE ( 'NONE', *, *, #840, .T. ) ;
#232 = AXIS2_PLACEMENT_3D ( 'NONE', #1050, #184, #107 ) ;
#233 = VECTOR ( 'NONE', #478, 1000.000000000000000 ) ;
#234 = DIRECTION ( 'NONE',  ( 0.000000000000000000, 0.000000000000000000, -1.000000000000000000 ) ) ;
#235 = EDGE_LOOP ( 'NONE', ( #805, #538, #774, #1074, #579, #789, #1129, #330, #611, #27, #1014, #752, #948, #99, #328, #530 ) ) ;
#236 = DIRECTION ( 'NONE',  ( 1.000000000000000000, 0.000000000000000000, -7.228014483236694583E-17 ) ) ;
#237 = VERTEX_POINT ( 'NONE', #565 ) ;
#238 = CARTESIAN_POINT ( 'NONE',  ( -2.250000000000000000, 79.00000000000000000, 0.7499999999999998890 ) ) ;
#239 = PRODUCT_DEFINITION ( 'UNKNOWN', '', #1110, #734 ) ;
#240 =( BOUNDED_CURVE ( )  B_SPLINE_CURVE ( 3, ( #126, #288, #665, #649 ),
 .UNSPECIFIED., .F., .T. ) 
 B_SPLINE_CURVE_WITH_KNOTS ( ( 4, 4 ),
 ( 4.712388980384689674, 6.283185307179586232 ),
 .UNSPECIFIED. ) 
 CURVE ( )  GEOMETRIC_REPRESENTATION_ITEM ( )  RATIONAL_B_SPLINE_CURVE ( ( 1.000000000000000000, 0.8047378541243649375, 0.8047378541243649375, 1.000000000000000000 ) ) 
 REPRESENTATION_ITEM ( '' )  );
#241 = ORIENTED_EDGE ( 'NONE', *, *, #808, .T. ) ;
#242 = CARTESIAN_POINT ( 'NONE',  ( -1.000000000000000222, 79.00000000000000000, 1.000000000000000000 ) ) ;
#243 = VERTEX_POINT ( 'NONE', #123 ) ;
#244 = EDGE_CURVE ( 'NONE', #908, #1087, #770, .T. ) ;
#245 = EDGE_CURVE ( 'NONE', #880, #981, #250, .T. ) ;
#246 = CARTESIAN_POINT ( 'NONE',  ( 0.000000000000000000, 79.00000000000000000, 0.000000000000000000 ) ) ;
#247 = VECTOR ( 'NONE', #552, 1000.000000000000000 ) ;
#248 = ORIENTED_EDGE ( 'NONE', *, *, #846, .F. ) ;
#249 = DIRECTION ( 'NONE',  ( 7.228014483236700746E-17, 0.000000000000000000, 1.000000000000000000 ) ) ;
#250 = CIRCLE ( 'NONE', #1045, 0.2500000000000000000 ) ;
#251 = ORIENTED_EDGE ( 'NONE', *, *, #499, .F. ) ;
#252 = AXIS2_PLACEMENT_3D ( 'NONE', #371, #796, #1061 ) ;
#253 = CARTESIAN_POINT ( 'NONE',  ( -0.7500000000000002220, 0.000000000000000000, 0.7499999999999997780 ) ) ;
#254 = VECTOR ( 'NONE', #763, 1000.000000000000000 ) ;
#255 = CARTESIAN_POINT ( 'NONE',  ( -2.250000000000000000, 78.75000000000000000, 0.4999999999999998890 ) ) ;
#256 = CARTESIAN_POINT ( 'NONE',  ( 0.4999999999999994449, 0.2500000000000002220, -2.249999999999999556 ) ) ;
#257 = EDGE_LOOP ( 'NONE', ( #343, #80, #750, #42 ) ) ;
#258 = LINE ( 'NONE', #965, #558 ) ;
#259 = DIRECTION ( 'NONE',  ( 2.168404344971008375E-16, 0.000000000000000000, 1.000000000000000000 ) ) ;
#260 = ADVANCED_FACE ( 'NONE', ( #195 ), #216, .F. ) ;
#261 = CARTESIAN_POINT ( 'NONE',  ( -0.7500000000000000000, 79.00000000000000000, 2.146446609406726047 ) ) ;
#262 = CARTESIAN_POINT ( 'NONE',  ( 0.7499999999999996669, 79.00000000000000000, -1.000000000000000222 ) ) ;
#263 = ORIENTED_EDGE ( 'NONE', *, *, #1075, .T. ) ;
#264 = CARTESIAN_POINT ( 'NONE',  ( 9.184850993605150903E-17, 5.000000000000000000, 0.7500000000000001110 ) ) ;
#265 = CARTESIAN_POINT ( 'NONE',  ( 2.146446609406726047, 2.531160059757831124E-16, 0.7499999999999996669 ) ) ;
#266 = DIRECTION ( 'NONE',  ( 0.000000000000000000, 0.000000000000000000, 1.000000000000000000 ) ) ;
#267 = ORIENTED_EDGE ( 'NONE', *, *, #1057, .F. ) ;
#268 = CARTESIAN_POINT ( 'NONE',  ( -0.7500000000000002220, 79.00000000000000000, 1.000000000000000000 ) ) ;
#269 = VECTOR ( 'NONE', #160, 1000.000000000000000 ) ;
#270 = VECTOR ( 'NONE', #272, 1000.000000000000000 ) ;
#271 = CARTESIAN_POINT ( 'NONE',  ( 2.000000000000000000, 79.00000000000000000, 0.7499999999999998890 ) ) ;
#272 = DIRECTION ( 'NONE',  ( 0.000000000000000000, -1.000000000000000000, 0.000000000000000000 ) ) ;
#273 = ADVANCED_FACE ( 'NONE', ( #44 ), #1078, .T. ) ;
#274 = DIRECTION ( 'NONE',  ( 1.000000000000000000, -0.000000000000000000, 0.000000000000000000 ) ) ;
#275 = VERTEX_POINT ( 'NONE', #470 ) ;
#276 = DIRECTION ( 'NONE',  ( 0.000000000000000000, -1.000000000000000000, -0.000000000000000000 ) ) ;
#277 = PLANE ( 'NONE',  #104 ) ;
#278 = LINE ( 'NONE', #617, #247 ) ;
#279 = DIRECTION ( 'NONE',  ( 0.000000000000000000, 0.000000000000000000, 1.000000000000000000 ) ) ;
#280 = ORIENTED_EDGE ( 'NONE', *, *, #594, .F. ) ;
#281 = CARTESIAN_POINT ( 'NONE',  ( -2.250000000000000000, 79.00000000000000000, -0.5000000000000001110 ) ) ;
#282 =( BOUNDED_CURVE ( )  B_SPLINE_CURVE ( 3, ( #1151, #909, #452, #970 ),
 .UNSPECIFIED., .F., .T. ) 
 B_SPLINE_CURVE_WITH_KNOTS ( ( 4, 4 ),
 ( 3.141592653589793116, 4.712388980384689674 ),
 .UNSPECIFIED. ) 
 CURVE ( )  GEOMETRIC_REPRESENTATION_ITEM ( )  RATIONAL_B_SPLINE_CURVE ( ( 1.000000000000000000, 0.8047378541243649375, 0.8047378541243649375, 1.000000000000000000 ) ) 
 REPRESENTATION_ITEM ( '' )  );
#283 = EDGE_CURVE ( 'NONE', #670, #16, #888, .T. ) ;
#284 = CARTESIAN_POINT ( 'NONE',  ( 0.7499999999999997780, 0.000000000000000000, 0.7499999999999998890 ) ) ;
#285 = DIRECTION ( 'NONE',  ( 1.000000000000000000, 0.000000000000000000, -7.228014483236698281E-17 ) ) ;
#286 = DIRECTION ( 'NONE',  ( 0.000000000000000000, 0.000000000000000000, 1.000000000000000000 ) ) ;
#287 = ORIENTED_EDGE ( 'NONE', *, *, #244, .F. ) ;
#288 = CARTESIAN_POINT ( 'NONE',  ( -2.250000000000000000, 78.89644660940673759, -0.6464466094067262691 ) ) ;
#289 = EDGE_CURVE ( 'NONE', #419, #237, #775, .T. ) ;
#290 = VECTOR ( 'NONE', #521, 1000.000000000000000 ) ;
#291 = VECTOR ( 'NONE', #634, 1000.000000000000000 ) ;
#292 = ORIENTED_EDGE ( 'NONE', *, *, #906, .T. ) ;
#293 = CARTESIAN_POINT ( 'NONE',  ( -2.000000000000000000, 0.000000000000000000, 0.000000000000000000 ) ) ;
#294 = ORIENTED_EDGE ( 'NONE', *, *, #608, .T. ) ;
#295 = CARTESIAN_POINT ( 'NONE',  ( -0.5000000000000005551, 79.00000000000000000, -1.999999999999999112 ) ) ;
#296 = EDGE_CURVE ( 'NONE', #381, #388, #648, .T. ) ;
#297 = DIRECTION ( 'NONE',  ( 0.000000000000000000, -0.000000000000000000, -1.000000000000000000 ) ) ;
#298 = ADVANCED_FACE ( 'NONE', ( #697 ), #1040, .F. ) ;
#299 = ORIENTED_EDGE ( 'NONE', *, *, #988, .F. ) ;
#300 = FACE_OUTER_BOUND ( 'NONE', #993, .T. ) ;
#301 = ORIENTED_EDGE ( 'NONE', *, *, #755, .T. ) ;
#302 = DIRECTION ( 'NONE',  ( 0.000000000000000000, 0.000000000000000000, 1.000000000000000000 ) ) ;
#303 = EDGE_CURVE ( 'NONE', #1094, #405, #148, .T. ) ;
#304 = DIRECTION ( 'NONE',  ( 0.000000000000000000, 1.000000000000000000, 0.000000000000000000 ) ) ;
#305 = ORIENTED_EDGE ( 'NONE', *, *, #413, .T. ) ;
#306 = DIRECTION ( 'NONE',  ( 0.000000000000000000, 1.000000000000000000, 0.000000000000000000 ) ) ;
#307 = VERTEX_POINT ( 'NONE', #868 ) ;
#308 = VECTOR ( 'NONE', #15, 1000.000000000000000 ) ;
#309 = CARTESIAN_POINT ( 'NONE',  ( 0.7500000000000000000, 79.00000000000000000, 2.000000000000000000 ) ) ;
#310 = AXIS2_PLACEMENT_3D ( 'NONE', #637, #642, #624 ) ;
#311 = ORIENTED_EDGE ( 'NONE', *, *, #716, .F. ) ;
#312 = EDGE_CURVE ( 'NONE', #237, #419, #702, .T. ) ;
#313 = LINE ( 'NONE', #672, #484 ) ;
#314 = ORIENTED_EDGE ( 'NONE', *, *, #1009, .T. ) ;
#315 = CIRCLE ( 'NONE', #834, 0.2500000000000000000 ) ;
#316 = EDGE_CURVE ( 'NONE', #908, #927, #609, .T. ) ;
#317 = FACE_OUTER_BOUND ( 'NONE', #325, .T. ) ;
#318 = ORIENTED_EDGE ( 'NONE', *, *, #915, .F. ) ;
#319 = CARTESIAN_POINT ( 'NONE',  ( -2.250000000000000000, 0.2500000000000002220, -0.5000000000000001110 ) ) ;
#320 = EDGE_CURVE ( 'NONE', #206, #619, #1019, .T. ) ;
#321 = ORIENTED_EDGE ( 'NONE', *, *, #103, .F. ) ;
#322 = DIRECTION ( 'NONE',  ( 0.000000000000000000, 0.000000000000000000, -1.000000000000000000 ) ) ;
#323 = VERTEX_POINT ( 'NONE', #137 ) ;
#324 = CARTESIAN_POINT ( 'NONE',  ( 0.000000000000000000, 0.000000000000000000, -1.999999999999999112 ) ) ;
#325 = EDGE_LOOP ( 'NONE', ( #952, #756, #691, #219 ) ) ;
#326 = EDGE_CURVE ( 'NONE', #1092, #417, #9, .T. ) ;
#327 = DIRECTION ( 'NONE',  ( -1.000000000000000000, -0.000000000000000000, -7.228014483236695816E-17 ) ) ;
#328 = ORIENTED_EDGE ( 'NONE', *, *, #680, .T. ) ;
#329 = LINE ( 'NONE', #872, #197 ) ;
#330 = ORIENTED_EDGE ( 'NONE', *, *, #861, .T. ) ;
#331 = VECTOR ( 'NONE', #975, 1000.000000000000000 ) ;
#332 = PLANE ( 'NONE',  #610 ) ;
#333 = FACE_OUTER_BOUND ( 'NONE', #614, .T. ) ;
#334 = PLANE ( 'NONE',  #520 ) ;
#335 = ORIENTED_EDGE ( 'NONE', *, *, #45, .F. ) ;
#336 = FACE_OUTER_BOUND ( 'NONE', #164, .T. ) ;
#337 = ORIENTED_EDGE ( 'NONE', *, *, #316, .T. ) ;
#338 = DIRECTION ( 'NONE',  ( 0.000000000000000000, -1.000000000000000000, 0.000000000000000000 ) ) ;
#339 = ORIENTED_EDGE ( 'NONE', *, *, #368, .T. ) ;
#340 = CARTESIAN_POINT ( 'NONE',  ( 0.000000000000000000, 79.00000000000000000, 0.7500000000000001110 ) ) ;
#341 = CYLINDRICAL_SURFACE ( 'NONE', #363, 0.2500000000000002220 ) ;
#342 = CARTESIAN_POINT ( 'NONE',  ( -1.000000000000000444, 0.000000000000000000, -0.7500000000000002220 ) ) ;
#343 = ORIENTED_EDGE ( 'NONE', *, *, #919, .F. ) ;
#344 = ADVANCED_FACE ( 'NONE', ( #317 ), #1109, .T. ) ;
#345 = CYLINDRICAL_SURFACE ( 'NONE', #252, 0.2500000000000000000 ) ;
#346 = EDGE_CURVE ( 'NONE', #131, #1087, #1028, .T. ) ;
#347 = CARTESIAN_POINT ( 'NONE',  ( 0.7499999999999996669, 0.000000000000000000, -1.000000000000000222 ) ) ;
#348 = AXIS2_PLACEMENT_3D ( 'NONE', #1136, #85, #450 ) ;
#349 = CARTESIAN_POINT ( 'NONE',  ( -0.5000000000000001110, 78.75000000000000000, 2.250000000000000444 ) ) ;
#350 = PLANE ( 'NONE',  #31 ) ;
#351 = VERTEX_POINT ( 'NONE', #222 ) ;
#352 = DIRECTION ( 'NONE',  ( -1.000000000000000000, 0.000000000000000000, 0.000000000000000000 ) ) ;
#353 = CYLINDRICAL_SURFACE ( 'NONE', #907, 0.2500000000000000000 ) ;
#354 = EDGE_CURVE ( 'NONE', #927, #1100, #934, .T. ) ;
#355 = DIRECTION ( 'NONE',  ( -0.000000000000000000, -1.000000000000000000, -0.000000000000000000 ) ) ;
#356 = CARTESIAN_POINT ( 'NONE',  ( -1.000000000000000222, 0.000000000000000000, 0.7499999999999997780 ) ) ;
#357 = EDGE_LOOP ( 'NONE', ( #647, #758, #251, #911 ) ) ;
#358 = PLANE ( 'NONE',  #310 ) ;
#359 = CARTESIAN_POINT ( 'NONE',  ( -0.7500000000000002220, 0.000000000000000000, 1.000000000000000000 ) ) ;
#360 = ADVANCED_FACE ( 'NONE', ( #336 ), #332, .F. ) ;
#361 = LINE ( 'NONE', #180, #308 ) ;
#362 = EDGE_LOOP ( 'NONE', ( #424, #562, #248, #311 ) ) ;
#363 = AXIS2_PLACEMENT_3D ( 'NONE', #703, #589, #935 ) ;
#364 = FACE_OUTER_BOUND ( 'NONE', #566, .T. ) ;
#365 =( BOUNDED_CURVE ( )  B_SPLINE_CURVE ( 3, ( #377, #115, #733, #1080 ),
 .UNSPECIFIED., .F., .F. ) 
 B_SPLINE_CURVE_WITH_KNOTS ( ( 4, 4 ),
 ( 3.141592653589793116, 4.712388980384689674 ),
 .UNSPECIFIED. ) 
 CURVE ( )  GEOMETRIC_REPRESENTATION_ITEM ( )  RATIONAL_B_SPLINE_CURVE ( ( 1.000000000000000000, 0.8047378541243649375, 0.8047378541243649375, 1.000000000000000000 ) ) 
 REPRESENTATION_ITEM ( '' )  );
#366 = VECTOR ( 'NONE', #776, 1000.000000000000000 ) ;
#367 = VECTOR ( 'NONE', #806, 1000.000000000000000 ) ;
#368 = EDGE_CURVE ( 'NONE', #206, #12, #687, .T. ) ;
#369 = PLANE ( 'NONE',  #25 ) ;
#370 = ORIENTED_EDGE ( 'NONE', *, *, #762, .F. ) ;
#371 = CARTESIAN_POINT ( 'NONE',  ( -0.5000000000000001110, 79.00000000000000000, 2.000000000000000000 ) ) ;
#372 = DIRECTION ( 'NONE',  ( -1.000000000000000000, 0.000000000000000000, 0.000000000000000000 ) ) ;
#373 = DIRECTION ( 'NONE',  ( -0.000000000000000000, 1.000000000000000000, -0.000000000000000000 ) ) ;
#374 = EDGE_CURVE ( 'NONE', #376, #237, #588, .T. ) ;
#375 = PRODUCT_DEFINITION_SHAPE ( 'NONE', 'NONE',  #239 ) ;
#376 = VERTEX_POINT ( 'NONE', #951 ) ;
#377 = CARTESIAN_POINT ( 'NONE',  ( -2.000000000000000000, 0.000000000000000000, -0.7500000000000001110 ) ) ;
#378 = CARTESIAN_POINT ( 'NONE',  ( -2.146446609406726047, 2.710505431213761085E-16, 0.7499999999999996669 ) ) ;
#379 = LINE ( 'NONE', #662, #67 ) ;
#380 = CARTESIAN_POINT ( 'NONE',  ( -1.000000000000000444, 79.00000000000000000, -1.000000000000000000 ) ) ;
#381 = VERTEX_POINT ( 'NONE', #876 ) ;
#382 = DIRECTION ( 'NONE',  ( 0.000000000000000000, 0.000000000000000000, -1.000000000000000000 ) ) ;
#383 = ORIENTED_EDGE ( 'NONE', *, *, #508, .T. ) ;
#384 = AXIS2_PLACEMENT_3D ( 'NONE', #1083, #393, #398 ) ;
#385 = CARTESIAN_POINT ( 'NONE',  ( -0.7500000000000002220, 2.710505431213761085E-16, -2.146446609406725159 ) ) ;
#386 = DIRECTION ( 'NONE',  ( 0.000000000000000000, 0.000000000000000000, 1.000000000000000000 ) ) ;
#387 = VECTOR ( 'NONE', #214, 1000.000000000000000 ) ;
#388 = VERTEX_POINT ( 'NONE', #681 ) ;
#389 = CIRCLE ( 'NONE', #942, 0.2500000000000000000 ) ;
#390 = CARTESIAN_POINT ( 'NONE',  ( 0.7499999999999994449, 0.000000000000000000, -1.999999999999999112 ) ) ;
#391 = EDGE_CURVE ( 'NONE', #399, #769, #492, .T. ) ;
#392 = CARTESIAN_POINT ( 'NONE',  ( 0.000000000000000000, 0.000000000000000000, 2.000000000000000000 ) ) ;
#393 = DIRECTION ( 'NONE',  ( 0.000000000000000000, -1.000000000000000000, 0.000000000000000000 ) ) ;
#394 = EDGE_LOOP ( 'NONE', ( #596, #667 ) ) ;
#395 = DIRECTION ( 'NONE',  ( -1.000000000000000000, 0.000000000000000000, 0.000000000000000000 ) ) ;
#396 = ORIENTED_EDGE ( 'NONE', *, *, #408, .T. ) ;
#397 = EDGE_CURVE ( 'NONE', #1094, #323, #676, .T. ) ;
#398 = DIRECTION ( 'NONE',  ( 0.000000000000000000, -0.000000000000000000, -1.000000000000000000 ) ) ;
#399 = VERTEX_POINT ( 'NONE', #185 ) ;
#400 = ADVANCED_FACE ( 'NONE', ( #1147 ), #1134, .T. ) ;
#401 = DIRECTION ( 'NONE',  ( -0.000000000000000000, -0.000000000000000000, 1.000000000000000000 ) ) ;
#402 = DIRECTION ( 'NONE',  ( 0.000000000000000000, 1.000000000000000000, 0.000000000000000000 ) ) ;
#403 = CARTESIAN_POINT ( 'NONE',  ( 0.7500000000000000000, 0.000000000000000000, 2.000000000000000000 ) ) ;
#404 = VECTOR ( 'NONE', #989, 1000.000000000000000 ) ;
#405 = VERTEX_POINT ( 'NONE', #74 ) ;
#406 = DIRECTION ( 'NONE',  ( 1.000000000000000000, 0.000000000000000000, -0.000000000000000000 ) ) ;
#407 = VERTEX_POINT ( 'NONE', #191 ) ;
#408 = EDGE_CURVE ( 'NONE', #1055, #880, #545, .T. ) ;
#409 =( NAMED_UNIT ( * ) SI_UNIT ( $, .STERADIAN. ) SOLID_ANGLE_UNIT ( ) );
#410 = CARTESIAN_POINT ( 'NONE',  ( 2.000000000000000000, 79.00000000000000000, -0.7500000000000001110 ) ) ;
#411 =( BOUNDED_CURVE ( )  B_SPLINE_CURVE ( 3, ( #720, #804, #622, #78 ),
 .UNSPECIFIED., .F., .F. ) 
 B_SPLINE_CURVE_WITH_KNOTS ( ( 4, 4 ),
 ( 0.000000000000000000, 1.570796326794896780 ),
 .UNSPECIFIED. ) 
 CURVE ( )  GEOMETRIC_REPRESENTATION_ITEM ( )  RATIONAL_B_SPLINE_CURVE ( ( 1.000000000000000000, 0.8047378541243649375, 0.8047378541243649375, 1.000000000000000000 ) ) 
 REPRESENTATION_ITEM ( '' )  );
#412 = DIRECTION ( 'NONE',  ( -1.000000000000000000, -0.000000000000000000, 7.228014483236699514E-17 ) ) ;
#413 = EDGE_CURVE ( 'NONE', #487, #779, #1, .T. ) ;
#414 = ORIENTED_EDGE ( 'NONE', *, *, #782, .F. ) ;
#415 = EDGE_CURVE ( 'NONE', #487, #998, #974, .T. ) ;
#416 = CARTESIAN_POINT ( 'NONE',  ( 0.7499999999999996669, 79.00000000000000000, -0.7500000000000002220 ) ) ;
#417 = VERTEX_POINT ( 'NONE', #807 ) ;
#418 = DIRECTION ( 'NONE',  ( -7.228014483236694583E-17, 0.000000000000000000, -1.000000000000000000 ) ) ;
#419 = VERTEX_POINT ( 'NONE', #340 ) ;
#420 = DIRECTION ( 'NONE',  ( 0.000000000000000000, 1.000000000000000000, 0.000000000000000000 ) ) ;
#421 = ADVANCED_FACE ( 'NONE', ( #625 ), #633, .T. ) ;
#422 = ORIENTED_EDGE ( 'NONE', *, *, #296, .T. ) ;
#423 = FACE_OUTER_BOUND ( 'NONE', #60, .T. ) ;
#424 = ORIENTED_EDGE ( 'NONE', *, *, #512, .T. ) ;
#425 = CARTESIAN_POINT ( 'NONE',  ( -2.000000000000000000, 79.00000000000000000, 0.7499999999999998890 ) ) ;
#426 = LINE ( 'NONE', #162, #154 ) ;
#427 = DIRECTION ( 'NONE',  ( -0.000000000000000000, 1.000000000000000000, -0.000000000000000000 ) ) ;
#428 = ORIENTED_EDGE ( 'NONE', *, *, #200, .F. ) ;
#429 = FACE_OUTER_BOUND ( 'NONE', #156, .T. ) ;
#430 = ORIENTED_EDGE ( 'NONE', *, *, #875, .T. ) ;
#431 = ADVANCED_FACE ( 'NONE', ( #429 ), #353, .T. ) ;
#432 = DIRECTION ( 'NONE',  ( 0.000000000000000000, 0.000000000000000000, -1.000000000000000000 ) ) ;
#433 = ORIENTED_EDGE ( 'NONE', *, *, #354, .T. ) ;
#434 = LINE ( 'NONE', #1140, #68 ) ;
#435 = FACE_OUTER_BOUND ( 'NONE', #63, .T. ) ;
#436 = LINE ( 'NONE', #901, #673 ) ;
#437 = ORIENTED_EDGE ( 'NONE', *, *, #245, .F. ) ;
#438 = FACE_OUTER_BOUND ( 'NONE', #46, .T. ) ;
#439 = ADVANCED_FACE ( 'NONE', ( #887, #448 ), #701, .T. ) ;
#440 = VECTOR ( 'NONE', #925, 1000.000000000000000 ) ;
#441 = DIRECTION ( 'NONE',  ( 0.000000000000000000, 1.000000000000000000, 0.000000000000000000 ) ) ;
#442 = VECTOR ( 'NONE', #427, 1000.000000000000000 ) ;
#443 = AXIS2_PLACEMENT_3D ( 'NONE', #699, #1021, #224 ) ;
#444 = FACE_OUTER_BOUND ( 'NONE', #1122, .T. ) ;
#445 = CARTESIAN_POINT ( 'NONE',  ( -0.7500000000000002220, 79.00000000000000000, 0.7499999999999997780 ) ) ;
#446 = ORIENTED_EDGE ( 'NONE', *, *, #158, .T. ) ;
#447 = DIRECTION ( 'NONE',  ( 0.000000000000000000, 0.000000000000000000, -1.000000000000000000 ) ) ;
#448 = FACE_OUTER_BOUND ( 'NONE', #235, .T. ) ;
#449 = DIRECTION ( 'NONE',  ( 0.000000000000000000, -0.000000000000000000, 1.000000000000000000 ) ) ;
#450 = DIRECTION ( 'NONE',  ( -1.000000000000000000, 0.000000000000000000, -0.000000000000000000 ) ) ;
#451 = ORIENTED_EDGE ( 'NONE', *, *, #172, .T. ) ;
#452 = CARTESIAN_POINT ( 'NONE',  ( -0.6464466094067262691, 0.1035533905932739668, 2.250000000000000000 ) ) ;
#453 = CARTESIAN_POINT ( 'NONE',  ( 2.250000000000000000, 0.1035533905932739668, 0.6464466094067260471 ) ) ;
#454 = ADVANCED_FACE ( 'NONE', ( #1051 ), #277, .F. ) ;
#455 = CARTESIAN_POINT ( 'NONE',  ( 0.7499999999999994449, 0.000000000000000000, -2.249999999999999556 ) ) ;
#456 = CARTESIAN_POINT ( 'NONE',  ( 0.6464466094067257140, 78.89644660940673759, -2.249999999999999112 ) ) ;
#457 = ORIENTED_EDGE ( 'NONE', *, *, #846, .T. ) ;
#458 = VECTOR ( 'NONE', #895, 1000.000000000000000 ) ;
#459 = CIRCLE ( 'NONE', #1084, 0.2500000000000000000 ) ;
#460 = CARTESIAN_POINT ( 'NONE',  ( 0.7500000000000000000, 79.00000000000000000, 2.146446609406726047 ) ) ;
#461 = VECTOR ( 'NONE', #100, 1000.000000000000000 ) ;
#462 = EDGE_CURVE ( 'NONE', #513, #275, #683, .T. ) ;
#463 = CYLINDRICAL_SURFACE ( 'NONE', #870, 0.2500000000000002220 ) ;
#464 = CARTESIAN_POINT ( 'NONE',  ( 0.7499999999999994449, 79.00000000000000000, -1.999999999999999112 ) ) ;
#465 = VECTOR ( 'NONE', #949, 1000.000000000000000 ) ;
#466 = ORIENTED_EDGE ( 'NONE', *, *, #200, .T. ) ;
#467 =( GEOMETRIC_REPRESENTATION_CONTEXT ( 3 ) GLOBAL_UNCERTAINTY_ASSIGNED_CONTEXT ( ( #995 ) ) GLOBAL_UNIT_ASSIGNED_CONTEXT ( ( #21, #675, #409 ) ) REPRESENTATION_CONTEXT ( 'NONE', 'WORKASPACE' ) );
#468 = CARTESIAN_POINT ( 'NONE',  ( -0.7500000000000001110, 0.000000000000000000, 2.000000000000000000 ) ) ;
#469 = CARTESIAN_POINT ( 'NONE',  ( 2.000000000000000000, 0.000000000000000000, 0.7499999999999998890 ) ) ;
#470 = CARTESIAN_POINT ( 'NONE',  ( 2.250000000000000000, 0.2500000000000002220, 0.4999999999999998890 ) ) ;
#471 = ADVANCED_FACE ( 'NONE', ( #165 ), #526, .F. ) ;
#472 = APPLICATION_PROTOCOL_DEFINITION ( 'draft international standard', 'automotive_design', 1998, #569 ) ;
#473 = ORIENTED_EDGE ( 'NONE', *, *, #861, .F. ) ;
#474 = DIRECTION ( 'NONE',  ( 0.000000000000000000, 0.000000000000000000, 1.000000000000000000 ) ) ;
#475 = CARTESIAN_POINT ( 'NONE',  ( -2.250000000000000000, 0.1035533905932740362, 0.6464466094067260471 ) ) ;
#476 = DIRECTION ( 'NONE',  ( 0.000000000000000000, 0.000000000000000000, -1.000000000000000000 ) ) ;
#477 = ORIENTED_EDGE ( 'NONE', *, *, #832, .F. ) ;
#478 = DIRECTION ( 'NONE',  ( -0.000000000000000000, 1.000000000000000000, -0.000000000000000000 ) ) ;
#479 = ORIENTED_EDGE ( 'NONE', *, *, #1052, .T. ) ;
#480 = AXIS2_PLACEMENT_3D ( 'NONE', #862, #947, #322 ) ;
#481 = CARTESIAN_POINT ( 'NONE',  ( -2.250000000000000000, 0.2500000000000002220, -0.7500000000000001110 ) ) ;
#482 = CARTESIAN_POINT ( 'NONE',  ( 0.9999999999999997780, 0.000000000000000000, 1.000000000000000000 ) ) ;
#483 = ORIENTED_EDGE ( 'NONE', *, *, #152, .F. ) ;
#484 = VECTOR ( 'NONE', #1015, 1000.000000000000000 ) ;
#485 = LINE ( 'NONE', #1093, #978 ) ;
#486 = VECTOR ( 'NONE', #705, 1000.000000000000000 ) ;
#487 = VERTEX_POINT ( 'NONE', #359 ) ;
#488 = PLANE ( 'NONE',  #384 ) ;
#489 = ORIENTED_EDGE ( 'NONE', *, *, #158, .F. ) ;
#490 = CYLINDRICAL_SURFACE ( 'NONE', #84, 0.2500000000000000000 ) ;
#491 = DIRECTION ( 'NONE',  ( -0.000000000000000000, 1.000000000000000000, -0.000000000000000000 ) ) ;
#492 =( BOUNDED_CURVE ( )  B_SPLINE_CURVE ( 3, ( #403, #780, #1130, #759 ),
 .UNSPECIFIED., .F., .F. ) 
 B_SPLINE_CURVE_WITH_KNOTS ( ( 4, 4 ),
 ( 0.000000000000000000, 1.570796326794896780 ),
 .UNSPECIFIED. ) 
 CURVE ( )  GEOMETRIC_REPRESENTATION_ITEM ( )  RATIONAL_B_SPLINE_CURVE ( ( 1.000000000000000000, 0.8047378541243649375, 0.8047378541243649375, 1.000000000000000000 ) ) 
 REPRESENTATION_ITEM ( '' )  );
#493 = ADVANCED_FACE ( 'NONE', ( #540 ), #77, .F. ) ;
#494 = VERTEX_POINT ( 'NONE', #8 ) ;
#495 = DIRECTION ( 'NONE',  ( -1.000000000000000000, -0.000000000000000000, -7.228014483236695816E-17 ) ) ;
#496 = AXIS2_PLACEMENT_3D ( 'NONE', #546, #171, #811 ) ;
#497 = CARTESIAN_POINT ( 'NONE',  ( -0.7500000000000005551, 79.00000000000000000, -1.999999999999999112 ) ) ;
#498 =( GEOMETRIC_REPRESENTATION_CONTEXT ( 3 ) GLOBAL_UNCERTAINTY_ASSIGNED_CONTEXT ( ( #822 ) ) GLOBAL_UNIT_ASSIGNED_CONTEXT ( ( #657, #1001, #920 ) ) REPRESENTATION_CONTEXT ( 'NONE', 'WORKASPACE' ) );
#499 = EDGE_CURVE ( 'NONE', #700, #1098, #570, .T. ) ;
#500 = ORIENTED_EDGE ( 'NONE', *, *, #898, .F. ) ;
#501 = FACE_OUTER_BOUND ( 'NONE', #394, .T. ) ;
#502 = PRODUCT_CONTEXT ( 'NONE', #1034, 'mechanical' ) ;
#503 = DIRECTION ( 'NONE',  ( 0.000000000000000000, 1.000000000000000000, 0.000000000000000000 ) ) ;
#504 = EDGE_LOOP ( 'NONE', ( #383, #1027, #689, #1016 ) ) ;
#505 = CARTESIAN_POINT ( 'NONE',  ( 0.000000000000000000, 74.00000000000000000, 0.000000000000000000 ) ) ;
#506 = EDGE_LOOP ( 'NONE', ( #679, #153, #860, #127 ) ) ;
#507 = EDGE_CURVE ( 'NONE', #819, #417, #434, .T. ) ;
#508 = EDGE_CURVE ( 'NONE', #819, #229, #1035, .T. ) ;
#509 = DIRECTION ( 'NONE',  ( 1.000000000000000000, 0.000000000000000000, -7.228014483236700746E-17 ) ) ;
#510 = CARTESIAN_POINT ( 'NONE',  ( 2.000000000000000000, 78.75000000000000000, 0.000000000000000000 ) ) ;
#511 = CARTESIAN_POINT ( 'NONE',  ( -2.250000000000000000, 79.00000000000000000, -0.7500000000000001110 ) ) ;
#512 = EDGE_CURVE ( 'NONE', #12, #307, #644, .T. ) ;
#513 = VERTEX_POINT ( 'NONE', #469 ) ;
#514 = DIRECTION ( 'NONE',  ( -7.228014483236700746E-17, 0.000000000000000000, -1.000000000000000000 ) ) ;
#515 = ORIENTED_EDGE ( 'NONE', *, *, #507, .F. ) ;
#516 = AXIS2_PLACEMENT_3D ( 'NONE', #228, #509, #514 ) ;
#517 = COLOUR_RGB ( '',0.7921568627450980005, 0.8196078431372548767, 0.9333333333333333481 ) ;
#518 = LINE ( 'NONE', #778, #442 ) ;
#519 = ORIENTED_EDGE ( 'NONE', *, *, #89, .F. ) ;
#520 = AXIS2_PLACEMENT_3D ( 'NONE', #1112, #236, #418 ) ;
#521 = DIRECTION ( 'NONE',  ( 0.000000000000000000, -1.000000000000000000, 0.000000000000000000 ) ) ;
#522 = ORIENTED_EDGE ( 'NONE', *, *, #346, .F. ) ;
#523 = DIRECTION ( 'NONE',  ( -0.000000000000000000, 1.000000000000000000, -0.000000000000000000 ) ) ;
#524 = ORIENTED_EDGE ( 'NONE', *, *, #898, .T. ) ;
#525 =( BOUNDED_CURVE ( )  B_SPLINE_CURVE ( 3, ( #584, #743, #731, #654 ),
 .UNSPECIFIED., .F., .T. ) 
 B_SPLINE_CURVE_WITH_KNOTS ( ( 4, 4 ),
 ( 1.570796326794896558, 3.141592653589793116 ),
 .UNSPECIFIED. ) 
 CURVE ( )  GEOMETRIC_REPRESENTATION_ITEM ( )  RATIONAL_B_SPLINE_CURVE ( ( 1.000000000000000000, 0.8047378541243649375, 0.8047378541243649375, 1.000000000000000000 ) ) 
 REPRESENTATION_ITEM ( '' )  );
#526 = CYLINDRICAL_SURFACE ( 'NONE', #631, 0.2500000000000000000 ) ;
#527 = CYLINDRICAL_SURFACE ( 'NONE', #1103, 0.2500000000000000000 ) ;
#528 = EDGE_CURVE ( 'NONE', #399, #779, #557, .T. ) ;
#529 = CARTESIAN_POINT ( 'NONE',  ( 2.000000000000000000, 79.00000000000000000, -0.7500000000000001110 ) ) ;
#530 = ORIENTED_EDGE ( 'NONE', *, *, #828, .T. ) ;
#531 = CARTESIAN_POINT ( 'NONE',  ( 2.250000000000000000, 78.75000000000000000, 0.4999999999999998890 ) ) ;
#532 = DIRECTION ( 'NONE',  ( 0.000000000000000000, 1.000000000000000000, 0.000000000000000000 ) ) ;
#533 = ADVANCED_FACE ( 'NONE', ( #24 ), #14, .T. ) ;
#534 = MANIFOLD_SOLID_BREP ( 'Cortar-Extruir2', #666 ) ;
#535 = LINE ( 'NONE', #455, #211 ) ;
#536 = CARTESIAN_POINT ( 'NONE',  ( -0.5000000000000005551, 79.00000000000000000, -2.249999999999999556 ) ) ;
#537 = AXIS2_PLACEMENT_3D ( 'NONE', #134, #845, #476 ) ;
#538 = ORIENTED_EDGE ( 'NONE', *, *, #943, .T. ) ;
#539 = LINE ( 'NONE', #802, #404 ) ;
#540 = FACE_OUTER_BOUND ( 'NONE', #732, .T. ) ;
#541 = LINE ( 'NONE', #900, #458 ) ;
#542 = FACE_OUTER_BOUND ( 'NONE', #954, .T. ) ;
#543 = EDGE_LOOP ( 'NONE', ( #946, #574 ) ) ;
#544 = CYLINDRICAL_SURFACE ( 'NONE', #179, 0.2500000000000002220 ) ;
#545 = LINE ( 'NONE', #347, #141 ) ;
#546 = CARTESIAN_POINT ( 'NONE',  ( -2.250000000000000000, 79.00000000000000000, -0.7500000000000001110 ) ) ;
#547 = CARTESIAN_POINT ( 'NONE',  ( 0.7499999999999994449, 79.00000000000000000, -1.999999999999999112 ) ) ;
#548 = VERTEX_POINT ( 'NONE', #122 ) ;
#549 = DIRECTION ( 'NONE',  ( 0.000000000000000000, 0.000000000000000000, 1.000000000000000000 ) ) ;
#550 = EDGE_CURVE ( 'NONE', #957, #307, #1095, .T. ) ;
#551 = DIRECTION ( 'NONE',  ( 7.228014483236694583E-17, 0.000000000000000000, 1.000000000000000000 ) ) ;
#552 = DIRECTION ( 'NONE',  ( -0.000000000000000000, 1.000000000000000000, -0.000000000000000000 ) ) ;
#553 = ORIENTED_EDGE ( 'NONE', *, *, #940, .T. ) ;
#554 = AXIS2_PLACEMENT_3D ( 'NONE', #646, #561, #992 ) ;
#555 = CARTESIAN_POINT ( 'NONE',  ( 0.5000000000000000000, 78.75000000000000000, 2.250000000000000444 ) ) ;
#556 = VECTOR ( 'NONE', #982, 1000.000000000000000 ) ;
#557 = LINE ( 'NONE', #392, #722 ) ;
#558 = VECTOR ( 'NONE', #169, 1000.000000000000000 ) ;
#559 = EDGE_CURVE ( 'NONE', #407, #206, #30, .T. ) ;
#560 = VECTOR ( 'NONE', #933, 1000.000000000000000 ) ;
#561 = DIRECTION ( 'NONE',  ( 0.000000000000000000, -1.000000000000000000, 0.000000000000000000 ) ) ;
#562 = ORIENTED_EDGE ( 'NONE', *, *, #550, .F. ) ;
#563 = DIRECTION ( 'NONE',  ( 0.000000000000000000, 0.000000000000000000, 1.000000000000000000 ) ) ;
#564 = DIRECTION ( 'NONE',  ( 7.228014483236700746E-17, 0.000000000000000000, 1.000000000000000000 ) ) ;
#565 = CARTESIAN_POINT ( 'NONE',  ( 9.184850993605150903E-17, 79.00000000000000000, -0.7500000000000001110 ) ) ;
#566 = EDGE_LOOP ( 'NONE', ( #71, #263, #318, #591 ) ) ;
#567 = CARTESIAN_POINT ( 'NONE',  ( 0.9999999999999997780, 79.00000000000000000, 1.000000000000000000 ) ) ;
#568 = EDGE_LOOP ( 'NONE', ( #772, #891, #814, #428 ) ) ;
#569 = APPLICATION_CONTEXT ( 'automotive_design' ) ;
#570 =( BOUNDED_CURVE ( )  B_SPLINE_CURVE ( 3, ( #638, #1062, #724, #271 ),
 .UNSPECIFIED., .F., .F. ) 
 B_SPLINE_CURVE_WITH_KNOTS ( ( 4, 4 ),
 ( 4.712388980384689674, 6.283185307179586232 ),
 .UNSPECIFIED. ) 
 CURVE ( )  GEOMETRIC_REPRESENTATION_ITEM ( )  RATIONAL_B_SPLINE_CURVE ( ( 1.000000000000000000, 0.8047378541243649375, 0.8047378541243649375, 1.000000000000000000 ) ) 
 REPRESENTATION_ITEM ( '' )  );
#571 = CARTESIAN_POINT ( 'NONE',  ( -2.000000000000000000, 79.00000000000000000, 0.7499999999999998890 ) ) ;
#572 = VERTEX_POINT ( 'NONE', #904 ) ;
#573 = CARTESIAN_POINT ( 'NONE',  ( 2.000000000000000000, 0.2500000000000002220, -0.7500000000000001110 ) ) ;
#574 = ORIENTED_EDGE ( 'NONE', *, *, #296, .F. ) ;
#575 = CARTESIAN_POINT ( 'NONE',  ( -0.5000000000000005551, 0.2500000000000002220, -2.249999999999999556 ) ) ;
#576 = STYLED_ITEM ( 'NONE', ( #747 ), #534 ) ;
#577 = CARTESIAN_POINT ( 'NONE',  ( -0.5000000000000005551, 78.75000000000000000, -2.249999999999999556 ) ) ;
#578 = CIRCLE ( 'NONE', #232, 0.7500000000000001110 ) ;
#579 = ORIENTED_EDGE ( 'NONE', *, *, #1057, .T. ) ;
#580 = AXIS2_PLACEMENT_3D ( 'NONE', #198, #18, #563 ) ;
#581 = FACE_OUTER_BOUND ( 'NONE', #781, .T. ) ;
#582 = ORIENTED_EDGE ( 'NONE', *, *, #833, .F. ) ;
#583 = ADVANCED_FACE ( 'NONE', ( #102 ), #463, .T. ) ;
#584 = CARTESIAN_POINT ( 'NONE',  ( -2.250000000000000000, 78.75000000000000000, 0.4999999999999998890 ) ) ;
#585 = ORIENTED_EDGE ( 'NONE', *, *, #749, .T. ) ;
#586 = DIRECTION ( 'NONE',  ( 0.000000000000000000, -1.000000000000000000, 0.000000000000000000 ) ) ;
#587 = EDGE_CURVE ( 'NONE', #1131, #513, #1077, .T. ) ;
#588 = LINE ( 'NONE', #693, #157 ) ;
#589 = DIRECTION ( 'NONE',  ( 1.000000000000000000, 0.000000000000000000, 0.000000000000000000 ) ) ;
#590 = DIRECTION ( 'NONE',  ( -0.000000000000000000, -1.000000000000000000, -0.000000000000000000 ) ) ;
#591 = ORIENTED_EDGE ( 'NONE', *, *, #996, .T. ) ;
#592 = CARTESIAN_POINT ( 'NONE',  ( -1.000000000000000444, 0.000000000000000000, -1.000000000000000000 ) ) ;
#593 = LINE ( 'NONE', #694, #936 ) ;
#594 = EDGE_CURVE ( 'NONE', #243, #957, #790, .T. ) ;
#595 = CYLINDRICAL_SURFACE ( 'NONE', #1090, 0.2500000000000000000 ) ;
#596 = ORIENTED_EDGE ( 'NONE', *, *, #984, .T. ) ;
#597 = VECTOR ( 'NONE', #757, 1000.000000000000000 ) ;
#598 = VECTOR ( 'NONE', #1149, 1000.000000000000000 ) ;
#599 = DIRECTION ( 'NONE',  ( 1.000000000000000000, -0.000000000000000000, -0.000000000000000000 ) ) ;
#600 = EDGE_LOOP ( 'NONE', ( #871, #623, #964, #664 ) ) ;
#601 = DIRECTION ( 'NONE',  ( 1.000000000000000000, -0.000000000000000000, -0.000000000000000000 ) ) ;
#602 = ORIENTED_EDGE ( 'NONE', *, *, #996, .F. ) ;
#603 = ADVANCED_FACE ( 'NONE', ( #364 ), #358, .F. ) ;
#604 = CARTESIAN_POINT ( 'NONE',  ( 0.7499999999999994449, 78.75000000000000000, -2.249999999999999556 ) ) ;
#605 = EDGE_LOOP ( 'NONE', ( #847, #524, #1003, #451 ) ) ;
#606 = LINE ( 'NONE', #324, #742 ) ;
#607 = VERTEX_POINT ( 'NONE', #268 ) ;
#608 = EDGE_CURVE ( 'NONE', #307, #73, #6, .T. ) ;
#609 = LINE ( 'NONE', #604, #140 ) ;
#610 = AXIS2_PLACEMENT_3D ( 'NONE', #416, #1126, #766 ) ;
#611 = ORIENTED_EDGE ( 'NONE', *, *, #915, .T. ) ;
#612 = VECTOR ( 'NONE', #302, 1000.000000000000000 ) ;
#613 = CARTESIAN_POINT ( 'NONE',  ( 0.7499999999999996669, 0.000000000000000000, -1.000000000000000222 ) ) ;
#614 = EDGE_LOOP ( 'NONE', ( #241, #1049, #292, #553 ) ) ;
#615 = CARTESIAN_POINT ( 'NONE',  ( 2.000000000000000000, 79.00000000000000000, -0.5000000000000001110 ) ) ;
#616 = EDGE_CURVE ( 'NONE', #779, #209, #282, .T. ) ;
#617 = CARTESIAN_POINT ( 'NONE',  ( -1.000000000000000222, 79.00000000000000000, 0.7499999999999997780 ) ) ;
#618 = CARTESIAN_POINT ( 'NONE',  ( 0.7499999999999991118, 79.00000000000000000, -2.146446609406725159 ) ) ;
#619 = VERTEX_POINT ( 'NONE', #1069 ) ;
#620 = CARTESIAN_POINT ( 'NONE',  ( 2.250000000000000000, 78.75000000000000000, -0.5000000000000001110 ) ) ;
#621 = CARTESIAN_POINT ( 'NONE',  ( -2.250000000000000000, 79.00000000000000000, 0.7499999999999998890 ) ) ;
#622 = CARTESIAN_POINT ( 'NONE',  ( 2.250000000000000000, 0.1035533905932740362, -0.6464466094067262691 ) ) ;
#623 = ORIENTED_EDGE ( 'NONE', *, *, #303, .F. ) ;
#624 = DIRECTION ( 'NONE',  ( 1.000000000000000000, 0.000000000000000000, -7.228014483236699514E-17 ) ) ;
#625 = FACE_OUTER_BOUND ( 'NONE', #504, .T. ) ;
#626 = EDGE_CURVE ( 'NONE', #323, #1055, #650, .T. ) ;
#627 = CARTESIAN_POINT ( 'NONE',  ( 0.7499999999999998890, 0.000000000000000000, 1.000000000000000000 ) ) ;
#628 = ADVANCED_FACE ( 'NONE', ( #194 ), #544, .T. ) ;
#629 = CARTESIAN_POINT ( 'NONE',  ( 0.7499999999999994449, 79.00000000000000000, -2.249999999999999556 ) ) ;
#630 = ORIENTED_EDGE ( 'NONE', *, *, #94, .T. ) ;
#631 = AXIS2_PLACEMENT_3D ( 'NONE', #1056, #971, #791 ) ;
#632 = CARTESIAN_POINT ( 'NONE',  ( 0.9999999999999997780, 79.00000000000000000, -1.000000000000000222 ) ) ;
#633 = CYLINDRICAL_SURFACE ( 'NONE', #851, 0.2500000000000000000 ) ;
#634 = DIRECTION ( 'NONE',  ( -0.000000000000000000, 1.000000000000000000, -0.000000000000000000 ) ) ;
#635 = CARTESIAN_POINT ( 'NONE',  ( 0.7500000000000001110, 79.00000000000000000, 2.000000000000000000 ) ) ;
#636 = VERTEX_POINT ( 'NONE', #620 ) ;
#637 = CARTESIAN_POINT ( 'NONE',  ( -2.250000000000000000, 79.00000000000000000, -0.7500000000000001110 ) ) ;
#638 = CARTESIAN_POINT ( 'NONE',  ( 2.250000000000000000, 78.75000000000000000, 0.4999999999999998890 ) ) ;
#639 = DIRECTION ( 'NONE',  ( 0.000000000000000000, 1.000000000000000000, 0.000000000000000000 ) ) ;
#640 = APPLICATION_PROTOCOL_DEFINITION ( 'draft international standard', 'automotive_design', 1998, #1034 ) ;
#641 = EDGE_LOOP ( 'NONE', ( #1005, #121, #744, #728 ) ) ;
#642 = DIRECTION ( 'NONE',  ( 7.228014483236699514E-17, -0.000000000000000000, 1.000000000000000000 ) ) ;
#643 = EDGE_CURVE ( 'NONE', #40, #1039, #903, .T. ) ;
#644 =( BOUNDED_CURVE ( )  B_SPLINE_CURVE ( 3, ( #116, #378, #475, #661 ),
 .UNSPECIFIED., .F., .F. ) 
 B_SPLINE_CURVE_WITH_KNOTS ( ( 4, 4 ),
 ( 0.000000000000000000, 1.570796326794896780 ),
 .UNSPECIFIED. ) 
 CURVE ( )  GEOMETRIC_REPRESENTATION_ITEM ( )  RATIONAL_B_SPLINE_CURVE ( ( 1.000000000000000000, 0.8047378541243649375, 0.8047378541243649375, 1.000000000000000000 ) ) 
 REPRESENTATION_ITEM ( '' )  );
#645 = EDGE_CURVE ( 'NONE', #351, #168, #692, .T. ) ;
#646 = CARTESIAN_POINT ( 'NONE',  ( 0.5000000000000000000, 79.00000000000000000, 2.000000000000000000 ) ) ;
#647 = ORIENTED_EDGE ( 'NONE', *, *, #923, .T. ) ;
#648 = CIRCLE ( 'NONE', #480, 0.7500000000000001110 ) ;
#649 = CARTESIAN_POINT ( 'NONE',  ( -2.000000000000000000, 79.00000000000000000, -0.7500000000000001110 ) ) ;
#650 = CIRCLE ( 'NONE', #956, 0.2500000000000000000 ) ;
#651 = ADVANCED_BREP_SHAPE_REPRESENTATION ( 'BASSE DE SISTEMA DE TRANSMISION DE STEELBOT  CORTO', ( #534, #725 ), #467 ) ;
#652 = AXIS2_PLACEMENT_3D ( 'NONE', #893, #729, #707 ) ;
#653 = AXIS2_PLACEMENT_3D ( 'NONE', #999, #937, #678 ) ;
#654 = CARTESIAN_POINT ( 'NONE',  ( -2.000000000000000000, 79.00000000000000000, 0.7499999999999998890 ) ) ;
#655 = ORIENTED_EDGE ( 'NONE', *, *, #550, .T. ) ;
#656 = ORIENTED_EDGE ( 'NONE', *, *, #512, .F. ) ;
#657 =( LENGTH_UNIT ( ) NAMED_UNIT ( * ) SI_UNIT ( .MILLI., .METRE. ) );
#658 = LINE ( 'NONE', #748, #686 ) ;
#659 = EDGE_LOOP ( 'NONE', ( #223, #696, #817, #113 ) ) ;
#660 = EDGE_CURVE ( 'NONE', #607, #487, #539, .T. ) ;
#661 = CARTESIAN_POINT ( 'NONE',  ( -2.250000000000000000, 0.2500000000000002220, 0.4999999999999998890 ) ) ;
#662 = CARTESIAN_POINT ( 'NONE',  ( -0.7500000000000004441, 79.00000000000000000, -1.000000000000000000 ) ) ;
#663 = EDGE_CURVE ( 'NONE', #388, #381, #578, .T. ) ;
#664 = ORIENTED_EDGE ( 'NONE', *, *, #940, .F. ) ;
#665 = CARTESIAN_POINT ( 'NONE',  ( -2.146446609406726047, 79.00000000000000000, -0.7500000000000000000 ) ) ;
#666 = CLOSED_SHELL ( 'NONE', ( #671, #260, #454, #1063, #17, #360, #129, #930, #298, #603, #119, #493, #869, #1096, #439, #37, #400, #4, #820, #961, #273, #583, #344, #668, #431, #708, #1146, #220, #533, #32, #421, #628, #719, #471, #1120, #69, #866, #207, #1068, #983 ) ) ;
#667 = ORIENTED_EDGE ( 'NONE', *, *, #114, .T. ) ;
#668 = ADVANCED_FACE ( 'NONE', ( #95 ), #345, .T. ) ;
#669 = DIRECTION ( 'NONE',  ( 0.000000000000000000, 1.000000000000000000, 0.000000000000000000 ) ) ;
#670 = VERTEX_POINT ( 'NONE', #264 ) ;
#671 = ADVANCED_FACE ( 'NONE', ( #438 ), #175, .F. ) ;
#672 = CARTESIAN_POINT ( 'NONE',  ( 9.184850993605150903E-17, 5.000000000000000000, 0.7500000000000001110 ) ) ;
#673 = VECTOR ( 'NONE', #958, 1000.000000000000000 ) ;
#674 = ORIENTED_EDGE ( 'NONE', *, *, #172, .F. ) ;
#675 =( NAMED_UNIT ( * ) PLANE_ANGLE_UNIT ( ) SI_UNIT ( $, .RADIAN. ) );
#676 = LINE ( 'NONE', #1121, #813 ) ;
#677 = ORIENTED_EDGE ( 'NONE', *, *, #883, .T. ) ;
#678 = DIRECTION ( 'NONE',  ( 0.000000000000000000, 0.000000000000000000, -1.000000000000000000 ) ) ;
#679 = ORIENTED_EDGE ( 'NONE', *, *, #680, .F. ) ;
#680 = EDGE_CURVE ( 'NONE', #168, #1039, #258, .T. ) ;
#681 = CARTESIAN_POINT ( 'NONE',  ( 0.000000000000000000, 0.000000000000000000, -0.7500000000000001110 ) ) ;
#682 = FACE_OUTER_BOUND ( 'NONE', #357, .T. ) ;
#683 =( BOUNDED_CURVE ( )  B_SPLINE_CURVE ( 3, ( #178, #265, #453, #803 ),
 .UNSPECIFIED., .F., .F. ) 
 B_SPLINE_CURVE_WITH_KNOTS ( ( 4, 4 ),
 ( 3.141592653589793116, 4.712388980384689674 ),
 .UNSPECIFIED. ) 
 CURVE ( )  GEOMETRIC_REPRESENTATION_ITEM ( )  RATIONAL_B_SPLINE_CURVE ( ( 1.000000000000000000, 0.8047378541243649375, 0.8047378541243649375, 1.000000000000000000 ) ) 
 REPRESENTATION_ITEM ( '' )  );
#684 = DIRECTION ( 'NONE',  ( 0.000000000000000000, 0.000000000000000000, -1.000000000000000000 ) ) ;
#685 = EDGE_LOOP ( 'NONE', ( #786, #500, #287, #1008 ) ) ;
#686 = VECTOR ( 'NONE', #1097, 1000.000000000000000 ) ;
#687 = LINE ( 'NONE', #425, #290 ) ;
#688 = AXIS2_PLACEMENT_3D ( 'NONE', #82, #441, #798 ) ;
#689 = ORIENTED_EDGE ( 'NONE', *, *, #749, .F. ) ;
#690 = LINE ( 'NONE', #859, #215 ) ;
#691 = ORIENTED_EDGE ( 'NONE', *, *, #616, .F. ) ;
#692 =( BOUNDED_CURVE ( )  B_SPLINE_CURVE ( 3, ( #555, #897, #460, #815 ),
 .UNSPECIFIED., .F., .F. ) 
 B_SPLINE_CURVE_WITH_KNOTS ( ( 4, 4 ),
 ( 1.570796326794896558, 3.141592653589793116 ),
 .UNSPECIFIED. ) 
 CURVE ( )  GEOMETRIC_REPRESENTATION_ITEM ( )  RATIONAL_B_SPLINE_CURVE ( ( 1.000000000000000000, 0.8047378541243649375, 0.8047378541243649375, 1.000000000000000000 ) ) 
 REPRESENTATION_ITEM ( '' )  );
#693 = CARTESIAN_POINT ( 'NONE',  ( 9.184850993605150903E-17, 74.00000000000000000, -0.7500000000000001110 ) ) ;
#694 = CARTESIAN_POINT ( 'NONE',  ( -0.7500000000000001110, 79.00000000000000000, 2.000000000000000000 ) ) ;
#695 = LINE ( 'NONE', #1038, #465 ) ;
#696 = ORIENTED_EDGE ( 'NONE', *, *, #79, .F. ) ;
#697 = FACE_OUTER_BOUND ( 'NONE', #605, .T. ) ;
#698 = PLANE ( 'NONE',  #227 ) ;
#699 = CARTESIAN_POINT ( 'NONE',  ( 0.000000000000000000, 74.00000000000000000, 0.000000000000000000 ) ) ;
#700 = VERTEX_POINT ( 'NONE', #531 ) ;
#701 = PLANE ( 'NONE',  #688 ) ;
#702 = CIRCLE ( 'NONE', #1138, 0.7500000000000001110 ) ;
#703 = CARTESIAN_POINT ( 'NONE',  ( 0.000000000000000000, 78.75000000000000000, -1.999999999999999112 ) ) ;
#704 = AXIS2_PLACEMENT_3D ( 'NONE', #615, #90, #170 ) ;
#705 = DIRECTION ( 'NONE',  ( -1.000000000000000000, -0.000000000000000000, -0.000000000000000000 ) ) ;
#706 = EDGE_LOOP ( 'NONE', ( #58, #522, #1104, #174 ) ) ;
#707 = DIRECTION ( 'NONE',  ( 0.000000000000000000, 0.000000000000000000, 1.000000000000000000 ) ) ;
#708 = ADVANCED_FACE ( 'NONE', ( #886 ), #718, .T. ) ;
#709 = AXIS2_PLACEMENT_3D ( 'NONE', #380, #402, #856 ) ;
#710 = CARTESIAN_POINT ( 'NONE',  ( -0.7500000000000005551, 0.2500000000000002220, -1.999999999999999112 ) ) ;
#711 = LINE ( 'NONE', #635, #1031 ) ;
#712 = VERTEX_POINT ( 'NONE', #713 ) ;
#713 = CARTESIAN_POINT ( 'NONE',  ( -2.000000000000000000, 0.000000000000000000, -0.7500000000000001110 ) ) ;
#714 = DIRECTION ( 'NONE',  ( 0.000000000000000000, -1.000000000000000000, 0.000000000000000000 ) ) ;
#715 = DIRECTION ( 'NONE',  ( 0.000000000000000000, 1.000000000000000000, 0.000000000000000000 ) ) ;
#716 = EDGE_CURVE ( 'NONE', #12, #712, #88, .T. ) ;
#717 = ORIENTED_EDGE ( 'NONE', *, *, #643, .F. ) ;
#718 = CYLINDRICAL_SURFACE ( 'NONE', #29, 0.2500000000000002220 ) ;
#719 = ADVANCED_FACE ( 'NONE', ( #300 ), #1088, .F. ) ;
#720 = CARTESIAN_POINT ( 'NONE',  ( 2.000000000000000000, 0.000000000000000000, -0.7500000000000001110 ) ) ;
#721 = VERTEX_POINT ( 'NONE', #917 ) ;
#722 = VECTOR ( 'NONE', #913, 1000.000000000000000 ) ;
#723 = CARTESIAN_POINT ( 'NONE',  ( -2.250000000000000000, 79.00000000000000000, 0.4999999999999998890 ) ) ;
#724 = CARTESIAN_POINT ( 'NONE',  ( 2.146446609406726047, 79.00000000000000000, 0.7499999999999996669 ) ) ;
#725 = AXIS2_PLACEMENT_3D ( 'NONE', #1018, #112, #226 ) ;
#726 = DIRECTION ( 'NONE',  ( -1.445602896647340149E-16, -0.000000000000000000, -1.000000000000000000 ) ) ;
#727 = FACE_OUTER_BOUND ( 'NONE', #1025, .T. ) ;
#728 = ORIENTED_EDGE ( 'NONE', *, *, #663, .T. ) ;
#729 = DIRECTION ( 'NONE',  ( -0.000000000000000000, 1.000000000000000000, -0.000000000000000000 ) ) ;
#730 = DIRECTION ( 'NONE',  ( 0.000000000000000000, 0.000000000000000000, 1.000000000000000000 ) ) ;
#731 = CARTESIAN_POINT ( 'NONE',  ( -2.146446609406726047, 79.00000000000000000, 0.7499999999999996669 ) ) ;
#732 = EDGE_LOOP ( 'NONE', ( #916, #339, #446, #145 ) ) ;
#733 = CARTESIAN_POINT ( 'NONE',  ( -2.250000000000000000, 0.1035533905932739668, -0.6464466094067262691 ) ) ;
#734 = PRODUCT_DEFINITION_CONTEXT ( 'detailed design', #569, 'design' ) ;
#735 = DIRECTION ( 'NONE',  ( 0.000000000000000000, -1.000000000000000000, 0.000000000000000000 ) ) ;
#736 = FACE_OUTER_BOUND ( 'NONE', #196, .T. ) ;
#737 = ORIENTED_EDGE ( 'NONE', *, *, #587, .F. ) ;
#738 = LINE ( 'NONE', #28, #597 ) ;
#739 = EDGE_LOOP ( 'NONE', ( #76, #321, #585, #1106 ) ) ;
#740 = MECHANICAL_DESIGN_GEOMETRIC_PRESENTATION_REPRESENTATION (  '', ( #576 ), #498 ) ;
#741 = FILL_AREA_STYLE ('',( #823 ) ) ;
#742 = VECTOR ( 'NONE', #601, 1000.000000000000000 ) ;
#743 = CARTESIAN_POINT ( 'NONE',  ( -2.250000000000000000, 78.89644660940673759, 0.6464466094067260471 ) ) ;
#744 = ORIENTED_EDGE ( 'NONE', *, *, #45, .T. ) ;
#745 = CARTESIAN_POINT ( 'NONE',  ( 0.5000000000000001110, 79.00000000000000000, 2.250000000000000444 ) ) ;
#746 = ORIENTED_EDGE ( 'NONE', *, *, #312, .F. ) ;
#747 = PRESENTATION_STYLE_ASSIGNMENT (( #1081 ) ) ;
#748 = CARTESIAN_POINT ( 'NONE',  ( -0.7500000000000001110, 0.2500000000000002220, 2.250000000000000444 ) ) ;
#749 = EDGE_CURVE ( 'NONE', #950, #1100, #43, .T. ) ;
#750 = ORIENTED_EDGE ( 'NONE', *, *, #415, .F. ) ;
#751 = CARTESIAN_POINT ( 'NONE',  ( 0.9999999999999997780, 79.00000000000000000, 1.000000000000000000 ) ) ;
#752 = ORIENTED_EDGE ( 'NONE', *, *, #919, .T. ) ;
#753 = EDGE_CURVE ( 'NONE', #243, #407, #240, .T. ) ;
#754 = CARTESIAN_POINT ( 'NONE',  ( 0.000000000000000000, 74.00000000000000000, 0.7500000000000001110 ) ) ;
#755 = EDGE_CURVE ( 'NONE', #769, #351, #120, .T. ) ;
#756 = ORIENTED_EDGE ( 'NONE', *, *, #213, .F. ) ;
#757 = DIRECTION ( 'NONE',  ( -2.168404344971008375E-16, -0.000000000000000000, -1.000000000000000000 ) ) ;
#758 = ORIENTED_EDGE ( 'NONE', *, *, #943, .F. ) ;
#759 = CARTESIAN_POINT ( 'NONE',  ( 0.5000000000000000000, 0.2500000000000002220, 2.250000000000000444 ) ) ;
#760 = EDGE_LOOP ( 'NONE', ( #784, #202, #737, #926, #477, #135, #1113, #896, #489, #1116, #151, #795, #515, #430, #1067, #75 ) ) ;
#761 = VECTOR ( 'NONE', #401, 1000.000000000000000 ) ;
#762 = EDGE_CURVE ( 'NONE', #212, #419, #1004, .T. ) ;
#763 = DIRECTION ( 'NONE',  ( -1.000000000000000000, -0.000000000000000000, 7.228014483236699514E-17 ) ) ;
#764 = ORIENTED_EDGE ( 'NONE', *, *, #94, .F. ) ;
#765 = DIRECTION ( 'NONE',  ( 1.000000000000000000, 0.000000000000000000, 0.000000000000000000 ) ) ;
#766 = DIRECTION ( 'NONE',  ( 1.000000000000000000, 0.000000000000000000, 7.228014483236695816E-17 ) ) ;
#767 = FACE_BOUND ( 'NONE', #543, .T. ) ;
#768 = CARTESIAN_POINT ( 'NONE',  ( 0.9999999999999997780, 0.000000000000000000, -0.7500000000000002220 ) ) ;
#769 = VERTEX_POINT ( 'NONE', #1099 ) ;
#770 =( BOUNDED_CURVE ( )  B_SPLINE_CURVE ( 3, ( #577, #841, #130, #1102 ),
 .UNSPECIFIED., .F., .T. ) 
 B_SPLINE_CURVE_WITH_KNOTS ( ( 4, 4 ),
 ( 1.570796326794896558, 3.141592653589793116 ),
 .UNSPECIFIED. ) 
 CURVE ( )  GEOMETRIC_REPRESENTATION_ITEM ( )  RATIONAL_B_SPLINE_CURVE ( ( 1.000000000000000000, 0.8047378541243649375, 0.8047378541243649375, 1.000000000000000000 ) ) 
 REPRESENTATION_ITEM ( '' )  );
#771 = CARTESIAN_POINT ( 'NONE',  ( 0.000000000000000000, 79.00000000000000000, 0.000000000000000000 ) ) ;
#772 = ORIENTED_EDGE ( 'NONE', *, *, #161, .T. ) ;
#773 = CARTESIAN_POINT ( 'NONE',  ( 0.4999999999999994449, 78.75000000000000000, -2.249999999999999556 ) ) ;
#774 = ORIENTED_EDGE ( 'NONE', *, *, #397, .T. ) ;
#775 = CIRCLE ( 'NONE', #176, 0.7500000000000001110 ) ;
#776 = DIRECTION ( 'NONE',  ( -1.000000000000000000, 0.000000000000000000, 0.000000000000000000 ) ) ;
#777 = DIRECTION ( 'NONE',  ( -0.000000000000000000, 1.000000000000000000, -0.000000000000000000 ) ) ;
#778 = CARTESIAN_POINT ( 'NONE',  ( 2.250000000000000000, 79.00000000000000000, -0.5000000000000001110 ) ) ;
#779 = VERTEX_POINT ( 'NONE', #468 ) ;
#780 = CARTESIAN_POINT ( 'NONE',  ( 0.7500000000000000000, 2.710505431213761085E-16, 2.146446609406726047 ) ) ;
#781 = EDGE_LOOP ( 'NONE', ( #48, #183, #1111, #582 ) ) ;
#782 = EDGE_CURVE ( 'NONE', #721, #1131, #485, .T. ) ;
#783 = DIRECTION ( 'NONE',  ( 0.000000000000000000, -0.000000000000000000, 1.000000000000000000 ) ) ;
#784 = ORIENTED_EDGE ( 'NONE', *, *, #883, .F. ) ;
#785 = DIRECTION ( 'NONE',  ( 0.000000000000000000, -1.000000000000000000, 0.000000000000000000 ) ) ;
#786 = ORIENTED_EDGE ( 'NONE', *, *, #508, .F. ) ;
#787 = EDGE_CURVE ( 'NONE', #168, #399, #208, .T. ) ;
#788 = FACE_OUTER_BOUND ( 'NONE', #969, .T. ) ;
#789 = ORIENTED_EDGE ( 'NONE', *, *, #346, .T. ) ;
#790 = LINE ( 'NONE', #281, #1139 ) ;
#791 = DIRECTION ( 'NONE',  ( 0.000000000000000000, 0.000000000000000000, 1.000000000000000000 ) ) ;
#792 = VECTOR ( 'NONE', #144, 1000.000000000000000 ) ;
#793 = DIRECTION ( 'NONE',  ( 0.000000000000000000, -1.000000000000000000, 0.000000000000000000 ) ) ;
#794 = LINE ( 'NONE', #1054, #598 ) ;
#795 = ORIENTED_EDGE ( 'NONE', *, *, #326, .T. ) ;
#796 = DIRECTION ( 'NONE',  ( 0.000000000000000000, -1.000000000000000000, 0.000000000000000000 ) ) ;
#797 = VECTOR ( 'NONE', #249, 1000.000000000000000 ) ;
#798 = DIRECTION ( 'NONE',  ( 0.000000000000000000, -0.000000000000000000, 1.000000000000000000 ) ) ;
#799 = CARTESIAN_POINT ( 'NONE',  ( -0.7500000000000001110, 79.00000000000000000, 2.000000000000000000 ) ) ;
#800 = DIRECTION ( 'NONE',  ( 7.228014483236694583E-17, 0.000000000000000000, 1.000000000000000000 ) ) ;
#801 = ORIENTED_EDGE ( 'NONE', *, *, #374, .F. ) ;
#802 = CARTESIAN_POINT ( 'NONE',  ( -0.7500000000000002220, 0.000000000000000000, 1.000000000000000000 ) ) ;
#803 = CARTESIAN_POINT ( 'NONE',  ( 2.250000000000000000, 0.2500000000000002220, 0.4999999999999998890 ) ) ;
#804 = CARTESIAN_POINT ( 'NONE',  ( 2.146446609406726047, 2.710505431213761085E-16, -0.7500000000000000000 ) ) ;
#805 = ORIENTED_EDGE ( 'NONE', *, *, #55, .T. ) ;
#806 = DIRECTION ( 'NONE',  ( 1.000000000000000000, 0.000000000000000000, 0.000000000000000000 ) ) ;
#807 = CARTESIAN_POINT ( 'NONE',  ( -0.7500000000000004441, 0.000000000000000000, -1.000000000000000000 ) ) ;
#808 = EDGE_CURVE ( 'NONE', #636, #700, #838, .T. ) ;
#809 = CIRCLE ( 'NONE', #1101, 0.7500000000000001110 ) ;
#810 = VECTOR ( 'NONE', #355, 1000.000000000000000 ) ;
#811 = DIRECTION ( 'NONE',  ( 0.000000000000000000, 0.000000000000000000, -1.000000000000000000 ) ) ;
#812 = FACE_OUTER_BOUND ( 'NONE', #1079, .T. ) ;
#813 = VECTOR ( 'NONE', #327, 1000.000000000000000 ) ;
#814 = ORIENTED_EDGE ( 'NONE', *, *, #753, .F. ) ;
#815 = CARTESIAN_POINT ( 'NONE',  ( 0.7500000000000000000, 79.00000000000000000, 2.000000000000000000 ) ) ;
#816 = CARTESIAN_POINT ( 'NONE',  ( 0.000000000000000000, 78.75000000000000000, 2.000000000000000000 ) ) ;
#817 = ORIENTED_EDGE ( 'NONE', *, *, #462, .T. ) ;
#818 = SURFACE_STYLE_FILL_AREA ( #741 ) ;
#819 = VERTEX_POINT ( 'NONE', #827 ) ;
#820 = ADVANCED_FACE ( 'NONE', ( #581 ), #490, .T. ) ;
#821 = FACE_OUTER_BOUND ( 'NONE', #641, .T. ) ;
#822 = UNCERTAINTY_MEASURE_WITH_UNIT (LENGTH_MEASURE( 1.000000000000000082E-05 ), #657, 'distance_accuracy_value', 'NONE');
#823 = FILL_AREA_STYLE_COLOUR ( '', #517 ) ;
#824 = DIRECTION ( 'NONE',  ( 0.000000000000000000, 0.000000000000000000, -1.000000000000000000 ) ) ;
#825 = AXIS2_PLACEMENT_3D ( 'NONE', #986, #83, #449 ) ;
#826 = EDGE_LOOP ( 'NONE', ( #466, #1118, #655, #294 ) ) ;
#827 = CARTESIAN_POINT ( 'NONE',  ( -0.7500000000000005551, 0.000000000000000000, -1.999999999999999112 ) ) ;
#828 = EDGE_CURVE ( 'NONE', #1039, #721, #315, .T. ) ;
#829 = ORIENTED_EDGE ( 'NONE', *, *, #283, .T. ) ;
#830 = AXIS2_PLACEMENT_3D ( 'NONE', #899, #532, #985 ) ;
#831 = CARTESIAN_POINT ( 'NONE',  ( -0.6464466094067266022, 0.1035533905932740362, -2.249999999999999112 ) ) ;
#832 = EDGE_CURVE ( 'NONE', #399, #40, #738, .T. ) ;
#833 = EDGE_CURVE ( 'NONE', #405, #513, #1105, .T. ) ;
#834 = AXIS2_PLACEMENT_3D ( 'NONE', #751, #843, #474 ) ;
#835 = CYLINDRICAL_SURFACE ( 'NONE', #850, 0.2500000000000000000 ) ;
#836 =( BOUNDED_CURVE ( )  B_SPLINE_CURVE ( 3, ( #349, #1053, #261, #799 ),
 .UNSPECIFIED., .F., .T. ) 
 B_SPLINE_CURVE_WITH_KNOTS ( ( 4, 4 ),
 ( 4.712388980384689674, 6.283185307179586232 ),
 .UNSPECIFIED. ) 
 CURVE ( )  GEOMETRIC_REPRESENTATION_ITEM ( )  RATIONAL_B_SPLINE_CURVE ( ( 1.000000000000000000, 0.8047378541243649375, 0.8047378541243649375, 1.000000000000000000 ) ) 
 REPRESENTATION_ITEM ( '' )  );
#837 = ORIENTED_EDGE ( 'NONE', *, *, #110, .T. ) ;
#838 = LINE ( 'NONE', #1010, #761 ) ;
#839 = ORIENTED_EDGE ( 'NONE', *, *, #787, .F. ) ;
#840 = EDGE_CURVE ( 'NONE', #670, #381, #313, .T. ) ;
#841 = CARTESIAN_POINT ( 'NONE',  ( -0.6464466094067266022, 78.89644660940673759, -2.249999999999999112 ) ) ;
#842 = ORIENTED_EDGE ( 'NONE', *, *, #753, .T. ) ;
#843 = DIRECTION ( 'NONE',  ( -0.000000000000000000, -1.000000000000000000, -0.000000000000000000 ) ) ;
#844 = CYLINDRICAL_SURFACE ( 'NONE', #709, 0.2500000000000000000 ) ;
#845 = DIRECTION ( 'NONE',  ( -0.000000000000000000, -1.000000000000000000, -0.000000000000000000 ) ) ;
#846 = EDGE_CURVE ( 'NONE', #712, #957, #365, .T. ) ;
#847 = ORIENTED_EDGE ( 'NONE', *, *, #877, .F. ) ;
#848 = DIRECTION ( 'NONE',  ( 0.000000000000000000, 0.000000000000000000, 1.000000000000000000 ) ) ;
#849 = ORIENTED_EDGE ( 'NONE', *, *, #828, .F. ) ;
#850 = AXIS2_PLACEMENT_3D ( 'NONE', #1002, #201, #824 ) ;
#851 = AXIS2_PLACEMENT_3D ( 'NONE', #710, #881, #960 ) ;
#852 = CYLINDRICAL_SURFACE ( 'NONE', #199, 0.2500000000000000000 ) ;
#853 = CARTESIAN_POINT ( 'NONE',  ( 0.4999999999999994449, 79.00000000000000000, -2.249999999999999556 ) ) ;
#854 = ORIENTED_EDGE ( 'NONE', *, *, #190, .F. ) ;
#855 = CARTESIAN_POINT ( 'NONE',  ( 2.000000000000000000, 79.00000000000000000, 0.4999999999999998890 ) ) ;
#856 = DIRECTION ( 'NONE',  ( 0.000000000000000000, 0.000000000000000000, 1.000000000000000000 ) ) ;
#857 = DIRECTION ( 'NONE',  ( 0.000000000000000000, 0.000000000000000000, 1.000000000000000000 ) ) ;
#858 = FACE_OUTER_BOUND ( 'NONE', #706, .T. ) ;
#859 = CARTESIAN_POINT ( 'NONE',  ( 0.7499999999999996669, 0.000000000000000000, -0.7500000000000002220 ) ) ;
#860 = ORIENTED_EDGE ( 'NONE', *, *, #832, .T. ) ;
#861 = EDGE_CURVE ( 'NONE', #938, #494, #1142, .T. ) ;
#862 = CARTESIAN_POINT ( 'NONE',  ( 0.000000000000000000, 0.000000000000000000, 0.000000000000000000 ) ) ;
#863 = DIRECTION ( 'NONE',  ( 0.000000000000000000, -0.000000000000000000, 1.000000000000000000 ) ) ;
#864 = DIRECTION ( 'NONE',  ( 0.000000000000000000, -1.000000000000000000, 0.000000000000000000 ) ) ;
#865 = ORIENTED_EDGE ( 'NONE', *, *, #161, .F. ) ;
#866 = ADVANCED_FACE ( 'NONE', ( #821 ), #23, .F. ) ;
#867 = AXIS2_PLACEMENT_3D ( 'NONE', #70, #941, #57 ) ;
#868 = CARTESIAN_POINT ( 'NONE',  ( -2.250000000000000000, 0.2500000000000002220, 0.4999999999999998890 ) ) ;
#869 = ADVANCED_FACE ( 'NONE', ( #423 ), #334, .F. ) ;
#870 = AXIS2_PLACEMENT_3D ( 'NONE', #816, #372, #730 ) ;
#871 = ORIENTED_EDGE ( 'NONE', *, *, #61, .F. ) ;
#872 = CARTESIAN_POINT ( 'NONE',  ( 2.000000000000000000, 79.00000000000000000, -0.7500000000000001110 ) ) ;
#873 = ORIENTED_EDGE ( 'NONE', *, *, #213, .T. ) ;
#874 = VECTOR ( 'NONE', #864, 1000.000000000000000 ) ;
#875 = EDGE_CURVE ( 'NONE', #819, #950, #606, .T. ) ;
#876 = CARTESIAN_POINT ( 'NONE',  ( 9.184850993605150903E-17, 0.000000000000000000, 0.7500000000000001110 ) ) ;
#877 = EDGE_CURVE ( 'NONE', #1087, #938, #945, .T. ) ;
#878 = CARTESIAN_POINT ( 'NONE',  ( 2.250000000000000000, 79.00000000000000000, -0.7500000000000001110 ) ) ;
#879 = LINE ( 'NONE', #342, #331 ) ;
#880 = VERTEX_POINT ( 'NONE', #613 ) ;
#881 = DIRECTION ( 'NONE',  ( -1.000000000000000000, 0.000000000000000000, 0.000000000000000000 ) ) ;
#882 = FACE_OUTER_BOUND ( 'NONE', #760, .T. ) ;
#883 = EDGE_CURVE ( 'NONE', #405, #981, #690, .T. ) ;
#884 = LINE ( 'NONE', #968, #486 ) ;
#885 = ORIENTED_EDGE ( 'NONE', *, *, #660, .T. ) ;
#886 = FACE_OUTER_BOUND ( 'NONE', #568, .T. ) ;
#887 = FACE_BOUND ( 'NONE', #932, .T. ) ;
#888 = CIRCLE ( 'NONE', #1125, 0.7500000000000001110 ) ;
#889 = PLANE ( 'NONE',  #825 ) ;
#890 = PLANE ( 'NONE',  #348 ) ;
#891 = ORIENTED_EDGE ( 'NONE', *, *, #559, .F. ) ;
#892 = AXIS2_PLACEMENT_3D ( 'NONE', #567, #306, #41 ) ;
#893 = CARTESIAN_POINT ( 'NONE',  ( 0.000000000000000000, 74.00000000000000000, 0.000000000000000000 ) ) ;
#894 = DIRECTION ( 'NONE',  ( -1.000000000000000000, 0.000000000000000000, 7.228014483236698281E-17 ) ) ;
#895 = DIRECTION ( 'NONE',  ( -0.000000000000000000, 1.000000000000000000, -0.000000000000000000 ) ) ;
#896 = ORIENTED_EDGE ( 'NONE', *, *, #415, .T. ) ;
#897 = CARTESIAN_POINT ( 'NONE',  ( 0.6464466094067262691, 78.89644660940673759, 2.250000000000000000 ) ) ;
#898 = EDGE_CURVE ( 'NONE', #1087, #819, #1032, .T. ) ;
#899 = CARTESIAN_POINT ( 'NONE',  ( -1.000000000000000222, 0.000000000000000000, 1.000000000000000000 ) ) ;
#900 = CARTESIAN_POINT ( 'NONE',  ( 2.000000000000000000, 79.00000000000000000, 0.7499999999999998890 ) ) ;
#901 = CARTESIAN_POINT ( 'NONE',  ( -0.7500000000000005551, 0.2500000000000002220, -2.249999999999999556 ) ) ;
#902 = ORIENTED_EDGE ( 'NONE', *, *, #645, .F. ) ;
#903 = LINE ( 'NONE', #977, #461 ) ;
#904 = CARTESIAN_POINT ( 'NONE',  ( 2.250000000000000000, 0.2500000000000002220, -0.5000000000000001110 ) ) ;
#905 = LINE ( 'NONE', #1091, #1044 ) ;
#906 = EDGE_CURVE ( 'NONE', #275, #572, #695, .T. ) ;
#907 = AXIS2_PLACEMENT_3D ( 'NONE', #966, #785, #96 ) ;
#908 = VERTEX_POINT ( 'NONE', #47 ) ;
#909 = CARTESIAN_POINT ( 'NONE',  ( -0.7500000000000000000, 2.531160059757831124E-16, 2.146446609406726047 ) ) ;
#910 = CARTESIAN_POINT ( 'NONE',  ( 0.9999999999999997780, 0.000000000000000000, 0.7499999999999998890 ) ) ;
#911 = ORIENTED_EDGE ( 'NONE', *, *, #808, .F. ) ;
#912 = CARTESIAN_POINT ( 'NONE',  ( 0.000000000000000000, 74.00000000000000000, 0.7500000000000001110 ) ) ;
#913 = DIRECTION ( 'NONE',  ( -1.000000000000000000, 0.000000000000000000, -0.000000000000000000 ) ) ;
#914 = LINE ( 'NONE', #921, #939 ) ;
#915 = EDGE_CURVE ( 'NONE', #494, #407, #1042, .T. ) ;
#916 = ORIENTED_EDGE ( 'NONE', *, *, #320, .F. ) ;
#917 = CARTESIAN_POINT ( 'NONE',  ( 0.9999999999999997780, 79.00000000000000000, 0.7499999999999998890 ) ) ;
#918 = ORIENTED_EDGE ( 'NONE', *, *, #89, .T. ) ;
#919 = EDGE_CURVE ( 'NONE', #619, #607, #389, .T. ) ;
#920 =( NAMED_UNIT ( * ) SI_UNIT ( $, .STERADIAN. ) SOLID_ANGLE_UNIT ( ) );
#921 = CARTESIAN_POINT ( 'NONE',  ( -2.250000000000000000, 78.75000000000000000, -0.7500000000000001110 ) ) ;
#922 = ORIENTED_EDGE ( 'NONE', *, *, #312, .T. ) ;
#923 = EDGE_CURVE ( 'NONE', #636, #1094, #1072, .T. ) ;
#924 = AXIS2_PLACEMENT_3D ( 'NONE', #592, #420, #857 ) ;
#925 = DIRECTION ( 'NONE',  ( -0.000000000000000000, 0.000000000000000000, -1.000000000000000000 ) ) ;
#926 = ORIENTED_EDGE ( 'NONE', *, *, #190, .T. ) ;
#927 = VERTEX_POINT ( 'NONE', #773 ) ;
#928 = CARTESIAN_POINT ( 'NONE',  ( 0.4999999999999994449, 0.2500000000000002220, -2.249999999999999556 ) ) ;
#929 = EDGE_LOOP ( 'NONE', ( #842, #35, #457, #280 ) ) ;
#930 = ADVANCED_FACE ( 'NONE', ( #142 ), #53, .F. ) ;
#931 = DIRECTION ( 'NONE',  ( 0.000000000000000000, -1.000000000000000000, 0.000000000000000000 ) ) ;
#932 = EDGE_LOOP ( 'NONE', ( #133, #746 ) ) ;
#933 = DIRECTION ( 'NONE',  ( -0.000000000000000000, -0.000000000000000000, 1.000000000000000000 ) ) ;
#934 = LINE ( 'NONE', #853, #269 ) ;
#935 = DIRECTION ( 'NONE',  ( 0.000000000000000000, 0.000000000000000000, -1.000000000000000000 ) ) ;
#936 = VECTOR ( 'NONE', #777, 1000.000000000000000 ) ;
#937 = DIRECTION ( 'NONE',  ( -0.000000000000000000, -1.000000000000000000, -0.000000000000000000 ) ) ;
#938 = VERTEX_POINT ( 'NONE', #1123 ) ;
#939 = VECTOR ( 'NONE', #297, 1000.000000000000000 ) ;
#940 = EDGE_CURVE ( 'NONE', #572, #636, #518, .T. ) ;
#941 = DIRECTION ( 'NONE',  ( 1.000000000000000000, -0.000000000000000000, 0.000000000000000000 ) ) ;
#942 = AXIS2_PLACEMENT_3D ( 'NONE', #242, #590, #230 ) ;
#943 = EDGE_CURVE ( 'NONE', #1098, #1094, #329, .T. ) ;
#944 = ORIENTED_EDGE ( 'NONE', *, *, #782, .T. ) ;
#945 = LINE ( 'NONE', #150, #797 ) ;
#946 = ORIENTED_EDGE ( 'NONE', *, *, #663, .F. ) ;
#947 = DIRECTION ( 'NONE',  ( 0.000000000000000000, -1.000000000000000000, 0.000000000000000000 ) ) ;
#948 = ORIENTED_EDGE ( 'NONE', *, *, #1119, .T. ) ;
#949 = DIRECTION ( 'NONE',  ( 0.000000000000000000, 0.000000000000000000, -1.000000000000000000 ) ) ;
#950 = VERTEX_POINT ( 'NONE', #72 ) ;
#951 = CARTESIAN_POINT ( 'NONE',  ( 9.184850993605150903E-17, 74.00000000000000000, -0.7500000000000001110 ) ) ;
#952 = ORIENTED_EDGE ( 'NONE', *, *, #391, .T. ) ;
#953 = CARTESIAN_POINT ( 'NONE',  ( -0.7500000000000005551, 79.00000000000000000, -1.999999999999999112 ) ) ;
#954 = EDGE_LOOP ( 'NONE', ( #473, #674, #147, #602 ) ) ;
#955 = DIRECTION ( 'NONE',  ( 0.000000000000000000, 1.000000000000000000, 0.000000000000000000 ) ) ;
#956 = AXIS2_PLACEMENT_3D ( 'NONE', #632, #13, #549 ) ;
#957 = VERTEX_POINT ( 'NONE', #319 ) ;
#958 = DIRECTION ( 'NONE',  ( -1.000000000000000000, 0.000000000000000000, 0.000000000000000000 ) ) ;
#959 = ORIENTED_EDGE ( 'NONE', *, *, #626, .F. ) ;
#960 = DIRECTION ( 'NONE',  ( 0.000000000000000000, 0.000000000000000000, 1.000000000000000000 ) ) ;
#961 = ADVANCED_FACE ( 'NONE', ( #1026 ), #595, .T. ) ;
#962 = CARTESIAN_POINT ( 'NONE',  ( 0.000000000000000000, 5.000000000000000000, 0.000000000000000000 ) ) ;
#963 = CARTESIAN_POINT ( 'NONE',  ( 2.000000000000000000, 79.00000000000000000, 0.7499999999999998890 ) ) ;
#964 = ORIENTED_EDGE ( 'NONE', *, *, #923, .F. ) ;
#965 = CARTESIAN_POINT ( 'NONE',  ( 0.7499999999999997780, 79.00000000000000000, 0.7499999999999998890 ) ) ;
#966 = CARTESIAN_POINT ( 'NONE',  ( -2.000000000000000000, 79.00000000000000000, 0.4999999999999998890 ) ) ;
#967 = CARTESIAN_POINT ( 'NONE',  ( 0.7499999999999994449, 79.00000000000000000, -1.999999999999999112 ) ) ;
#968 = CARTESIAN_POINT ( 'NONE',  ( -0.7500000000000001110, 78.75000000000000000, 2.250000000000000444 ) ) ;
#969 = EDGE_LOOP ( 'NONE', ( #479, #630, #873, #301 ) ) ;
#970 = CARTESIAN_POINT ( 'NONE',  ( -0.5000000000000001110, 0.2500000000000002220, 2.250000000000000444 ) ) ;
#971 = DIRECTION ( 'NONE',  ( 0.000000000000000000, 1.000000000000000000, 0.000000000000000000 ) ) ;
#972 = VECTOR ( 'NONE', #931, 1000.000000000000000 ) ;
#973 = CARTESIAN_POINT ( 'NONE',  ( 0.000000000000000000, 5.000000000000000000, -0.7500000000000001110 ) ) ;
#974 = CIRCLE ( 'NONE', #830, 0.2500000000000000000 ) ;
#975 = DIRECTION ( 'NONE',  ( 0.000000000000000000, -1.000000000000000000, 0.000000000000000000 ) ) ;
#976 = ORIENTED_EDGE ( 'NONE', *, *, #645, .T. ) ;
#977 = CARTESIAN_POINT ( 'NONE',  ( 0.7499999999999998890, 79.00000000000000000, 1.000000000000000000 ) ) ;
#978 = VECTOR ( 'NONE', #586, 1000.000000000000000 ) ;
#979 = DIRECTION ( 'NONE',  ( -1.000000000000000000, 0.000000000000000000, 2.168404344971008375E-16 ) ) ;
#980 = DIRECTION ( 'NONE',  ( 0.000000000000000000, 0.000000000000000000, -1.000000000000000000 ) ) ;
#981 = VERTEX_POINT ( 'NONE', #768 ) ;
#982 = DIRECTION ( 'NONE',  ( -0.000000000000000000, 1.000000000000000000, -0.000000000000000000 ) ) ;
#983 = ADVANCED_FACE ( 'NONE', ( #501 ), #1132, .T. ) ;
#984 = EDGE_CURVE ( 'NONE', #212, #376, #181, .T. ) ;
#985 = DIRECTION ( 'NONE',  ( 0.000000000000000000, 0.000000000000000000, 1.000000000000000000 ) ) ;
#986 = CARTESIAN_POINT ( 'NONE',  ( 0.000000000000000000, 0.000000000000000000, 0.000000000000000000 ) ) ;
#987 = ORIENTED_EDGE ( 'NONE', *, *, #374, .T. ) ;
#988 = EDGE_CURVE ( 'NONE', #193, #168, #711, .T. ) ;
#989 = DIRECTION ( 'NONE',  ( 0.000000000000000000, -1.000000000000000000, 0.000000000000000000 ) ) ;
#990 = EDGE_CURVE ( 'NONE', #927, #131, #1114, .T. ) ;
#991 = CARTESIAN_POINT ( 'NONE',  ( -0.7500000000000005551, 0.000000000000000000, -1.999999999999999112 ) ) ;
#992 = DIRECTION ( 'NONE',  ( 0.000000000000000000, 0.000000000000000000, -1.000000000000000000 ) ) ;
#993 = EDGE_LOOP ( 'NONE', ( #849, #717, #854, #414 ) ) ;
#994 = CARTESIAN_POINT ( 'NONE',  ( 2.000000000000000000, 0.000000000000000000, 0.000000000000000000 ) ) ;
#995 = UNCERTAINTY_MEASURE_WITH_UNIT (LENGTH_MEASURE( 1.000000000000000082E-05 ), #21, 'distance_accuracy_value', 'NONE');
#996 = EDGE_CURVE ( 'NONE', #494, #1092, #879, .T. ) ;
#997 = CARTESIAN_POINT ( 'NONE',  ( -0.5000000000000005551, 0.2500000000000002220, -2.249999999999999556 ) ) ;
#998 = VERTEX_POINT ( 'NONE', #356 ) ;
#999 = CARTESIAN_POINT ( 'NONE',  ( 0.000000000000000000, 5.000000000000000000, 0.000000000000000000 ) ) ;
#1000 = ORIENTED_EDGE ( 'NONE', *, *, #755, .F. ) ;
#1001 =( NAMED_UNIT ( * ) PLANE_ANGLE_UNIT ( ) SI_UNIT ( $, .RADIAN. ) );
#1002 = CARTESIAN_POINT ( 'NONE',  ( -2.000000000000000000, 79.00000000000000000, -0.5000000000000001110 ) ) ;
#1003 = ORIENTED_EDGE ( 'NONE', *, *, #507, .T. ) ;
#1004 = LINE ( 'NONE', #912, #387 ) ;
#1005 = ORIENTED_EDGE ( 'NONE', *, *, #840, .F. ) ;
#1006 = CARTESIAN_POINT ( 'NONE',  ( -2.000000000000000000, 79.00000000000000000, 0.7499999999999998890 ) ) ;
#1007 = CARTESIAN_POINT ( 'NONE',  ( -0.7500000000000001110, 79.00000000000000000, 2.000000000000000000 ) ) ;
#1008 = ORIENTED_EDGE ( 'NONE', *, *, #1009, .F. ) ;
#1009 = EDGE_CURVE ( 'NONE', #229, #908, #1059, .T. ) ;
#1010 = CARTESIAN_POINT ( 'NONE',  ( 2.250000000000000000, 78.75000000000000000, 0.7499999999999998890 ) ) ;
#1011 = ORIENTED_EDGE ( 'NONE', *, *, #1052, .F. ) ;
#1012 = DIRECTION ( 'NONE',  ( 0.000000000000000000, 0.000000000000000000, 1.000000000000000000 ) ) ;
#1013 = VECTOR ( 'NONE', #163, 1000.000000000000000 ) ;
#1014 = ORIENTED_EDGE ( 'NONE', *, *, #320, .T. ) ;
#1015 = DIRECTION ( 'NONE',  ( -0.000000000000000000, -1.000000000000000000, -0.000000000000000000 ) ) ;
#1016 = ORIENTED_EDGE ( 'NONE', *, *, #875, .F. ) ;
#1017 = EDGE_CURVE ( 'NONE', #1100, #229, #436, .T. ) ;
#1018 = CARTESIAN_POINT ( 'NONE',  ( 0.000000000000000000, 0.000000000000000000, 0.000000000000000000 ) ) ;
#1019 = LINE ( 'NONE', #238, #792 ) ;
#1020 = ORIENTED_EDGE ( 'NONE', *, *, #1017, .T. ) ;
#1021 = DIRECTION ( 'NONE',  ( 0.000000000000000000, 1.000000000000000000, 0.000000000000000000 ) ) ;
#1022 = ORIENTED_EDGE ( 'NONE', *, *, #79, .T. ) ;
#1023 = DIRECTION ( 'NONE',  ( 0.000000000000000000, -1.000000000000000000, 0.000000000000000000 ) ) ;
#1024 = VECTOR ( 'NONE', #373, 1000.000000000000000 ) ;
#1025 = EDGE_LOOP ( 'NONE', ( #801, #1060, #1133, #125 ) ) ;
#1026 = FACE_OUTER_BOUND ( 'NONE', #659, .T. ) ;
#1027 = ORIENTED_EDGE ( 'NONE', *, *, #1017, .F. ) ;
#1028 = LINE ( 'NONE', #497, #366 ) ;
#1029 = AXIS2_PLACEMENT_3D ( 'NONE', #505, #1117, #783 ) ;
#1030 = ORIENTED_EDGE ( 'NONE', *, *, #103, .T. ) ;
#1031 = VECTOR ( 'NONE', #274, 1000.000000000000000 ) ;
#1032 = LINE ( 'NONE', #953, #874 ) ;
#1033 = EDGE_LOOP ( 'NONE', ( #337, #433, #1020, #314 ) ) ;
#1034 = APPLICATION_CONTEXT ( 'automotive_design' ) ;
#1035 =( BOUNDED_CURVE ( )  B_SPLINE_CURVE ( 3, ( #991, #385, #831, #575 ),
 .UNSPECIFIED., .F., .F. ) 
 B_SPLINE_CURVE_WITH_KNOTS ( ( 4, 4 ),
 ( 0.000000000000000000, 1.570796326794896780 ),
 .UNSPECIFIED. ) 
 CURVE ( )  GEOMETRIC_REPRESENTATION_ITEM ( )  RATIONAL_B_SPLINE_CURVE ( ( 1.000000000000000000, 0.8047378541243649375, 0.8047378541243649375, 1.000000000000000000 ) ) 
 REPRESENTATION_ITEM ( '' )  );
#1036 = DIRECTION ( 'NONE',  ( -0.000000000000000000, 1.000000000000000000, -0.000000000000000000 ) ) ;
#1037 = DIRECTION ( 'NONE',  ( 0.000000000000000000, 0.000000000000000000, 1.000000000000000000 ) ) ;
#1038 = CARTESIAN_POINT ( 'NONE',  ( 2.250000000000000000, 0.2500000000000002220, -0.7500000000000001110 ) ) ;
#1039 = VERTEX_POINT ( 'NONE', #98 ) ;
#1040 = PLANE ( 'NONE',  #516 ) ;
#1041 = CARTESIAN_POINT ( 'NONE',  ( 0.000000000000000000, 5.000000000000000000, -0.7500000000000001110 ) ) ;
#1042 = LINE ( 'NONE', #511, #254 ) ;
#1043 = ORIENTED_EDGE ( 'NONE', *, *, #7, .T. ) ;
#1044 = VECTOR ( 'NONE', #285, 1000.000000000000000 ) ;
#1045 = AXIS2_PLACEMENT_3D ( 'NONE', #111, #669, #386 ) ;
#1046 = CARTESIAN_POINT ( 'NONE',  ( 0.7499999999999997780, 79.00000000000000000, 0.7499999999999998890 ) ) ;
#1047 = DIRECTION ( 'NONE',  ( -1.000000000000000000, 0.000000000000000000, 1.445602896647340149E-16 ) ) ;
#1048 = DIRECTION ( 'NONE',  ( -1.000000000000000000, 0.000000000000000000, -0.000000000000000000 ) ) ;
#1049 = ORIENTED_EDGE ( 'NONE', *, *, #221, .T. ) ;
#1050 = CARTESIAN_POINT ( 'NONE',  ( 0.000000000000000000, 0.000000000000000000, 0.000000000000000000 ) ) ;
#1051 = FACE_OUTER_BOUND ( 'NONE', #506, .T. ) ;
#1052 = EDGE_CURVE ( 'NONE', #351, #548, #884, .T. ) ;
#1053 = CARTESIAN_POINT ( 'NONE',  ( -0.6464466094067262691, 78.89644660940673759, 2.250000000000000000 ) ) ;
#1054 = CARTESIAN_POINT ( 'NONE',  ( -2.000000000000000000, 79.00000000000000000, -0.7500000000000001110 ) ) ;
#1055 = VERTEX_POINT ( 'NONE', #262 ) ;
#1056 = CARTESIAN_POINT ( 'NONE',  ( -1.000000000000000222, 79.00000000000000000, 1.000000000000000000 ) ) ;
#1057 = EDGE_CURVE ( 'NONE', #1055, #131, #1066, .T. ) ;
#1058 = CARTESIAN_POINT ( 'NONE',  ( 0.9999999999999997780, 79.00000000000000000, -1.000000000000000222 ) ) ;
#1059 = LINE ( 'NONE', #536, #1013 ) ;
#1060 = ORIENTED_EDGE ( 'NONE', *, *, #984, .F. ) ;
#1061 = DIRECTION ( 'NONE',  ( 0.000000000000000000, 0.000000000000000000, -1.000000000000000000 ) ) ;
#1062 = CARTESIAN_POINT ( 'NONE',  ( 2.250000000000000000, 78.89644660940673759, 0.6464466094067260471 ) ) ;
#1063 = ADVANCED_FACE ( 'NONE', ( #812 ), #350, .F. ) ;
#1064 = LINE ( 'NONE', #91, #1024 ) ;
#1065 = AXIS2_PLACEMENT_3D ( 'NONE', #295, #735, #109 ) ;
#1066 = LINE ( 'NONE', #629, #51 ) ;
#1067 = ORIENTED_EDGE ( 'NONE', *, *, #39, .F. ) ;
#1068 = ADVANCED_FACE ( 'NONE', ( #727 ), #182, .F. ) ;
#1069 = CARTESIAN_POINT ( 'NONE',  ( -1.000000000000000222, 79.00000000000000000, 0.7499999999999997780 ) ) ;
#1070 = DIRECTION ( 'NONE',  ( -7.228014483236698281E-17, 0.000000000000000000, -1.000000000000000000 ) ) ;
#1071 = CARTESIAN_POINT ( 'NONE',  ( 0.7499999999999994449, 79.00000000000000000, -2.249999999999999556 ) ) ;
#1072 =( BOUNDED_CURVE ( )  B_SPLINE_CURVE ( 3, ( #59, #1128, #136, #155 ),
 .UNSPECIFIED., .F., .F. ) 
 B_SPLINE_CURVE_WITH_KNOTS ( ( 4, 4 ),
 ( 1.570796326794896558, 3.141592653589793116 ),
 .UNSPECIFIED. ) 
 CURVE ( )  GEOMETRIC_REPRESENTATION_ITEM ( )  RATIONAL_B_SPLINE_CURVE ( ( 1.000000000000000000, 0.8047378541243649375, 0.8047378541243649375, 1.000000000000000000 ) ) 
 REPRESENTATION_ITEM ( '' )  );
#1073 = CARTESIAN_POINT ( 'NONE',  ( 0.000000000000000000, 74.00000000000000000, 0.000000000000000000 ) ) ;
#1074 = ORIENTED_EDGE ( 'NONE', *, *, #626, .T. ) ;
#1075 = EDGE_CURVE ( 'NONE', #712, #407, #794, .T. ) ;
#1076 = DIRECTION ( 'NONE',  ( 0.000000000000000000, -1.000000000000000000, 0.000000000000000000 ) ) ;
#1077 = LINE ( 'NONE', #284, #367 ) ;
#1078 = CYLINDRICAL_SURFACE ( 'NONE', #554, 0.2500000000000000000 ) ;
#1079 = EDGE_LOOP ( 'NONE', ( #93, #1022, #204, #944 ) ) ;
#1080 = CARTESIAN_POINT ( 'NONE',  ( -2.250000000000000000, 0.2500000000000002220, -0.5000000000000001110 ) ) ;
#1081 = SURFACE_STYLE_USAGE ( .BOTH. , #19 ) ;
#1082 = CIRCLE ( 'NONE', #101, 0.7500000000000001110 ) ;
#1083 = CARTESIAN_POINT ( 'NONE',  ( 0.000000000000000000, 5.000000000000000000, 0.000000000000000000 ) ) ;
#1084 = AXIS2_PLACEMENT_3D ( 'NONE', #482, #304, #1012 ) ;
#1085 = PRODUCT ( 'BASSE DE SISTEMA DE TRANSMISION DE STEELBOT  CORTO', 'BASSE DE SISTEMA DE TRANSMISION DE STEELBOT  CORTO', '', ( #502 ) ) ;
#1086 = PRESENTATION_LAYER_ASSIGNMENT (  '', '', ( #576 ) ) ;
#1087 = VERTEX_POINT ( 'NONE', #1143 ) ;
#1088 = CYLINDRICAL_SURFACE ( 'NONE', #892, 0.2500000000000000000 ) ;
#1089 = ORIENTED_EDGE ( 'NONE', *, *, #114, .F. ) ;
#1090 = AXIS2_PLACEMENT_3D ( 'NONE', #855, #338, #684 ) ;
#1091 = CARTESIAN_POINT ( 'NONE',  ( -2.250000000000000000, 0.000000000000000000, 0.7499999999999998890 ) ) ;
#1092 = VERTEX_POINT ( 'NONE', #173 ) ;
#1093 = CARTESIAN_POINT ( 'NONE',  ( 0.9999999999999997780, 0.000000000000000000, 0.7499999999999998890 ) ) ;
#1094 = VERTEX_POINT ( 'NONE', #529 ) ;
#1095 = LINE ( 'NONE', #481, #612 ) ;
#1096 = ADVANCED_FACE ( 'NONE', ( #788 ), #890, .F. ) ;
#1097 = DIRECTION ( 'NONE',  ( 1.000000000000000000, -0.000000000000000000, 0.000000000000000000 ) ) ;
#1098 = VERTEX_POINT ( 'NONE', #963 ) ;
#1099 = CARTESIAN_POINT ( 'NONE',  ( 0.5000000000000000000, 0.2500000000000002220, 2.250000000000000444 ) ) ;
#1100 = VERTEX_POINT ( 'NONE', #256 ) ;
#1101 = AXIS2_PLACEMENT_3D ( 'NONE', #962, #793, #980 ) ;
#1102 = CARTESIAN_POINT ( 'NONE',  ( -0.7500000000000005551, 79.00000000000000000, -1.999999999999999112 ) ) ;
#1103 = AXIS2_PLACEMENT_3D ( 'NONE', #1058, #715, #266 ) ;
#1104 = ORIENTED_EDGE ( 'NONE', *, *, #990, .F. ) ;
#1105 = LINE ( 'NONE', #994, #560 ) ;
#1106 = ORIENTED_EDGE ( 'NONE', *, *, #354, .F. ) ;
#1107 = VECTOR ( 'NONE', #551, 1000.000000000000000 ) ;
#1108 = FACE_OUTER_BOUND ( 'NONE', #362, .T. ) ;
#1109 = CYLINDRICAL_SURFACE ( 'NONE', #867, 0.2500000000000000000 ) ;
#1110 = PRODUCT_DEFINITION_FORMATION_WITH_SPECIFIED_SOURCE ( 'ANY', '', #1085, .NOT_KNOWN. ) ;
#1111 = ORIENTED_EDGE ( 'NONE', *, *, #462, .F. ) ;
#1112 = CARTESIAN_POINT ( 'NONE',  ( -0.7500000000000002220, 79.00000000000000000, 0.7499999999999997780 ) ) ;
#1113 = ORIENTED_EDGE ( 'NONE', *, *, #413, .F. ) ;
#1114 =( BOUNDED_CURVE ( )  B_SPLINE_CURVE ( 3, ( #187, #456, #618, #547 ),
 .UNSPECIFIED., .F., .T. ) 
 B_SPLINE_CURVE_WITH_KNOTS ( ( 4, 4 ),
 ( 4.712388980384689674, 6.283185307179586232 ),
 .UNSPECIFIED. ) 
 CURVE ( )  GEOMETRIC_REPRESENTATION_ITEM ( )  RATIONAL_B_SPLINE_CURVE ( ( 1.000000000000000000, 0.8047378541243649375, 0.8047378541243649375, 1.000000000000000000 ) ) 
 REPRESENTATION_ITEM ( '' )  );
#1115 = DIRECTION ( 'NONE',  ( 0.000000000000000000, -1.000000000000000000, 0.000000000000000000 ) ) ;
#1116 = ORIENTED_EDGE ( 'NONE', *, *, #716, .T. ) ;
#1117 = DIRECTION ( 'NONE',  ( 0.000000000000000000, 1.000000000000000000, 0.000000000000000000 ) ) ;
#1118 = ORIENTED_EDGE ( 'NONE', *, *, #594, .T. ) ;
#1119 = EDGE_CURVE ( 'NONE', #607, #193, #167, .T. ) ;
#1120 = ADVANCED_FACE ( 'NONE', ( #542 ), #844, .F. ) ;
#1121 = CARTESIAN_POINT ( 'NONE',  ( 0.7499999999999996669, 79.00000000000000000, -0.7500000000000002220 ) ) ;
#1122 = EDGE_LOOP ( 'NONE', ( #217, #1030, #267, #396 ) ) ;
#1123 = CARTESIAN_POINT ( 'NONE',  ( -0.7500000000000004441, 79.00000000000000000, -1.000000000000000000 ) ) ;
#1124 = ORIENTED_EDGE ( 'NONE', *, *, #7, .F. ) ;
#1125 = AXIS2_PLACEMENT_3D ( 'NONE', #117, #1115, #234 ) ;
#1126 = DIRECTION ( 'NONE',  ( -7.228014483236695816E-17, 0.000000000000000000, 1.000000000000000000 ) ) ;
#1127 = DIRECTION ( 'NONE',  ( -1.000000000000000000, 0.000000000000000000, 0.000000000000000000 ) ) ;
#1128 = CARTESIAN_POINT ( 'NONE',  ( 2.250000000000000000, 78.89644660940673759, -0.6464466094067262691 ) ) ;
#1129 = ORIENTED_EDGE ( 'NONE', *, *, #877, .T. ) ;
#1130 = CARTESIAN_POINT ( 'NONE',  ( 0.6464466094067262691, 0.1035533905932740362, 2.250000000000000000 ) ) ;
#1131 = VERTEX_POINT ( 'NONE', #910 ) ;
#1132 = PLANE ( 'NONE',  #1029 ) ;
#1133 = ORIENTED_EDGE ( 'NONE', *, *, #762, .T. ) ;
#1134 = CYLINDRICAL_SURFACE ( 'NONE', #704, 0.2500000000000000000 ) ;
#1135 = DIRECTION ( 'NONE',  ( 1.000000000000000000, 0.000000000000000000, 0.000000000000000000 ) ) ;
#1136 = CARTESIAN_POINT ( 'NONE',  ( -0.7500000000000001110, 79.00000000000000000, 2.250000000000000444 ) ) ;
#1137 = ORIENTED_EDGE ( 'NONE', *, *, #368, .F. ) ;
#1138 = AXIS2_PLACEMENT_3D ( 'NONE', #771, #955, #62 ) ;
#1139 = VECTOR ( 'NONE', #276, 1000.000000000000000 ) ;
#1140 = CARTESIAN_POINT ( 'NONE',  ( -0.7500000000000005551, 0.000000000000000000, -2.249999999999999556 ) ) ;
#1141 = DIRECTION ( 'NONE',  ( 1.445602896647340149E-16, 0.000000000000000000, 1.000000000000000000 ) ) ;
#1142 = CIRCLE ( 'NONE', #580, 0.2500000000000000000 ) ;
#1143 = CARTESIAN_POINT ( 'NONE',  ( -0.7500000000000005551, 79.00000000000000000, -1.999999999999999112 ) ) ;
#1144 = ORIENTED_EDGE ( 'NONE', *, *, #608, .F. ) ;
#1145 = DIRECTION ( 'NONE',  ( 0.000000000000000000, 0.000000000000000000, -1.000000000000000000 ) ) ;
#1146 = ADVANCED_FACE ( 'NONE', ( #1108 ), #852, .T. ) ;
#1147 = FACE_OUTER_BOUND ( 'NONE', #600, .T. ) ;
#1148 = FACE_OUTER_BOUND ( 'NONE', #826, .T. ) ;
#1149 = DIRECTION ( 'NONE',  ( -0.000000000000000000, 1.000000000000000000, 0.000000000000000000 ) ) ;
#1150 = ORIENTED_EDGE ( 'NONE', *, *, #303, .T. ) ;
#1151 = CARTESIAN_POINT ( 'NONE',  ( -0.7500000000000001110, 0.000000000000000000, 2.000000000000000000 ) ) ;
ENDSEC;
END-ISO-10303-21;
