ISO-10303-21;
HEADER;
FILE_DESCRIPTION (( 'STEP AP214' ),
    '1' );
FILE_NAME ('BRAZO DE TENSOR 1.STEP',
    '2026-07-08T20:17:51',
    ( '' ),
    ( '' ),
    'SwSTEP 2.0',
    'SolidWorks 2026',
    '' );
FILE_SCHEMA (( 'AUTOMOTIVE_DESIGN' ));
ENDSEC;

DATA;
#1 = DIRECTION ( 'NONE',  ( 1.000000000000000000, -0.000000000000000000, 1.224646799147353207E-16 ) ) ;
#2 = ORIENTED_EDGE ( 'NONE', *, *, #745, .T. ) ;
#3 = AXIS2_PLACEMENT_3D ( 'NONE', #14, #210, #28 ) ;
#4 = AXIS2_PLACEMENT_3D ( 'NONE', #826, #1189, #266 ) ;
#5 = DIRECTION ( 'NONE',  ( 0.000000000000000000, 0.000000000000000000, 1.000000000000000000 ) ) ;
#6 = PRODUCT_DEFINITION ( 'UNKNOWN', '', #125, #137 ) ;
#7 = ORIENTED_EDGE ( 'NONE', *, *, #594, .F. ) ;
#8 = DIRECTION ( 'NONE',  ( 0.000000000000000000, 0.000000000000000000, 1.000000000000000000 ) ) ;
#9 = VERTEX_POINT ( 'NONE', #1135 ) ;
#10 = EDGE_CURVE ( 'NONE', #221, #593, #388, .T. ) ;
#11 = CARTESIAN_POINT ( 'NONE',  ( 0.000000000000000000, 5.000000000000000000, -7.249999999999999112 ) ) ;
#12 = ORIENTED_EDGE ( 'NONE', *, *, #469, .T. ) ;
#13 = DIRECTION ( 'NONE',  ( 0.000000000000000000, 1.000000000000000000, 0.000000000000000000 ) ) ;
#14 = CARTESIAN_POINT ( 'NONE',  ( 25.00000000000000000, 0.2500000000000002220, 0.000000000000000000 ) ) ;
#15 = DIRECTION ( 'NONE',  ( 0.000000000000000000, -0.000000000000000000, 1.000000000000000000 ) ) ;
#16 = EDGE_CURVE ( 'NONE', #62, #534, #1062, .T. ) ;
#17 = PRODUCT_CONTEXT ( 'NONE', #633, 'mechanical' ) ;
#18 = ORIENTED_EDGE ( 'NONE', *, *, #932, .F. ) ;
#19 = CARTESIAN_POINT ( 'NONE',  ( 0.000000000000000000, 1.700000000000000178, 4.849999999999999645 ) ) ;
#20 = ADVANCED_FACE ( 'NONE', ( #38 ), #680, .T. ) ;
#21 = ORIENTED_EDGE ( 'NONE', *, *, #352, .T. ) ;
#22 = CARTESIAN_POINT ( 'NONE',  ( 25.00000000000000000, 5.000000000000000000, 0.000000000000000000 ) ) ;
#23 = CIRCLE ( 'NONE', #1182, 3.750000000000000000 ) ;
#24 = EDGE_LOOP ( 'NONE', ( #1133, #758, #1171, #914 ) ) ;
#25 = TOROIDAL_SURFACE ( 'NONE', #854, 2.250000000000000444, 0.2500000000000000000 ) ;
#26 = AXIS2_PLACEMENT_3D ( 'NONE', #433, #1173, #341 ) ;
#27 = CARTESIAN_POINT ( 'NONE',  ( 25.00000000000000000, 6.999999999999999112, 3.650000000000001243 ) ) ;
#28 = DIRECTION ( 'NONE',  ( 0.000000000000000000, 0.000000000000000000, 1.000000000000000000 ) ) ;
#29 = EDGE_LOOP ( 'NONE', ( #704, #479, #448, #619 ) ) ;
#30 = DIRECTION ( 'NONE',  ( 1.000000000000000000, -0.000000000000000000, 0.000000000000000000 ) ) ;
#31 = VERTEX_POINT ( 'NONE', #130 ) ;
#32 = CARTESIAN_POINT ( 'NONE',  ( 6.245698675651500839E-16, 4.750000000000000000, -5.099999999999999645 ) ) ;
#33 = CARTESIAN_POINT ( 'NONE',  ( 0.000000000000000000, 4.750000000000000000, 0.000000000000000000 ) ) ;
#34 = CARTESIAN_POINT ( 'NONE',  ( 25.00000000000000000, 5.000000000000000000, 0.000000000000000000 ) ) ;
#35 = ORIENTED_EDGE ( 'NONE', *, *, #586, .F. ) ;
#36 = DIRECTION ( 'NONE',  ( -0.000000000000000000, -1.000000000000000000, -0.000000000000000000 ) ) ;
#37 = CARTESIAN_POINT ( 'NONE',  ( 0.000000000000000000, 2.000000000000000000, 0.000000000000000000 ) ) ;
#38 = FACE_OUTER_BOUND ( 'NONE', #24, .T. ) ;
#39 = CARTESIAN_POINT ( 'NONE',  ( 25.00000000000000000, 7.249999999999999112, 0.000000000000000000 ) ) ;
#40 = VECTOR ( 'NONE', #853, 1000.000000000000000 ) ;
#41 = ADVANCED_FACE ( 'NONE', ( #1049, #226, #477 ), #590, .F. ) ;
#42 = AXIS2_PLACEMENT_3D ( 'NONE', #182, #1201, #632 ) ;
#43 = DIRECTION ( 'NONE',  ( 0.000000000000000000, 0.000000000000000000, 1.000000000000000000 ) ) ;
#44 = CIRCLE ( 'NONE', #218, 3.900000000000001688 ) ;
#45 = EDGE_CURVE ( 'NONE', #669, #435, #408, .T. ) ;
#46 = AXIS2_PLACEMENT_3D ( 'NONE', #1091, #165, #159 ) ;
#47 = ADVANCED_FACE ( 'NONE', ( #135 ), #501, .F. ) ;
#48 = FACE_OUTER_BOUND ( 'NONE', #573, .T. ) ;
#49 = DIRECTION ( 'NONE',  ( 0.000000000000000000, 1.000000000000000000, 0.000000000000000000 ) ) ;
#50 = FACE_OUTER_BOUND ( 'NONE', #1188, .T. ) ;
#51 = CARTESIAN_POINT ( 'NONE',  ( 25.00000000000000000, 5.000000000000000000, 0.000000000000000000 ) ) ;
#52 = MANIFOLD_SOLID_BREP ( 'Redondeo2', #964 ) ;
#53 = FILL_AREA_STYLE ('',( #112 ) ) ;
#54 = EDGE_CURVE ( 'NONE', #309, #1067, #425, .T. ) ;
#55 = ORIENTED_EDGE ( 'NONE', *, *, #509, .F. ) ;
#56 = DIRECTION ( 'NONE',  ( -0.000000000000000000, -1.000000000000000000, -0.000000000000000000 ) ) ;
#57 = AXIS2_PLACEMENT_3D ( 'NONE', #1070, #1166, #1073 ) ;
#58 = DIRECTION ( 'NONE',  ( 0.000000000000000000, 0.000000000000000000, 1.000000000000000000 ) ) ;
#59 = EDGE_CURVE ( 'NONE', #1139, #1022, #420, .T. ) ;
#60 = TOROIDAL_SURFACE ( 'NONE', #424, 3.650000000000001243, 0.2500000000000000000 ) ;
#61 = DIRECTION ( 'NONE',  ( -1.000000000000000000, -0.000000000000000000, -0.000000000000000000 ) ) ;
#62 = VERTEX_POINT ( 'NONE', #692 ) ;
#63 = CIRCLE ( 'NONE', #410, 0.2500000000000002220 ) ;
#64 = CARTESIAN_POINT ( 'NONE',  ( 25.00000000000000000, 4.750000000000000000, -7.249999999999999112 ) ) ;
#65 = VERTEX_POINT ( 'NONE', #1079 ) ;
#66 = DIRECTION ( 'NONE',  ( 0.000000000000000000, 1.000000000000000000, 0.000000000000000000 ) ) ;
#67 = ADVANCED_FACE ( 'NONE', ( #50 ), #600, .T. ) ;
#68 = CARTESIAN_POINT ( 'NONE',  ( 0.000000000000000000, 1.450000000000000178, 0.000000000000000000 ) ) ;
#69 = EDGE_LOOP ( 'NONE', ( #258, #474, #439, #81 ) ) ;
#70 = DIRECTION ( 'NONE',  ( 1.000000000000000000, -0.000000000000000000, 0.000000000000000000 ) ) ;
#71 = ADVANCED_FACE ( 'NONE', ( #1064 ), #146, .T. ) ;
#72 = EDGE_LOOP ( 'NONE', ( #268, #725, #1124, #88 ) ) ;
#73 = PLANE ( 'NONE',  #491 ) ;
#74 = ORIENTED_EDGE ( 'NONE', *, *, #849, .T. ) ;
#75 = FACE_OUTER_BOUND ( 'NONE', #1142, .T. ) ;
#76 = EDGE_CURVE ( 'NONE', #839, #1067, #617, .T. ) ;
#77 = DIRECTION ( 'NONE',  ( -0.000000000000000000, 1.000000000000000000, -0.000000000000000000 ) ) ;
#78 = CIRCLE ( 'NONE', #294, 7.500000000000000000 ) ;
#79 = AXIS2_PLACEMENT_3D ( 'NONE', #940, #851, #677 ) ;
#80 = AXIS2_PLACEMENT_3D ( 'NONE', #751, #1121, #662 ) ;
#81 = ORIENTED_EDGE ( 'NONE', *, *, #523, .F. ) ;
#82 = AXIS2_PLACEMENT_3D ( 'NONE', #687, #505, #610 ) ;
#83 = EDGE_CURVE ( 'NONE', #1033, #62, #390, .T. ) ;
#84 = DIRECTION ( 'NONE',  ( 0.000000000000000000, 0.000000000000000000, 1.000000000000000000 ) ) ;
#85 = VERTEX_POINT ( 'NONE', #877 ) ;
#86 = CARTESIAN_POINT ( 'NONE',  ( 0.000000000000000000, 0.9500000000000002887, 0.000000000000000000 ) ) ;
#87 = FACE_OUTER_BOUND ( 'NONE', #831, .T. ) ;
#88 = ORIENTED_EDGE ( 'NONE', *, *, #98, .T. ) ;
#89 = CARTESIAN_POINT ( 'NONE',  ( 0.000000000000000000, 0.2500000000000002220, 0.000000000000000000 ) ) ;
#90 = EDGE_LOOP ( 'NONE', ( #572, #700, #800, #936 ) ) ;
#91 = FACE_BOUND ( 'NONE', #250, .T. ) ;
#92 = CARTESIAN_POINT ( 'NONE',  ( 25.00000000000000000, 5.000000000000000000, 7.500000000000000000 ) ) ;
#93 = VERTEX_POINT ( 'NONE', #972 ) ;
#94 = CARTESIAN_POINT ( 'NONE',  ( 0.000000000000000000, 2.000000000000000000, 7.500000000000000000 ) ) ;
#95 = ORIENTED_EDGE ( 'NONE', *, *, #1114, .F. ) ;
#96 = DIRECTION ( 'NONE',  ( 0.000000000000000000, 0.000000000000000000, 1.000000000000000000 ) ) ;
#97 = DIRECTION ( 'NONE',  ( 0.000000000000000000, 0.000000000000000000, 1.000000000000000000 ) ) ;
#98 = EDGE_CURVE ( 'NONE', #992, #719, #884, .T. ) ;
#99 = EDGE_LOOP ( 'NONE', ( #856, #810, #863, #195 ) ) ;
#100 = VECTOR ( 'NONE', #229, 1000.000000000000000 ) ;
#101 = DIRECTION ( 'NONE',  ( 0.000000000000000000, 0.000000000000000000, 1.000000000000000000 ) ) ;
#102 = AXIS2_PLACEMENT_3D ( 'NONE', #1056, #1143, #510 ) ;
#103 = ORIENTED_EDGE ( 'NONE', *, *, #1090, .F. ) ;
#104 = DIRECTION ( 'NONE',  ( -0.000000000000000000, -1.000000000000000000, -0.000000000000000000 ) ) ;
#105 = DIRECTION ( 'NONE',  ( -0.000000000000000000, 1.000000000000000000, -0.000000000000000000 ) ) ;
#106 = ADVANCED_FACE ( 'NONE', ( #799 ), #1167, .F. ) ;
#107 = EDGE_LOOP ( 'NONE', ( #21, #644 ) ) ;
#108 = DIRECTION ( 'NONE',  ( 0.000000000000000000, -0.000000000000000000, 1.000000000000000000 ) ) ;
#109 = ORIENTED_EDGE ( 'NONE', *, *, #418, .F. ) ;
#110 = DIRECTION ( 'NONE',  ( 0.000000000000000000, 1.000000000000000000, 0.000000000000000000 ) ) ;
#111 = CARTESIAN_POINT ( 'NONE',  ( 6.245698675651500839E-16, 5.000000000000000000, -5.099999999999999645 ) ) ;
#112 = FILL_AREA_STYLE_COLOUR ( '', #1066 ) ;
#113 = DIRECTION ( 'NONE',  ( 0.000000000000000000, 1.000000000000000000, 0.000000000000000000 ) ) ;
#114 = EDGE_LOOP ( 'NONE', ( #157, #670, #208, #304 ) ) ;
#115 = FACE_OUTER_BOUND ( 'NONE', #169, .T. ) ;
#116 = DIRECTION ( 'NONE',  ( 0.000000000000000000, 1.000000000000000000, 0.000000000000000000 ) ) ;
#117 = VERTEX_POINT ( 'NONE', #991 ) ;
#118 = VECTOR ( 'NONE', #105, 1000.000000000000000 ) ;
#119 = CARTESIAN_POINT ( 'NONE',  ( 0.000000000000000000, 1.200000000000000178, 0.000000000000000000 ) ) ;
#120 = ORIENTED_EDGE ( 'NONE', *, *, #1164, .F. ) ;
#121 = CIRCLE ( 'NONE', #756, 2.000000000000000000 ) ;
#122 = AXIS2_PLACEMENT_3D ( 'NONE', #347, #1110, #97 ) ;
#123 = CARTESIAN_POINT ( 'NONE',  ( 25.00000000000000000, 6.999999999999999112, 0.000000000000000000 ) ) ;
#124 = AXIS2_PLACEMENT_3D ( 'NONE', #698, #56, #975 ) ;
#125 = PRODUCT_DEFINITION_FORMATION_WITH_SPECIFIED_SOURCE ( 'ANY', '', #1040, .NOT_KNOWN. ) ;
#126 = LINE ( 'NONE', #496, #658 ) ;
#127 = ORIENTED_EDGE ( 'NONE', *, *, #923, .F. ) ;
#128 = ORIENTED_EDGE ( 'NONE', *, *, #764, .T. ) ;
#129 = DIRECTION ( 'NONE',  ( -1.000000000000000000, 0.000000000000000000, -0.000000000000000000 ) ) ;
#130 = CARTESIAN_POINT ( 'NONE',  ( 25.00000000000000000, 7.249999999999999112, -3.650000000000001243 ) ) ;
#131 = EDGE_CURVE ( 'NONE', #190, #1074, #696, .T. ) ;
#132 = DIRECTION ( 'NONE',  ( -0.000000000000000000, -1.000000000000000000, -0.000000000000000000 ) ) ;
#133 = FACE_OUTER_BOUND ( 'NONE', #649, .T. ) ;
#134 = EDGE_CURVE ( 'NONE', #1032, #375, #1146, .T. ) ;
#135 = FACE_OUTER_BOUND ( 'NONE', #396, .T. ) ;
#136 = CYLINDRICAL_SURFACE ( 'NONE', #82, 0.2500000000000002220 ) ;
#137 = PRODUCT_DEFINITION_CONTEXT ( 'detailed design', #691, 'design' ) ;
#138 = TOROIDAL_SURFACE ( 'NONE', #813, 3.750000000000000000, 0.2500000000000000000 ) ;
#139 = AXIS2_PLACEMENT_3D ( 'NONE', #686, #1054, #960 ) ;
#140 = DIRECTION ( 'NONE',  ( -0.000000000000000000, -1.000000000000000000, -0.000000000000000000 ) ) ;
#141 = AXIS2_PLACEMENT_3D ( 'NONE', #881, #423, #689 ) ;
#142 = CARTESIAN_POINT ( 'NONE',  ( 25.00000000000000000, 7.249999999999999112, 0.000000000000000000 ) ) ;
#143 = EDGE_CURVE ( 'NONE', #333, #1112, #256, .T. ) ;
#144 = CARTESIAN_POINT ( 'NONE',  ( 25.00000000000000000, 5.250000000000000000, 3.900000000000001688 ) ) ;
#145 = CARTESIAN_POINT ( 'NONE',  ( 25.00000000000000000, 4.750000000000000000, 0.000000000000000000 ) ) ;
#146 = CYLINDRICAL_SURFACE ( 'NONE', #276, 3.900000000000001688 ) ;
#147 = ORIENTED_EDGE ( 'NONE', *, *, #808, .F. ) ;
#148 = DIRECTION ( 'NONE',  ( 0.000000000000000000, 0.000000000000000000, -1.000000000000000000 ) ) ;
#149 = CARTESIAN_POINT ( 'NONE',  ( 0.000000000000000000, 1.700000000000000178, 0.000000000000000000 ) ) ;
#150 = DIRECTION ( 'NONE',  ( 0.000000000000000000, 0.000000000000000000, 1.000000000000000000 ) ) ;
#151 = EDGE_LOOP ( 'NONE', ( #631, #494, #547, #270 ) ) ;
#152 = DIRECTION ( 'NONE',  ( 0.000000000000000000, 1.000000000000000000, 0.000000000000000000 ) ) ;
#153 = EDGE_CURVE ( 'NONE', #727, #669, #926, .T. ) ;
#154 = AXIS2_PLACEMENT_3D ( 'NONE', #248, #66, #971 ) ;
#155 = DIRECTION ( 'NONE',  ( 0.000000000000000000, 1.000000000000000000, 0.000000000000000000 ) ) ;
#156 = VECTOR ( 'NONE', #188, 1000.000000000000000 ) ;
#157 = ORIENTED_EDGE ( 'NONE', *, *, #849, .F. ) ;
#158 = CIRCLE ( 'NONE', #910, 2.000000000000000000 ) ;
#159 = DIRECTION ( 'NONE',  ( 0.000000000000000000, 0.000000000000000000, -1.000000000000000000 ) ) ;
#160 = VERTEX_POINT ( 'NONE', #821 ) ;
#161 = FACE_OUTER_BOUND ( 'NONE', #818, .T. ) ;
#162 = CARTESIAN_POINT ( 'NONE',  ( 0.000000000000000000, 0.9500000000000002887, 2.250000000000000444 ) ) ;
#163 = VERTEX_POINT ( 'NONE', #1181 ) ;
#164 = ADVANCED_FACE ( 'NONE', ( #87 ), #737, .F. ) ;
#165 = DIRECTION ( 'NONE',  ( 1.000000000000000000, -0.000000000000000000, 1.224646799147353207E-16 ) ) ;
#166 = ORIENTED_EDGE ( 'NONE', *, *, #1042, .T. ) ;
#167 = CYLINDRICAL_SURFACE ( 'NONE', #660, 2.000000000000000000 ) ;
#168 = DIRECTION ( 'NONE',  ( 0.000000000000000000, 0.000000000000000000, 1.000000000000000000 ) ) ;
#169 = EDGE_LOOP ( 'NONE', ( #489, #791, #120, #1008 ) ) ;
#170 = DIRECTION ( 'NONE',  ( -1.000000000000000000, 0.000000000000000000, 0.000000000000000000 ) ) ;
#171 = EDGE_LOOP ( 'NONE', ( #646, #676, #260, #531 ) ) ;
#172 = CARTESIAN_POINT ( 'NONE',  ( 0.000000000000000000, 4.750000000000000000, 7.249999999999999112 ) ) ;
#173 = VECTOR ( 'NONE', #827, 1000.000000000000000 ) ;
#174 = DIRECTION ( 'NONE',  ( 0.000000000000000000, 0.000000000000000000, 1.000000000000000000 ) ) ;
#175 = CIRCLE ( 'NONE', #852, 4.150000000000002132 ) ;
#176 = AXIS2_PLACEMENT_3D ( 'NONE', #1078, #753, #927 ) ;
#177 = AXIS2_PLACEMENT_3D ( 'NONE', #162, #781, #168 ) ;
#178 = ORIENTED_EDGE ( 'NONE', *, *, #54, .F. ) ;
#179 = DIRECTION ( 'NONE',  ( 0.000000000000000000, 0.000000000000000000, 1.000000000000000000 ) ) ;
#180 = AXIS2_PLACEMENT_3D ( 'NONE', #555, #5, #918 ) ;
#181 = EDGE_LOOP ( 'NONE', ( #917, #844, #472, #284 ) ) ;
#182 = CARTESIAN_POINT ( 'NONE',  ( 0.000000000000000000, 5.000000000000000000, 0.000000000000000000 ) ) ;
#183 = ADVANCED_FACE ( 'NONE', ( #743 ), #564, .T. ) ;
#184 = CARTESIAN_POINT ( 'NONE',  ( 25.00000000000000000, 5.000000000000000000, 4.150000000000002132 ) ) ;
#185 = EDGE_LOOP ( 'NONE', ( #919, #74, #752, #178 ) ) ;
#186 = DIRECTION ( 'NONE',  ( 1.224646799147353454E-16, 0.000000000000000000, -1.000000000000000000 ) ) ;
#187 = ORIENTED_EDGE ( 'NONE', *, *, #10, .T. ) ;
#188 = DIRECTION ( 'NONE',  ( -1.000000000000000000, 0.000000000000000000, 0.000000000000000000 ) ) ;
#189 = ORIENTED_EDGE ( 'NONE', *, *, #836, .T. ) ;
#190 = VERTEX_POINT ( 'NONE', #366 ) ;
#191 = DIRECTION ( 'NONE',  ( 0.000000000000000000, 1.000000000000000000, 0.000000000000000000 ) ) ;
#192 = EDGE_CURVE ( 'NONE', #453, #636, #198, .T. ) ;
#193 = DIRECTION ( 'NONE',  ( -0.000000000000000000, -1.000000000000000000, -0.000000000000000000 ) ) ;
#194 = AXIS2_PLACEMENT_3D ( 'NONE', #1004, #896, #1099 ) ;
#195 = ORIENTED_EDGE ( 'NONE', *, *, #882, .F. ) ;
#196 = AXIS2_PLACEMENT_3D ( 'NONE', #702, #611, #511 ) ;
#197 = AXIS2_PLACEMENT_3D ( 'NONE', #1029, #110, #945 ) ;
#198 = CIRCLE ( 'NONE', #793, 7.249999999999999112 ) ;
#199 = EDGE_CURVE ( 'NONE', #568, #839, #222, .T. ) ;
#200 = DIRECTION ( 'NONE',  ( 0.000000000000000000, 0.000000000000000000, 1.000000000000000000 ) ) ;
#201 = VECTOR ( 'NONE', #327, 1000.000000000000000 ) ;
#202 = ORIENTED_EDGE ( 'NONE', *, *, #368, .F. ) ;
#203 = DIRECTION ( 'NONE',  ( -0.000000000000000000, 1.000000000000000000, -0.000000000000000000 ) ) ;
#204 = CARTESIAN_POINT ( 'NONE',  ( 25.00000000000000000, 0.2500000000000002220, 0.000000000000000000 ) ) ;
#205 = CARTESIAN_POINT ( 'NONE',  ( 0.000000000000000000, 1.450000000000000178, 3.750000000000000000 ) ) ;
#206 = CARTESIAN_POINT ( 'NONE',  ( 0.000000000000000000, 0.000000000000000000, 5.500000000000000000 ) ) ;
#207 = ADVANCED_FACE ( 'NONE', ( #717 ), #267, .F. ) ;
#208 = ORIENTED_EDGE ( 'NONE', *, *, #54, .T. ) ;
#209 = DIRECTION ( 'NONE',  ( 0.000000000000000000, 0.000000000000000000, 1.000000000000000000 ) ) ;
#210 = DIRECTION ( 'NONE',  ( -0.000000000000000000, -1.000000000000000000, -0.000000000000000000 ) ) ;
#211 = ORIENTED_EDGE ( 'NONE', *, *, #1051, .F. ) ;
#212 = ADVANCED_FACE ( 'NONE', ( #262 ), #565, .T. ) ;
#213 = CARTESIAN_POINT ( 'NONE',  ( 25.00000000000000000, 2.000000000000000000, 0.000000000000000000 ) ) ;
#214 = ORIENTED_EDGE ( 'NONE', *, *, #778, .F. ) ;
#215 = CARTESIAN_POINT ( 'NONE',  ( 0.000000000000000000, 1.700000000000000178, 4.849999999999999645 ) ) ;
#216 = DIRECTION ( 'NONE',  ( -0.000000000000000000, -1.000000000000000000, -0.000000000000000000 ) ) ;
#217 = ORIENTED_EDGE ( 'NONE', *, *, #1180, .F. ) ;
#218 = AXIS2_PLACEMENT_3D ( 'NONE', #768, #570, #749 ) ;
#219 = CIRCLE ( 'NONE', #885, 4.849999999999999645 ) ;
#220 = CIRCLE ( 'NONE', #315, 2.000000000000000000 ) ;
#221 = VERTEX_POINT ( 'NONE', #452 ) ;
#222 = CIRCLE ( 'NONE', #520, 4.250000000000000000 ) ;
#223 = DIRECTION ( 'NONE',  ( -0.000000000000000000, -1.000000000000000000, -0.000000000000000000 ) ) ;
#224 = AXIS2_PLACEMENT_3D ( 'NONE', #357, #1014, #186 ) ;
#225 = DIRECTION ( 'NONE',  ( 1.000000000000000000, -0.000000000000000000, -0.000000000000000000 ) ) ;
#226 = FACE_BOUND ( 'NONE', #761, .T. ) ;
#227 = DIRECTION ( 'NONE',  ( 0.000000000000000000, 0.000000000000000000, -1.000000000000000000 ) ) ;
#228 = ADVANCED_FACE ( 'NONE', ( #536, #374, #1115 ), #530, .T. ) ;
#229 = DIRECTION ( 'NONE',  ( -0.000000000000000000, -1.000000000000000000, -0.000000000000000000 ) ) ;
#230 = ORIENTED_EDGE ( 'NONE', *, *, #846, .T. ) ;
#231 = LINE ( 'NONE', #1059, #201 ) ;
#232 = DIRECTION ( 'NONE',  ( 0.000000000000000000, 0.000000000000000000, 1.000000000000000000 ) ) ;
#233 = ADVANCED_FACE ( 'NONE', ( #627 ), #442, .T. ) ;
#234 = AXIS2_PLACEMENT_3D ( 'NONE', #1011, #1190, #355 ) ;
#235 = DIRECTION ( 'NONE',  ( 0.000000000000000000, 0.000000000000000000, 1.000000000000000000 ) ) ;
#236 = AXIS2_PLACEMENT_3D ( 'NONE', #1038, #311, #481 ) ;
#237 = AXIS2_PLACEMENT_3D ( 'NONE', #748, #574, #1020 ) ;
#238 = CARTESIAN_POINT ( 'NONE',  ( 25.00000000000000000, 7.249999999999999112, 0.000000000000000000 ) ) ;
#239 = CARTESIAN_POINT ( 'NONE',  ( 0.000000000000000000, 4.750000000000000000, 7.500000000000000000 ) ) ;
#240 = CIRCLE ( 'NONE', #488, 2.000000000000000000 ) ;
#241 = EDGE_LOOP ( 'NONE', ( #939, #289, #1097, #1082 ) ) ;
#242 = DIRECTION ( 'NONE',  ( 1.224646799147351482E-16, 0.000000000000000000, -1.000000000000000000 ) ) ;
#243 = DIRECTION ( 'NONE',  ( 0.000000000000000000, 0.000000000000000000, 1.000000000000000000 ) ) ;
#244 = DIRECTION ( 'NONE',  ( -1.000000000000000000, 0.000000000000000000, 0.000000000000000000 ) ) ;
#245 = ORIENTED_EDGE ( 'NONE', *, *, #740, .F. ) ;
#246 = EDGE_CURVE ( 'NONE', #435, #669, #502, .T. ) ;
#247 = CARTESIAN_POINT ( 'NONE',  ( 0.000000000000000000, 5.000000000000000000, 0.000000000000000000 ) ) ;
#248 = CARTESIAN_POINT ( 'NONE',  ( 0.000000000000000000, 1.450000000000000178, 0.000000000000000000 ) ) ;
#249 = DIRECTION ( 'NONE',  ( 0.000000000000000000, 0.000000000000000000, 1.000000000000000000 ) ) ;
#250 = EDGE_LOOP ( 'NONE', ( #230, #1111 ) ) ;
#251 = DIRECTION ( 'NONE',  ( 0.000000000000000000, -0.000000000000000000, 1.000000000000000000 ) ) ;
#252 = EDGE_LOOP ( 'NONE', ( #566, #578, #890, #829 ) ) ;
#253 = AXIS2_PLACEMENT_3D ( 'NONE', #1138, #403, #678 ) ;
#254 = FACE_OUTER_BOUND ( 'NONE', #892, .T. ) ;
#255 = AXIS2_PLACEMENT_3D ( 'NONE', #172, #542, #647 ) ;
#256 = CIRCLE ( 'NONE', #370, 5.099999999999999645 ) ;
#257 = ADVANCED_FACE ( 'NONE', ( #998 ), #360, .T. ) ;
#258 = ORIENTED_EDGE ( 'NONE', *, *, #543, .T. ) ;
#259 = CARTESIAN_POINT ( 'NONE',  ( 25.00000000000000000, 5.250000000000000000, -3.900000000000001688 ) ) ;
#260 = ORIENTED_EDGE ( 'NONE', *, *, #782, .T. ) ;
#261 = DIRECTION ( 'NONE',  ( 0.000000000000000000, -0.000000000000000000, 1.000000000000000000 ) ) ;
#262 = FACE_OUTER_BOUND ( 'NONE', #525, .T. ) ;
#263 = ORIENTED_EDGE ( 'NONE', *, *, #76, .F. ) ;
#264 = CARTESIAN_POINT ( 'NONE',  ( 0.000000000000000000, 5.000000000000000000, 7.500000000000000000 ) ) ;
#265 = VERTEX_POINT ( 'NONE', #184 ) ;
#266 = DIRECTION ( 'NONE',  ( 0.000000000000000000, 0.000000000000000000, 1.000000000000000000 ) ) ;
#267 = CYLINDRICAL_SURFACE ( 'NONE', #482, 2.000000000000003109 ) ;
#268 = ORIENTED_EDGE ( 'NONE', *, *, #594, .T. ) ;
#269 = LINE ( 'NONE', #550, #394 ) ;
#270 = ORIENTED_EDGE ( 'NONE', *, *, #786, .F. ) ;
#271 = LINE ( 'NONE', #1016, #156 ) ;
#272 = ADVANCED_BREP_SHAPE_REPRESENTATION ( 'BRAZO DE TENSOR 1', ( #52, #180 ), #467 ) ;
#273 = DIRECTION ( 'NONE',  ( -0.000000000000000000, -1.000000000000000000, -0.000000000000000000 ) ) ;
#274 = CIRCLE ( 'NONE', #713, 0.2500000000000002220 ) ;
#275 = CIRCLE ( 'NONE', #255, 0.2500000000000002220 ) ;
#276 = AXIS2_PLACEMENT_3D ( 'NONE', #142, #508, #331 ) ;
#277 = ORIENTED_EDGE ( 'NONE', *, *, #320, .T. ) ;
#278 = AXIS2_PLACEMENT_3D ( 'NONE', #247, #417, #148 ) ;
#279 = CIRCLE ( 'NONE', #524, 5.099999999999999645 ) ;
#280 = DIRECTION ( 'NONE',  ( 0.000000000000000000, 1.000000000000000000, 0.000000000000000000 ) ) ;
#281 = EDGE_LOOP ( 'NONE', ( #429, #336, #1116, #512 ) ) ;
#282 = DIRECTION ( 'NONE',  ( -0.000000000000000000, -1.000000000000000000, -0.000000000000000000 ) ) ;
#283 = CARTESIAN_POINT ( 'NONE',  ( 25.00000000000000000, 5.250000000000000000, -4.150000000000002132 ) ) ;
#284 = ORIENTED_EDGE ( 'NONE', *, *, #192, .F. ) ;
#285 = EDGE_CURVE ( 'NONE', #992, #85, #916, .T. ) ;
#286 = ORIENTED_EDGE ( 'NONE', *, *, #932, .T. ) ;
#287 = CARTESIAN_POINT ( 'NONE',  ( 25.00000000000000000, 0.2500000000000002220, 2.000000000000003109 ) ) ;
#288 = DIRECTION ( 'NONE',  ( 0.000000000000000000, 0.000000000000000000, 1.000000000000000000 ) ) ;
#289 = ORIENTED_EDGE ( 'NONE', *, *, #629, .F. ) ;
#290 = VERTEX_POINT ( 'NONE', #19 ) ;
#291 = CARTESIAN_POINT ( 'NONE',  ( 0.000000000000000000, 0.2500000000000002220, 0.000000000000000000 ) ) ;
#292 = LINE ( 'NONE', #865, #118 ) ;
#293 = ORIENTED_EDGE ( 'NONE', *, *, #959, .T. ) ;
#294 = AXIS2_PLACEMENT_3D ( 'NONE', #37, #861, #842 ) ;
#295 = EDGE_CURVE ( 'NONE', #1092, #739, #44, .T. ) ;
#296 = CIRCLE ( 'NONE', #445, 0.2500000000000002220 ) ;
#297 = APPLICATION_PROTOCOL_DEFINITION ( 'draft international standard', 'automotive_design', 1998, #691 ) ;
#298 = ORIENTED_EDGE ( 'NONE', *, *, #990, .F. ) ;
#299 = FACE_OUTER_BOUND ( 'NONE', #1131, .T. ) ;
#300 = CARTESIAN_POINT ( 'NONE',  ( 0.000000000000000000, 1.700000000000000178, 0.000000000000000000 ) ) ;
#301 = ADVANCED_FACE ( 'NONE', ( #684 ), #422, .T. ) ;
#302 = ORIENTED_EDGE ( 'NONE', *, *, #153, .T. ) ;
#303 = DIRECTION ( 'NONE',  ( 0.000000000000000000, 1.000000000000000000, 0.000000000000000000 ) ) ;
#304 = ORIENTED_EDGE ( 'NONE', *, *, #764, .F. ) ;
#305 = CARTESIAN_POINT ( 'NONE',  ( 25.00000000000000000, 0.000000000000000000, 5.500000000000000000 ) ) ;
#306 = FACE_OUTER_BOUND ( 'NONE', #356, .T. ) ;
#307 = ORIENTED_EDGE ( 'NONE', *, *, #246, .F. ) ;
#308 =( LENGTH_UNIT ( ) NAMED_UNIT ( * ) SI_UNIT ( .MILLI., .METRE. ) );
#309 = VERTEX_POINT ( 'NONE', #935 ) ;
#310 = LINE ( 'NONE', #215, #389 ) ;
#311 = DIRECTION ( 'NONE',  ( 0.000000000000000000, 1.000000000000000000, 0.000000000000000000 ) ) ;
#312 = CARTESIAN_POINT ( 'NONE',  ( 25.00000000000000000, 0.000000000000000000, 0.000000000000000000 ) ) ;
#313 = AXIS2_PLACEMENT_3D ( 'NONE', #204, #847, #597 ) ;
#314 = EDGE_CURVE ( 'NONE', #739, #900, #385, .T. ) ;
#315 = AXIS2_PLACEMENT_3D ( 'NONE', #475, #1134, #1126 ) ;
#316 = CARTESIAN_POINT ( 'NONE',  ( 2.755455298081544778E-16, 0.2500000000000002220, -2.250000000000000444 ) ) ;
#317 = AXIS2_PLACEMENT_3D ( 'NONE', #22, #577, #943 ) ;
#318 = CARTESIAN_POINT ( 'NONE',  ( 25.00000000000000000, 6.999999999999999112, 2.250000000000002665 ) ) ;
#319 = ORIENTED_EDGE ( 'NONE', *, *, #1164, .T. ) ;
#320 = EDGE_CURVE ( 'NONE', #551, #221, #292, .T. ) ;
#321 = DIRECTION ( 'NONE',  ( 0.000000000000000000, 0.000000000000000000, 1.000000000000000000 ) ) ;
#322 = CARTESIAN_POINT ( 'NONE',  ( 25.00000000000000000, 6.999999999999999112, 0.000000000000000000 ) ) ;
#323 = EDGE_CURVE ( 'NONE', #309, #160, #462, .T. ) ;
#324 = CARTESIAN_POINT ( 'NONE',  ( 2.755455298081544285E-16, 1.200000000000000178, -2.250000000000000444 ) ) ;
#325 = CARTESIAN_POINT ( 'NONE',  ( 25.00000000000000000, 6.999999999999999112, -2.000000000000003109 ) ) ;
#326 = ORIENTED_EDGE ( 'NONE', *, *, #16, .T. ) ;
#327 = DIRECTION ( 'NONE',  ( -0.000000000000000000, -1.000000000000000000, -0.000000000000000000 ) ) ;
#328 = TOROIDAL_SURFACE ( 'NONE', #599, 4.150000000000002132, 0.2500000000000000000 ) ;
#329 = DIRECTION ( 'NONE',  ( 0.000000000000000000, 0.000000000000000000, 1.000000000000000000 ) ) ;
#330 = ADVANCED_FACE ( 'NONE', ( #306 ), #1129, .F. ) ;
#331 = DIRECTION ( 'NONE',  ( 0.000000000000000000, 0.000000000000000000, -1.000000000000000000 ) ) ;
#332 = TOROIDAL_SURFACE ( 'NONE', #835, 5.500000000000000000, 2.000000000000000000 ) ;
#333 = VERTEX_POINT ( 'NONE', #111 ) ;
#334 = DIRECTION ( 'NONE',  ( 0.000000000000000000, 1.000000000000000000, 0.000000000000000000 ) ) ;
#335 = CARTESIAN_POINT ( 'NONE',  ( 0.000000000000000000, 5.000000000000000000, 7.500000000000000000 ) ) ;
#336 = ORIENTED_EDGE ( 'NONE', *, *, #457, .F. ) ;
#337 = CARTESIAN_POINT ( 'NONE',  ( 0.000000000000000000, 5.000000000000000000, 0.000000000000000000 ) ) ;
#338 = ORIENTED_EDGE ( 'NONE', *, *, #1055, .F. ) ;
#339 = CARTESIAN_POINT ( 'NONE',  ( 0.000000000000000000, 4.750000000000000000, 4.849999999999999645 ) ) ;
#340 = ADVANCED_FACE ( 'NONE', ( #672 ), #639, .T. ) ;
#341 = DIRECTION ( 'NONE',  ( 0.000000000000000000, 0.000000000000000000, -1.000000000000000000 ) ) ;
#342 = ORIENTED_EDGE ( 'NONE', *, *, #823, .T. ) ;
#343 = DIRECTION ( 'NONE',  ( -1.000000000000000000, 0.000000000000000000, -0.000000000000000000 ) ) ;
#344 = CIRCLE ( 'NONE', #253, 2.000000000000000000 ) ;
#345 = PLANE ( 'NONE',  #1159 ) ;
#346 = VECTOR ( 'NONE', #104, 1000.000000000000000 ) ;
#347 = CARTESIAN_POINT ( 'NONE',  ( 25.00000000000000000, 0.2500000000000002220, 0.000000000000000000 ) ) ;
#348 = CIRCLE ( 'NONE', #888, 2.250000000000002665 ) ;
#349 = ORIENTED_EDGE ( 'NONE', *, *, #1055, .T. ) ;
#350 = CIRCLE ( 'NONE', #1068, 2.250000000000000444 ) ;
#351 = DIRECTION ( 'NONE',  ( -0.000000000000000000, -1.000000000000000000, -0.000000000000000000 ) ) ;
#352 = EDGE_CURVE ( 'NONE', #839, #568, #598, .T. ) ;
#353 = ORIENTED_EDGE ( 'NONE', *, *, #59, .T. ) ;
#354 = CYLINDRICAL_SURFACE ( 'NONE', #42, 7.500000000000000000 ) ;
#355 = DIRECTION ( 'NONE',  ( 0.000000000000000000, 0.000000000000000000, -1.000000000000000000 ) ) ;
#356 = EDGE_LOOP ( 'NONE', ( #1039, #12, #361, #539 ) ) ;
#357 = CARTESIAN_POINT ( 'NONE',  ( 5.204748896376250699E-16, 1.450000000000000178, -4.250000000000000000 ) ) ;
#358 = ORIENTED_EDGE ( 'NONE', *, *, #143, .T. ) ;
#359 = DIRECTION ( 'NONE',  ( 0.000000000000000000, 0.000000000000000000, 1.000000000000000000 ) ) ;
#360 = CYLINDRICAL_SURFACE ( 'NONE', #234, 0.2500000000000002220 ) ;
#361 = ORIENTED_EDGE ( 'NONE', *, *, #523, .T. ) ;
#362 = FACE_OUTER_BOUND ( 'NONE', #895, .T. ) ;
#363 = ORIENTED_EDGE ( 'NONE', *, *, #509, .T. ) ;
#364 = CARTESIAN_POINT ( 'NONE',  ( 25.00000000000000000, 6.999999999999999112, 3.900000000000001688 ) ) ;
#365 = AXIS2_PLACEMENT_3D ( 'NONE', #300, #193, #399 ) ;
#366 = CARTESIAN_POINT ( 'NONE',  ( 0.000000000000000000, 1.200000000000000178, 2.250000000000000444 ) ) ;
#367 = AXIS2_PLACEMENT_3D ( 'NONE', #1195, #920, #1087 ) ;
#368 = EDGE_CURVE ( 'NONE', #163, #850, #126, .T. ) ;
#369 = AXIS2_PLACEMENT_3D ( 'NONE', #1052, #1150, #771 ) ;
#370 = AXIS2_PLACEMENT_3D ( 'NONE', #902, #648, #545 ) ;
#371 = ORIENTED_EDGE ( 'NONE', *, *, #705, .T. ) ;
#372 = ORIENTED_EDGE ( 'NONE', *, *, #778, .T. ) ;
#373 = DIRECTION ( 'NONE',  ( -1.000000000000000000, 0.000000000000000000, 0.000000000000000000 ) ) ;
#374 = FACE_BOUND ( 'NONE', #622, .T. ) ;
#375 = VERTEX_POINT ( 'NONE', #955 ) ;
#376 = FACE_OUTER_BOUND ( 'NONE', #90, .T. ) ;
#377 = ORIENTED_EDGE ( 'NONE', *, *, #440, .F. ) ;
#378 = DIRECTION ( 'NONE',  ( 0.000000000000000000, 0.000000000000000000, 1.000000000000000000 ) ) ;
#379 = ADVANCED_FACE ( 'NONE', ( #492 ), #406, .T. ) ;
#380 = CARTESIAN_POINT ( 'NONE',  ( 2.449293598294706414E-16, 5.000000000000000000, 2.000000000000000000 ) ) ;
#381 = DIRECTION ( 'NONE',  ( 0.000000000000000000, 1.000000000000000000, 0.000000000000000000 ) ) ;
#382 =( NAMED_UNIT ( * ) PLANE_ANGLE_UNIT ( ) SI_UNIT ( $, .RADIAN. ) );
#383 = ORIENTED_EDGE ( 'NONE', *, *, #811, .F. ) ;
#384 = DIRECTION ( 'NONE',  ( 0.000000000000000000, 0.000000000000000000, 1.000000000000000000 ) ) ;
#385 = LINE ( 'NONE', #941, #40 ) ;
#386 = ORIENTED_EDGE ( 'NONE', *, *, #1175, .F. ) ;
#387 = VECTOR ( 'NONE', #1030, 1000.000000000000000 ) ;
#388 = CIRCLE ( 'NONE', #790, 4.849999999999999645 ) ;
#389 = VECTOR ( 'NONE', #203, 1000.000000000000000 ) ;
#390 = CIRCLE ( 'NONE', #26, 0.2500000000000002220 ) ;
#391 = CARTESIAN_POINT ( 'NONE',  ( 0.000000000000000000, 4.750000000000000000, -7.249999999999999112 ) ) ;
#392 = ORIENTED_EDGE ( 'NONE', *, *, #759, .T. ) ;
#393 = DIRECTION ( 'NONE',  ( -0.000000000000000000, -1.000000000000000000, -0.000000000000000000 ) ) ;
#394 = VECTOR ( 'NONE', #70, 1000.000000000000000 ) ;
#395 = DIRECTION ( 'NONE',  ( 0.000000000000000000, 0.000000000000000000, -1.000000000000000000 ) ) ;
#396 = EDGE_LOOP ( 'NONE', ( #35, #277, #187, #214 ) ) ;
#397 = ORIENTED_EDGE ( 'NONE', *, *, #882, .T. ) ;
#398 = FACE_OUTER_BOUND ( 'NONE', #185, .T. ) ;
#399 = DIRECTION ( 'NONE',  ( 0.000000000000000000, 0.000000000000000000, 1.000000000000000000 ) ) ;
#400 = DIRECTION ( 'NONE',  ( -0.000000000000000000, -1.000000000000000000, -0.000000000000000000 ) ) ;
#401 = EDGE_LOOP ( 'NONE', ( #1077, #995, #741, #95 ) ) ;
#402 = FACE_OUTER_BOUND ( 'NONE', #1019, .T. ) ;
#403 = DIRECTION ( 'NONE',  ( 1.000000000000000000, 0.000000000000000000, -0.000000000000000000 ) ) ;
#404 = CARTESIAN_POINT ( 'NONE',  ( 0.000000000000000000, 0.000000000000000000, 0.000000000000000000 ) ) ;
#405 = EDGE_CURVE ( 'NONE', #466, #1136, #78, .T. ) ;
#406 = TOROIDAL_SURFACE ( 'NONE', #789, 4.250000000000000000, 0.2500000000000000000 ) ;
#407 = CIRCLE ( 'NONE', #1183, 0.2500000000000002220 ) ;
#408 = CIRCLE ( 'NONE', #139, 2.250000000000000444 ) ;
#409 = LINE ( 'NONE', #518, #857 ) ;
#410 = AXIS2_PLACEMENT_3D ( 'NONE', #712, #624, #1096 ) ;
#411 = DIRECTION ( 'NONE',  ( 0.000000000000000000, 0.000000000000000000, 1.000000000000000000 ) ) ;
#412 = EDGE_CURVE ( 'NONE', #85, #822, #344, .T. ) ;
#413 = UNCERTAINTY_MEASURE_WITH_UNIT (LENGTH_MEASURE( 1.000000000000000082E-05 ), #871, 'distance_accuracy_value', 'NONE');
#414 = CARTESIAN_POINT ( 'NONE',  ( 5.204748896376250699E-16, 1.700000000000000178, -4.250000000000000000 ) ) ;
#415 = EDGE_CURVE ( 'NONE', #1033, #815, #754, .T. ) ;
#416 =( NAMED_UNIT ( * ) PLANE_ANGLE_UNIT ( ) SI_UNIT ( $, .RADIAN. ) );
#417 = DIRECTION ( 'NONE',  ( -0.000000000000000000, -1.000000000000000000, -0.000000000000000000 ) ) ;
#418 = EDGE_CURVE ( 'NONE', #850, #559, #924, .T. ) ;
#419 = CARTESIAN_POINT ( 'NONE',  ( 25.00000000000000000, 6.999999999999999112, 0.000000000000000000 ) ) ;
#420 = LINE ( 'NONE', #965, #1028 ) ;
#421 = ORIENTED_EDGE ( 'NONE', *, *, #718, .F. ) ;
#422 = TOROIDAL_SURFACE ( 'NONE', #236, 5.099999999999999645, 0.2500000000000000000 ) ;
#423 = DIRECTION ( 'NONE',  ( 0.000000000000000000, 1.000000000000000000, 0.000000000000000000 ) ) ;
#424 = AXIS2_PLACEMENT_3D ( 'NONE', #322, #1057, #807 ) ;
#425 = CIRCLE ( 'NONE', #736, 0.2500000000000002220 ) ;
#426 = CARTESIAN_POINT ( 'NONE',  ( 25.00000000000000000, 2.000000000000000000, -7.500000000000000000 ) ) ;
#427 = CIRCLE ( 'NONE', #1106, 0.2500000000000002220 ) ;
#428 = DIRECTION ( 'NONE',  ( -1.000000000000000000, 0.000000000000000000, 0.000000000000000000 ) ) ;
#429 = ORIENTED_EDGE ( 'NONE', *, *, #83, .F. ) ;
#430 = CARTESIAN_POINT ( 'NONE',  ( 25.00000000000000000, 0.2500000000000002220, -2.000000000000003109 ) ) ;
#431 = ORIENTED_EDGE ( 'NONE', *, *, #405, .F. ) ;
#432 = DIRECTION ( 'NONE',  ( -1.000000000000000000, 0.000000000000000000, 0.000000000000000000 ) ) ;
#433 = CARTESIAN_POINT ( 'NONE',  ( 25.00000000000000000, 0.2500000000000002220, -2.250000000000002665 ) ) ;
#434 = EDGE_CURVE ( 'NONE', #9, #93, #981, .T. ) ;
#435 = VERTEX_POINT ( 'NONE', #1120 ) ;
#436 = PLANE ( 'NONE',  #1109 ) ;
#437 = DIRECTION ( 'NONE',  ( 0.000000000000000000, 1.000000000000000000, 0.000000000000000000 ) ) ;
#438 = DIRECTION ( 'NONE',  ( 0.000000000000000000, 1.000000000000000000, 0.000000000000000000 ) ) ;
#439 = ORIENTED_EDGE ( 'NONE', *, *, #457, .T. ) ;
#440 = EDGE_CURVE ( 'NONE', #1074, #727, #928, .T. ) ;
#441 = CARTESIAN_POINT ( 'NONE',  ( 2.755455298081544778E-16, 0.9500000000000002887, -2.250000000000000444 ) ) ;
#442 = TOROIDAL_SURFACE ( 'NONE', #194, 2.250000000000002665, 0.2500000000000000000 ) ;
#443 = ORIENTED_EDGE ( 'NONE', *, *, #828, .F. ) ;
#444 = AXIS2_PLACEMENT_3D ( 'NONE', #419, #49, #411 ) ;
#445 = AXIS2_PLACEMENT_3D ( 'NONE', #742, #683, #227 ) ;
#446 = CARTESIAN_POINT ( 'NONE',  ( 0.000000000000000000, 1.700000000000000178, 0.000000000000000000 ) ) ;
#447 = CIRCLE ( 'NONE', #124, 2.250000000000002665 ) ;
#448 = ORIENTED_EDGE ( 'NONE', *, *, #705, .F. ) ;
#449 = CIRCLE ( 'NONE', #603, 0.2500000000000002220 ) ;
#450 = CARTESIAN_POINT ( 'NONE',  ( 25.00000000000000000, 4.750000000000000000, -7.500000000000000000 ) ) ;
#451 = CARTESIAN_POINT ( 'NONE',  ( 0.000000000000000000, 1.200000000000000178, 0.000000000000000000 ) ) ;
#452 = CARTESIAN_POINT ( 'NONE',  ( 5.939536975864661982E-16, 4.750000000000000000, -4.849999999999999645 ) ) ;
#453 = VERTEX_POINT ( 'NONE', #476 ) ;
#454 = DIRECTION ( 'NONE',  ( -0.000000000000000000, -1.000000000000000000, -0.000000000000000000 ) ) ;
#455 = ORIENTED_EDGE ( 'NONE', *, *, #586, .T. ) ;
#456 = CARTESIAN_POINT ( 'NONE',  ( 0.000000000000000000, 0.9500000000000002887, 0.000000000000000000 ) ) ;
#457 = EDGE_CURVE ( 'NONE', #815, #1033, #484, .T. ) ;
#458 = CARTESIAN_POINT ( 'NONE',  ( 0.000000000000000000, 5.000000000000000000, 0.000000000000000000 ) ) ;
#459 = VERTEX_POINT ( 'NONE', #325 ) ;
#460 = ORIENTED_EDGE ( 'NONE', *, *, #1117, .F. ) ;
#461 = DIRECTION ( 'NONE',  ( -0.000000000000000000, -1.000000000000000000, -0.000000000000000000 ) ) ;
#462 = CIRCLE ( 'NONE', #614, 3.750000000000000000 ) ;
#463 = CARTESIAN_POINT ( 'NONE',  ( 0.000000000000000000, 4.750000000000000000, 0.000000000000000000 ) ) ;
#464 = AXIS2_PLACEMENT_3D ( 'NONE', #27, #495, #652 ) ;
#465 = AXIS2_PLACEMENT_3D ( 'NONE', #404, #775, #15 ) ;
#466 = VERTEX_POINT ( 'NONE', #976 ) ;
#467 =( GEOMETRIC_REPRESENTATION_CONTEXT ( 3 ) GLOBAL_UNCERTAINTY_ASSIGNED_CONTEXT ( ( #596 ) ) GLOBAL_UNIT_ASSIGNED_CONTEXT ( ( #308, #382, #938 ) ) REPRESENTATION_CONTEXT ( 'NONE', 'WORKASPACE' ) );
#468 = DIRECTION ( 'NONE',  ( 0.000000000000000000, 1.000000000000000000, 0.000000000000000000 ) ) ;
#469 = EDGE_CURVE ( 'NONE', #93, #459, #1080, .T. ) ;
#470 = ORIENTED_EDGE ( 'NONE', *, *, #131, .T. ) ;
#471 = CARTESIAN_POINT ( 'NONE',  ( 0.000000000000000000, 1.450000000000000178, 0.000000000000000000 ) ) ;
#472 = ORIENTED_EDGE ( 'NONE', *, *, #1100, .F. ) ;
#473 = ADVANCED_FACE ( 'NONE', ( #963 ), #1157, .F. ) ;
#474 = ORIENTED_EDGE ( 'NONE', *, *, #997, .T. ) ;
#475 = CARTESIAN_POINT ( 'NONE',  ( 0.000000000000000000, 0.9500000000000002887, 0.000000000000000000 ) ) ;
#476 = CARTESIAN_POINT ( 'NONE',  ( 25.00000000000000000, 5.000000000000000000, 7.249999999999999112 ) ) ;
#477 = FACE_BOUND ( 'NONE', #554, .T. ) ;
#478 = DIRECTION ( 'NONE',  ( 0.000000000000000000, 1.000000000000000000, 0.000000000000000000 ) ) ;
#479 = ORIENTED_EDGE ( 'NONE', *, *, #961, .T. ) ;
#480 = DIRECTION ( 'NONE',  ( 1.224646799147353454E-16, 0.000000000000000000, -1.000000000000000000 ) ) ;
#481 = DIRECTION ( 'NONE',  ( 0.000000000000000000, 0.000000000000000000, 1.000000000000000000 ) ) ;
#482 = AXIS2_PLACEMENT_3D ( 'NONE', #553, #273, #634 ) ;
#483 = ORIENTED_EDGE ( 'NONE', *, *, #1117, .T. ) ;
#484 = CIRCLE ( 'NONE', #313, 2.000000000000003109 ) ;
#485 = CIRCLE ( 'NONE', #464, 0.2500000000000002220 ) ;
#486 = STYLED_ITEM ( 'NONE', ( #612 ), #52 ) ;
#487 = DIRECTION ( 'NONE',  ( 0.000000000000000000, 0.000000000000000000, 1.000000000000000000 ) ) ;
#488 = AXIS2_PLACEMENT_3D ( 'NONE', #89, #351, #645 ) ;
#489 = ORIENTED_EDGE ( 'NONE', *, *, #657, .F. ) ;
#490 = DIRECTION ( 'NONE',  ( 1.000000000000000000, -0.000000000000000000, 1.224646799147353207E-16 ) ) ;
#491 = AXIS2_PLACEMENT_3D ( 'NONE', #264, #1083, #343 ) ;
#492 = FACE_OUTER_BOUND ( 'NONE', #1005, .T. ) ;
#493 = DIRECTION ( 'NONE',  ( 0.000000000000000000, 1.000000000000000000, 0.000000000000000000 ) ) ;
#494 = ORIENTED_EDGE ( 'NONE', *, *, #828, .T. ) ;
#495 = DIRECTION ( 'NONE',  ( -1.000000000000000000, 0.000000000000000000, 0.000000000000000000 ) ) ;
#496 = CARTESIAN_POINT ( 'NONE',  ( 0.000000000000000000, 0.000000000000000000, -5.500000000000000000 ) ) ;
#497 = ADVANCED_FACE ( 'NONE', ( #500 ), #711, .T. ) ;
#498 = ORIENTED_EDGE ( 'NONE', *, *, #246, .T. ) ;
#499 = FACE_OUTER_BOUND ( 'NONE', #401, .T. ) ;
#500 = FACE_OUTER_BOUND ( 'NONE', #1086, .T. ) ;
#501 = CYLINDRICAL_SURFACE ( 'NONE', #80, 4.849999999999999645 ) ;
#502 = CIRCLE ( 'NONE', #1179, 2.250000000000000444 ) ;
#503 = CIRCLE ( 'NONE', #1102, 7.500000000000000000 ) ;
#504 = CIRCLE ( 'NONE', #949, 2.250000000000000444 ) ;
#505 = DIRECTION ( 'NONE',  ( -1.000000000000000000, 0.000000000000000000, 0.000000000000000000 ) ) ;
#506 = EDGE_CURVE ( 'NONE', #593, #221, #1061, .T. ) ;
#507 = CARTESIAN_POINT ( 'NONE',  ( 0.000000000000000000, 0.2500000000000002220, 0.000000000000000000 ) ) ;
#508 = DIRECTION ( 'NONE',  ( -0.000000000000000000, -1.000000000000000000, -0.000000000000000000 ) ) ;
#509 = EDGE_CURVE ( 'NONE', #290, #551, #870, .T. ) ;
#510 = DIRECTION ( 'NONE',  ( 0.000000000000000000, 0.000000000000000000, 1.000000000000000000 ) ) ;
#511 = DIRECTION ( 'NONE',  ( 0.000000000000000000, 0.000000000000000000, 1.000000000000000000 ) ) ;
#512 = ORIENTED_EDGE ( 'NONE', *, *, #16, .F. ) ;
#513 = CARTESIAN_POINT ( 'NONE',  ( 25.00000000000000000, 4.750000000000000000, 7.500000000000000000 ) ) ;
#514 = CARTESIAN_POINT ( 'NONE',  ( 25.00000000000000000, 1.084202172485504434E-16, 2.250000000000002665 ) ) ;
#515 = CARTESIAN_POINT ( 'NONE',  ( 0.000000000000000000, 1.450000000000000178, 4.250000000000000000 ) ) ;
#516 = ORIENTED_EDGE ( 'NONE', *, *, #153, .F. ) ;
#517 = AXIS2_PLACEMENT_3D ( 'NONE', #238, #607, #1172 ) ;
#518 = CARTESIAN_POINT ( 'NONE',  ( 25.00000000000000000, 5.000000000000000000, 2.000000000000003109 ) ) ;
#519 = VECTOR ( 'NONE', #129, 1000.000000000000000 ) ;
#520 = AXIS2_PLACEMENT_3D ( 'NONE', #446, #1094, #288 ) ;
#521 = ORIENTED_EDGE ( 'NONE', *, *, #1063, .F. ) ;
#522 = CARTESIAN_POINT ( 'NONE',  ( 25.00000000000000000, 5.000000000000000000, -2.000000000000003109 ) ) ;
#523 = EDGE_CURVE ( 'NONE', #459, #1033, #875, .T. ) ;
#524 = AXIS2_PLACEMENT_3D ( 'NONE', #337, #899, #1000 ) ;
#525 = EDGE_LOOP ( 'NONE', ( #1037, #211, #217, #1095 ) ) ;
#526 = FACE_BOUND ( 'NONE', #107, .T. ) ;
#527 = ORIENTED_EDGE ( 'NONE', *, *, #83, .T. ) ;
#528 = DIRECTION ( 'NONE',  ( -0.000000000000000000, -1.000000000000000000, -0.000000000000000000 ) ) ;
#529 = EDGE_CURVE ( 'NONE', #65, #992, #503, .T. ) ;
#530 = PLANE ( 'NONE',  #710 ) ;
#531 = ORIENTED_EDGE ( 'NONE', *, *, #718, .T. ) ;
#532 = CARTESIAN_POINT ( 'NONE',  ( 0.000000000000000000, 1.450000000000000178, 4.000000000000000000 ) ) ;
#533 = EDGE_CURVE ( 'NONE', #160, #309, #23, .T. ) ;
#534 = VERTEX_POINT ( 'NONE', #514 ) ;
#535 = CARTESIAN_POINT ( 'NONE',  ( 0.000000000000000000, 5.000000000000000000, 0.000000000000000000 ) ) ;
#536 = FACE_OUTER_BOUND ( 'NONE', #848, .T. ) ;
#537 = ORIENTED_EDGE ( 'NONE', *, *, #1085, .T. ) ;
#538 = CARTESIAN_POINT ( 'NONE',  ( 0.000000000000000000, 0.2500000000000002220, -2.000000000000000000 ) ) ;
#539 = ORIENTED_EDGE ( 'NONE', *, *, #415, .T. ) ;
#540 = VECTOR ( 'NONE', #891, 1000.000000000000000 ) ;
#541 = AXIS2_PLACEMENT_3D ( 'NONE', #312, #493, #862 ) ;
#542 = DIRECTION ( 'NONE',  ( -1.000000000000000000, 0.000000000000000000, 0.000000000000000000 ) ) ;
#543 = EDGE_CURVE ( 'NONE', #459, #93, #693, .T. ) ;
#544 = TOROIDAL_SURFACE ( 'NONE', #1046, 5.500000000000000000, 2.000000000000000000 ) ;
#545 = DIRECTION ( 'NONE',  ( 0.000000000000000000, 0.000000000000000000, 1.000000000000000000 ) ) ;
#546 = TOROIDAL_SURFACE ( 'NONE', #141, 3.650000000000001243, 0.2500000000000000000 ) ;
#547 = ORIENTED_EDGE ( 'NONE', *, *, #506, .F. ) ;
#548 = CIRCLE ( 'NONE', #224, 0.2500000000000002220 ) ;
#549 = EDGE_CURVE ( 'NONE', #375, #265, #175, .T. ) ;
#550 = CARTESIAN_POINT ( 'NONE',  ( 25.00000000000000000, 5.000000000000000000, 7.249999999999999112 ) ) ;
#551 = VERTEX_POINT ( 'NONE', #690 ) ;
#552 = DIRECTION ( 'NONE',  ( 0.000000000000000000, 0.000000000000000000, 1.000000000000000000 ) ) ;
#553 = CARTESIAN_POINT ( 'NONE',  ( 25.00000000000000000, 5.000000000000000000, 0.000000000000000000 ) ) ;
#554 = EDGE_LOOP ( 'NONE', ( #1101, #498 ) ) ;
#555 = CARTESIAN_POINT ( 'NONE',  ( 0.000000000000000000, 0.000000000000000000, 0.000000000000000000 ) ) ;
#556 = ORIENTED_EDGE ( 'NONE', *, *, #571, .T. ) ;
#557 = FACE_OUTER_BOUND ( 'NONE', #181, .T. ) ;
#558 = ORIENTED_EDGE ( 'NONE', *, *, #434, .F. ) ;
#559 = VERTEX_POINT ( 'NONE', #426 ) ;
#560 = DIRECTION ( 'NONE',  ( 0.000000000000000000, 1.000000000000000000, 0.000000000000000000 ) ) ;
#561 = AXIS2_PLACEMENT_3D ( 'NONE', #1154, #883, #980 ) ;
#562 = DIRECTION ( 'NONE',  ( 0.000000000000000000, 0.000000000000000000, 1.000000000000000000 ) ) ;
#563 = ADVANCED_FACE ( 'NONE', ( #1156 ), #1060, .T. ) ;
#564 = TOROIDAL_SURFACE ( 'NONE', #122, 2.250000000000002665, 0.2500000000000000000 ) ;
#565 = TOROIDAL_SURFACE ( 'NONE', #1141, 7.249999999999999112, 0.2500000000000000000 ) ;
#566 = ORIENTED_EDGE ( 'NONE', *, *, #1100, .T. ) ;
#567 = AXIS2_PLACEMENT_3D ( 'NONE', #1193, #1199, #906 ) ;
#568 = VERTEX_POINT ( 'NONE', #414 ) ;
#569 = DIRECTION ( 'NONE',  ( 0.000000000000000000, 0.000000000000000000, 1.000000000000000000 ) ) ;
#570 = DIRECTION ( 'NONE',  ( -0.000000000000000000, -1.000000000000000000, -0.000000000000000000 ) ) ;
#571 = EDGE_CURVE ( 'NONE', #719, #1149, #946, .T. ) ;
#572 = ORIENTED_EDGE ( 'NONE', *, *, #134, .F. ) ;
#573 = EDGE_LOOP ( 'NONE', ( #127, #613, #859, #558 ) ) ;
#574 = DIRECTION ( 'NONE',  ( -0.000000000000000000, -1.000000000000000000, -0.000000000000000000 ) ) ;
#575 = DIRECTION ( 'NONE',  ( 0.000000000000000000, 0.000000000000000000, 1.000000000000000000 ) ) ;
#576 = ORIENTED_EDGE ( 'NONE', *, *, #199, .F. ) ;
#577 = DIRECTION ( 'NONE',  ( -0.000000000000000000, -1.000000000000000000, -0.000000000000000000 ) ) ;
#578 = ORIENTED_EDGE ( 'NONE', *, *, #1023, .F. ) ;
#579 = CARTESIAN_POINT ( 'NONE',  ( 25.00000000000000000, 5.250000000000000000, 0.000000000000000000 ) ) ;
#580 = DIRECTION ( 'NONE',  ( 0.000000000000000000, 0.000000000000000000, -1.000000000000000000 ) ) ;
#581 = AXIS2_PLACEMENT_3D ( 'NONE', #797, #432, #243 ) ;
#582 = CARTESIAN_POINT ( 'NONE',  ( 0.000000000000000000, 4.750000000000000000, 0.000000000000000000 ) ) ;
#583 = TOROIDAL_SURFACE ( 'NONE', #176, 7.249999999999999112, 0.2500000000000000000 ) ;
#584 = AXIS2_PLACEMENT_3D ( 'NONE', #921, #77, #1017 ) ;
#585 = CIRCLE ( 'NONE', #1163, 3.900000000000001688 ) ;
#586 = EDGE_CURVE ( 'NONE', #551, #290, #219, .T. ) ;
#587 = ORIENTED_EDGE ( 'NONE', *, *, #1058, .T. ) ;
#588 = DIRECTION ( 'NONE',  ( 1.224646799147353454E-16, 0.000000000000000000, -1.000000000000000000 ) ) ;
#589 = DIRECTION ( 'NONE',  ( 0.000000000000000000, 0.000000000000000000, 1.000000000000000000 ) ) ;
#590 = PLANE ( 'NONE',  #465 ) ;
#591 = EDGE_CURVE ( 'NONE', #31, #117, #1045, .T. ) ;
#592 = DIRECTION ( 'NONE',  ( 0.000000000000000000, 0.000000000000000000, 1.000000000000000000 ) ) ;
#593 = VERTEX_POINT ( 'NONE', #339 ) ;
#594 = EDGE_CURVE ( 'NONE', #719, #1136, #1053, .T. ) ;
#595 = FACE_OUTER_BOUND ( 'NONE', #29, .T. ) ;
#596 = UNCERTAINTY_MEASURE_WITH_UNIT (LENGTH_MEASURE( 1.000000000000000082E-05 ), #308, 'distance_accuracy_value', 'NONE');
#597 = DIRECTION ( 'NONE',  ( 0.000000000000000000, 0.000000000000000000, 1.000000000000000000 ) ) ;
#598 = CIRCLE ( 'NONE', #365, 4.250000000000000000 ) ;
#599 = AXIS2_PLACEMENT_3D ( 'NONE', #579, #191, #569 ) ;
#600 = TOROIDAL_SURFACE ( 'NONE', #908, 4.250000000000000000, 0.2500000000000000000 ) ;
#601 = AXIS2_PLACEMENT_3D ( 'NONE', #874, #701, #979 ) ;
#602 = CARTESIAN_POINT ( 'NONE',  ( 25.00000000000000000, 7.249999999999999112, 0.000000000000000000 ) ) ;
#603 = AXIS2_PLACEMENT_3D ( 'NONE', #64, #170, #84 ) ;
#604 = DIRECTION ( 'NONE',  ( 0.000000000000000000, 0.000000000000000000, 1.000000000000000000 ) ) ;
#605 = ORIENTED_EDGE ( 'NONE', *, *, #192, .T. ) ;
#606 = FACE_OUTER_BOUND ( 'NONE', #730, .T. ) ;
#607 = DIRECTION ( 'NONE',  ( 0.000000000000000000, 1.000000000000000000, 0.000000000000000000 ) ) ;
#608 = DIRECTION ( 'NONE',  ( 0.000000000000000000, 1.000000000000000000, 0.000000000000000000 ) ) ;
#609 = ORIENTED_EDGE ( 'NONE', *, *, #990, .T. ) ;
#610 = DIRECTION ( 'NONE',  ( 0.000000000000000000, 0.000000000000000000, 1.000000000000000000 ) ) ;
#611 = DIRECTION ( 'NONE',  ( 0.000000000000000000, 1.000000000000000000, 0.000000000000000000 ) ) ;
#612 = PRESENTATION_STYLE_ASSIGNMENT (( #1152 ) ) ;
#613 = ORIENTED_EDGE ( 'NONE', *, *, #1063, .T. ) ;
#614 = AXIS2_PLACEMENT_3D ( 'NONE', #948, #116, #575 ) ;
#615 = CARTESIAN_POINT ( 'NONE',  ( 0.000000000000000000, 2.000000000000000000, 7.500000000000000000 ) ) ;
#616 = TOROIDAL_SURFACE ( 'NONE', #792, 2.250000000000000444, 0.2500000000000000000 ) ;
#617 = CIRCLE ( 'NONE', #1105, 0.2500000000000002220 ) ;
#618 = ADVANCED_FACE ( 'NONE', ( #780 ), #60, .T. ) ;
#619 = ORIENTED_EDGE ( 'NONE', *, *, #836, .F. ) ;
#620 = CARTESIAN_POINT ( 'NONE',  ( 25.00000000000000000, 5.000000000000000000, -7.249999999999999112 ) ) ;
#621 = DIRECTION ( 'NONE',  ( 1.000000000000000000, 0.000000000000000000, -0.000000000000000000 ) ) ;
#622 = EDGE_LOOP ( 'NONE', ( #537, #358 ) ) ;
#623 = ADVANCED_FACE ( 'NONE', ( #133, #91 ), #345, .T. ) ;
#624 = DIRECTION ( 'NONE',  ( -1.000000000000000000, 0.000000000000000000, 0.000000000000000000 ) ) ;
#625 = ORIENTED_EDGE ( 'NONE', *, *, #759, .F. ) ;
#626 = CARTESIAN_POINT ( 'NONE',  ( 0.000000000000000000, 1.084202172485504434E-16, 2.250000000000000444 ) ) ;
#627 = FACE_OUTER_BOUND ( 'NONE', #281, .T. ) ;
#628 = EDGE_LOOP ( 'NONE', ( #443, #1161, #1036, #843 ) ) ;
#629 = EDGE_CURVE ( 'NONE', #850, #822, #1065, .T. ) ;
#630 = DIRECTION ( 'NONE',  ( -1.000000000000000000, 0.000000000000000000, 0.000000000000000000 ) ) ;
#631 = ORIENTED_EDGE ( 'NONE', *, *, #143, .F. ) ;
#632 = DIRECTION ( 'NONE',  ( 0.000000000000000000, 0.000000000000000000, -1.000000000000000000 ) ) ;
#633 = APPLICATION_CONTEXT ( 'automotive_design' ) ;
#634 = DIRECTION ( 'NONE',  ( 0.000000000000000000, 0.000000000000000000, -1.000000000000000000 ) ) ;
#635 = ADVANCED_FACE ( 'NONE', ( #75 ), #25, .T. ) ;
#636 = VERTEX_POINT ( 'NONE', #620 ) ;
#637 = CARTESIAN_POINT ( 'NONE',  ( 0.000000000000000000, 0.2500000000000002220, 0.000000000000000000 ) ) ;
#638 = ORIENTED_EDGE ( 'NONE', *, *, #1042, .F. ) ;
#639 = TOROIDAL_SURFACE ( 'NONE', #1144, 5.099999999999999645, 0.2500000000000000000 ) ;
#640 = DIRECTION ( 'NONE',  ( 0.000000000000000000, 0.000000000000000000, 1.000000000000000000 ) ) ;
#641 = CIRCLE ( 'NONE', #237, 4.000000000000000000 ) ;
#642 = DIRECTION ( 'NONE',  ( 0.000000000000000000, 0.000000000000000000, 1.000000000000000000 ) ) ;
#643 = VECTOR ( 'NONE', #630, 1000.000000000000000 ) ;
#644 = ORIENTED_EDGE ( 'NONE', *, *, #199, .T. ) ;
#645 = DIRECTION ( 'NONE',  ( 0.000000000000000000, 0.000000000000000000, 1.000000000000000000 ) ) ;
#646 = ORIENTED_EDGE ( 'NONE', *, *, #368, .T. ) ;
#647 = DIRECTION ( 'NONE',  ( 0.000000000000000000, 0.000000000000000000, 1.000000000000000000 ) ) ;
#648 = DIRECTION ( 'NONE',  ( -0.000000000000000000, -1.000000000000000000, -0.000000000000000000 ) ) ;
#649 = EDGE_LOOP ( 'NONE', ( #988, #1194 ) ) ;
#650 = ADVANCED_FACE ( 'NONE', ( #161 ), #544, .T. ) ;
#651 = EDGE_LOOP ( 'NONE', ( #286, #1043 ) ) ;
#652 = DIRECTION ( 'NONE',  ( 0.000000000000000000, 0.000000000000000000, 1.000000000000000000 ) ) ;
#653 = DIRECTION ( 'NONE',  ( 0.000000000000000000, 0.000000000000000000, 1.000000000000000000 ) ) ;
#654 = ORIENTED_EDGE ( 'NONE', *, *, #415, .F. ) ;
#655 = EDGE_LOOP ( 'NONE', ( #1089, #930, #109, #202 ) ) ;
#656 = CARTESIAN_POINT ( 'NONE',  ( 0.000000000000000000, 4.750000000000000000, 5.099999999999999645 ) ) ;
#657 = EDGE_CURVE ( 'NONE', #1032, #900, #1103, .T. ) ;
#658 = VECTOR ( 'NONE', #225, 1000.000000000000000 ) ;
#659 = CARTESIAN_POINT ( 'NONE',  ( 0.000000000000000000, 1.450000000000000178, 0.000000000000000000 ) ) ;
#660 = AXIS2_PLACEMENT_3D ( 'NONE', #535, #282, #1093 ) ;
#661 = AXIS2_PLACEMENT_3D ( 'NONE', #708, #249, #621 ) ;
#662 = DIRECTION ( 'NONE',  ( 0.000000000000000000, 0.000000000000000000, 1.000000000000000000 ) ) ;
#663 = CIRCLE ( 'NONE', #968, 0.2500000000000002220 ) ;
#664 = ADVANCED_FACE ( 'NONE', ( #254 ), #982, .T. ) ;
#665 = CARTESIAN_POINT ( 'NONE',  ( 25.00000000000000000, 5.250000000000000000, 0.000000000000000000 ) ) ;
#666 = ORIENTED_EDGE ( 'NONE', *, *, #591, .F. ) ;
#667 = CARTESIAN_POINT ( 'NONE',  ( 0.000000000000000000, 1.200000000000000178, 0.000000000000000000 ) ) ;
#668 = DIRECTION ( 'NONE',  ( 0.000000000000000000, 0.000000000000000000, 1.000000000000000000 ) ) ;
#669 = VERTEX_POINT ( 'NONE', #626 ) ;
#670 = ORIENTED_EDGE ( 'NONE', *, *, #323, .F. ) ;
#671 = DIRECTION ( 'NONE',  ( 0.000000000000000000, 0.000000000000000000, 1.000000000000000000 ) ) ;
#672 = FACE_OUTER_BOUND ( 'NONE', #628, .T. ) ;
#673 = EDGE_LOOP ( 'NONE', ( #654, #527, #1177, #1118 ) ) ;
#674 = EDGE_CURVE ( 'NONE', #1139, #1074, #832, .T. ) ;
#675 = APPLICATION_PROTOCOL_DEFINITION ( 'draft international standard', 'automotive_design', 1998, #633 ) ;
#676 = ORIENTED_EDGE ( 'NONE', *, *, #629, .T. ) ;
#677 = DIRECTION ( 'NONE',  ( 0.000000000000000000, 0.000000000000000000, -1.000000000000000000 ) ) ;
#678 = DIRECTION ( 'NONE',  ( 0.000000000000000000, 0.000000000000000000, -1.000000000000000000 ) ) ;
#679 = AXIS2_PLACEMENT_3D ( 'NONE', #318, #763, #562 ) ;
#680 = CYLINDRICAL_SURFACE ( 'NONE', #950, 7.500000000000000000 ) ;
#681 = CIRCLE ( 'NONE', #197, 7.500000000000000000 ) ;
#682 = CIRCLE ( 'NONE', #46, 0.2500000000000002220 ) ;
#683 = DIRECTION ( 'NONE',  ( 1.000000000000000000, 0.000000000000000000, 0.000000000000000000 ) ) ;
#684 = FACE_OUTER_BOUND ( 'NONE', #151, .T. ) ;
#685 = ADVANCED_FACE ( 'NONE', ( #996 ), #167, .F. ) ;
#686 = CARTESIAN_POINT ( 'NONE',  ( 0.000000000000000000, 0.000000000000000000, 0.000000000000000000 ) ) ;
#687 = CARTESIAN_POINT ( 'NONE',  ( 0.000000000000000000, 4.750000000000000000, 7.249999999999999112 ) ) ;
#688 = DIRECTION ( 'NONE',  ( -0.000000000000000000, -1.000000000000000000, -0.000000000000000000 ) ) ;
#689 = DIRECTION ( 'NONE',  ( 0.000000000000000000, 0.000000000000000000, 1.000000000000000000 ) ) ;
#690 = CARTESIAN_POINT ( 'NONE',  ( 5.939536975864661982E-16, 1.700000000000000178, -4.849999999999999645 ) ) ;
#691 = APPLICATION_CONTEXT ( 'automotive_design' ) ;
#692 = CARTESIAN_POINT ( 'NONE',  ( 25.00000000000000000, 1.084202172485504434E-16, -2.250000000000002665 ) ) ;
#693 = CIRCLE ( 'NONE', #444, 2.000000000000003109 ) ;
#694 = ORIENTED_EDGE ( 'NONE', *, *, #352, .F. ) ;
#695 = AXIS2_PLACEMENT_3D ( 'NONE', #915, #1108, #640 ) ;
#696 = CIRCLE ( 'NONE', #177, 0.2500000000000002220 ) ;
#697 = TOROIDAL_SURFACE ( 'NONE', #814, 2.250000000000002665, 0.2500000000000000000 ) ;
#698 = CARTESIAN_POINT ( 'NONE',  ( 25.00000000000000000, 7.249999999999999112, 0.000000000000000000 ) ) ;
#699 = DIRECTION ( 'NONE',  ( 0.000000000000000000, 0.000000000000000000, 1.000000000000000000 ) ) ;
#700 = ORIENTED_EDGE ( 'NONE', *, *, #1168, .F. ) ;
#701 = DIRECTION ( 'NONE',  ( 1.000000000000000000, -0.000000000000000000, 1.224646799147353207E-16 ) ) ;
#702 = CARTESIAN_POINT ( 'NONE',  ( 0.000000000000000000, 4.750000000000000000, 0.000000000000000000 ) ) ;
#703 =( NAMED_UNIT ( * ) SI_UNIT ( $, .STERADIAN. ) SOLID_ANGLE_UNIT ( ) );
#704 = ORIENTED_EDGE ( 'NONE', *, *, #295, .F. ) ;
#705 = EDGE_CURVE ( 'NONE', #117, #31, #966, .T. ) ;
#706 = CARTESIAN_POINT ( 'NONE',  ( 25.00000000000000000, 6.999999999999999112, -3.900000000000001688 ) ) ;
#707 = LINE ( 'NONE', #767, #346 ) ;
#708 = CARTESIAN_POINT ( 'NONE',  ( 0.000000000000000000, 5.000000000000000000, -7.500000000000000000 ) ) ;
#709 = ORIENTED_EDGE ( 'NONE', *, *, #1191, .F. ) ;
#710 = AXIS2_PLACEMENT_3D ( 'NONE', #458, #817, #729 ) ;
#711 = TOROIDAL_SURFACE ( 'NONE', #1123, 2.250000000000000444, 0.2500000000000000000 ) ;
#712 = CARTESIAN_POINT ( 'NONE',  ( 25.00000000000000000, 0.2500000000000002220, 2.250000000000002665 ) ) ;
#713 = AXIS2_PLACEMENT_3D ( 'NONE', #656, #840, #1034 ) ;
#714 = EDGE_LOOP ( 'NONE', ( #587, #765, #625, #973 ) ) ;
#715 = DIRECTION ( 'NONE',  ( 0.000000000000000000, 1.000000000000000000, 0.000000000000000000 ) ) ;
#716 = AXIS2_PLACEMENT_3D ( 'NONE', #1104, #280, #251 ) ;
#717 = FACE_OUTER_BOUND ( 'NONE', #69, .T. ) ;
#718 = EDGE_CURVE ( 'NONE', #1192, #163, #1125, .T. ) ;
#719 = VERTEX_POINT ( 'NONE', #816 ) ;
#720 = LINE ( 'NONE', #1186, #1010 ) ;
#721 = ORIENTED_EDGE ( 'NONE', *, *, #591, .T. ) ;
#722 = DIRECTION ( 'NONE',  ( 0.000000000000000000, 0.000000000000000000, 1.000000000000000000 ) ) ;
#723 = ADVANCED_FACE ( 'NONE', ( #1009 ), #354, .T. ) ;
#724 = DIRECTION ( 'NONE',  ( 0.000000000000000000, 0.000000000000000000, -1.000000000000000000 ) ) ;
#725 = ORIENTED_EDGE ( 'NONE', *, *, #1191, .T. ) ;
#726 = LINE ( 'NONE', #450, #1050 ) ;
#727 = VERTEX_POINT ( 'NONE', #728 ) ;
#728 = CARTESIAN_POINT ( 'NONE',  ( 2.449293598294706414E-16, 0.2500000000000002220, 2.000000000000000000 ) ) ;
#729 = DIRECTION ( 'NONE',  ( 0.000000000000000000, -0.000000000000000000, 1.000000000000000000 ) ) ;
#730 = EDGE_LOOP ( 'NONE', ( #1026, #912, #769, #709 ) ) ;
#731 = PLANE ( 'NONE',  #716 ) ;
#732 = EDGE_CURVE ( 'NONE', #719, #802, #275, .T. ) ;
#733 = ORIENTED_EDGE ( 'NONE', *, *, #543, .F. ) ;
#734 = AXIS2_PLACEMENT_3D ( 'NONE', #123, #393, #209 ) ;
#735 = CARTESIAN_POINT ( 'NONE',  ( 0.000000000000000000, 2.000000000000000000, 5.500000000000000000 ) ) ;
#736 = AXIS2_PLACEMENT_3D ( 'NONE', #205, #244, #150 ) ;
#737 = CYLINDRICAL_SURFACE ( 'NONE', #584, 4.849999999999999645 ) ;
#738 = VECTOR ( 'NONE', #30, 1000.000000000000000 ) ;
#739 = VERTEX_POINT ( 'NONE', #364 ) ;
#740 = EDGE_CURVE ( 'NONE', #1136, #1192, #121, .T. ) ;
#741 = ORIENTED_EDGE ( 'NONE', *, *, #876, .F. ) ;
#742 = CARTESIAN_POINT ( 'NONE',  ( 25.00000000000000000, 4.750000000000000000, 7.249999999999999112 ) ) ;
#743 = FACE_OUTER_BOUND ( 'NONE', #673, .T. ) ;
#744 = ORIENTED_EDGE ( 'NONE', *, *, #76, .T. ) ;
#745 = EDGE_CURVE ( 'NONE', #636, #1174, #271, .T. ) ;
#746 = CARTESIAN_POINT ( 'NONE',  ( 0.000000000000000000, 1.700000000000000178, 0.000000000000000000 ) ) ;
#747 = ORIENTED_EDGE ( 'NONE', *, *, #674, .F. ) ;
#748 = CARTESIAN_POINT ( 'NONE',  ( 0.000000000000000000, 1.450000000000000178, 0.000000000000000000 ) ) ;
#749 = DIRECTION ( 'NONE',  ( 0.000000000000000000, 0.000000000000000000, 1.000000000000000000 ) ) ;
#750 = ADVANCED_FACE ( 'NONE', ( #557 ), #583, .T. ) ;
#751 = CARTESIAN_POINT ( 'NONE',  ( 0.000000000000000000, 1.700000000000000178, 0.000000000000000000 ) ) ;
#752 = ORIENTED_EDGE ( 'NONE', *, *, #959, .F. ) ;
#753 = DIRECTION ( 'NONE',  ( 0.000000000000000000, 1.000000000000000000, 0.000000000000000000 ) ) ;
#754 = CIRCLE ( 'NONE', #3, 2.000000000000003109 ) ;
#755 = CARTESIAN_POINT ( 'NONE',  ( 25.00000000000000000, 5.000000000000000000, 0.000000000000000000 ) ) ;
#756 = AXIS2_PLACEMENT_3D ( 'NONE', #735, #989, #909 ) ;
#757 = AXIS2_PLACEMENT_3D ( 'NONE', #602, #132, #321 ) ;
#758 = ORIENTED_EDGE ( 'NONE', *, *, #798, .T. ) ;
#759 = EDGE_CURVE ( 'NONE', #1149, #466, #707, .T. ) ;
#760 = DIRECTION ( 'NONE',  ( -0.000000000000000000, -1.000000000000000000, -0.000000000000000000 ) ) ;
#761 = EDGE_LOOP ( 'NONE', ( #898, #326 ) ) ;
#762 = DIRECTION ( 'NONE',  ( 0.000000000000000000, 0.000000000000000000, 1.000000000000000000 ) ) ;
#763 = DIRECTION ( 'NONE',  ( -1.000000000000000000, 0.000000000000000000, 0.000000000000000000 ) ) ;
#764 = EDGE_CURVE ( 'NONE', #933, #1067, #641, .T. ) ;
#765 = ORIENTED_EDGE ( 'NONE', *, *, #1075, .T. ) ;
#766 = ORIENTED_EDGE ( 'NONE', *, *, #549, .T. ) ;
#767 = CARTESIAN_POINT ( 'NONE',  ( 0.000000000000000000, 5.000000000000000000, -7.500000000000000000 ) ) ;
#768 = CARTESIAN_POINT ( 'NONE',  ( 25.00000000000000000, 6.999999999999999112, 0.000000000000000000 ) ) ;
#769 = ORIENTED_EDGE ( 'NONE', *, *, #412, .F. ) ;
#770 = ORIENTED_EDGE ( 'NONE', *, *, #131, .F. ) ;
#771 = DIRECTION ( 'NONE',  ( 0.000000000000000000, 0.000000000000000000, -1.000000000000000000 ) ) ;
#772 = ADVANCED_FACE ( 'NONE', ( #115 ), #328, .F. ) ;
#773 = CARTESIAN_POINT ( 'NONE',  ( 25.00000000000000000, 2.000000000000000000, -5.500000000000000000 ) ) ;
#774 = AXIS2_PLACEMENT_3D ( 'NONE', #755, #216, #580 ) ;
#775 = DIRECTION ( 'NONE',  ( 0.000000000000000000, 1.000000000000000000, 0.000000000000000000 ) ) ;
#776 = CIRCLE ( 'NONE', #947, 0.2500000000000002220 ) ;
#777 = AXIS2_PLACEMENT_3D ( 'NONE', #283, #1, #724 ) ;
#778 = EDGE_CURVE ( 'NONE', #290, #593, #310, .T. ) ;
#779 = CARTESIAN_POINT ( 'NONE',  ( 25.00000000000000000, 0.000000000000000000, 0.000000000000000000 ) ) ;
#780 = FACE_OUTER_BOUND ( 'NONE', #953, .T. ) ;
#781 = DIRECTION ( 'NONE',  ( -1.000000000000000000, 0.000000000000000000, 0.000000000000000000 ) ) ;
#782 = EDGE_CURVE ( 'NONE', #822, #1192, #1137, .T. ) ;
#783 = CYLINDRICAL_SURFACE ( 'NONE', #369, 2.000000000000000000 ) ;
#784 = CARTESIAN_POINT ( 'NONE',  ( 0.000000000000000000, 1.700000000000000178, 0.000000000000000000 ) ) ;
#785 = DIRECTION ( 'NONE',  ( -0.000000000000000000, -1.000000000000000000, -0.000000000000000000 ) ) ;
#786 = EDGE_CURVE ( 'NONE', #1112, #593, #274, .T. ) ;
#787 = DIRECTION ( 'NONE',  ( 0.000000000000000000, 0.000000000000000000, 1.000000000000000000 ) ) ;
#788 = DIRECTION ( 'NONE',  ( 0.000000000000000000, 0.000000000000000000, 1.000000000000000000 ) ) ;
#789 = AXIS2_PLACEMENT_3D ( 'NONE', #659, #1035, #668 ) ;
#790 = AXIS2_PLACEMENT_3D ( 'NONE', #582, #381, #952 ) ;
#791 = ORIENTED_EDGE ( 'NONE', *, *, #134, .T. ) ;
#792 = AXIS2_PLACEMENT_3D ( 'NONE', #291, #560, #671 ) ;
#793 = AXIS2_PLACEMENT_3D ( 'NONE', #911, #1088, #174 ) ;
#794 = TOROIDAL_SURFACE ( 'NONE', #951, 2.250000000000002665, 0.2500000000000000000 ) ;
#795 = CARTESIAN_POINT ( 'NONE',  ( 25.00000000000000000, 6.999999999999999112, 0.000000000000000000 ) ) ;
#796 = CIRCLE ( 'NONE', #317, 4.150000000000002132 ) ;
#797 = CARTESIAN_POINT ( 'NONE',  ( 0.000000000000000000, 2.000000000000000000, -5.500000000000000000 ) ) ;
#798 = EDGE_CURVE ( 'NONE', #85, #559, #681, .T. ) ;
#799 = FACE_OUTER_BOUND ( 'NONE', #714, .T. ) ;
#800 = ORIENTED_EDGE ( 'NONE', *, *, #866, .T. ) ;
#801 = DIRECTION ( 'NONE',  ( 0.000000000000000000, 0.000000000000000000, -1.000000000000000000 ) ) ;
#802 = VERTEX_POINT ( 'NONE', #934 ) ;
#803 = DIRECTION ( 'NONE',  ( 0.000000000000000000, 1.000000000000000000, 0.000000000000000000 ) ) ;
#804 = ORIENTED_EDGE ( 'NONE', *, *, #314, .F. ) ;
#805 = DIRECTION ( 'NONE',  ( -0.000000000000000000, -1.000000000000000000, -0.000000000000000000 ) ) ;
#806 = ORIENTED_EDGE ( 'NONE', *, *, #434, .T. ) ;
#807 = DIRECTION ( 'NONE',  ( 0.000000000000000000, 0.000000000000000000, 1.000000000000000000 ) ) ;
#808 = EDGE_CURVE ( 'NONE', #739, #1092, #1081, .T. ) ;
#809 = CARTESIAN_POINT ( 'NONE',  ( 0.000000000000000000, 0.2500000000000002220, 2.250000000000000444 ) ) ;
#810 = ORIENTED_EDGE ( 'NONE', *, *, #314, .T. ) ;
#811 = EDGE_CURVE ( 'NONE', #163, #466, #1145, .T. ) ;
#812 = DIRECTION ( 'NONE',  ( 1.000000000000000000, -0.000000000000000000, 1.224646799147353207E-16 ) ) ;
#813 = AXIS2_PLACEMENT_3D ( 'NONE', #471, #13, #378 ) ;
#814 = AXIS2_PLACEMENT_3D ( 'NONE', #795, #334, #235 ) ;
#815 = VERTEX_POINT ( 'NONE', #287 ) ;
#816 = CARTESIAN_POINT ( 'NONE',  ( 0.000000000000000000, 4.750000000000000000, 7.500000000000000000 ) ) ;
#817 = DIRECTION ( 'NONE',  ( 0.000000000000000000, 1.000000000000000000, 0.000000000000000000 ) ) ;
#818 = EDGE_LOOP ( 'NONE', ( #383, #421, #245, #431 ) ) ;
#819 = DIRECTION ( 'NONE',  ( 1.000000000000000000, -0.000000000000000000, -0.000000000000000000 ) ) ;
#820 = DIRECTION ( 'NONE',  ( 0.000000000000000000, 1.000000000000000000, 0.000000000000000000 ) ) ;
#821 = CARTESIAN_POINT ( 'NONE',  ( 4.745506346695992907E-16, 1.200000000000000178, -3.750000000000000000 ) ) ;
#822 = VERTEX_POINT ( 'NONE', #305 ) ;
#823 = EDGE_CURVE ( 'NONE', #1074, #1139, #220, .T. ) ;
#824 = DIRECTION ( 'NONE',  ( 1.224646799147351482E-16, 0.000000000000000000, -1.000000000000000000 ) ) ;
#825 = ORIENTED_EDGE ( 'NONE', *, *, #320, .F. ) ;
#826 = CARTESIAN_POINT ( 'NONE',  ( 25.00000000000000000, 7.249999999999999112, 0.000000000000000000 ) ) ;
#827 = DIRECTION ( 'NONE',  ( -0.000000000000000000, -1.000000000000000000, -0.000000000000000000 ) ) ;
#828 = EDGE_CURVE ( 'NONE', #333, #221, #1007, .T. ) ;
#829 = ORIENTED_EDGE ( 'NONE', *, *, #745, .F. ) ;
#830 = DIRECTION ( 'NONE',  ( 0.000000000000000000, 0.000000000000000000, 1.000000000000000000 ) ) ;
#831 = EDGE_LOOP ( 'NONE', ( #825, #55, #372, #1012 ) ) ;
#832 = CIRCLE ( 'NONE', #886, 2.000000000000000000 ) ;
#833 = DIRECTION ( 'NONE',  ( 0.000000000000000000, 1.000000000000000000, 0.000000000000000000 ) ) ;
#834 = DIRECTION ( 'NONE',  ( 0.000000000000000000, 1.000000000000000000, 0.000000000000000000 ) ) ;
#835 = AXIS2_PLACEMENT_3D ( 'NONE', #213, #478, #101 ) ;
#836 = EDGE_CURVE ( 'NONE', #739, #117, #485, .T. ) ;
#837 = ORIENTED_EDGE ( 'NONE', *, *, #440, .T. ) ;
#838 = CARTESIAN_POINT ( 'NONE',  ( 25.00000000000000000, 5.250000000000000000, 0.000000000000000000 ) ) ;
#839 = VERTEX_POINT ( 'NONE', #845 ) ;
#840 = DIRECTION ( 'NONE',  ( -1.000000000000000000, 0.000000000000000000, 0.000000000000000000 ) ) ;
#841 = ADVANCED_FACE ( 'NONE', ( #299 ), #616, .T. ) ;
#842 = DIRECTION ( 'NONE',  ( 0.000000000000000000, 0.000000000000000000, 1.000000000000000000 ) ) ;
#843 = ORIENTED_EDGE ( 'NONE', *, *, #10, .F. ) ;
#844 = ORIENTED_EDGE ( 'NONE', *, *, #529, .F. ) ;
#845 = CARTESIAN_POINT ( 'NONE',  ( 0.000000000000000000, 1.700000000000000178, 4.250000000000000000 ) ) ;
#846 = EDGE_CURVE ( 'NONE', #190, #984, #504, .T. ) ;
#847 = DIRECTION ( 'NONE',  ( -0.000000000000000000, -1.000000000000000000, -0.000000000000000000 ) ) ;
#848 = EDGE_LOOP ( 'NONE', ( #605, #2, #1185, #1198 ) ) ;
#849 = EDGE_CURVE ( 'NONE', #160, #933, #776, .T. ) ;
#850 = VERTEX_POINT ( 'NONE', #860 ) ;
#851 = DIRECTION ( 'NONE',  ( 1.000000000000000000, 0.000000000000000000, 0.000000000000000000 ) ) ;
#852 = AXIS2_PLACEMENT_3D ( 'NONE', #51, #688, #788 ) ;
#853 = DIRECTION ( 'NONE',  ( -0.000000000000000000, -1.000000000000000000, -0.000000000000000000 ) ) ;
#854 = AXIS2_PLACEMENT_3D ( 'NONE', #86, #437, #1098 ) ;
#855 = AXIS2_PLACEMENT_3D ( 'NONE', #809, #1021, #653 ) ;
#856 = ORIENTED_EDGE ( 'NONE', *, *, #295, .T. ) ;
#857 = VECTOR ( 'NONE', #36, 1000.000000000000000 ) ;
#858 = LINE ( 'NONE', #94, #738 ) ;
#859 = ORIENTED_EDGE ( 'NONE', *, *, #469, .F. ) ;
#860 = CARTESIAN_POINT ( 'NONE',  ( 25.00000000000000000, 0.000000000000000000, -5.500000000000000000 ) ) ;
#861 = DIRECTION ( 'NONE',  ( 0.000000000000000000, 1.000000000000000000, 0.000000000000000000 ) ) ;
#862 = DIRECTION ( 'NONE',  ( 0.000000000000000000, 0.000000000000000000, 1.000000000000000000 ) ) ;
#863 = ORIENTED_EDGE ( 'NONE', *, *, #1168, .T. ) ;
#864 = CARTESIAN_POINT ( 'NONE',  ( 25.00000000000000000, 5.250000000000000000, 4.150000000000002132 ) ) ;
#865 = CARTESIAN_POINT ( 'NONE',  ( 5.939536975864661982E-16, 1.700000000000000178, -4.849999999999999645 ) ) ;
#866 = EDGE_CURVE ( 'NONE', #900, #265, #407, .T. ) ;
#867 = ORIENTED_EDGE ( 'NONE', *, *, #45, .F. ) ;
#868 = CYLINDRICAL_SURFACE ( 'NONE', #1187, 3.900000000000001688 ) ;
#869 = DIRECTION ( 'NONE',  ( 0.000000000000000000, 1.000000000000000000, 0.000000000000000000 ) ) ;
#870 = CIRCLE ( 'NONE', #1025, 4.849999999999999645 ) ;
#871 =( LENGTH_UNIT ( ) NAMED_UNIT ( * ) SI_UNIT ( .MILLI., .METRE. ) );
#872 = AXIS2_PLACEMENT_3D ( 'NONE', #1003, #461, #552 ) ;
#873 = ADVANCED_FACE ( 'NONE', ( #398 ), #138, .F. ) ;
#874 = CARTESIAN_POINT ( 'NONE',  ( 25.00000000000000000, 6.999999999999999112, -3.650000000000001243 ) ) ;
#875 = LINE ( 'NONE', #522, #540 ) ;
#876 = EDGE_CURVE ( 'NONE', #453, #992, #296, .T. ) ;
#877 = CARTESIAN_POINT ( 'NONE',  ( 25.00000000000000000, 2.000000000000000000, 7.500000000000000000 ) ) ;
#878 = CARTESIAN_POINT ( 'NONE',  ( 0.000000000000000000, 1.200000000000000178, 0.000000000000000000 ) ) ;
#879 = SURFACE_SIDE_STYLE ('',( #1158 ) ) ;
#880 = ORIENTED_EDGE ( 'NONE', *, *, #405, .T. ) ;
#881 = CARTESIAN_POINT ( 'NONE',  ( 25.00000000000000000, 6.999999999999999112, 0.000000000000000000 ) ) ;
#882 = EDGE_CURVE ( 'NONE', #1092, #1032, #231, .T. ) ;
#883 = DIRECTION ( 'NONE',  ( 0.000000000000000000, 1.000000000000000000, 0.000000000000000000 ) ) ;
#884 = LINE ( 'NONE', #239, #1184 ) ;
#885 = AXIS2_PLACEMENT_3D ( 'NONE', #784, #958, #329 ) ;
#886 = AXIS2_PLACEMENT_3D ( 'NONE', #456, #715, #359 ) ;
#887 = EDGE_LOOP ( 'NONE', ( #377, #342, #353, #483 ) ) ;
#888 = AXIS2_PLACEMENT_3D ( 'NONE', #779, #1165, #592 ) ;
#889 = CARTESIAN_POINT ( 'NONE',  ( 2.449293598294706414E-16, 0.9500000000000002887, 2.000000000000000000 ) ) ;
#890 = ORIENTED_EDGE ( 'NONE', *, *, #1180, .T. ) ;
#891 = DIRECTION ( 'NONE',  ( -0.000000000000000000, -1.000000000000000000, -0.000000000000000000 ) ) ;
#892 = EDGE_LOOP ( 'NONE', ( #386, #349, #1169, #770 ) ) ;
#893 = EDGE_CURVE ( 'NONE', #534, #62, #348, .T. ) ;
#894 = FACE_OUTER_BOUND ( 'NONE', #903, .T. ) ;
#895 = EDGE_LOOP ( 'NONE', ( #371, #721 ) ) ;
#896 = DIRECTION ( 'NONE',  ( 0.000000000000000000, 1.000000000000000000, 0.000000000000000000 ) ) ;
#897 = ADVANCED_FACE ( 'NONE', ( #606 ), #783, .T. ) ;
#898 = ORIENTED_EDGE ( 'NONE', *, *, #893, .T. ) ;
#899 = DIRECTION ( 'NONE',  ( -0.000000000000000000, -1.000000000000000000, -0.000000000000000000 ) ) ;
#900 = VERTEX_POINT ( 'NONE', #144 ) ;
#901 = CARTESIAN_POINT ( 'NONE',  ( 0.000000000000000000, 0.000000000000000000, 0.000000000000000000 ) ) ;
#902 = CARTESIAN_POINT ( 'NONE',  ( 0.000000000000000000, 5.000000000000000000, 0.000000000000000000 ) ) ;
#903 = EDGE_LOOP ( 'NONE', ( #363, #455 ) ) ;
#904 = ADVANCED_FACE ( 'NONE', ( #595 ), #546, .T. ) ;
#905 = AXIS2_PLACEMENT_3D ( 'NONE', #773, #1147, #395 ) ;
#906 = DIRECTION ( 'NONE',  ( 0.000000000000000000, 0.000000000000000000, 1.000000000000000000 ) ) ;
#907 = AXIS2_PLACEMENT_3D ( 'NONE', #901, #528, #96 ) ;
#908 = AXIS2_PLACEMENT_3D ( 'NONE', #68, #608, #977 ) ;
#909 = DIRECTION ( 'NONE',  ( 0.000000000000000000, 0.000000000000000000, -1.000000000000000000 ) ) ;
#910 = AXIS2_PLACEMENT_3D ( 'NONE', #637, #454, #179 ) ;
#911 = CARTESIAN_POINT ( 'NONE',  ( 25.00000000000000000, 5.000000000000000000, 0.000000000000000000 ) ) ;
#912 = ORIENTED_EDGE ( 'NONE', *, *, #782, .F. ) ;
#913 = FACE_BOUND ( 'NONE', #651, .T. ) ;
#914 = ORIENTED_EDGE ( 'NONE', *, *, #529, .T. ) ;
#915 = CARTESIAN_POINT ( 'NONE',  ( 0.000000000000000000, 0.9500000000000002887, 0.000000000000000000 ) ) ;
#916 = LINE ( 'NONE', #92, #173 ) ;
#917 = ORIENTED_EDGE ( 'NONE', *, *, #876, .T. ) ;
#918 = DIRECTION ( 'NONE',  ( 1.000000000000000000, 0.000000000000000000, 0.000000000000000000 ) ) ;
#919 = ORIENTED_EDGE ( 'NONE', *, *, #533, .F. ) ;
#920 = DIRECTION ( 'NONE',  ( 0.000000000000000000, 1.000000000000000000, 0.000000000000000000 ) ) ;
#921 = CARTESIAN_POINT ( 'NONE',  ( 0.000000000000000000, 1.700000000000000178, 0.000000000000000000 ) ) ;
#922 = EDGE_LOOP ( 'NONE', ( #521, #18, #806, #733 ) ) ;
#923 = EDGE_CURVE ( 'NONE', #942, #9, #447, .T. ) ;
#924 = CIRCLE ( 'NONE', #905, 2.000000000000000000 ) ;
#925 = ORIENTED_EDGE ( 'NONE', *, *, #59, .F. ) ;
#926 = CIRCLE ( 'NONE', #855, 0.2500000000000002220 ) ;
#927 = DIRECTION ( 'NONE',  ( 0.000000000000000000, 0.000000000000000000, 1.000000000000000000 ) ) ;
#928 = LINE ( 'NONE', #380, #387 ) ;
#929 = AXIS2_PLACEMENT_3D ( 'NONE', #665, #303, #200 ) ;
#930 = ORIENTED_EDGE ( 'NONE', *, *, #1075, .F. ) ;
#931 = CARTESIAN_POINT ( 'NONE',  ( 0.000000000000000000, 4.750000000000000000, -7.500000000000000000 ) ) ;
#932 = EDGE_CURVE ( 'NONE', #9, #942, #1048, .T. ) ;
#933 = VERTEX_POINT ( 'NONE', #1153 ) ;
#934 = CARTESIAN_POINT ( 'NONE',  ( 0.000000000000000000, 5.000000000000000000, 7.249999999999999112 ) ) ;
#935 = CARTESIAN_POINT ( 'NONE',  ( 0.000000000000000000, 1.200000000000000178, 3.750000000000000000 ) ) ;
#936 = ORIENTED_EDGE ( 'NONE', *, *, #549, .F. ) ;
#937 = ADVANCED_FACE ( 'NONE', ( #962 ), #697, .T. ) ;
#938 =( NAMED_UNIT ( * ) SI_UNIT ( $, .STERADIAN. ) SOLID_ANGLE_UNIT ( ) );
#939 = ORIENTED_EDGE ( 'NONE', *, *, #412, .T. ) ;
#940 = CARTESIAN_POINT ( 'NONE',  ( 0.000000000000000000, 2.000000000000000000, -5.500000000000000000 ) ) ;
#941 = CARTESIAN_POINT ( 'NONE',  ( 25.00000000000000000, 7.249999999999999112, 3.900000000000001688 ) ) ;
#942 = VERTEX_POINT ( 'NONE', #957 ) ;
#943 = DIRECTION ( 'NONE',  ( 0.000000000000000000, 0.000000000000000000, 1.000000000000000000 ) ) ;
#944 = ORIENTED_EDGE ( 'NONE', *, *, #808, .T. ) ;
#945 = DIRECTION ( 'NONE',  ( 0.000000000000000000, 0.000000000000000000, 1.000000000000000000 ) ) ;
#946 = CIRCLE ( 'NONE', #57, 7.500000000000000000 ) ;
#947 = AXIS2_PLACEMENT_3D ( 'NONE', #1113, #490, #588 ) ;
#948 = CARTESIAN_POINT ( 'NONE',  ( 0.000000000000000000, 1.200000000000000178, 0.000000000000000000 ) ) ;
#949 = AXIS2_PLACEMENT_3D ( 'NONE', #667, #223, #762 ) ;
#950 = AXIS2_PLACEMENT_3D ( 'NONE', #34, #400, #956 ) ;
#951 = AXIS2_PLACEMENT_3D ( 'NONE', #1155, #152, #787 ) ;
#952 = DIRECTION ( 'NONE',  ( 0.000000000000000000, 0.000000000000000000, 1.000000000000000000 ) ) ;
#953 = EDGE_LOOP ( 'NONE', ( #999, #147, #189, #666 ) ) ;
#954 = ADVANCED_FACE ( 'NONE', ( #499 ), #136, .T. ) ;
#955 = CARTESIAN_POINT ( 'NONE',  ( 25.00000000000000000, 5.000000000000000000, -4.150000000000002132 ) ) ;
#956 = DIRECTION ( 'NONE',  ( 0.000000000000000000, 0.000000000000000000, -1.000000000000000000 ) ) ;
#957 = CARTESIAN_POINT ( 'NONE',  ( 25.00000000000000000, 7.249999999999999112, -2.250000000000002665 ) ) ;
#958 = DIRECTION ( 'NONE',  ( 0.000000000000000000, 1.000000000000000000, 0.000000000000000000 ) ) ;
#959 = EDGE_CURVE ( 'NONE', #1067, #933, #985, .T. ) ;
#960 = DIRECTION ( 'NONE',  ( 0.000000000000000000, 0.000000000000000000, 1.000000000000000000 ) ) ;
#961 = EDGE_CURVE ( 'NONE', #1092, #31, #1128, .T. ) ;
#962 = FACE_OUTER_BOUND ( 'NONE', #922, .T. ) ;
#963 = FACE_OUTER_BOUND ( 'NONE', #114, .T. ) ;
#964 = CLOSED_SHELL ( 'NONE', ( #497, #664, #183, #67, #873, #772, #301, #904, #974, #71, #47, #207, #685, #970, #228, #41, #723, #1013, #20, #106, #330, #164, #1140, #1127, #1001, #623, #937, #618, #954, #750, #212, #257, #340, #1196, #473, #379, #233, #635, #841, #650, #897, #563, #1151 ) ) ;
#965 = CARTESIAN_POINT ( 'NONE',  ( 0.000000000000000000, 5.000000000000000000, -2.000000000000000000 ) ) ;
#966 = CIRCLE ( 'NONE', #4, 3.650000000000001243 ) ;
#967 = MECHANICAL_DESIGN_GEOMETRIC_PRESENTATION_REPRESENTATION (  '', ( #486 ), #983 ) ;
#968 = AXIS2_PLACEMENT_3D ( 'NONE', #441, #812, #824 ) ;
#969 = CYLINDRICAL_SURFACE ( 'NONE', #278, 2.000000000000000000 ) ;
#970 = ADVANCED_FACE ( 'NONE', ( #1072 ), #969, .F. ) ;
#971 = DIRECTION ( 'NONE',  ( 0.000000000000000000, 0.000000000000000000, 1.000000000000000000 ) ) ;
#972 = CARTESIAN_POINT ( 'NONE',  ( 25.00000000000000000, 6.999999999999999112, 2.000000000000003109 ) ) ;
#973 = ORIENTED_EDGE ( 'NONE', *, *, #1023, .T. ) ;
#974 = ADVANCED_FACE ( 'NONE', ( #48 ), #794, .T. ) ;
#975 = DIRECTION ( 'NONE',  ( 0.000000000000000000, 0.000000000000000000, 1.000000000000000000 ) ) ;
#976 = CARTESIAN_POINT ( 'NONE',  ( 0.000000000000000000, 2.000000000000000000, -7.500000000000000000 ) ) ;
#977 = DIRECTION ( 'NONE',  ( 0.000000000000000000, 0.000000000000000000, 1.000000000000000000 ) ) ;
#978 = EDGE_LOOP ( 'NONE', ( #1107, #837, #166, #925 ) ) ;
#979 = DIRECTION ( 'NONE',  ( 0.000000000000000000, 0.000000000000000000, -1.000000000000000000 ) ) ;
#980 = DIRECTION ( 'NONE',  ( 0.000000000000000000, 0.000000000000000000, 1.000000000000000000 ) ) ;
#981 = CIRCLE ( 'NONE', #679, 0.2500000000000002220 ) ;
#982 = TOROIDAL_SURFACE ( 'NONE', #695, 2.250000000000000444, 0.2500000000000000000 ) ;
#983 =( GEOMETRIC_REPRESENTATION_CONTEXT ( 3 ) GLOBAL_UNCERTAINTY_ASSIGNED_CONTEXT ( ( #413 ) ) GLOBAL_UNIT_ASSIGNED_CONTEXT ( ( #871, #416, #703 ) ) REPRESENTATION_CONTEXT ( 'NONE', 'WORKASPACE' ) );
#984 = VERTEX_POINT ( 'NONE', #324 ) ;
#985 = CIRCLE ( 'NONE', #102, 4.000000000000000000 ) ;
#986 = CARTESIAN_POINT ( 'NONE',  ( 0.000000000000000000, 0.9500000000000002887, -2.000000000000000000 ) ) ;
#987 = CIRCLE ( 'NONE', #1162, 0.2500000000000002220 ) ;
#988 = ORIENTED_EDGE ( 'NONE', *, *, #323, .T. ) ;
#989 = DIRECTION ( 'NONE',  ( 1.000000000000000000, 0.000000000000000000, -0.000000000000000000 ) ) ;
#990 = EDGE_CURVE ( 'NONE', #1022, #435, #427, .T. ) ;
#991 = CARTESIAN_POINT ( 'NONE',  ( 25.00000000000000000, 7.249999999999999112, 3.650000000000001243 ) ) ;
#992 = VERTEX_POINT ( 'NONE', #513 ) ;
#993 = DIRECTION ( 'NONE',  ( -0.000000000000000000, -1.000000000000000000, -0.000000000000000000 ) ) ;
#994 = PRODUCT_DEFINITION_SHAPE ( 'NONE', 'NONE',  #6 ) ;
#995 = ORIENTED_EDGE ( 'NONE', *, *, #98, .F. ) ;
#996 = FACE_OUTER_BOUND ( 'NONE', #978, .T. ) ;
#997 = EDGE_CURVE ( 'NONE', #93, #815, #409, .T. ) ;
#998 = FACE_OUTER_BOUND ( 'NONE', #252, .T. ) ;
#999 = ORIENTED_EDGE ( 'NONE', *, *, #961, .F. ) ;
#1000 = DIRECTION ( 'NONE',  ( 0.000000000000000000, 0.000000000000000000, 1.000000000000000000 ) ) ;
#1001 = ADVANCED_FACE ( 'NONE', ( #402 ), #868, .T. ) ;
#1002 = EDGE_LOOP ( 'NONE', ( #392, #880, #7, #556 ) ) ;
#1003 = CARTESIAN_POINT ( 'NONE',  ( 25.00000000000000000, 0.000000000000000000, 0.000000000000000000 ) ) ;
#1004 = CARTESIAN_POINT ( 'NONE',  ( 25.00000000000000000, 0.2500000000000002220, 0.000000000000000000 ) ) ;
#1005 = EDGE_LOOP ( 'NONE', ( #103, #694, #744, #293 ) ) ;
#1006 = CARTESIAN_POINT ( 'NONE',  ( 0.000000000000000000, 2.000000000000000000, -7.500000000000000000 ) ) ;
#1007 = CIRCLE ( 'NONE', #1027, 0.2500000000000002220 ) ;
#1008 = ORIENTED_EDGE ( 'NONE', *, *, #866, .F. ) ;
#1009 = FACE_OUTER_BOUND ( 'NONE', #1002, .T. ) ;
#1010 = VECTOR ( 'NONE', #993, 1000.000000000000000 ) ;
#1011 = CARTESIAN_POINT ( 'NONE',  ( 0.000000000000000000, 4.750000000000000000, -7.249999999999999112 ) ) ;
#1012 = ORIENTED_EDGE ( 'NONE', *, *, #506, .T. ) ;
#1013 = ADVANCED_FACE ( 'NONE', ( #1176 ), #73, .F. ) ;
#1014 = DIRECTION ( 'NONE',  ( 1.000000000000000000, -0.000000000000000000, 1.224646799147353207E-16 ) ) ;
#1015 = ORIENTED_EDGE ( 'NONE', *, *, #1090, .T. ) ;
#1016 = CARTESIAN_POINT ( 'NONE',  ( 0.000000000000000000, 5.000000000000000000, -7.249999999999999112 ) ) ;
#1017 = DIRECTION ( 'NONE',  ( 0.000000000000000000, 0.000000000000000000, 1.000000000000000000 ) ) ;
#1018 = ORIENTED_EDGE ( 'NONE', *, *, #846, .F. ) ;
#1019 = EDGE_LOOP ( 'NONE', ( #804, #944, #397, #1071 ) ) ;
#1020 = DIRECTION ( 'NONE',  ( 0.000000000000000000, 0.000000000000000000, 1.000000000000000000 ) ) ;
#1021 = DIRECTION ( 'NONE',  ( -1.000000000000000000, 0.000000000000000000, 0.000000000000000000 ) ) ;
#1022 = VERTEX_POINT ( 'NONE', #538 ) ;
#1023 = EDGE_CURVE ( 'NONE', #1149, #65, #726, .T. ) ;
#1024 = DIRECTION ( 'NONE',  ( 0.000000000000000000, 0.000000000000000000, -1.000000000000000000 ) ) ;
#1025 = AXIS2_PLACEMENT_3D ( 'NONE', #149, #155, #699 ) ;
#1026 = ORIENTED_EDGE ( 'NONE', *, *, #740, .T. ) ;
#1027 = AXIS2_PLACEMENT_3D ( 'NONE', #32, #1044, #480 ) ;
#1028 = VECTOR ( 'NONE', #785, 1000.000000000000000 ) ;
#1029 = CARTESIAN_POINT ( 'NONE',  ( 25.00000000000000000, 2.000000000000000000, 0.000000000000000000 ) ) ;
#1030 = DIRECTION ( 'NONE',  ( -0.000000000000000000, -1.000000000000000000, -0.000000000000000000 ) ) ;
#1031 = EDGE_CURVE ( 'NONE', #815, #534, #63, .T. ) ;
#1032 = VERTEX_POINT ( 'NONE', #259 ) ;
#1033 = VERTEX_POINT ( 'NONE', #430 ) ;
#1034 = DIRECTION ( 'NONE',  ( 0.000000000000000000, 0.000000000000000000, 1.000000000000000000 ) ) ;
#1035 = DIRECTION ( 'NONE',  ( 0.000000000000000000, 1.000000000000000000, 0.000000000000000000 ) ) ;
#1036 = ORIENTED_EDGE ( 'NONE', *, *, #786, .T. ) ;
#1037 = ORIENTED_EDGE ( 'NONE', *, *, #732, .T. ) ;
#1038 = CARTESIAN_POINT ( 'NONE',  ( 0.000000000000000000, 4.750000000000000000, 0.000000000000000000 ) ) ;
#1039 = ORIENTED_EDGE ( 'NONE', *, *, #997, .F. ) ;
#1040 = PRODUCT ( 'BRAZO DE TENSOR 1', 'BRAZO DE TENSOR 1', '', ( #17 ) ) ;
#1041 = SHAPE_DEFINITION_REPRESENTATION ( #994, #272 ) ;
#1042 = EDGE_CURVE ( 'NONE', #727, #1022, #240, .T. ) ;
#1043 = ORIENTED_EDGE ( 'NONE', *, *, #923, .T. ) ;
#1044 = DIRECTION ( 'NONE',  ( 1.000000000000000000, -0.000000000000000000, 1.224646799147353207E-16 ) ) ;
#1045 = CIRCLE ( 'NONE', #517, 3.650000000000001243 ) ;
#1046 = AXIS2_PLACEMENT_3D ( 'NONE', #1178, #833, #722 ) ;
#1047 = DIRECTION ( 'NONE',  ( 0.000000000000000000, 1.000000000000000000, 0.000000000000000000 ) ) ;
#1048 = CIRCLE ( 'NONE', #757, 2.250000000000002665 ) ;
#1049 = FACE_OUTER_BOUND ( 'NONE', #171, .T. ) ;
#1050 = VECTOR ( 'NONE', #819, 1000.000000000000000 ) ;
#1051 = EDGE_CURVE ( 'NONE', #1174, #802, #1084, .T. ) ;
#1052 = CARTESIAN_POINT ( 'NONE',  ( 0.000000000000000000, 2.000000000000000000, 5.500000000000000000 ) ) ;
#1053 = LINE ( 'NONE', #335, #100 ) ;
#1054 = DIRECTION ( 'NONE',  ( 0.000000000000000000, 1.000000000000000000, 0.000000000000000000 ) ) ;
#1055 = EDGE_CURVE ( 'NONE', #984, #1139, #663, .T. ) ;
#1056 = CARTESIAN_POINT ( 'NONE',  ( 0.000000000000000000, 1.450000000000000178, 0.000000000000000000 ) ) ;
#1057 = DIRECTION ( 'NONE',  ( 0.000000000000000000, 1.000000000000000000, 0.000000000000000000 ) ) ;
#1058 = EDGE_CURVE ( 'NONE', #65, #559, #720, .T. ) ;
#1059 = CARTESIAN_POINT ( 'NONE',  ( 25.00000000000000000, 7.249999999999999112, -3.900000000000001688 ) ) ;
#1060 = CYLINDRICAL_SURFACE ( 'NONE', #581, 2.000000000000000000 ) ;
#1061 = CIRCLE ( 'NONE', #196, 4.849999999999999645 ) ;
#1062 = CIRCLE ( 'NONE', #541, 2.250000000000002665 ) ;
#1063 = EDGE_CURVE ( 'NONE', #942, #459, #682, .T. ) ;
#1064 = FACE_OUTER_BOUND ( 'NONE', #99, .T. ) ;
#1065 = CIRCLE ( 'NONE', #872, 5.500000000000000000 ) ;
#1066 = COLOUR_RGB ( '',0.7921568627450980005, 0.8196078431372548767, 0.9333333333333333481 ) ;
#1067 = VERTEX_POINT ( 'NONE', #532 ) ;
#1068 = AXIS2_PLACEMENT_3D ( 'NONE', #119, #760, #487 ) ;
#1069 = DIRECTION ( 'NONE',  ( 1.000000000000000000, -0.000000000000000000, 1.224646799147353207E-16 ) ) ;
#1070 = CARTESIAN_POINT ( 'NONE',  ( 0.000000000000000000, 4.750000000000000000, 0.000000000000000000 ) ) ;
#1071 = ORIENTED_EDGE ( 'NONE', *, *, #657, .T. ) ;
#1072 = FACE_OUTER_BOUND ( 'NONE', #887, .T. ) ;
#1073 = DIRECTION ( 'NONE',  ( 0.000000000000000000, 0.000000000000000000, 1.000000000000000000 ) ) ;
#1074 = VERTEX_POINT ( 'NONE', #889 ) ;
#1075 = EDGE_CURVE ( 'NONE', #559, #466, #1170, .T. ) ;
#1076 = CARTESIAN_POINT ( 'NONE',  ( 0.000000000000000000, 5.000000000000000000, 5.099999999999999645 ) ) ;
#1077 = ORIENTED_EDGE ( 'NONE', *, *, #732, .F. ) ;
#1078 = CARTESIAN_POINT ( 'NONE',  ( 25.00000000000000000, 4.750000000000000000, 0.000000000000000000 ) ) ;
#1079 = CARTESIAN_POINT ( 'NONE',  ( 25.00000000000000000, 4.750000000000000000, -7.500000000000000000 ) ) ;
#1080 = CIRCLE ( 'NONE', #561, 2.000000000000003109 ) ;
#1081 = CIRCLE ( 'NONE', #734, 3.900000000000001688 ) ;
#1082 = ORIENTED_EDGE ( 'NONE', *, *, #798, .F. ) ;
#1083 = DIRECTION ( 'NONE',  ( 0.000000000000000000, 0.000000000000000000, -1.000000000000000000 ) ) ;
#1084 = CIRCLE ( 'NONE', #567, 7.249999999999999112 ) ;
#1085 = EDGE_CURVE ( 'NONE', #1112, #333, #279, .T. ) ;
#1086 = EDGE_LOOP ( 'NONE', ( #460, #609, #867, #516 ) ) ;
#1087 = DIRECTION ( 'NONE',  ( 0.000000000000000000, 0.000000000000000000, 1.000000000000000000 ) ) ;
#1088 = DIRECTION ( 'NONE',  ( 0.000000000000000000, 1.000000000000000000, 0.000000000000000000 ) ) ;
#1089 = ORIENTED_EDGE ( 'NONE', *, *, #811, .T. ) ;
#1090 = EDGE_CURVE ( 'NONE', #568, #933, #548, .T. ) ;
#1091 = CARTESIAN_POINT ( 'NONE',  ( 25.00000000000000000, 6.999999999999999112, -2.250000000000002665 ) ) ;
#1092 = VERTEX_POINT ( 'NONE', #706 ) ;
#1093 = DIRECTION ( 'NONE',  ( 0.000000000000000000, 0.000000000000000000, -1.000000000000000000 ) ) ;
#1094 = DIRECTION ( 'NONE',  ( -0.000000000000000000, -1.000000000000000000, -0.000000000000000000 ) ) ;
#1095 = ORIENTED_EDGE ( 'NONE', *, *, #571, .F. ) ;
#1096 = DIRECTION ( 'NONE',  ( 0.000000000000000000, 0.000000000000000000, 1.000000000000000000 ) ) ;
#1097 = ORIENTED_EDGE ( 'NONE', *, *, #418, .T. ) ;
#1098 = DIRECTION ( 'NONE',  ( 0.000000000000000000, 0.000000000000000000, 1.000000000000000000 ) ) ;
#1099 = DIRECTION ( 'NONE',  ( 0.000000000000000000, 0.000000000000000000, 1.000000000000000000 ) ) ;
#1100 = EDGE_CURVE ( 'NONE', #636, #65, #449, .T. ) ;
#1101 = ORIENTED_EDGE ( 'NONE', *, *, #45, .T. ) ;
#1102 = AXIS2_PLACEMENT_3D ( 'NONE', #145, #140, #43 ) ;
#1103 = CIRCLE ( 'NONE', #367, 3.900000000000001688 ) ;
#1104 = CARTESIAN_POINT ( 'NONE',  ( 25.00000000000000000, 7.249999999999999112, 0.000000000000000000 ) ) ;
#1105 = AXIS2_PLACEMENT_3D ( 'NONE', #515, #428, #604 ) ;
#1106 = AXIS2_PLACEMENT_3D ( 'NONE', #316, #1069, #242 ) ;
#1107 = ORIENTED_EDGE ( 'NONE', *, *, #674, .T. ) ;
#1108 = DIRECTION ( 'NONE',  ( 0.000000000000000000, 1.000000000000000000, 0.000000000000000000 ) ) ;
#1109 = AXIS2_PLACEMENT_3D ( 'NONE', #746, #113, #108 ) ;
#1110 = DIRECTION ( 'NONE',  ( 0.000000000000000000, 1.000000000000000000, 0.000000000000000000 ) ) ;
#1111 = ORIENTED_EDGE ( 'NONE', *, *, #1175, .T. ) ;
#1112 = VERTEX_POINT ( 'NONE', #1076 ) ;
#1113 = CARTESIAN_POINT ( 'NONE',  ( 4.592425496802573972E-16, 1.450000000000000178, -3.750000000000000000 ) ) ;
#1114 = EDGE_CURVE ( 'NONE', #802, #453, #269, .T. ) ;
#1115 = FACE_BOUND ( 'NONE', #1200, .T. ) ;
#1116 = ORIENTED_EDGE ( 'NONE', *, *, #1031, .T. ) ;
#1117 = EDGE_CURVE ( 'NONE', #1022, #727, #158, .T. ) ;
#1118 = ORIENTED_EDGE ( 'NONE', *, *, #1031, .F. ) ;
#1119 = CARTESIAN_POINT ( 'NONE',  ( 0.000000000000000000, 0.000000000000000000, 5.500000000000000000 ) ) ;
#1120 = CARTESIAN_POINT ( 'NONE',  ( 2.755455298081544285E-16, 1.084202172485504434E-16, -2.250000000000000444 ) ) ;
#1121 = DIRECTION ( 'NONE',  ( -0.000000000000000000, 1.000000000000000000, -0.000000000000000000 ) ) ;
#1122 = FACE_OUTER_BOUND ( 'NONE', #241, .T. ) ;
#1123 = AXIS2_PLACEMENT_3D ( 'NONE', #507, #869, #232 ) ;
#1124 = ORIENTED_EDGE ( 'NONE', *, *, #285, .F. ) ;
#1125 = CIRCLE ( 'NONE', #907, 5.500000000000000000 ) ;
#1126 = DIRECTION ( 'NONE',  ( 0.000000000000000000, 0.000000000000000000, 1.000000000000000000 ) ) ;
#1127 = ADVANCED_FACE ( 'NONE', ( #913, #362 ), #731, .T. ) ;
#1128 = CIRCLE ( 'NONE', #601, 0.2500000000000002220 ) ;
#1129 = CYLINDRICAL_SURFACE ( 'NONE', #774, 2.000000000000003109 ) ;
#1130 = TOROIDAL_SURFACE ( 'NONE', #929, 4.150000000000002132, 0.2500000000000000000 ) ;
#1131 = EDGE_LOOP ( 'NONE', ( #298, #638, #302, #307 ) ) ;
#1132 = DIRECTION ( 'NONE',  ( 1.000000000000000000, -0.000000000000000000, 0.000000000000000000 ) ) ;
#1133 = ORIENTED_EDGE ( 'NONE', *, *, #285, .T. ) ;
#1134 = DIRECTION ( 'NONE',  ( 0.000000000000000000, 1.000000000000000000, 0.000000000000000000 ) ) ;
#1135 = CARTESIAN_POINT ( 'NONE',  ( 25.00000000000000000, 7.249999999999999112, 2.250000000000002665 ) ) ;
#1136 = VERTEX_POINT ( 'NONE', #615 ) ;
#1137 = LINE ( 'NONE', #1119, #519 ) ;
#1138 = CARTESIAN_POINT ( 'NONE',  ( 25.00000000000000000, 2.000000000000000000, 5.500000000000000000 ) ) ;
#1139 = VERTEX_POINT ( 'NONE', #986 ) ;
#1140 = ADVANCED_FACE ( 'NONE', ( #526, #894 ), #436, .T. ) ;
#1141 = AXIS2_PLACEMENT_3D ( 'NONE', #463, #834, #8 ) ;
#1142 = EDGE_LOOP ( 'NONE', ( #338, #1018, #470, #747 ) ) ;
#1143 = DIRECTION ( 'NONE',  ( -0.000000000000000000, -1.000000000000000000, -0.000000000000000000 ) ) ;
#1144 = AXIS2_PLACEMENT_3D ( 'NONE', #33, #1047, #589 ) ;
#1145 = CIRCLE ( 'NONE', #79, 2.000000000000000000 ) ;
#1146 = CIRCLE ( 'NONE', #777, 0.2500000000000002220 ) ;
#1147 = DIRECTION ( 'NONE',  ( 1.000000000000000000, 0.000000000000000000, 0.000000000000000000 ) ) ;
#1148 = PRODUCT_RELATED_PRODUCT_CATEGORY ( 'part', '', ( #1040 ) ) ;
#1149 = VERTEX_POINT ( 'NONE', #931 ) ;
#1150 = DIRECTION ( 'NONE',  ( 1.000000000000000000, -0.000000000000000000, 0.000000000000000000 ) ) ;
#1151 = ADVANCED_FACE ( 'NONE', ( #1122 ), #332, .T. ) ;
#1152 = SURFACE_STYLE_USAGE ( .BOTH. , #879 ) ;
#1153 = CARTESIAN_POINT ( 'NONE',  ( 4.898587196589412829E-16, 1.450000000000000178, -4.000000000000000000 ) ) ;
#1154 = CARTESIAN_POINT ( 'NONE',  ( 25.00000000000000000, 6.999999999999999112, 0.000000000000000000 ) ) ;
#1155 = CARTESIAN_POINT ( 'NONE',  ( 25.00000000000000000, 6.999999999999999112, 0.000000000000000000 ) ) ;
#1156 = FACE_OUTER_BOUND ( 'NONE', #655, .T. ) ;
#1157 = TOROIDAL_SURFACE ( 'NONE', #154, 3.750000000000000000, 0.2500000000000000000 ) ;
#1158 = SURFACE_STYLE_FILL_AREA ( #53 ) ;
#1159 = AXIS2_PLACEMENT_3D ( 'NONE', #451, #820, #261 ) ;
#1160 = PRESENTATION_LAYER_ASSIGNMENT (  '', '', ( #486 ) ) ;
#1161 = ORIENTED_EDGE ( 'NONE', *, *, #1085, .F. ) ;
#1162 = AXIS2_PLACEMENT_3D ( 'NONE', #391, #1132, #1024 ) ;
#1163 = AXIS2_PLACEMENT_3D ( 'NONE', #838, #468, #830 ) ;
#1164 = EDGE_CURVE ( 'NONE', #265, #375, #796, .T. ) ;
#1165 = DIRECTION ( 'NONE',  ( 0.000000000000000000, 1.000000000000000000, 0.000000000000000000 ) ) ;
#1166 = DIRECTION ( 'NONE',  ( -0.000000000000000000, -1.000000000000000000, -0.000000000000000000 ) ) ;
#1167 = PLANE ( 'NONE',  #661 ) ;
#1168 = EDGE_CURVE ( 'NONE', #900, #1032, #585, .T. ) ;
#1169 = ORIENTED_EDGE ( 'NONE', *, *, #823, .F. ) ;
#1170 = LINE ( 'NONE', #1006, #643 ) ;
#1171 = ORIENTED_EDGE ( 'NONE', *, *, #1058, .F. ) ;
#1172 = DIRECTION ( 'NONE',  ( 0.000000000000000000, 0.000000000000000000, 1.000000000000000000 ) ) ;
#1173 = DIRECTION ( 'NONE',  ( 1.000000000000000000, -0.000000000000000000, 1.224646799147353207E-16 ) ) ;
#1174 = VERTEX_POINT ( 'NONE', #11 ) ;
#1175 = EDGE_CURVE ( 'NONE', #984, #190, #350, .T. ) ;
#1176 = FACE_OUTER_BOUND ( 'NONE', #72, .T. ) ;
#1177 = ORIENTED_EDGE ( 'NONE', *, *, #893, .F. ) ;
#1178 = CARTESIAN_POINT ( 'NONE',  ( 0.000000000000000000, 2.000000000000000000, 0.000000000000000000 ) ) ;
#1179 = AXIS2_PLACEMENT_3D ( 'NONE', #1197, #438, #642 ) ;
#1180 = EDGE_CURVE ( 'NONE', #1149, #1174, #987, .T. ) ;
#1181 = CARTESIAN_POINT ( 'NONE',  ( 0.000000000000000000, 0.000000000000000000, -5.500000000000000000 ) ) ;
#1182 = AXIS2_PLACEMENT_3D ( 'NONE', #878, #803, #58 ) ;
#1183 = AXIS2_PLACEMENT_3D ( 'NONE', #864, #373, #384 ) ;
#1184 = VECTOR ( 'NONE', #61, 1000.000000000000000 ) ;
#1185 = ORIENTED_EDGE ( 'NONE', *, *, #1051, .T. ) ;
#1186 = CARTESIAN_POINT ( 'NONE',  ( 25.00000000000000000, 5.000000000000000000, -7.500000000000000000 ) ) ;
#1187 = AXIS2_PLACEMENT_3D ( 'NONE', #39, #805, #801 ) ;
#1188 = EDGE_LOOP ( 'NONE', ( #576, #1015, #128, #263 ) ) ;
#1189 = DIRECTION ( 'NONE',  ( 0.000000000000000000, 1.000000000000000000, 0.000000000000000000 ) ) ;
#1190 = DIRECTION ( 'NONE',  ( 1.000000000000000000, 0.000000000000000000, 0.000000000000000000 ) ) ;
#1191 = EDGE_CURVE ( 'NONE', #1136, #85, #858, .T. ) ;
#1192 = VERTEX_POINT ( 'NONE', #206 ) ;
#1193 = CARTESIAN_POINT ( 'NONE',  ( 0.000000000000000000, 5.000000000000000000, 0.000000000000000000 ) ) ;
#1194 = ORIENTED_EDGE ( 'NONE', *, *, #533, .T. ) ;
#1195 = CARTESIAN_POINT ( 'NONE',  ( 25.00000000000000000, 5.250000000000000000, 0.000000000000000000 ) ) ;
#1196 = ADVANCED_FACE ( 'NONE', ( #376 ), #1130, .F. ) ;
#1197 = CARTESIAN_POINT ( 'NONE',  ( 0.000000000000000000, 0.000000000000000000, 0.000000000000000000 ) ) ;
#1198 = ORIENTED_EDGE ( 'NONE', *, *, #1114, .T. ) ;
#1199 = DIRECTION ( 'NONE',  ( 0.000000000000000000, 1.000000000000000000, 0.000000000000000000 ) ) ;
#1200 = EDGE_LOOP ( 'NONE', ( #319, #766 ) ) ;
#1201 = DIRECTION ( 'NONE',  ( -0.000000000000000000, -1.000000000000000000, -0.000000000000000000 ) ) ;
ENDSEC;
END-ISO-10303-21;
