ISO-10303-21;
HEADER;
FILE_DESCRIPTION (( 'STEP AP214' ),
    '1' );
FILE_NAME ('rodamiento 14 X 20 X 12 HK1412.STEP',
    '2026-07-08T20:24:07',
    ( '' ),
    ( '' ),
    'SwSTEP 2.0',
    'SolidWorks 2026',
    '' );
FILE_SCHEMA (( 'AUTOMOTIVE_DESIGN' ));
ENDSEC;

DATA;
#1 = DIRECTION ( 'NONE',  ( -0.000000000000000000, -1.000000000000000000, -0.000000000000000000 ) ) ;
#2 = CARTESIAN_POINT ( 'NONE',  ( 0.000000000000000000, 11.75000000000000000, 0.000000000000000000 ) ) ;
#3 = ORIENTED_EDGE ( 'NONE', *, *, #214, .F. ) ;
#4 = CIRCLE ( 'NONE', #135, 7.500000000000000000 ) ;
#5 = ORIENTED_EDGE ( 'NONE', *, *, #781, .T. ) ;
#6 = EDGE_CURVE ( 'NONE', #118, #672, #765, .T. ) ;
#7 = CARTESIAN_POINT ( 'NONE',  ( 0.000000000000000000, 11.75000000000000000, 0.000000000000000000 ) ) ;
#8 = CARTESIAN_POINT ( 'NONE',  ( 1.224646799147353256E-15, 12.00000000000000000, 10.00000000000000000 ) ) ;
#9 = CIRCLE ( 'NONE', #727, 9.750000000000000000 ) ;
#10 = VERTEX_POINT ( 'NONE', #735 ) ;
#11 = VERTEX_POINT ( 'NONE', #677 ) ;
#12 = EDGE_CURVE ( 'NONE', #10, #785, #835, .T. ) ;
#13 = DIRECTION ( 'NONE',  ( -0.000000000000000000, -1.000000000000000000, -0.000000000000000000 ) ) ;
#14 = EDGE_LOOP ( 'NONE', ( #528, #799, #636, #844 ) ) ;
#15 = EDGE_LOOP ( 'NONE', ( #194, #534, #287, #631 ) ) ;
#16 = SHAPE_DEFINITION_REPRESENTATION ( #239, #715 ) ;
#17 = SURFACE_SIDE_STYLE ('',( #618 ) ) ;
#18 = LINE ( 'NONE', #293, #558 ) ;
#19 = AXIS2_PLACEMENT_3D ( 'NONE', #175, #496, #690 ) ;
#20 = ORIENTED_EDGE ( 'NONE', *, *, #190, .F. ) ;
#21 = AXIS2_PLACEMENT_3D ( 'NONE', #575, #260, #510 ) ;
#22 = DIRECTION ( 'NONE',  ( 0.000000000000000000, 0.000000000000000000, -1.000000000000000000 ) ) ;
#23 = TOROIDAL_SURFACE ( 'NONE', #324, 7.249999999999999112, 0.2500000000000000000 ) ;
#24 = CIRCLE ( 'NONE', #39, 9.250000000000000000 ) ;
#25 = EDGE_CURVE ( 'NONE', #10, #319, #180, .T. ) ;
#26 = EDGE_LOOP ( 'NONE', ( #729, #5 ) ) ;
#27 = CARTESIAN_POINT ( 'NONE',  ( 0.000000000000000000, 11.50000000000000000, 0.000000000000000000 ) ) ;
#28 = DIRECTION ( 'NONE',  ( 0.000000000000000000, 0.000000000000000000, 1.000000000000000000 ) ) ;
#29 = VERTEX_POINT ( 'NONE', #682 ) ;
#30 = DIRECTION ( 'NONE',  ( 0.000000000000000000, 0.000000000000000000, -1.000000000000000000 ) ) ;
#31 = CARTESIAN_POINT ( 'NONE',  ( 0.000000000000000000, 11.50000000000000000, 7.500000000000000000 ) ) ;
#32 = ORIENTED_EDGE ( 'NONE', *, *, #477, .F. ) ;
#33 = TOROIDAL_SURFACE ( 'NONE', #393, 7.250000000000000000, 0.2500000000000000000 ) ;
#34 = CIRCLE ( 'NONE', #504, 9.250000000000000000 ) ;
#35 = CARTESIAN_POINT ( 'NONE',  ( 0.000000000000000000, 12.00000000000000000, 0.000000000000000000 ) ) ;
#36 = DIRECTION ( 'NONE',  ( 0.000000000000000000, 1.000000000000000000, 0.000000000000000000 ) ) ;
#37 = MECHANICAL_DESIGN_GEOMETRIC_PRESENTATION_REPRESENTATION (  '', ( #562 ), #626 ) ;
#38 = EDGE_LOOP ( 'NONE', ( #738, #199, #847, #673 ) ) ;
#39 = AXIS2_PLACEMENT_3D ( 'NONE', #201, #745, #598 ) ;
#40 = SURFACE_STYLE_USAGE ( .BOTH. , #17 ) ;
#41 = ADVANCED_FACE ( 'NONE', ( #352 ), #33, .T. ) ;
#42 = ORIENTED_EDGE ( 'NONE', *, *, #705, .F. ) ;
#43 = CARTESIAN_POINT ( 'NONE',  ( 0.000000000000000000, 12.00000000000000000, 0.000000000000000000 ) ) ;
#44 = DIRECTION ( 'NONE',  ( -0.000000000000000000, 1.000000000000000000, -0.000000000000000000 ) ) ;
#45 = DIRECTION ( 'NONE',  ( 0.000000000000000000, 0.000000000000000000, 1.000000000000000000 ) ) ;
#46 = ORIENTED_EDGE ( 'NONE', *, *, #294, .T. ) ;
#47 = CIRCLE ( 'NONE', #821, 0.2500000000000002220 ) ;
#48 = FACE_OUTER_BOUND ( 'NONE', #497, .T. ) ;
#49 = TOROIDAL_SURFACE ( 'NONE', #635, 9.250000000000000000, 0.2500000000000000000 ) ;
#50 = CARTESIAN_POINT ( 'NONE',  ( 0.000000000000000000, 12.00000000000000000, 0.000000000000000000 ) ) ;
#51 = ORIENTED_EDGE ( 'NONE', *, *, #140, .F. ) ;
#52 = EDGE_CURVE ( 'NONE', #644, #719, #62, .T. ) ;
#53 = CIRCLE ( 'NONE', #255, 0.2500000000000002220 ) ;
#54 = DIRECTION ( 'NONE',  ( 0.000000000000000000, 1.000000000000000000, 0.000000000000000000 ) ) ;
#55 = CARTESIAN_POINT ( 'NONE',  ( 9.184850993605147944E-16, 0.5000000000000000000, 7.500000000000000000 ) ) ;
#56 = ADVANCED_FACE ( 'NONE', ( #600 ), #873, .F. ) ;
#57 = EDGE_LOOP ( 'NONE', ( #94, #333, #537, #204 ) ) ;
#58 = DIRECTION ( 'NONE',  ( 0.000000000000000000, 1.000000000000000000, 0.000000000000000000 ) ) ;
#59 = DIRECTION ( 'NONE',  ( 0.000000000000000000, -0.000000000000000000, 1.000000000000000000 ) ) ;
#60 = ORIENTED_EDGE ( 'NONE', *, *, #874, .T. ) ;
#61 = CYLINDRICAL_SURFACE ( 'NONE', #699, 7.000000000000000000 ) ;
#62 = CIRCLE ( 'NONE', #736, 7.500000000000000000 ) ;
#63 = DIRECTION ( 'NONE',  ( -0.000000000000000000, -1.000000000000000000, -0.000000000000000000 ) ) ;
#64 = VECTOR ( 'NONE', #754, 1000.000000000000000 ) ;
#65 = CARTESIAN_POINT ( 'NONE',  ( 8.878689293818310074E-16, 0.2500000000000002220, -7.250000000000000000 ) ) ;
#66 = AXIS2_PLACEMENT_3D ( 'NONE', #27, #681, #568 ) ;
#67 = DIRECTION ( 'NONE',  ( 0.000000000000000000, 1.000000000000000000, 0.000000000000000000 ) ) ;
#68 = TOROIDAL_SURFACE ( 'NONE', #409, 7.249999999999999112, 0.2500000000000000000 ) ;
#69 = ADVANCED_FACE ( 'NONE', ( #762 ), #529, .T. ) ;
#70 = DIRECTION ( 'NONE',  ( 0.000000000000000000, -1.000000000000000000, 0.000000000000000000 ) ) ;
#71 = VERTEX_POINT ( 'NONE', #161 ) ;
#72 = CARTESIAN_POINT ( 'NONE',  ( 0.000000000000000000, 0.2500000000000002220, 0.000000000000000000 ) ) ;
#73 = DIRECTION ( 'NONE',  ( 0.000000000000000000, 1.000000000000000000, 0.000000000000000000 ) ) ;
#74 = ORIENTED_EDGE ( 'NONE', *, *, #185, .T. ) ;
#75 = ORIENTED_EDGE ( 'NONE', *, *, #846, .T. ) ;
#76 = DIRECTION ( 'NONE',  ( -0.000000000000000000, -1.000000000000000000, -0.000000000000000000 ) ) ;
#77 = DIRECTION ( 'NONE',  ( -0.000000000000000000, 1.000000000000000000, -0.000000000000000000 ) ) ;
#78 = CARTESIAN_POINT ( 'NONE',  ( 0.000000000000000000, 0.2500000000000002220, 9.750000000000000000 ) ) ;
#79 = CIRCLE ( 'NONE', #378, 7.000000000000000000 ) ;
#80 = CIRCLE ( 'NONE', #849, 10.00000000000000000 ) ;
#81 = EDGE_CURVE ( 'NONE', #703, #299, #320, .T. ) ;
#82 = DIRECTION ( 'NONE',  ( 0.000000000000000000, 1.000000000000000000, 0.000000000000000000 ) ) ;
#83 = AXIS2_PLACEMENT_3D ( 'NONE', #585, #54, #704 ) ;
#84 = CARTESIAN_POINT ( 'NONE',  ( 0.000000000000000000, 11.75000000000000000, 0.000000000000000000 ) ) ;
#85 = ORIENTED_EDGE ( 'NONE', *, *, #432, .T. ) ;
#86 = VECTOR ( 'NONE', #692, 1000.000000000000000 ) ;
#87 = VERTEX_POINT ( 'NONE', #31 ) ;
#88 = DIRECTION ( 'NONE',  ( 0.000000000000000000, 0.000000000000000000, 1.000000000000000000 ) ) ;
#89 = FACE_OUTER_BOUND ( 'NONE', #442, .T. ) ;
#90 = ORIENTED_EDGE ( 'NONE', *, *, #792, .T. ) ;
#91 = DIRECTION ( 'NONE',  ( 0.000000000000000000, 0.000000000000000000, 1.000000000000000000 ) ) ;
#92 = EDGE_CURVE ( 'NONE', #517, #275, #153, .T. ) ;
#93 = CLOSED_SHELL ( 'NONE', ( #820, #773, #624, #231, #205, #461, #391, #658, #176, #278, #303, #825, #689, #502, #632, #100, #666, #56, #360, #377, #551, #566, #164, #522, #747, #804, #596, #696, #41, #584, #131, #69 ) ) ;
#94 = ORIENTED_EDGE ( 'NONE', *, *, #613, .F. ) ;
#95 = AXIS2_PLACEMENT_3D ( 'NONE', #198, #483, #547 ) ;
#96 = CARTESIAN_POINT ( 'NONE',  ( 9.184850993605147944E-16, 11.50000000000000000, -7.500000000000000000 ) ) ;
#97 = AXIS2_PLACEMENT_3D ( 'NONE', #828, #233, #499 ) ;
#98 = DIRECTION ( 'NONE',  ( 1.224646799147349509E-16, 0.000000000000000000, -1.000000000000000000 ) ) ;
#99 = AXIS2_PLACEMENT_3D ( 'NONE', #189, #855, #459 ) ;
#100 = ADVANCED_FACE ( 'NONE', ( #440, #829 ), #687, .F. ) ;
#101 = FACE_OUTER_BOUND ( 'NONE', #743, .T. ) ;
#102 = DIRECTION ( 'NONE',  ( 1.224646799147349509E-16, 0.000000000000000000, -1.000000000000000000 ) ) ;
#103 = ORIENTED_EDGE ( 'NONE', *, *, #243, .T. ) ;
#104 = LINE ( 'NONE', #308, #309 ) ;
#105 = CARTESIAN_POINT ( 'NONE',  ( 1.102182119232617714E-15, 0.5000000000000000000, 9.000000000000000000 ) ) ;
#106 = ORIENTED_EDGE ( 'NONE', *, *, #836, .F. ) ;
#107 = EDGE_CURVE ( 'NONE', #597, #679, #47, .T. ) ;
#108 = CIRCLE ( 'NONE', #95, 7.500000000000000000 ) ;
#109 = DIRECTION ( 'NONE',  ( 1.224646799147349509E-16, 0.000000000000000000, -1.000000000000000000 ) ) ;
#110 = DIRECTION ( 'NONE',  ( 0.000000000000000000, 0.000000000000000000, 1.000000000000000000 ) ) ;
#111 = ORIENTED_EDGE ( 'NONE', *, *, #702, .T. ) ;
#112 = AXIS2_PLACEMENT_3D ( 'NONE', #35, #380, #805 ) ;
#113 = CARTESIAN_POINT ( 'NONE',  ( 8.878689293818310074E-16, 11.75000000000000000, -7.250000000000000000 ) ) ;
#114 = ORIENTED_EDGE ( 'NONE', *, *, #740, .T. ) ;
#115 = CARTESIAN_POINT ( 'NONE',  ( 8.878689293818310074E-16, 0.2500000000000000000, -7.249999999999999112 ) ) ;
#116 = CARTESIAN_POINT ( 'NONE',  ( 0.000000000000000000, 11.75000000000000000, 7.250000000000000000 ) ) ;
#117 = EDGE_CURVE ( 'NONE', #302, #840, #447, .T. ) ;
#118 = VERTEX_POINT ( 'NONE', #225 ) ;
#119 = CIRCLE ( 'NONE', #607, 0.2500000000000002220 ) ;
#120 = DIRECTION ( 'NONE',  ( 0.000000000000000000, 1.000000000000000000, 0.000000000000000000 ) ) ;
#121 = AXIS2_PLACEMENT_3D ( 'NONE', #776, #709, #110 ) ;
#122 = DIRECTION ( 'NONE',  ( -0.000000000000000000, -1.000000000000000000, -0.000000000000000000 ) ) ;
#123 = ORIENTED_EDGE ( 'NONE', *, *, #874, .F. ) ;
#124 = AXIS2_PLACEMENT_3D ( 'NONE', #72, #58, #546 ) ;
#125 = DIRECTION ( 'NONE',  ( -0.000000000000000000, -1.000000000000000000, -0.000000000000000000 ) ) ;
#126 = DIRECTION ( 'NONE',  ( -0.000000000000000000, -1.000000000000000000, -0.000000000000000000 ) ) ;
#127 = EDGE_LOOP ( 'NONE', ( #46, #345, #751, #611 ) ) ;
#128 = CARTESIAN_POINT ( 'NONE',  ( 8.572527594031473190E-16, 12.00000000000000000, 7.000000000000000000 ) ) ;
#129 = CARTESIAN_POINT ( 'NONE',  ( 0.000000000000000000, 0.5000000000000000000, 0.000000000000000000 ) ) ;
#130 = ORIENTED_EDGE ( 'NONE', *, *, #740, .F. ) ;
#131 = ADVANCED_FACE ( 'NONE', ( #375 ), #722, .T. ) ;
#132 = DIRECTION ( 'NONE',  ( -0.000000000000000000, -1.000000000000000000, -0.000000000000000000 ) ) ;
#133 = AXIS2_PLACEMENT_3D ( 'NONE', #577, #581, #247 ) ;
#134 = DIRECTION ( 'NONE',  ( 0.000000000000000000, 0.000000000000000000, 1.000000000000000000 ) ) ;
#135 = AXIS2_PLACEMENT_3D ( 'NONE', #129, #660, #741 ) ;
#136 = DIRECTION ( 'NONE',  ( -0.000000000000000000, -1.000000000000000000, -0.000000000000000000 ) ) ;
#137 = VERTEX_POINT ( 'NONE', #105 ) ;
#138 = CIRCLE ( 'NONE', #97, 9.000000000000000000 ) ;
#139 = DIRECTION ( 'NONE',  ( -1.000000000000000000, 0.000000000000000000, 0.000000000000000000 ) ) ;
#140 = EDGE_CURVE ( 'NONE', #759, #118, #18, .T. ) ;
#141 = FACE_BOUND ( 'NONE', #685, .T. ) ;
#142 = AXIS2_PLACEMENT_3D ( 'NONE', #43, #430, #163 ) ;
#143 = EDGE_LOOP ( 'NONE', ( #484, #710 ) ) ;
#144 = ORIENTED_EDGE ( 'NONE', *, *, #467, .F. ) ;
#145 = CARTESIAN_POINT ( 'NONE',  ( 0.000000000000000000, 11.75000000000000000, 0.000000000000000000 ) ) ;
#146 = CARTESIAN_POINT ( 'NONE',  ( 0.000000000000000000, 0.2500000000000000000, -7.500000000000000000 ) ) ;
#147 = ORIENTED_EDGE ( 'NONE', *, *, #488, .F. ) ;
#148 = EDGE_CURVE ( 'NONE', #118, #525, #79, .T. ) ;
#149 = ORIENTED_EDGE ( 'NONE', *, *, #337, .F. ) ;
#150 = CARTESIAN_POINT ( 'NONE',  ( 0.000000000000000000, 0.5000000000000000000, 0.000000000000000000 ) ) ;
#151 = CARTESIAN_POINT ( 'NONE',  ( 0.000000000000000000, 11.50000000000000000, 0.000000000000000000 ) ) ;
#152 = ORIENTED_EDGE ( 'NONE', *, *, #276, .F. ) ;
#153 = CIRCLE ( 'NONE', #706, 0.2500000000000002220 ) ;
#154 = EDGE_CURVE ( 'NONE', #521, #512, #119, .T. ) ;
#155 = AXIS2_PLACEMENT_3D ( 'NONE', #457, #460, #45 ) ;
#156 = DIRECTION ( 'NONE',  ( 0.000000000000000000, 0.000000000000000000, 1.000000000000000000 ) ) ;
#157 = TOROIDAL_SURFACE ( 'NONE', #637, 9.250000000000000000, 0.2500000000000000000 ) ;
#158 = AXIS2_PLACEMENT_3D ( 'NONE', #232, #364, #815 ) ;
#159 =( NAMED_UNIT ( * ) SI_UNIT ( $, .STERADIAN. ) SOLID_ANGLE_UNIT ( ) );
#160 = DIRECTION ( 'NONE',  ( 0.000000000000000000, 1.000000000000000000, 0.000000000000000000 ) ) ;
#161 = CARTESIAN_POINT ( 'NONE',  ( 1.224646799147353256E-15, 11.75000000000000000, 10.00000000000000000 ) ) ;
#162 = ORIENTED_EDGE ( 'NONE', *, *, #256, .T. ) ;
#163 = DIRECTION ( 'NONE',  ( 0.000000000000000000, 0.000000000000000000, 1.000000000000000000 ) ) ;
#164 = ADVANCED_FACE ( 'NONE', ( #788, #310 ), #399, .T. ) ;
#165 = LINE ( 'NONE', #96, #793 ) ;
#166 = DIRECTION ( 'NONE',  ( -0.000000000000000000, -1.000000000000000000, -0.000000000000000000 ) ) ;
#167 = EDGE_LOOP ( 'NONE', ( #90, #870, #114, #51 ) ) ;
#168 = PRODUCT ( 'rodamiento 14 X 20 X 12 HK1412', 'rodamiento 14 X 20 X 12 HK1412', '', ( #222 ) ) ;
#169 = AXIS2_PLACEMENT_3D ( 'NONE', #381, #638, #249 ) ;
#170 = DIRECTION ( 'NONE',  ( 0.000000000000000000, -1.000000000000000000, 0.000000000000000000 ) ) ;
#171 = CARTESIAN_POINT ( 'NONE',  ( 0.000000000000000000, 11.75000000000000000, 0.000000000000000000 ) ) ;
#172 = AXIS2_PLACEMENT_3D ( 'NONE', #237, #758, #767 ) ;
#173 = EDGE_LOOP ( 'NONE', ( #106, #834, #857, #724 ) ) ;
#174 = CYLINDRICAL_SURFACE ( 'NONE', #195, 7.500000000000000000 ) ;
#175 = CARTESIAN_POINT ( 'NONE',  ( 0.000000000000000000, 0.2500000000000000000, 0.000000000000000000 ) ) ;
#176 = ADVANCED_FACE ( 'NONE', ( #328 ), #465, .T. ) ;
#177 = CARTESIAN_POINT ( 'NONE',  ( 1.132798289211301895E-15, 0.000000000000000000, -9.250000000000000000 ) ) ;
#178 = DIRECTION ( 'NONE',  ( -1.000000000000000000, 0.000000000000000000, 0.000000000000000000 ) ) ;
#179 = ORIENTED_EDGE ( 'NONE', *, *, #140, .T. ) ;
#180 = CIRCLE ( 'NONE', #621, 9.750000000000000000 ) ;
#181 = DIRECTION ( 'NONE',  ( 1.224646799147349509E-16, 0.000000000000000000, -1.000000000000000000 ) ) ;
#182 = CARTESIAN_POINT ( 'NONE',  ( 0.000000000000000000, 11.75000000000000000, 0.000000000000000000 ) ) ;
#183 = ORIENTED_EDGE ( 'NONE', *, *, #451, .T. ) ;
#184 = PRODUCT_RELATED_PRODUCT_CATEGORY ( 'part', '', ( #168 ) ) ;
#185 = EDGE_CURVE ( 'NONE', #319, #10, #864, .T. ) ;
#186 = CARTESIAN_POINT ( 'NONE',  ( 9.184850993605147944E-16, 11.50000000000000000, -7.500000000000000000 ) ) ;
#187 = DIRECTION ( 'NONE',  ( 0.000000000000000000, 1.000000000000000000, 0.000000000000000000 ) ) ;
#188 = EDGE_LOOP ( 'NONE', ( #32, #238, #183, #755 ) ) ;
#189 = CARTESIAN_POINT ( 'NONE',  ( 0.000000000000000000, 0.2500000000000002220, 7.250000000000000000 ) ) ;
#190 = EDGE_CURVE ( 'NONE', #679, #295, #292, .T. ) ;
#191 = DIRECTION ( 'NONE',  ( 0.000000000000000000, -0.000000000000000000, -1.000000000000000000 ) ) ;
#192 = EDGE_LOOP ( 'NONE', ( #449, #789, #458, #20 ) ) ;
#193 = CARTESIAN_POINT ( 'NONE',  ( 0.000000000000000000, 0.2500000000000002220, 0.000000000000000000 ) ) ;
#194 = ORIENTED_EDGE ( 'NONE', *, *, #185, .F. ) ;
#195 = AXIS2_PLACEMENT_3D ( 'NONE', #564, #228, #695 ) ;
#196 = VECTOR ( 'NONE', #1, 1000.000000000000000 ) ;
#197 = CARTESIAN_POINT ( 'NONE',  ( 0.000000000000000000, 0.2500000000000002220, 0.000000000000000000 ) ) ;
#198 = CARTESIAN_POINT ( 'NONE',  ( 0.000000000000000000, 11.50000000000000000, 0.000000000000000000 ) ) ;
#199 = ORIENTED_EDGE ( 'NONE', *, *, #606, .T. ) ;
#200 = EDGE_CURVE ( 'NONE', #719, #703, #258, .T. ) ;
#201 = CARTESIAN_POINT ( 'NONE',  ( 0.000000000000000000, 0.000000000000000000, 0.000000000000000000 ) ) ;
#202 = FACE_OUTER_BOUND ( 'NONE', #826, .T. ) ;
#203 = ORIENTED_EDGE ( 'NONE', *, *, #92, .T. ) ;
#204 = ORIENTED_EDGE ( 'NONE', *, *, #792, .F. ) ;
#205 = ADVANCED_FACE ( 'NONE', ( #850 ), #49, .T. ) ;
#206 = LINE ( 'NONE', #796, #196 ) ;
#207 = AXIS2_PLACEMENT_3D ( 'NONE', #78, #403, #472 ) ;
#208 = CARTESIAN_POINT ( 'NONE',  ( 0.000000000000000000, 0.2500000000000000000, 0.000000000000000000 ) ) ;
#209 = CIRCLE ( 'NONE', #394, 7.250000000000000000 ) ;
#210 = ORIENTED_EDGE ( 'NONE', *, *, #768, .T. ) ;
#211 = ORIENTED_EDGE ( 'NONE', *, *, #676, .T. ) ;
#212 = CARTESIAN_POINT ( 'NONE',  ( 0.000000000000000000, 12.00000000000000000, 0.000000000000000000 ) ) ;
#213 = AXIS2_PLACEMENT_3D ( 'NONE', #150, #170, #501 ) ;
#214 = EDGE_CURVE ( 'NONE', #71, #517, #80, .T. ) ;
#215 = CYLINDRICAL_SURFACE ( 'NONE', #420, 7.500000000000000000 ) ;
#216 = ORIENTED_EDGE ( 'NONE', *, *, #863, .F. ) ;
#217 = ORIENTED_EDGE ( 'NONE', *, *, #200, .T. ) ;
#218 = CARTESIAN_POINT ( 'NONE',  ( 0.000000000000000000, 0.2500000000000000000, 0.000000000000000000 ) ) ;
#219 = CYLINDRICAL_SURFACE ( 'NONE', #680, 9.000000000000000000 ) ;
#220 = CARTESIAN_POINT ( 'NONE',  ( 0.000000000000000000, 0.5000000000000000000, 0.000000000000000000 ) ) ;
#221 = ORIENTED_EDGE ( 'NONE', *, *, #858, .T. ) ;
#222 = PRODUCT_CONTEXT ( 'NONE', #569, 'mechanical' ) ;
#223 = DIRECTION ( 'NONE',  ( 0.000000000000000000, 1.000000000000000000, 0.000000000000000000 ) ) ;
#224 = AXIS2_PLACEMENT_3D ( 'NONE', #65, #748, #271 ) ;
#225 = CARTESIAN_POINT ( 'NONE',  ( 0.000000000000000000, 0.2500000000000002220, -7.000000000000000000 ) ) ;
#226 = VECTOR ( 'NONE', #285, 1000.000000000000000 ) ;
#227 = DIRECTION ( 'NONE',  ( 0.000000000000000000, 0.000000000000000000, 1.000000000000000000 ) ) ;
#228 = DIRECTION ( 'NONE',  ( -0.000000000000000000, -1.000000000000000000, -0.000000000000000000 ) ) ;
#229 = CIRCLE ( 'NONE', #454, 0.2500000000000002220 ) ;
#230 = DIRECTION ( 'NONE',  ( 0.000000000000000000, 1.000000000000000000, 0.000000000000000000 ) ) ;
#231 = ADVANCED_FACE ( 'NONE', ( #446 ), #663, .T. ) ;
#232 = CARTESIAN_POINT ( 'NONE',  ( 0.000000000000000000, 0.2500000000000000000, 0.000000000000000000 ) ) ;
#233 = DIRECTION ( 'NONE',  ( 0.000000000000000000, 1.000000000000000000, 0.000000000000000000 ) ) ;
#234 = CARTESIAN_POINT ( 'NONE',  ( 0.000000000000000000, 12.00000000000000000, 0.000000000000000000 ) ) ;
#235 = ORIENTED_EDGE ( 'NONE', *, *, #6, .F. ) ;
#236 = CARTESIAN_POINT ( 'NONE',  ( 0.000000000000000000, 12.00000000000000000, 9.750000000000000000 ) ) ;
#237 = CARTESIAN_POINT ( 'NONE',  ( 0.000000000000000000, 0.5000000000000000000, 0.000000000000000000 ) ) ;
#238 = ORIENTED_EDGE ( 'NONE', *, *, #307, .T. ) ;
#239 = PRODUCT_DEFINITION_SHAPE ( 'NONE', 'NONE',  #869 ) ;
#240 = CIRCLE ( 'NONE', #463, 9.000000000000000000 ) ;
#241 = CARTESIAN_POINT ( 'NONE',  ( 1.194030629168669469E-15, 0.2500000000000002220, -9.750000000000000000 ) ) ;
#242 = AXIS2_PLACEMENT_3D ( 'NONE', #115, #783, #513 ) ;
#243 = EDGE_CURVE ( 'NONE', #137, #840, #587, .T. ) ;
#244 = CARTESIAN_POINT ( 'NONE',  ( 0.000000000000000000, 0.000000000000000000, 0.000000000000000000 ) ) ;
#245 = ORIENTED_EDGE ( 'NONE', *, *, #426, .F. ) ;
#246 = FACE_BOUND ( 'NONE', #277, .T. ) ;
#247 = DIRECTION ( 'NONE',  ( 0.000000000000000000, 0.000000000000000000, -1.000000000000000000 ) ) ;
#248 = CARTESIAN_POINT ( 'NONE',  ( 1.132798289211301895E-15, 12.00000000000000000, -9.250000000000000000 ) ) ;
#249 = DIRECTION ( 'NONE',  ( 0.000000000000000000, 0.000000000000000000, 1.000000000000000000 ) ) ;
#250 = ORIENTED_EDGE ( 'NONE', *, *, #642, .T. ) ;
#251 = DIRECTION ( 'NONE',  ( 0.000000000000000000, 0.000000000000000000, 1.000000000000000000 ) ) ;
#252 = DIRECTION ( 'NONE',  ( 0.000000000000000000, 0.000000000000000000, 1.000000000000000000 ) ) ;
#253 = AXIS2_PLACEMENT_3D ( 'NONE', #171, #223, #491 ) ;
#254 = ORIENTED_EDGE ( 'NONE', *, *, #92, .F. ) ;
#255 = AXIS2_PLACEMENT_3D ( 'NONE', #831, #753, #88 ) ;
#256 = EDGE_CURVE ( 'NONE', #875, #275, #545, .T. ) ;
#257 = FACE_OUTER_BOUND ( 'NONE', #774, .T. ) ;
#258 = LINE ( 'NONE', #55, #515 ) ;
#259 = ORIENTED_EDGE ( 'NONE', *, *, #318, .F. ) ;
#260 = DIRECTION ( 'NONE',  ( -0.000000000000000000, -1.000000000000000000, -0.000000000000000000 ) ) ;
#261 = EDGE_LOOP ( 'NONE', ( #152, #289, #282, #763 ) ) ;
#262 = AXIS2_PLACEMENT_3D ( 'NONE', #234, #166, #819 ) ;
#263 = DIRECTION ( 'NONE',  ( 0.000000000000000000, 1.000000000000000000, 0.000000000000000000 ) ) ;
#264 = CIRCLE ( 'NONE', #306, 7.250000000000000000 ) ;
#265 = DIRECTION ( 'NONE',  ( 0.000000000000000000, 1.000000000000000000, 0.000000000000000000 ) ) ;
#266 = ORIENTED_EDGE ( 'NONE', *, *, #511, .F. ) ;
#267 = APPLICATION_CONTEXT ( 'automotive_design' ) ;
#268 = DIRECTION ( 'NONE',  ( 0.000000000000000000, 0.000000000000000000, 1.000000000000000000 ) ) ;
#269 = AXIS2_PLACEMENT_3D ( 'NONE', #627, #296, #617 ) ;
#270 = CARTESIAN_POINT ( 'NONE',  ( 0.000000000000000000, 0.2500000000000000000, -9.000000000000000000 ) ) ;
#271 = DIRECTION ( 'NONE',  ( 1.224646799147349509E-16, 0.000000000000000000, -1.000000000000000000 ) ) ;
#272 = ORIENTED_EDGE ( 'NONE', *, *, #318, .T. ) ;
#273 = DIRECTION ( 'NONE',  ( 0.000000000000000000, 0.000000000000000000, 1.000000000000000000 ) ) ;
#274 = DIRECTION ( 'NONE',  ( -1.000000000000000000, 0.000000000000000000, 0.000000000000000000 ) ) ;
#275 = VERTEX_POINT ( 'NONE', #396 ) ;
#276 = EDGE_CURVE ( 'NONE', #302, #615, #366, .T. ) ;
#277 = EDGE_LOOP ( 'NONE', ( #221, #85 ) ) ;
#278 = ADVANCED_FACE ( 'NONE', ( #591 ), #860, .F. ) ;
#279 = DIRECTION ( 'NONE',  ( 0.000000000000000000, 0.000000000000000000, -1.000000000000000000 ) ) ;
#280 = VECTOR ( 'NONE', #532, 1000.000000000000000 ) ;
#281 = ORIENTED_EDGE ( 'NONE', *, *, #646, .F. ) ;
#282 = ORIENTED_EDGE ( 'NONE', *, *, #467, .T. ) ;
#283 = EDGE_CURVE ( 'NONE', #329, #11, #516, .T. ) ;
#284 = DIRECTION ( 'NONE',  ( 0.000000000000000000, 0.000000000000000000, 1.000000000000000000 ) ) ;
#285 = DIRECTION ( 'NONE',  ( -0.000000000000000000, 1.000000000000000000, -0.000000000000000000 ) ) ;
#286 = ORIENTED_EDGE ( 'NONE', *, *, #646, .T. ) ;
#287 = ORIENTED_EDGE ( 'NONE', *, *, #768, .F. ) ;
#288 = CARTESIAN_POINT ( 'NONE',  ( 0.000000000000000000, 0.5000000000000000000, -9.000000000000000000 ) ) ;
#289 = ORIENTED_EDGE ( 'NONE', *, *, #717, .F. ) ;
#290 = FACE_OUTER_BOUND ( 'NONE', #261, .T. ) ;
#291 = LINE ( 'NONE', #288, #64 ) ;
#292 = CIRCLE ( 'NONE', #778, 9.000000000000000000 ) ;
#293 = CARTESIAN_POINT ( 'NONE',  ( 0.000000000000000000, 12.00000000000000000, -7.000000000000000000 ) ) ;
#294 = EDGE_CURVE ( 'NONE', #87, #604, #448, .T. ) ;
#295 = VERTEX_POINT ( 'NONE', #868 ) ;
#296 = DIRECTION ( 'NONE',  ( 0.000000000000000000, 0.000000000000000000, 1.000000000000000000 ) ) ;
#297 = COLOUR_RGB ( '',0.7921568627450980005, 0.8196078431372548767, 0.9333333333333333481 ) ;
#298 = CARTESIAN_POINT ( 'NONE',  ( 0.000000000000000000, 12.00000000000000000, 0.000000000000000000 ) ) ;
#299 = VERTEX_POINT ( 'NONE', #146 ) ;
#300 = DIRECTION ( 'NONE',  ( 0.000000000000000000, 0.000000000000000000, 1.000000000000000000 ) ) ;
#301 = DIRECTION ( 'NONE',  ( 0.000000000000000000, 0.000000000000000000, 1.000000000000000000 ) ) ;
#302 = VERTEX_POINT ( 'NONE', #270 ) ;
#303 = ADVANCED_FACE ( 'NONE', ( #552 ), #215, .T. ) ;
#304 = CARTESIAN_POINT ( 'NONE',  ( 0.000000000000000000, 11.75000000000000000, -10.00000000000000000 ) ) ;
#305 = EDGE_LOOP ( 'NONE', ( #455, #326, #179, #698 ) ) ;
#306 = AXIS2_PLACEMENT_3D ( 'NONE', #813, #746, #479 ) ;
#307 = EDGE_CURVE ( 'NONE', #604, #87, #108, .T. ) ;
#308 = CARTESIAN_POINT ( 'NONE',  ( 1.102182119232617714E-15, 11.50000000000000000, -9.000000000000000000 ) ) ;
#309 = VECTOR ( 'NONE', #44, 1000.000000000000000 ) ;
#310 = FACE_OUTER_BOUND ( 'NONE', #143, .T. ) ;
#311 = AXIS2_PLACEMENT_3D ( 'NONE', #7, #125, #734 ) ;
#312 = ORIENTED_EDGE ( 'NONE', *, *, #678, .T. ) ;
#313 = CARTESIAN_POINT ( 'NONE',  ( 0.000000000000000000, 0.5000000000000000000, 0.000000000000000000 ) ) ;
#314 = EDGE_LOOP ( 'NONE', ( #266, #392, #340, #363 ) ) ;
#315 = CYLINDRICAL_SURFACE ( 'NONE', #438, 9.000000000000000000 ) ;
#316 =( LENGTH_UNIT ( ) NAMED_UNIT ( * ) SI_UNIT ( .MILLI., .METRE. ) );
#317 = DIRECTION ( 'NONE',  ( 0.000000000000000000, -1.000000000000000000, 0.000000000000000000 ) ) ;
#318 = EDGE_CURVE ( 'NONE', #691, #539, #571, .T. ) ;
#319 = VERTEX_POINT ( 'NONE', #486 ) ;
#320 = CIRCLE ( 'NONE', #808, 7.500000000000000000 ) ;
#321 = AXIS2_PLACEMENT_3D ( 'NONE', #721, #652, #843 ) ;
#322 = DIRECTION ( 'NONE',  ( 0.000000000000000000, 1.000000000000000000, 0.000000000000000000 ) ) ;
#323 = DIRECTION ( 'NONE',  ( 0.000000000000000000, 0.000000000000000000, 1.000000000000000000 ) ) ;
#324 = AXIS2_PLACEMENT_3D ( 'NONE', #580, #651, #590 ) ;
#325 = AXIS2_PLACEMENT_3D ( 'NONE', #349, #401, #273 ) ;
#326 = ORIENTED_EDGE ( 'NONE', *, *, #574, .T. ) ;
#327 = FACE_OUTER_BOUND ( 'NONE', #15, .T. ) ;
#328 = FACE_OUTER_BOUND ( 'NONE', #592, .T. ) ;
#329 = VERTEX_POINT ( 'NONE', #406 ) ;
#330 = EDGE_CURVE ( 'NONE', #71, #785, #402, .T. ) ;
#331 = CARTESIAN_POINT ( 'NONE',  ( 0.000000000000000000, 0.2500000000000002220, 0.000000000000000000 ) ) ;
#332 = FACE_OUTER_BOUND ( 'NONE', #616, .T. ) ;
#333 = ORIENTED_EDGE ( 'NONE', *, *, #344, .F. ) ;
#334 = AXIS2_PLACEMENT_3D ( 'NONE', #244, #230, #508 ) ;
#335 = AXIS2_PLACEMENT_3D ( 'NONE', #872, #274, #806 ) ;
#336 = CARTESIAN_POINT ( 'NONE',  ( 0.000000000000000000, 11.75000000000000000, 0.000000000000000000 ) ) ;
#337 = EDGE_CURVE ( 'NONE', #414, #672, #264, .T. ) ;
#338 = CARTESIAN_POINT ( 'NONE',  ( 0.000000000000000000, 11.50000000000000000, 0.000000000000000000 ) ) ;
#339 = DIRECTION ( 'NONE',  ( 0.000000000000000000, 0.000000000000000000, 1.000000000000000000 ) ) ;
#340 = ORIENTED_EDGE ( 'NONE', *, *, #574, .F. ) ;
#341 = CIRCLE ( 'NONE', #853, 9.000000000000000000 ) ;
#342 = DIRECTION ( 'NONE',  ( 0.000000000000000000, 1.000000000000000000, 0.000000000000000000 ) ) ;
#343 = DIRECTION ( 'NONE',  ( 0.000000000000000000, 0.000000000000000000, -1.000000000000000000 ) ) ;
#344 = EDGE_CURVE ( 'NONE', #521, #861, #209, .T. ) ;
#345 = ORIENTED_EDGE ( 'NONE', *, *, #477, .T. ) ;
#346 = DIRECTION ( 'NONE',  ( -0.000000000000000000, -1.000000000000000000, -0.000000000000000000 ) ) ;
#347 = DIRECTION ( 'NONE',  ( 0.000000000000000000, 0.000000000000000000, 1.000000000000000000 ) ) ;
#348 = ORIENTED_EDGE ( 'NONE', *, *, #606, .F. ) ;
#349 = CARTESIAN_POINT ( 'NONE',  ( 0.000000000000000000, 11.75000000000000000, 9.750000000000000000 ) ) ;
#350 = CARTESIAN_POINT ( 'NONE',  ( 0.000000000000000000, 11.50000000000000000, 9.000000000000000000 ) ) ;
#351 = AXIS2_PLACEMENT_3D ( 'NONE', #374, #761, #30 ) ;
#352 = FACE_OUTER_BOUND ( 'NONE', #57, .T. ) ;
#353 = ORIENTED_EDGE ( 'NONE', *, *, #642, .F. ) ;
#354 = AXIS2_PLACEMENT_3D ( 'NONE', #113, #389, #109 ) ;
#355 = TOROIDAL_SURFACE ( 'NONE', #423, 7.250000000000000000, 0.2500000000000000000 ) ;
#356 = DIRECTION ( 'NONE',  ( -0.000000000000000000, 1.000000000000000000, -0.000000000000000000 ) ) ;
#357 = ORIENTED_EDGE ( 'NONE', *, *, #256, .F. ) ;
#358 = ORIENTED_EDGE ( 'NONE', *, *, #117, .F. ) ;
#359 =( LENGTH_UNIT ( ) NAMED_UNIT ( * ) SI_UNIT ( .MILLI., .METRE. ) );
#360 = ADVANCED_FACE ( 'NONE', ( #202 ), #219, .F. ) ;
#361 = CARTESIAN_POINT ( 'NONE',  ( 0.000000000000000000, 0.2500000000000000000, 9.250000000000000000 ) ) ;
#362 = DIRECTION ( 'NONE',  ( 0.000000000000000000, 0.000000000000000000, 1.000000000000000000 ) ) ;
#363 = ORIENTED_EDGE ( 'NONE', *, *, #154, .F. ) ;
#364 = DIRECTION ( 'NONE',  ( 0.000000000000000000, 1.000000000000000000, 0.000000000000000000 ) ) ;
#365 = DIRECTION ( 'NONE',  ( 1.000000000000000000, -0.000000000000000000, 1.224646799147353207E-16 ) ) ;
#366 = CIRCLE ( 'NONE', #321, 0.2500000000000002220 ) ;
#367 = ORIENTED_EDGE ( 'NONE', *, *, #330, .T. ) ;
#368 = DIRECTION ( 'NONE',  ( 0.000000000000000000, 0.000000000000000000, 1.000000000000000000 ) ) ;
#369 = CIRCLE ( 'NONE', #311, 10.00000000000000000 ) ;
#370 = FACE_OUTER_BOUND ( 'NONE', #188, .T. ) ;
#371 = TOROIDAL_SURFACE ( 'NONE', #854, 9.750000000000000000, 0.2500000000000000000 ) ;
#372 = EDGE_CURVE ( 'NONE', #691, #295, #667, .T. ) ;
#373 = ORIENTED_EDGE ( 'NONE', *, *, #846, .F. ) ;
#374 = CARTESIAN_POINT ( 'NONE',  ( 0.000000000000000000, 0.5000000000000000000, 0.000000000000000000 ) ) ;
#375 = FACE_OUTER_BOUND ( 'NONE', #593, .T. ) ;
#376 = ORIENTED_EDGE ( 'NONE', *, *, #702, .F. ) ;
#377 = ADVANCED_FACE ( 'NONE', ( #141, #474 ), #412, .T. ) ;
#378 = AXIS2_PLACEMENT_3D ( 'NONE', #713, #718, #453 ) ;
#379 = ORIENTED_EDGE ( 'NONE', *, *, #498, .F. ) ;
#380 = DIRECTION ( 'NONE',  ( -0.000000000000000000, -1.000000000000000000, -0.000000000000000000 ) ) ;
#381 = CARTESIAN_POINT ( 'NONE',  ( 0.000000000000000000, 11.50000000000000000, 0.000000000000000000 ) ) ;
#382 = CIRCLE ( 'NONE', #99, 0.2500000000000002220 ) ;
#383 = CIRCLE ( 'NONE', #410, 7.500000000000000000 ) ;
#384 = ORIENTED_EDGE ( 'NONE', *, *, #190, .T. ) ;
#385 = DIRECTION ( 'NONE',  ( -0.000000000000000000, 1.000000000000000000, -0.000000000000000000 ) ) ;
#386 = EDGE_CURVE ( 'NONE', #29, #615, #608, .T. ) ;
#387 = CARTESIAN_POINT ( 'NONE',  ( 0.000000000000000000, 11.75000000000000000, 0.000000000000000000 ) ) ;
#388 = ORIENTED_EDGE ( 'NONE', *, *, #294, .F. ) ;
#389 = DIRECTION ( 'NONE',  ( 1.000000000000000000, -0.000000000000000000, 1.224646799147353207E-16 ) ) ;
#390 = DIRECTION ( 'NONE',  ( 0.000000000000000000, 1.000000000000000000, 0.000000000000000000 ) ) ;
#391 = ADVANCED_FACE ( 'NONE', ( #332 ), #559, .T. ) ;
#392 = ORIENTED_EDGE ( 'NONE', *, *, #613, .T. ) ;
#393 = AXIS2_PLACEMENT_3D ( 'NONE', #802, #475, #407 ) ;
#394 = AXIS2_PLACEMENT_3D ( 'NONE', #541, #801, #471 ) ;
#395 = CARTESIAN_POINT ( 'NONE',  ( 0.000000000000000000, 11.75000000000000000, 0.000000000000000000 ) ) ;
#396 = CARTESIAN_POINT ( 'NONE',  ( 1.209338714158011363E-15, 12.00000000000000000, -9.750000000000000000 ) ) ;
#397 = TOROIDAL_SURFACE ( 'NONE', #563, 9.750000000000000000, 0.2500000000000000000 ) ;
#398 = ORIENTED_EDGE ( 'NONE', *, *, #276, .T. ) ;
#399 = PLANE ( 'NONE',  #866 ) ;
#400 = EDGE_LOOP ( 'NONE', ( #543, #367, #210, #429 ) ) ;
#401 = DIRECTION ( 'NONE',  ( -1.000000000000000000, 0.000000000000000000, 0.000000000000000000 ) ) ;
#402 = LINE ( 'NONE', #8, #280 ) ;
#403 = DIRECTION ( 'NONE',  ( -1.000000000000000000, 0.000000000000000000, 0.000000000000000000 ) ) ;
#404 = AXIS2_PLACEMENT_3D ( 'NONE', #614, #771, #22 ) ;
#405 = CARTESIAN_POINT ( 'NONE',  ( 0.000000000000000000, 0.2500000000000002220, 0.000000000000000000 ) ) ;
#406 = CARTESIAN_POINT ( 'NONE',  ( 0.000000000000000000, 11.75000000000000000, 7.500000000000000000 ) ) ;
#407 = DIRECTION ( 'NONE',  ( 0.000000000000000000, 0.000000000000000000, 1.000000000000000000 ) ) ;
#408 = EDGE_LOOP ( 'NONE', ( #435, #777, #312, #578 ) ) ;
#409 = AXIS2_PLACEMENT_3D ( 'NONE', #827, #760, #227 ) ;
#410 = AXIS2_PLACEMENT_3D ( 'NONE', #557, #711, #300 ) ;
#411 = CARTESIAN_POINT ( 'NONE',  ( 0.000000000000000000, 12.00000000000000000, 0.000000000000000000 ) ) ;
#412 = PLANE ( 'NONE',  #647 ) ;
#413 = ORIENTED_EDGE ( 'NONE', *, *, #538, .T. ) ;
#414 = VERTEX_POINT ( 'NONE', #865 ) ;
#415 = DIRECTION ( 'NONE',  ( 0.000000000000000000, 1.000000000000000000, 0.000000000000000000 ) ) ;
#416 = DIRECTION ( 'NONE',  ( -0.000000000000000000, 1.000000000000000000, -0.000000000000000000 ) ) ;
#417 = EDGE_LOOP ( 'NONE', ( #830, #418, #688, #561 ) ) ;
#418 = ORIENTED_EDGE ( 'NONE', *, *, #107, .T. ) ;
#419 = DIRECTION ( 'NONE',  ( 0.000000000000000000, 1.000000000000000000, 0.000000000000000000 ) ) ;
#420 = AXIS2_PLACEMENT_3D ( 'NONE', #338, #77, #610 ) ;
#421 = CARTESIAN_POINT ( 'NONE',  ( 0.000000000000000000, 0.000000000000000000, 0.000000000000000000 ) ) ;
#422 = EDGE_CURVE ( 'NONE', #414, #703, #752, .T. ) ;
#423 = AXIS2_PLACEMENT_3D ( 'NONE', #197, #470, #482 ) ;
#424 = CARTESIAN_POINT ( 'NONE',  ( 0.000000000000000000, 0.5000000000000000000, -7.500000000000000000 ) ) ;
#425 = CARTESIAN_POINT ( 'NONE',  ( 0.000000000000000000, 11.50000000000000000, 7.500000000000000000 ) ) ;
#426 = EDGE_CURVE ( 'NONE', #719, #644, #4, .T. ) ;
#427 = CARTESIAN_POINT ( 'NONE',  ( 0.000000000000000000, 0.2500000000000002220, -10.00000000000000000 ) ) ;
#428 = DIRECTION ( 'NONE',  ( 0.000000000000000000, 0.000000000000000000, 1.000000000000000000 ) ) ;
#429 = ORIENTED_EDGE ( 'NONE', *, *, #678, .F. ) ;
#430 = DIRECTION ( 'NONE',  ( -0.000000000000000000, -1.000000000000000000, -0.000000000000000000 ) ) ;
#431 = LINE ( 'NONE', #425, #809 ) ;
#432 = EDGE_CURVE ( 'NONE', #597, #589, #34, .T. ) ;
#433 = CARTESIAN_POINT ( 'NONE',  ( 0.000000000000000000, 0.2500000000000000000, 0.000000000000000000 ) ) ;
#434 = VECTOR ( 'NONE', #122, 1000.000000000000000 ) ;
#435 = ORIENTED_EDGE ( 'NONE', *, *, #330, .F. ) ;
#436 = AXIS2_PLACEMENT_3D ( 'NONE', #526, #716, #251 ) ;
#437 = FILL_AREA_STYLE_COLOUR ( '', #297 ) ;
#438 = AXIS2_PLACEMENT_3D ( 'NONE', #749, #385, #764 ) ;
#439 =( GEOMETRIC_REPRESENTATION_CONTEXT ( 3 ) GLOBAL_UNCERTAINTY_ASSIGNED_CONTEXT ( ( #786 ) ) GLOBAL_UNIT_ASSIGNED_CONTEXT ( ( #359, #817, #159 ) ) REPRESENTATION_CONTEXT ( 'NONE', 'WORKASPACE' ) );
#440 = FACE_OUTER_BOUND ( 'NONE', #542, .T. ) ;
#441 = EDGE_CURVE ( 'NONE', #295, #679, #240, .T. ) ;
#442 = EDGE_LOOP ( 'NONE', ( #42, #203, #357, #376 ) ) ;
#443 = CARTESIAN_POINT ( 'NONE',  ( 0.000000000000000000, 12.00000000000000000, 9.250000000000000000 ) ) ;
#444 = ORIENTED_EDGE ( 'NONE', *, *, #426, .T. ) ;
#445 = DIRECTION ( 'NONE',  ( 0.000000000000000000, 0.000000000000000000, 1.000000000000000000 ) ) ;
#446 = FACE_OUTER_BOUND ( 'NONE', #314, .T. ) ;
#447 = CIRCLE ( 'NONE', #19, 9.000000000000000000 ) ;
#448 = CIRCLE ( 'NONE', #169, 7.500000000000000000 ) ;
#449 = ORIENTED_EDGE ( 'NONE', *, *, #107, .F. ) ;
#450 = FACE_OUTER_BOUND ( 'NONE', #653, .T. ) ;
#451 = EDGE_CURVE ( 'NONE', #87, #329, #431, .T. ) ;
#452 = CIRCLE ( 'NONE', #253, 7.000000000000000000 ) ;
#453 = DIRECTION ( 'NONE',  ( 0.000000000000000000, 0.000000000000000000, 1.000000000000000000 ) ) ;
#454 = AXIS2_PLACEMENT_3D ( 'NONE', #674, #139, #609 ) ;
#455 = ORIENTED_EDGE ( 'NONE', *, *, #798, .F. ) ;
#456 = EDGE_CURVE ( 'NONE', #648, #137, #723, .T. ) ;
#457 = CARTESIAN_POINT ( 'NONE',  ( 0.000000000000000000, 11.75000000000000000, 0.000000000000000000 ) ) ;
#458 = ORIENTED_EDGE ( 'NONE', *, *, #852, .T. ) ;
#459 = DIRECTION ( 'NONE',  ( 0.000000000000000000, 0.000000000000000000, 1.000000000000000000 ) ) ;
#460 = DIRECTION ( 'NONE',  ( 0.000000000000000000, 1.000000000000000000, 0.000000000000000000 ) ) ;
#461 = ADVANCED_FACE ( 'NONE', ( #89 ), #594, .T. ) ;
#462 = EDGE_LOOP ( 'NONE', ( #348, #75, #807, #216 ) ) ;
#463 = AXIS2_PLACEMENT_3D ( 'NONE', #2, #570, #301 ) ;
#464 = CARTESIAN_POINT ( 'NONE',  ( 8.878689293818310074E-16, 1.084202172485504434E-16, -7.250000000000000000 ) ) ;
#465 = CYLINDRICAL_SURFACE ( 'NONE', #133, 7.500000000000000000 ) ;
#466 = AXIS2_PLACEMENT_3D ( 'NONE', #395, #322, #445 ) ;
#467 = EDGE_CURVE ( 'NONE', #840, #29, #708, .T. ) ;
#468 = ORIENTED_EDGE ( 'NONE', *, *, #730, .F. ) ;
#469 = CIRCLE ( 'NONE', #142, 9.250000000000000000 ) ;
#470 = DIRECTION ( 'NONE',  ( 0.000000000000000000, 1.000000000000000000, 0.000000000000000000 ) ) ;
#471 = DIRECTION ( 'NONE',  ( 0.000000000000000000, 0.000000000000000000, 1.000000000000000000 ) ) ;
#472 = DIRECTION ( 'NONE',  ( 0.000000000000000000, 0.000000000000000000, 1.000000000000000000 ) ) ;
#473 = CARTESIAN_POINT ( 'NONE',  ( 1.224646799147353256E-15, 0.2500000000000002220, 10.00000000000000000 ) ) ;
#474 = FACE_OUTER_BOUND ( 'NONE', #553, .T. ) ;
#475 = DIRECTION ( 'NONE',  ( 0.000000000000000000, 1.000000000000000000, 0.000000000000000000 ) ) ;
#476 = ORIENTED_EDGE ( 'NONE', *, *, #148, .F. ) ;
#477 = EDGE_CURVE ( 'NONE', #604, #11, #165, .T. ) ;
#478 = CARTESIAN_POINT ( 'NONE',  ( 0.000000000000000000, 11.50000000000000000, 9.000000000000000000 ) ) ;
#479 = DIRECTION ( 'NONE',  ( 0.000000000000000000, 0.000000000000000000, 1.000000000000000000 ) ) ;
#480 = ORIENTED_EDGE ( 'NONE', *, *, #441, .T. ) ;
#481 = CIRCLE ( 'NONE', #325, 0.2500000000000002220 ) ;
#482 = DIRECTION ( 'NONE',  ( 0.000000000000000000, 0.000000000000000000, 1.000000000000000000 ) ) ;
#483 = DIRECTION ( 'NONE',  ( 0.000000000000000000, 1.000000000000000000, 0.000000000000000000 ) ) ;
#484 = ORIENTED_EDGE ( 'NONE', *, *, #456, .T. ) ;
#485 = FACE_OUTER_BOUND ( 'NONE', #38, .T. ) ;
#486 = CARTESIAN_POINT ( 'NONE',  ( 1.209338714158011363E-15, 0.000000000000000000, -9.750000000000000000 ) ) ;
#487 = ORIENTED_EDGE ( 'NONE', *, *, #200, .F. ) ;
#488 = EDGE_CURVE ( 'NONE', #319, #814, #530, .T. ) ;
#489 = APPLICATION_PROTOCOL_DEFINITION ( 'draft international standard', 'automotive_design', 1998, #267 ) ;
#490 = AXIS2_PLACEMENT_3D ( 'NONE', #84, #160, #428 ) ;
#491 = DIRECTION ( 'NONE',  ( 0.000000000000000000, 0.000000000000000000, 1.000000000000000000 ) ) ;
#492 = DIRECTION ( 'NONE',  ( 0.000000000000000000, 0.000000000000000000, 1.000000000000000000 ) ) ;
#493 = ORIENTED_EDGE ( 'NONE', *, *, #12, .T. ) ;
#494 = CARTESIAN_POINT ( 'NONE',  ( 1.102182119232617714E-15, 0.2500000000000000000, 9.000000000000000000 ) ) ;
#495 = CYLINDRICAL_SURFACE ( 'NONE', #404, 10.00000000000000000 ) ;
#496 = DIRECTION ( 'NONE',  ( -0.000000000000000000, -1.000000000000000000, -0.000000000000000000 ) ) ;
#497 = EDGE_LOOP ( 'NONE', ( #162, #664 ) ) ;
#498 = EDGE_CURVE ( 'NONE', #648, #302, #291, .T. ) ;
#499 = DIRECTION ( 'NONE',  ( 0.000000000000000000, 0.000000000000000000, 1.000000000000000000 ) ) ;
#500 = CARTESIAN_POINT ( 'NONE',  ( 1.132798289211301698E-15, 11.75000000000000000, -9.250000000000000000 ) ) ;
#501 = DIRECTION ( 'NONE',  ( 0.000000000000000000, 0.000000000000000000, -1.000000000000000000 ) ) ;
#502 = ADVANCED_FACE ( 'NONE', ( #623 ), #495, .T. ) ;
#503 = DIRECTION ( 'NONE',  ( -0.000000000000000000, 1.000000000000000000, -0.000000000000000000 ) ) ;
#504 = AXIS2_PLACEMENT_3D ( 'NONE', #603, #63, #134 ) ;
#505 = AXIS2_PLACEMENT_3D ( 'NONE', #707, #790, #181 ) ;
#506 = CIRCLE ( 'NONE', #124, 10.00000000000000000 ) ;
#507 = DIRECTION ( 'NONE',  ( -1.000000000000000000, 0.000000000000000000, 0.000000000000000000 ) ) ;
#508 = DIRECTION ( 'NONE',  ( 0.000000000000000000, -0.000000000000000000, 1.000000000000000000 ) ) ;
#509 = ORIENTED_EDGE ( 'NONE', *, *, #372, .T. ) ;
#510 = DIRECTION ( 'NONE',  ( 0.000000000000000000, 0.000000000000000000, -1.000000000000000000 ) ) ;
#511 = EDGE_CURVE ( 'NONE', #861, #521, #779, .T. ) ;
#512 = VERTEX_POINT ( 'NONE', #560 ) ;
#513 = DIRECTION ( 'NONE',  ( 1.224646799147349509E-16, 0.000000000000000000, -1.000000000000000000 ) ) ;
#514 = DIRECTION ( 'NONE',  ( 0.000000000000000000, 0.000000000000000000, 1.000000000000000000 ) ) ;
#515 = VECTOR ( 'NONE', #126, 1000.000000000000000 ) ;
#516 = CIRCLE ( 'NONE', #121, 7.500000000000000000 ) ;
#517 = VERTEX_POINT ( 'NONE', #304 ) ;
#518 = DIRECTION ( 'NONE',  ( 0.000000000000000000, 0.000000000000000000, 1.000000000000000000 ) ) ;
#519 = CIRCLE ( 'NONE', #213, 9.000000000000000000 ) ;
#520 = AXIS2_PLACEMENT_3D ( 'NONE', #555, #640, #156 ) ;
#521 = VERTEX_POINT ( 'NONE', #838 ) ;
#522 = ADVANCED_FACE ( 'NONE', ( #101 ), #174, .T. ) ;
#523 = CARTESIAN_POINT ( 'NONE',  ( 0.000000000000000000, 0.5000000000000000000, -7.500000000000000000 ) ) ;
#524 = CARTESIAN_POINT ( 'NONE',  ( 0.000000000000000000, 11.75000000000000000, 0.000000000000000000 ) ) ;
#525 = VERTEX_POINT ( 'NONE', #833 ) ;
#526 = CARTESIAN_POINT ( 'NONE',  ( 0.000000000000000000, 11.75000000000000000, 0.000000000000000000 ) ) ;
#527 = DIRECTION ( 'NONE',  ( 0.000000000000000000, 1.000000000000000000, 0.000000000000000000 ) ) ;
#528 = ORIENTED_EDGE ( 'NONE', *, *, #243, .F. ) ;
#529 = TOROIDAL_SURFACE ( 'NONE', #693, 7.249999999999999112, 0.2500000000000000000 ) ;
#530 = CIRCLE ( 'NONE', #822, 0.2500000000000002220 ) ;
#531 = DIRECTION ( 'NONE',  ( 0.000000000000000000, 0.000000000000000000, 1.000000000000000000 ) ) ;
#532 = DIRECTION ( 'NONE',  ( -0.000000000000000000, -1.000000000000000000, -0.000000000000000000 ) ) ;
#533 = AXIS2_PLACEMENT_3D ( 'NONE', #145, #415, #862 ) ;
#534 = ORIENTED_EDGE ( 'NONE', *, *, #488, .T. ) ;
#535 = CARTESIAN_POINT ( 'NONE',  ( 0.000000000000000000, 0.2500000000000000000, 0.000000000000000000 ) ) ;
#536 = DIRECTION ( 'NONE',  ( 0.000000000000000000, 0.000000000000000000, 1.000000000000000000 ) ) ;
#537 = ORIENTED_EDGE ( 'NONE', *, *, #154, .T. ) ;
#538 = EDGE_CURVE ( 'NONE', #539, #691, #138, .T. ) ;
#539 = VERTEX_POINT ( 'NONE', #556 ) ;
#540 = FACE_OUTER_BOUND ( 'NONE', #192, .T. ) ;
#541 = CARTESIAN_POINT ( 'NONE',  ( 0.000000000000000000, 12.00000000000000000, 0.000000000000000000 ) ) ;
#542 = EDGE_LOOP ( 'NONE', ( #810, #74 ) ) ;
#543 = ORIENTED_EDGE ( 'NONE', *, *, #705, .T. ) ;
#544 = AXIS2_PLACEMENT_3D ( 'NONE', #634, #36, #492 ) ;
#545 = CIRCLE ( 'NONE', #737, 9.750000000000000000 ) ;
#546 = DIRECTION ( 'NONE',  ( 0.000000000000000000, 0.000000000000000000, 1.000000000000000000 ) ) ;
#547 = DIRECTION ( 'NONE',  ( 0.000000000000000000, 0.000000000000000000, 1.000000000000000000 ) ) ;
#548 = ORIENTED_EDGE ( 'NONE', *, *, #386, .F. ) ;
#549 = CIRCLE ( 'NONE', #586, 10.00000000000000000 ) ;
#550 = CARTESIAN_POINT ( 'NONE',  ( 9.184850993605147944E-16, 0.5000000000000000000, 7.500000000000000000 ) ) ;
#551 = ADVANCED_FACE ( 'NONE', ( #370 ), #628, .T. ) ;
#552 = FACE_OUTER_BOUND ( 'NONE', #127, .T. ) ;
#553 = EDGE_LOOP ( 'NONE', ( #272, #413 ) ) ;
#554 = ORIENTED_EDGE ( 'NONE', *, *, #307, .F. ) ;
#555 = CARTESIAN_POINT ( 'NONE',  ( 0.000000000000000000, 0.000000000000000000, 0.000000000000000000 ) ) ;
#556 = CARTESIAN_POINT ( 'NONE',  ( 1.102182119232617714E-15, 11.50000000000000000, -9.000000000000000000 ) ) ;
#557 = CARTESIAN_POINT ( 'NONE',  ( 0.000000000000000000, 11.75000000000000000, 0.000000000000000000 ) ) ;
#558 = VECTOR ( 'NONE', #643, 1000.000000000000000 ) ;
#559 = TOROIDAL_SURFACE ( 'NONE', #766, 9.250000000000000000, 0.2500000000000000000 ) ;
#560 = CARTESIAN_POINT ( 'NONE',  ( 8.572527594031473190E-16, 11.75000000000000000, 7.000000000000000000 ) ) ;
#561 = ORIENTED_EDGE ( 'NONE', *, *, #852, .F. ) ;
#562 = STYLED_ITEM ( 'NONE', ( #787 ), #579 ) ;
#563 = AXIS2_PLACEMENT_3D ( 'NONE', #193, #871, #531 ) ;
#564 = CARTESIAN_POINT ( 'NONE',  ( 0.000000000000000000, 0.5000000000000000000, 0.000000000000000000 ) ) ;
#565 = DIRECTION ( 'NONE',  ( 1.000000000000000000, -0.000000000000000000, 1.224646799147353207E-16 ) ) ;
#566 = ADVANCED_FACE ( 'NONE', ( #818 ), #823, .F. ) ;
#567 = APPLICATION_PROTOCOL_DEFINITION ( 'draft international standard', 'automotive_design', 1998, #569 ) ;
#568 = DIRECTION ( 'NONE',  ( 0.000000000000000000, 0.000000000000000000, 1.000000000000000000 ) ) ;
#569 = APPLICATION_CONTEXT ( 'automotive_design' ) ;
#570 = DIRECTION ( 'NONE',  ( 0.000000000000000000, 1.000000000000000000, 0.000000000000000000 ) ) ;
#571 = CIRCLE ( 'NONE', #582, 9.000000000000000000 ) ;
#572 = FACE_OUTER_BOUND ( 'NONE', #408, .T. ) ;
#573 = CIRCLE ( 'NONE', #520, 7.250000000000000000 ) ;
#574 = EDGE_CURVE ( 'NONE', #512, #759, #452, .T. ) ;
#575 = CARTESIAN_POINT ( 'NONE',  ( 0.000000000000000000, 0.5000000000000000000, 0.000000000000000000 ) ) ;
#576 = FACE_OUTER_BOUND ( 'NONE', #605, .T. ) ;
#577 = CARTESIAN_POINT ( 'NONE',  ( 0.000000000000000000, 0.5000000000000000000, 0.000000000000000000 ) ) ;
#578 = ORIENTED_EDGE ( 'NONE', *, *, #730, .T. ) ;
#579 = MANIFOLD_SOLID_BREP ( 'Redondeo1', #93 ) ;
#580 = CARTESIAN_POINT ( 'NONE',  ( 0.000000000000000000, 11.75000000000000000, 0.000000000000000000 ) ) ;
#581 = DIRECTION ( 'NONE',  ( -0.000000000000000000, -1.000000000000000000, -0.000000000000000000 ) ) ;
#582 = AXIS2_PLACEMENT_3D ( 'NONE', #816, #265, #536 ) ;
#583 = ORIENTED_EDGE ( 'NONE', *, *, #81, .T. ) ;
#584 = ADVANCED_FACE ( 'NONE', ( #576 ), #23, .T. ) ;
#585 = CARTESIAN_POINT ( 'NONE',  ( 0.000000000000000000, 12.00000000000000000, 0.000000000000000000 ) ) ;
#586 = AXIS2_PLACEMENT_3D ( 'NONE', #405, #263, #665 ) ;
#587 = LINE ( 'NONE', #645, #434 ) ;
#588 = CIRCLE ( 'NONE', #158, 7.500000000000000000 ) ;
#589 = VERTEX_POINT ( 'NONE', #443 ) ;
#590 = DIRECTION ( 'NONE',  ( 0.000000000000000000, 0.000000000000000000, 1.000000000000000000 ) ) ;
#591 = FACE_OUTER_BOUND ( 'NONE', #661, .T. ) ;
#592 = EDGE_LOOP ( 'NONE', ( #625, #217, #583, #123 ) ) ;
#593 = EDGE_LOOP ( 'NONE', ( #235, #130, #286, #373 ) ) ;
#594 = TOROIDAL_SURFACE ( 'NONE', #490, 9.750000000000000000, 0.2500000000000000000 ) ;
#595 = FACE_OUTER_BOUND ( 'NONE', #167, .T. ) ;
#596 = ADVANCED_FACE ( 'NONE', ( #257 ), #812, .T. ) ;
#597 = VERTEX_POINT ( 'NONE', #248 ) ;
#598 = DIRECTION ( 'NONE',  ( 0.000000000000000000, 0.000000000000000000, 1.000000000000000000 ) ) ;
#599 = EDGE_CURVE ( 'NONE', #11, #861, #650, .T. ) ;
#600 = FACE_OUTER_BOUND ( 'NONE', #305, .T. ) ;
#601 = EDGE_LOOP ( 'NONE', ( #147, #851, #493, #468 ) ) ;
#602 = DIRECTION ( 'NONE',  ( -0.000000000000000000, -1.000000000000000000, -0.000000000000000000 ) ) ;
#603 = CARTESIAN_POINT ( 'NONE',  ( 0.000000000000000000, 12.00000000000000000, 0.000000000000000000 ) ) ;
#604 = VERTEX_POINT ( 'NONE', #186 ) ;
#605 = EDGE_LOOP ( 'NONE', ( #668, #744, #211, #629 ) ) ;
#606 = EDGE_CURVE ( 'NONE', #672, #299, #612, .T. ) ;
#607 = AXIS2_PLACEMENT_3D ( 'NONE', #116, #178, #518 ) ;
#608 = CIRCLE ( 'NONE', #694, 9.250000000000000000 ) ;
#609 = DIRECTION ( 'NONE',  ( 0.000000000000000000, 0.000000000000000000, 1.000000000000000000 ) ) ;
#610 = DIRECTION ( 'NONE',  ( 0.000000000000000000, 0.000000000000000000, 1.000000000000000000 ) ) ;
#611 = ORIENTED_EDGE ( 'NONE', *, *, #451, .F. ) ;
#612 = CIRCLE ( 'NONE', #242, 0.2500000000000002220 ) ;
#613 = EDGE_CURVE ( 'NONE', #861, #759, #725, .T. ) ;
#614 = CARTESIAN_POINT ( 'NONE',  ( 0.000000000000000000, 12.00000000000000000, 0.000000000000000000 ) ) ;
#615 = VERTEX_POINT ( 'NONE', #177 ) ;
#616 = EDGE_LOOP ( 'NONE', ( #358, #398, #548, #144 ) ) ;
#617 = DIRECTION ( 'NONE',  ( 1.000000000000000000, 0.000000000000000000, 0.000000000000000000 ) ) ;
#618 = SURFACE_STYLE_FILL_AREA ( #686 ) ;
#619 = CARTESIAN_POINT ( 'NONE',  ( 0.000000000000000000, 0.2500000000000000000, 0.000000000000000000 ) ) ;
#620 = LINE ( 'NONE', #424, #86 ) ;
#621 = AXIS2_PLACEMENT_3D ( 'NONE', #421, #136, #339 ) ;
#622 = AXIS2_PLACEMENT_3D ( 'NONE', #298, #13, #700 ) ;
#623 = FACE_OUTER_BOUND ( 'NONE', #400, .T. ) ;
#624 = ADVANCED_FACE ( 'NONE', ( #712 ), #683, .T. ) ;
#625 = ORIENTED_EDGE ( 'NONE', *, *, #52, .T. ) ;
#626 =( GEOMETRIC_REPRESENTATION_CONTEXT ( 3 ) GLOBAL_UNCERTAINTY_ASSIGNED_CONTEXT ( ( #657 ) ) GLOBAL_UNIT_ASSIGNED_CONTEXT ( ( #316, #848, #859 ) ) REPRESENTATION_CONTEXT ( 'NONE', 'WORKASPACE' ) );
#627 = CARTESIAN_POINT ( 'NONE',  ( 0.000000000000000000, 0.000000000000000000, 0.000000000000000000 ) ) ;
#628 = CYLINDRICAL_SURFACE ( 'NONE', #66, 7.500000000000000000 ) ;
#629 = ORIENTED_EDGE ( 'NONE', *, *, #344, .T. ) ;
#630 = DIRECTION ( 'NONE',  ( 1.224646799147349509E-16, 0.000000000000000000, -1.000000000000000000 ) ) ;
#631 = ORIENTED_EDGE ( 'NONE', *, *, #12, .F. ) ;
#632 = ADVANCED_FACE ( 'NONE', ( #48, #246 ), #641, .T. ) ;
#633 = CYLINDRICAL_SURFACE ( 'NONE', #112, 10.00000000000000000 ) ;
#634 = CARTESIAN_POINT ( 'NONE',  ( 0.000000000000000000, 0.2500000000000002220, 0.000000000000000000 ) ) ;
#635 = AXIS2_PLACEMENT_3D ( 'NONE', #387, #187, #323 ) ;
#636 = ORIENTED_EDGE ( 'NONE', *, *, #498, .T. ) ;
#637 = AXIS2_PLACEMENT_3D ( 'NONE', #218, #82, #368 ) ;
#638 = DIRECTION ( 'NONE',  ( 0.000000000000000000, 1.000000000000000000, 0.000000000000000000 ) ) ;
#639 = ORIENTED_EDGE ( 'NONE', *, *, #372, .F. ) ;
#640 = DIRECTION ( 'NONE',  ( 0.000000000000000000, 1.000000000000000000, 0.000000000000000000 ) ) ;
#641 = PLANE ( 'NONE',  #83 ) ;
#642 = EDGE_CURVE ( 'NONE', #539, #679, #104, .T. ) ;
#643 = DIRECTION ( 'NONE',  ( -0.000000000000000000, -1.000000000000000000, -0.000000000000000000 ) ) ;
#644 = VERTEX_POINT ( 'NONE', #523 ) ;
#645 = CARTESIAN_POINT ( 'NONE',  ( 1.102182119232617714E-15, 0.5000000000000000000, 9.000000000000000000 ) ) ;
#646 = EDGE_CURVE ( 'NONE', #525, #414, #382, .T. ) ;
#647 = AXIS2_PLACEMENT_3D ( 'NONE', #750, #419, #59 ) ;
#648 = VERTEX_POINT ( 'NONE', #720 ) ;
#649 = PRODUCT_DEFINITION_CONTEXT ( 'detailed design', #267, 'design' ) ;
#650 = CIRCLE ( 'NONE', #505, 0.2500000000000002220 ) ;
#651 = DIRECTION ( 'NONE',  ( 0.000000000000000000, 1.000000000000000000, 0.000000000000000000 ) ) ;
#652 = DIRECTION ( 'NONE',  ( 1.000000000000000000, -0.000000000000000000, 1.224646799147353207E-16 ) ) ;
#653 = EDGE_LOOP ( 'NONE', ( #803, #250, #384, #639 ) ) ;
#654 = CARTESIAN_POINT ( 'NONE',  ( 0.000000000000000000, 11.75000000000000000, -7.000000000000000000 ) ) ;
#655 = DIRECTION ( 'NONE',  ( -0.000000000000000000, -1.000000000000000000, -0.000000000000000000 ) ) ;
#656 = ORIENTED_EDGE ( 'NONE', *, *, #863, .T. ) ;
#657 = UNCERTAINTY_MEASURE_WITH_UNIT (LENGTH_MEASURE( 1.000000000000000082E-05 ), #316, 'distance_accuracy_value', 'NONE');
#658 = ADVANCED_FACE ( 'NONE', ( #327 ), #371, .T. ) ;
#659 = CARTESIAN_POINT ( 'NONE',  ( 9.184850993605147944E-16, 0.2500000000000000000, 7.500000000000000000 ) ) ;
#660 = DIRECTION ( 'NONE',  ( 0.000000000000000000, -1.000000000000000000, 0.000000000000000000 ) ) ;
#661 = EDGE_LOOP ( 'NONE', ( #867, #103, #780, #379 ) ) ;
#662 = AXIS2_PLACEMENT_3D ( 'NONE', #845, #791, #514 ) ;
#663 = TOROIDAL_SURFACE ( 'NONE', #155, 7.250000000000000000, 0.2500000000000000000 ) ;
#664 = ORIENTED_EDGE ( 'NONE', *, *, #756, .T. ) ;
#665 = DIRECTION ( 'NONE',  ( 0.000000000000000000, 0.000000000000000000, 1.000000000000000000 ) ) ;
#666 = ADVANCED_FACE ( 'NONE', ( #572 ), #633, .T. ) ;
#667 = LINE ( 'NONE', #350, #226 ) ;
#668 = ORIENTED_EDGE ( 'NONE', *, *, #599, .F. ) ;
#669 = ORIENTED_EDGE ( 'NONE', *, *, #52, .F. ) ;
#670 = DIRECTION ( 'NONE',  ( 0.000000000000000000, 0.000000000000000000, 1.000000000000000000 ) ) ;
#671 = CARTESIAN_POINT ( 'NONE',  ( 0.000000000000000000, 0.000000000000000000, 0.000000000000000000 ) ) ;
#672 = VERTEX_POINT ( 'NONE', #464 ) ;
#673 = ORIENTED_EDGE ( 'NONE', *, *, #422, .F. ) ;
#674 = CARTESIAN_POINT ( 'NONE',  ( 0.000000000000000000, 11.75000000000000000, 7.249999999999999112 ) ) ;
#675 = DIRECTION ( 'NONE',  ( 0.000000000000000000, 0.000000000000000000, 1.000000000000000000 ) ) ;
#676 = EDGE_CURVE ( 'NONE', #329, #521, #229, .T. ) ;
#677 = CARTESIAN_POINT ( 'NONE',  ( 9.184850993605147944E-16, 11.75000000000000000, -7.500000000000000000 ) ) ;
#678 = EDGE_CURVE ( 'NONE', #517, #814, #206, .T. ) ;
#679 = VERTEX_POINT ( 'NONE', #726 ) ;
#680 = AXIS2_PLACEMENT_3D ( 'NONE', #151, #416, #675 ) ;
#681 = DIRECTION ( 'NONE',  ( -0.000000000000000000, 1.000000000000000000, -0.000000000000000000 ) ) ;
#682 = CARTESIAN_POINT ( 'NONE',  ( 0.000000000000000000, 0.000000000000000000, 9.250000000000000000 ) ) ;
#683 = TOROIDAL_SURFACE ( 'NONE', #466, 7.249999999999999112, 0.2500000000000000000 ) ;
#684 = TOROIDAL_SURFACE ( 'NONE', #742, 9.250000000000000000, 0.2500000000000000000 ) ;
#685 = EDGE_LOOP ( 'NONE', ( #388, #554 ) ) ;
#686 = FILL_AREA_STYLE ('',( #437 ) ) ;
#687 = PLANE ( 'NONE',  #334 ) ;
#688 = ORIENTED_EDGE ( 'NONE', *, *, #441, .F. ) ;
#689 = ADVANCED_FACE ( 'NONE', ( #595 ), #61, .F. ) ;
#690 = DIRECTION ( 'NONE',  ( 0.000000000000000000, 0.000000000000000000, 1.000000000000000000 ) ) ;
#691 = VERTEX_POINT ( 'NONE', #478 ) ;
#692 = DIRECTION ( 'NONE',  ( -0.000000000000000000, -1.000000000000000000, -0.000000000000000000 ) ) ;
#693 = AXIS2_PLACEMENT_3D ( 'NONE', #433, #701, #28 ) ;
#694 = AXIS2_PLACEMENT_3D ( 'NONE', #671, #797, #347 ) ;
#695 = DIRECTION ( 'NONE',  ( 0.000000000000000000, 0.000000000000000000, -1.000000000000000000 ) ) ;
#696 = ADVANCED_FACE ( 'NONE', ( #540 ), #684, .T. ) ;
#697 = DIRECTION ( 'NONE',  ( 0.000000000000000000, 1.000000000000000000, 0.000000000000000000 ) ) ;
#698 = ORIENTED_EDGE ( 'NONE', *, *, #148, .T. ) ;
#699 = AXIS2_PLACEMENT_3D ( 'NONE', #212, #346, #279 ) ;
#700 = DIRECTION ( 'NONE',  ( 0.000000000000000000, 0.000000000000000000, 1.000000000000000000 ) ) ;
#701 = DIRECTION ( 'NONE',  ( 0.000000000000000000, 1.000000000000000000, 0.000000000000000000 ) ) ;
#702 = EDGE_CURVE ( 'NONE', #71, #875, #481, .T. ) ;
#703 = VERTEX_POINT ( 'NONE', #659 ) ;
#704 = DIRECTION ( 'NONE',  ( 0.000000000000000000, -0.000000000000000000, 1.000000000000000000 ) ) ;
#705 = EDGE_CURVE ( 'NONE', #517, #71, #369, .T. ) ;
#706 = AXIS2_PLACEMENT_3D ( 'NONE', #839, #565, #98 ) ;
#707 = CARTESIAN_POINT ( 'NONE',  ( 8.878689293818310074E-16, 11.75000000000000000, -7.249999999999999112 ) ) ;
#708 = CIRCLE ( 'NONE', #837, 0.2500000000000002220 ) ;
#709 = DIRECTION ( 'NONE',  ( -0.000000000000000000, -1.000000000000000000, -0.000000000000000000 ) ) ;
#710 = ORIENTED_EDGE ( 'NONE', *, *, #832, .T. ) ;
#711 = DIRECTION ( 'NONE',  ( -0.000000000000000000, -1.000000000000000000, -0.000000000000000000 ) ) ;
#712 = FACE_OUTER_BOUND ( 'NONE', #173, .T. ) ;
#713 = CARTESIAN_POINT ( 'NONE',  ( 0.000000000000000000, 0.2500000000000002220, 0.000000000000000000 ) ) ;
#714 = EDGE_LOOP ( 'NONE', ( #476, #733, #149, #281 ) ) ;
#715 = ADVANCED_BREP_SHAPE_REPRESENTATION ( 'rodamiento 14 X 20 X 12 HK1412', ( #579, #269 ), #439 ) ;
#716 = DIRECTION ( 'NONE',  ( 0.000000000000000000, 1.000000000000000000, 0.000000000000000000 ) ) ;
#717 = EDGE_CURVE ( 'NONE', #840, #302, #341, .T. ) ;
#718 = DIRECTION ( 'NONE',  ( -0.000000000000000000, -1.000000000000000000, -0.000000000000000000 ) ) ;
#719 = VERTEX_POINT ( 'NONE', #550 ) ;
#720 = CARTESIAN_POINT ( 'NONE',  ( 0.000000000000000000, 0.5000000000000000000, -9.000000000000000000 ) ) ;
#721 = CARTESIAN_POINT ( 'NONE',  ( 1.132798289211301698E-15, 0.2500000000000000000, -9.250000000000000000 ) ) ;
#722 = TOROIDAL_SURFACE ( 'NONE', #544, 7.250000000000000000, 0.2500000000000000000 ) ;
#723 = CIRCLE ( 'NONE', #351, 9.000000000000000000 ) ;
#724 = ORIENTED_EDGE ( 'NONE', *, *, #676, .F. ) ;
#725 = CIRCLE ( 'NONE', #354, 0.2500000000000002220 ) ;
#726 = CARTESIAN_POINT ( 'NONE',  ( 1.102182119232617714E-15, 11.75000000000000000, -9.000000000000000000 ) ) ;
#727 = AXIS2_PLACEMENT_3D ( 'NONE', #411, #67, #800 ) ;
#728 = DIRECTION ( 'NONE',  ( 0.000000000000000000, 0.000000000000000000, 1.000000000000000000 ) ) ;
#729 = ORIENTED_EDGE ( 'NONE', *, *, #386, .T. ) ;
#730 = EDGE_CURVE ( 'NONE', #814, #785, #549, .T. ) ;
#731 = LINE ( 'NONE', #128, #782 ) ;
#732 = DIRECTION ( 'NONE',  ( 0.000000000000000000, 0.000000000000000000, 1.000000000000000000 ) ) ;
#733 = ORIENTED_EDGE ( 'NONE', *, *, #6, .T. ) ;
#734 = DIRECTION ( 'NONE',  ( 0.000000000000000000, 0.000000000000000000, 1.000000000000000000 ) ) ;
#735 = CARTESIAN_POINT ( 'NONE',  ( 0.000000000000000000, 0.000000000000000000, 9.750000000000000000 ) ) ;
#736 = AXIS2_PLACEMENT_3D ( 'NONE', #220, #70, #343 ) ;
#737 = AXIS2_PLACEMENT_3D ( 'NONE', #50, #527, #856 ) ;
#738 = ORIENTED_EDGE ( 'NONE', *, *, #337, .T. ) ;
#739 = FACE_OUTER_BOUND ( 'NONE', #601, .T. ) ;
#740 = EDGE_CURVE ( 'NONE', #525, #118, #770, .T. ) ;
#741 = DIRECTION ( 'NONE',  ( 0.000000000000000000, 0.000000000000000000, -1.000000000000000000 ) ) ;
#742 = AXIS2_PLACEMENT_3D ( 'NONE', #336, #342, #268 ) ;
#743 = EDGE_LOOP ( 'NONE', ( #487, #444, #60, #656 ) ) ;
#744 = ORIENTED_EDGE ( 'NONE', *, *, #283, .F. ) ;
#745 = DIRECTION ( 'NONE',  ( 0.000000000000000000, 1.000000000000000000, 0.000000000000000000 ) ) ;
#746 = DIRECTION ( 'NONE',  ( 0.000000000000000000, 1.000000000000000000, 0.000000000000000000 ) ) ;
#747 = ADVANCED_FACE ( 'NONE', ( #739 ), #397, .T. ) ;
#748 = DIRECTION ( 'NONE',  ( 1.000000000000000000, -0.000000000000000000, 1.224646799147353207E-16 ) ) ;
#749 = CARTESIAN_POINT ( 'NONE',  ( 0.000000000000000000, 11.50000000000000000, 0.000000000000000000 ) ) ;
#750 = CARTESIAN_POINT ( 'NONE',  ( 0.000000000000000000, 11.50000000000000000, 0.000000000000000000 ) ) ;
#751 = ORIENTED_EDGE ( 'NONE', *, *, #836, .T. ) ;
#752 = CIRCLE ( 'NONE', #335, 0.2500000000000002220 ) ;
#753 = DIRECTION ( 'NONE',  ( -1.000000000000000000, 0.000000000000000000, 0.000000000000000000 ) ) ;
#754 = DIRECTION ( 'NONE',  ( -0.000000000000000000, -1.000000000000000000, -0.000000000000000000 ) ) ;
#755 = ORIENTED_EDGE ( 'NONE', *, *, #283, .T. ) ;
#756 = EDGE_CURVE ( 'NONE', #275, #875, #9, .T. ) ;
#757 = CARTESIAN_POINT ( 'NONE',  ( 8.878689293818310074E-16, 12.00000000000000000, -7.250000000000000000 ) ) ;
#758 = DIRECTION ( 'NONE',  ( -0.000000000000000000, -1.000000000000000000, -0.000000000000000000 ) ) ;
#759 = VERTEX_POINT ( 'NONE', #654 ) ;
#760 = DIRECTION ( 'NONE',  ( 0.000000000000000000, 1.000000000000000000, 0.000000000000000000 ) ) ;
#761 = DIRECTION ( 'NONE',  ( 0.000000000000000000, -1.000000000000000000, 0.000000000000000000 ) ) ;
#762 = FACE_OUTER_BOUND ( 'NONE', #462, .T. ) ;
#763 = ORIENTED_EDGE ( 'NONE', *, *, #781, .F. ) ;
#764 = DIRECTION ( 'NONE',  ( 0.000000000000000000, 0.000000000000000000, 1.000000000000000000 ) ) ;
#765 = CIRCLE ( 'NONE', #224, 0.2500000000000002220 ) ;
#766 = AXIS2_PLACEMENT_3D ( 'NONE', #208, #73, #732 ) ;
#767 = DIRECTION ( 'NONE',  ( 0.000000000000000000, 0.000000000000000000, -1.000000000000000000 ) ) ;
#768 = EDGE_CURVE ( 'NONE', #785, #814, #506, .T. ) ;
#769 = ORIENTED_EDGE ( 'NONE', *, *, #756, .F. ) ;
#770 = CIRCLE ( 'NONE', #841, 7.000000000000000000 ) ;
#771 = DIRECTION ( 'NONE',  ( -0.000000000000000000, -1.000000000000000000, -0.000000000000000000 ) ) ;
#772 = DIRECTION ( 'NONE',  ( 1.000000000000000000, -0.000000000000000000, 1.224646799147353207E-16 ) ) ;
#773 = ADVANCED_FACE ( 'NONE', ( #811 ), #355, .T. ) ;
#774 = EDGE_LOOP ( 'NONE', ( #254, #3, #111, #769 ) ) ;
#775 = DIRECTION ( 'NONE',  ( 0.000000000000000000, 0.000000000000000000, 1.000000000000000000 ) ) ;
#776 = CARTESIAN_POINT ( 'NONE',  ( 0.000000000000000000, 11.75000000000000000, 0.000000000000000000 ) ) ;
#777 = ORIENTED_EDGE ( 'NONE', *, *, #214, .T. ) ;
#778 = AXIS2_PLACEMENT_3D ( 'NONE', #182, #390, #728 ) ;
#779 = CIRCLE ( 'NONE', #622, 7.250000000000000000 ) ;
#780 = ORIENTED_EDGE ( 'NONE', *, *, #717, .T. ) ;
#781 = EDGE_CURVE ( 'NONE', #615, #29, #24, .T. ) ;
#782 = VECTOR ( 'NONE', #132, 1000.000000000000000 ) ;
#783 = DIRECTION ( 'NONE',  ( 1.000000000000000000, -0.000000000000000000, 1.224646799147353207E-16 ) ) ;
#784 = PRODUCT_DEFINITION_FORMATION_WITH_SPECIFIED_SOURCE ( 'ANY', '', #168, .NOT_KNOWN. ) ;
#785 = VERTEX_POINT ( 'NONE', #473 ) ;
#786 = UNCERTAINTY_MEASURE_WITH_UNIT (LENGTH_MEASURE( 1.000000000000000082E-05 ), #359, 'distance_accuracy_value', 'NONE');
#787 = PRESENTATION_STYLE_ASSIGNMENT (( #40 ) ) ;
#788 = FACE_BOUND ( 'NONE', #794, .T. ) ;
#789 = ORIENTED_EDGE ( 'NONE', *, *, #858, .F. ) ;
#790 = DIRECTION ( 'NONE',  ( 1.000000000000000000, -0.000000000000000000, 1.224646799147353207E-16 ) ) ;
#791 = DIRECTION ( 'NONE',  ( -0.000000000000000000, -1.000000000000000000, -0.000000000000000000 ) ) ;
#792 = EDGE_CURVE ( 'NONE', #759, #512, #824, .T. ) ;
#793 = VECTOR ( 'NONE', #356, 1000.000000000000000 ) ;
#794 = EDGE_LOOP ( 'NONE', ( #669, #245 ) ) ;
#795 = PRESENTATION_LAYER_ASSIGNMENT (  '', '', ( #562 ) ) ;
#796 = CARTESIAN_POINT ( 'NONE',  ( 0.000000000000000000, 12.00000000000000000, -10.00000000000000000 ) ) ;
#797 = DIRECTION ( 'NONE',  ( 0.000000000000000000, 1.000000000000000000, 0.000000000000000000 ) ) ;
#798 = EDGE_CURVE ( 'NONE', #512, #525, #731, .T. ) ;
#799 = ORIENTED_EDGE ( 'NONE', *, *, #456, .F. ) ;
#800 = DIRECTION ( 'NONE',  ( 0.000000000000000000, 0.000000000000000000, 1.000000000000000000 ) ) ;
#801 = DIRECTION ( 'NONE',  ( -0.000000000000000000, -1.000000000000000000, -0.000000000000000000 ) ) ;
#802 = CARTESIAN_POINT ( 'NONE',  ( 0.000000000000000000, 11.75000000000000000, 0.000000000000000000 ) ) ;
#803 = ORIENTED_EDGE ( 'NONE', *, *, #538, .F. ) ;
#804 = ADVANCED_FACE ( 'NONE', ( #290 ), #157, .T. ) ;
#805 = DIRECTION ( 'NONE',  ( 0.000000000000000000, 0.000000000000000000, -1.000000000000000000 ) ) ;
#806 = DIRECTION ( 'NONE',  ( 0.000000000000000000, 0.000000000000000000, 1.000000000000000000 ) ) ;
#807 = ORIENTED_EDGE ( 'NONE', *, *, #422, .T. ) ;
#808 = AXIS2_PLACEMENT_3D ( 'NONE', #619, #697, #362 ) ;
#809 = VECTOR ( 'NONE', #503, 1000.000000000000000 ) ;
#810 = ORIENTED_EDGE ( 'NONE', *, *, #25, .T. ) ;
#811 = FACE_OUTER_BOUND ( 'NONE', #714, .T. ) ;
#812 = TOROIDAL_SURFACE ( 'NONE', #436, 9.750000000000000000, 0.2500000000000000000 ) ;
#813 = CARTESIAN_POINT ( 'NONE',  ( 0.000000000000000000, 0.000000000000000000, 0.000000000000000000 ) ) ;
#814 = VERTEX_POINT ( 'NONE', #427 ) ;
#815 = DIRECTION ( 'NONE',  ( 0.000000000000000000, 0.000000000000000000, 1.000000000000000000 ) ) ;
#816 = CARTESIAN_POINT ( 'NONE',  ( 0.000000000000000000, 11.50000000000000000, 0.000000000000000000 ) ) ;
#817 =( NAMED_UNIT ( * ) PLANE_ANGLE_UNIT ( ) SI_UNIT ( $, .RADIAN. ) );
#818 = FACE_OUTER_BOUND ( 'NONE', #14, .T. ) ;
#819 = DIRECTION ( 'NONE',  ( 0.000000000000000000, 0.000000000000000000, -1.000000000000000000 ) ) ;
#820 = ADVANCED_FACE ( 'NONE', ( #485 ), #68, .T. ) ;
#821 = AXIS2_PLACEMENT_3D ( 'NONE', #500, #772, #102 ) ;
#822 = AXIS2_PLACEMENT_3D ( 'NONE', #241, #365, #630 ) ;
#823 = CYLINDRICAL_SURFACE ( 'NONE', #172, 9.000000000000000000 ) ;
#824 = CIRCLE ( 'NONE', #533, 7.000000000000000000 ) ;
#825 = ADVANCED_FACE ( 'NONE', ( #450 ), #315, .F. ) ;
#826 = EDGE_LOOP ( 'NONE', ( #353, #259, #509, #480 ) ) ;
#827 = CARTESIAN_POINT ( 'NONE',  ( 0.000000000000000000, 0.2500000000000000000, 0.000000000000000000 ) ) ;
#828 = CARTESIAN_POINT ( 'NONE',  ( 0.000000000000000000, 11.50000000000000000, 0.000000000000000000 ) ) ;
#829 = FACE_BOUND ( 'NONE', #26, .T. ) ;
#830 = ORIENTED_EDGE ( 'NONE', *, *, #432, .F. ) ;
#831 = CARTESIAN_POINT ( 'NONE',  ( 0.000000000000000000, 11.75000000000000000, 9.250000000000000000 ) ) ;
#832 = EDGE_CURVE ( 'NONE', #137, #648, #519, .T. ) ;
#833 = CARTESIAN_POINT ( 'NONE',  ( 8.572527594031473190E-16, 0.2500000000000002220, 7.000000000000000000 ) ) ;
#834 = ORIENTED_EDGE ( 'NONE', *, *, #599, .T. ) ;
#835 = CIRCLE ( 'NONE', #207, 0.2500000000000002220 ) ;
#836 = EDGE_CURVE ( 'NONE', #11, #329, #383, .T. ) ;
#837 = AXIS2_PLACEMENT_3D ( 'NONE', #361, #507, #91 ) ;
#838 = CARTESIAN_POINT ( 'NONE',  ( 0.000000000000000000, 12.00000000000000000, 7.250000000000000000 ) ) ;
#839 = CARTESIAN_POINT ( 'NONE',  ( 1.194030629168669469E-15, 11.75000000000000000, -9.750000000000000000 ) ) ;
#840 = VERTEX_POINT ( 'NONE', #494 ) ;
#841 = AXIS2_PLACEMENT_3D ( 'NONE', #331, #602, #670 ) ;
#842 = CARTESIAN_POINT ( 'NONE',  ( 0.000000000000000000, 0.2500000000000002220, 0.000000000000000000 ) ) ;
#843 = DIRECTION ( 'NONE',  ( 1.224646799147349509E-16, 0.000000000000000000, -1.000000000000000000 ) ) ;
#844 = ORIENTED_EDGE ( 'NONE', *, *, #117, .T. ) ;
#845 = CARTESIAN_POINT ( 'NONE',  ( 0.000000000000000000, 0.000000000000000000, 0.000000000000000000 ) ) ;
#846 = EDGE_CURVE ( 'NONE', #672, #414, #573, .T. ) ;
#847 = ORIENTED_EDGE ( 'NONE', *, *, #81, .F. ) ;
#848 =( NAMED_UNIT ( * ) PLANE_ANGLE_UNIT ( ) SI_UNIT ( $, .RADIAN. ) );
#849 = AXIS2_PLACEMENT_3D ( 'NONE', #524, #655, #252 ) ;
#850 = FACE_OUTER_BOUND ( 'NONE', #417, .T. ) ;
#851 = ORIENTED_EDGE ( 'NONE', *, *, #25, .F. ) ;
#852 = EDGE_CURVE ( 'NONE', #589, #295, #53, .T. ) ;
#853 = AXIS2_PLACEMENT_3D ( 'NONE', #535, #76, #284 ) ;
#854 = AXIS2_PLACEMENT_3D ( 'NONE', #842, #120, #775 ) ;
#855 = DIRECTION ( 'NONE',  ( -1.000000000000000000, 0.000000000000000000, 0.000000000000000000 ) ) ;
#856 = DIRECTION ( 'NONE',  ( 0.000000000000000000, 0.000000000000000000, 1.000000000000000000 ) ) ;
#857 = ORIENTED_EDGE ( 'NONE', *, *, #511, .T. ) ;
#858 = EDGE_CURVE ( 'NONE', #589, #597, #469, .T. ) ;
#859 =( NAMED_UNIT ( * ) SI_UNIT ( $, .STERADIAN. ) SOLID_ANGLE_UNIT ( ) );
#860 = CYLINDRICAL_SURFACE ( 'NONE', #21, 9.000000000000000000 ) ;
#861 = VERTEX_POINT ( 'NONE', #757 ) ;
#862 = DIRECTION ( 'NONE',  ( 0.000000000000000000, 0.000000000000000000, 1.000000000000000000 ) ) ;
#863 = EDGE_CURVE ( 'NONE', #299, #703, #588, .T. ) ;
#864 = CIRCLE ( 'NONE', #662, 9.750000000000000000 ) ;
#865 = CARTESIAN_POINT ( 'NONE',  ( 0.000000000000000000, 1.084202172485504434E-16, 7.250000000000000000 ) ) ;
#866 = AXIS2_PLACEMENT_3D ( 'NONE', #313, #317, #191 ) ;
#867 = ORIENTED_EDGE ( 'NONE', *, *, #832, .F. ) ;
#868 = CARTESIAN_POINT ( 'NONE',  ( 0.000000000000000000, 11.75000000000000000, 9.000000000000000000 ) ) ;
#869 = PRODUCT_DEFINITION ( 'UNKNOWN', '', #784, #649 ) ;
#870 = ORIENTED_EDGE ( 'NONE', *, *, #798, .T. ) ;
#871 = DIRECTION ( 'NONE',  ( 0.000000000000000000, 1.000000000000000000, 0.000000000000000000 ) ) ;
#872 = CARTESIAN_POINT ( 'NONE',  ( 0.000000000000000000, 0.2500000000000000000, 7.249999999999999112 ) ) ;
#873 = CYLINDRICAL_SURFACE ( 'NONE', #262, 7.000000000000000000 ) ;
#874 = EDGE_CURVE ( 'NONE', #644, #299, #620, .T. ) ;
#875 = VERTEX_POINT ( 'NONE', #236 ) ;
ENDSEC;
END-ISO-10303-21;
