ISO-10303-21;
HEADER;
FILE_DESCRIPTION (( 'STEP AP214' ),
    '1' );
FILE_NAME ('Rolinera 3 x 7 x 2.STEP',
    '2026-07-08T20:26:52',
    ( '' ),
    ( '' ),
    'SwSTEP 2.0',
    'SolidWorks 2026',
    '' );
FILE_SCHEMA (( 'AUTOMOTIVE_DESIGN' ));
ENDSEC;

DATA;
#1 = EDGE_CURVE ( 'NONE', #83, #404, #379, .T. ) ;
#2 = CARTESIAN_POINT ( 'NONE',  ( 1.836970198721030181E-16, 1.774999999999999911, 1.500000000000000222 ) ) ;
#3 = ORIENTED_EDGE ( 'NONE', *, *, #645, .T. ) ;
#4 = PRESENTATION_STYLE_ASSIGNMENT (( #617 ) ) ;
#5 = VECTOR ( 'NONE', #509, 1000.000000000000000 ) ;
#6 = AXIS2_PLACEMENT_3D ( 'NONE', #41, #301, #250 ) ;
#7 = DIRECTION ( 'NONE',  ( 0.000000000000000000, 0.000000000000000000, -1.000000000000000000 ) ) ;
#8 = EDGE_LOOP ( 'NONE', ( #363, #127, #48, #384 ) ) ;
#9 =( NAMED_UNIT ( * ) SI_UNIT ( $, .STERADIAN. ) SOLID_ANGLE_UNIT ( ) );
#10 = ORIENTED_EDGE ( 'NONE', *, *, #222, .T. ) ;
#11 = FACE_OUTER_BOUND ( 'NONE', #406, .T. ) ;
#12 = CARTESIAN_POINT ( 'NONE',  ( 4.225031457058368824E-16, 0.000000000000000000, -3.400000000000000799 ) ) ;
#13 = EDGE_CURVE ( 'NONE', #25, #594, #30, .T. ) ;
#14 = CARTESIAN_POINT ( 'NONE',  ( 0.000000000000000000, 0.000000000000000000, 0.000000000000000000 ) ) ;
#15 = VECTOR ( 'NONE', #224, 1000.000000000000000 ) ;
#16 = CARTESIAN_POINT ( 'NONE',  ( 4.286263797015737088E-16, 2.000000000000000000, 3.500000000000000444 ) ) ;
#17 = AXIS2_PLACEMENT_3D ( 'NONE', #525, #221, #620 ) ;
#18 = CARTESIAN_POINT ( 'NONE',  ( 0.000000000000000000, 1.875000000000000000, 0.000000000000000000 ) ) ;
#19 = FACE_OUTER_BOUND ( 'NONE', #71, .T. ) ;
#20 = ORIENTED_EDGE ( 'NONE', *, *, #376, .F. ) ;
#21 = EDGE_CURVE ( 'NONE', #35, #242, #84, .T. ) ;
#22 = AXIS2_PLACEMENT_3D ( 'NONE', #658, #651, #598 ) ;
#23 = DIRECTION ( 'NONE',  ( 0.000000000000000000, 0.000000000000000000, -1.000000000000000000 ) ) ;
#24 = DIRECTION ( 'NONE',  ( 0.000000000000000000, 0.000000000000000000, -1.000000000000000000 ) ) ;
#25 = VERTEX_POINT ( 'NONE', #360 ) ;
#26 = DIRECTION ( 'NONE',  ( -0.000000000000000000, -1.000000000000000000, -0.000000000000000000 ) ) ;
#27 = CARTESIAN_POINT ( 'NONE',  ( 3.061616997868383141E-16, 0.1000000000000000056, 2.500000000000000000 ) ) ;
#28 = ORIENTED_EDGE ( 'NONE', *, *, #376, .T. ) ;
#29 = VECTOR ( 'NONE', #34, 1000.000000000000000 ) ;
#30 = CIRCLE ( 'NONE', #119, 3.400000000000000799 ) ;
#31 = PRODUCT_DEFINITION_CONTEXT ( 'detailed design', #549, 'design' ) ;
#32 = CARTESIAN_POINT ( 'NONE',  ( 3.184081677783118191E-16, 0.000000000000000000, -2.600000000000000089 ) ) ;
#33 =( LENGTH_UNIT ( ) NAMED_UNIT ( * ) SI_UNIT ( .MILLI., .METRE. ) );
#34 = DIRECTION ( 'NONE',  ( -0.000000000000000000, -1.000000000000000000, -0.000000000000000000 ) ) ;
#35 = VERTEX_POINT ( 'NONE', #267 ) ;
#36 = PRODUCT_DEFINITION ( 'UNKNOWN', '', #491, #31 ) ;
#37 = CARTESIAN_POINT ( 'NONE',  ( 0.000000000000000000, 2.000000000000000000, 0.000000000000000000 ) ) ;
#38 = DIRECTION ( 'NONE',  ( 0.000000000000000000, 1.000000000000000000, 0.000000000000000000 ) ) ;
#39 = ORIENTED_EDGE ( 'NONE', *, *, #172, .F. ) ;
#40 = MECHANICAL_DESIGN_GEOMETRIC_PRESENTATION_REPRESENTATION (  '', ( #403 ), #415 ) ;
#41 = CARTESIAN_POINT ( 'NONE',  ( 0.000000000000000000, 2.000000000000000000, 0.000000000000000000 ) ) ;
#42 = VERTEX_POINT ( 'NONE', #478 ) ;
#43 = EDGE_CURVE ( 'NONE', #42, #129, #148, .T. ) ;
#44 = FACE_OUTER_BOUND ( 'NONE', #151, .T. ) ;
#45 = VERTEX_POINT ( 'NONE', #219 ) ;
#46 = DIRECTION ( 'NONE',  ( -0.000000000000000000, -1.000000000000000000, -0.000000000000000000 ) ) ;
#47 = CARTESIAN_POINT ( 'NONE',  ( 0.000000000000000000, 2.000000000000000000, 2.600000000000000089 ) ) ;
#48 = ORIENTED_EDGE ( 'NONE', *, *, #215, .T. ) ;
#49 = AXIS2_PLACEMENT_3D ( 'NONE', #320, #582, #378 ) ;
#50 = CARTESIAN_POINT ( 'NONE',  ( 0.000000000000000000, 2.000000000000000000, 0.000000000000000000 ) ) ;
#51 = TOROIDAL_SURFACE ( 'NONE', #429, 3.400000000000000799, 0.1000000000000000056 ) ;
#52 = ORIENTED_EDGE ( 'NONE', *, *, #244, .F. ) ;
#53 = EDGE_CURVE ( 'NONE', #83, #98, #62, .T. ) ;
#54 = ORIENTED_EDGE ( 'NONE', *, *, #87, .T. ) ;
#55 = DIRECTION ( 'NONE',  ( 0.000000000000000000, 0.000000000000000000, -1.000000000000000000 ) ) ;
#56 = CARTESIAN_POINT ( 'NONE',  ( 1.959434878635765477E-16, 1.875000000000000000, -1.600000000000000311 ) ) ;
#57 = ADVANCED_BREP_SHAPE_REPRESENTATION ( 'Rolinera 3 x 7 x 2', ( #460, #457 ), #186 ) ;
#58 = DIRECTION ( 'NONE',  ( 0.000000000000000000, 1.000000000000000000, 0.000000000000000000 ) ) ;
#59 = ORIENTED_EDGE ( 'NONE', *, *, #552, .T. ) ;
#60 = FILL_AREA_STYLE_COLOUR ( '', #203 ) ;
#61 = AXIS2_PLACEMENT_3D ( 'NONE', #117, #114, #107 ) ;
#62 = CIRCLE ( 'NONE', #486, 1.600000000000000311 ) ;
#63 = ORIENTED_EDGE ( 'NONE', *, *, #477, .T. ) ;
#64 = CIRCLE ( 'NONE', #564, 2.500000000000000000 ) ;
#65 = EDGE_LOOP ( 'NONE', ( #427, #668, #584, #105 ) ) ;
#66 = CARTESIAN_POINT ( 'NONE',  ( 0.000000000000000000, 1.875000000000000000, 2.500000000000000000 ) ) ;
#67 = ADVANCED_FACE ( 'NONE', ( #161 ), #51, .T. ) ;
#68 = DIRECTION ( 'NONE',  ( 0.000000000000000000, 0.000000000000000000, 1.000000000000000000 ) ) ;
#69 = CARTESIAN_POINT ( 'NONE',  ( 0.000000000000000000, 1.774999999999999911, 0.000000000000000000 ) ) ;
#70 = CARTESIAN_POINT ( 'NONE',  ( 0.000000000000000000, 0.1000000000000000056, 0.000000000000000000 ) ) ;
#71 = EDGE_LOOP ( 'NONE', ( #266, #396, #373, #578 ) ) ;
#72 = CARTESIAN_POINT ( 'NONE',  ( 0.000000000000000000, 1.875000000000000000, 0.000000000000000000 ) ) ;
#73 = DIRECTION ( 'NONE',  ( -1.000000000000000000, 0.000000000000000000, 0.000000000000000000 ) ) ;
#74 = VECTOR ( 'NONE', #210, 1000.000000000000000 ) ;
#75 = EDGE_CURVE ( 'NONE', #435, #42, #130, .T. ) ;
#76 = CIRCLE ( 'NONE', #452, 0.09999999999999982514 ) ;
#77 = CARTESIAN_POINT ( 'NONE',  ( 3.061616997868383141E-16, 1.875000000000000000, -2.500000000000000000 ) ) ;
#78 = CARTESIAN_POINT ( 'NONE',  ( 0.000000000000000000, 1.875000000000000000, 0.000000000000000000 ) ) ;
#79 = DIRECTION ( 'NONE',  ( 0.000000000000000000, 1.000000000000000000, 0.000000000000000000 ) ) ;
#80 = VERTEX_POINT ( 'NONE', #109 ) ;
#81 = DIRECTION ( 'NONE',  ( 0.000000000000000000, 1.000000000000000000, 0.000000000000000000 ) ) ;
#82 = PLANE ( 'NONE',  #656 ) ;
#83 = VERTEX_POINT ( 'NONE', #166 ) ;
#84 = CIRCLE ( 'NONE', #214, 2.500000000000000000 ) ;
#85 = DIRECTION ( 'NONE',  ( 1.224646799147353454E-16, 0.000000000000000000, -1.000000000000000000 ) ) ;
#86 = CARTESIAN_POINT ( 'NONE',  ( 0.000000000000000000, 1.899999999999999911, 2.600000000000000089 ) ) ;
#87 = EDGE_CURVE ( 'NONE', #242, #35, #204, .T. ) ;
#88 = ORIENTED_EDGE ( 'NONE', *, *, #307, .T. ) ;
#89 = AXIS2_PLACEMENT_3D ( 'NONE', #382, #81, #436 ) ;
#90 = DIRECTION ( 'NONE',  ( 0.000000000000000000, 0.000000000000000000, 1.000000000000000000 ) ) ;
#91 = ORIENTED_EDGE ( 'NONE', *, *, #364, .T. ) ;
#92 = CARTESIAN_POINT ( 'NONE',  ( 0.000000000000000000, 1.875000000000000000, 0.000000000000000000 ) ) ;
#93 = ORIENTED_EDGE ( 'NONE', *, *, #164, .T. ) ;
#94 = ADVANCED_FACE ( 'NONE', ( #362 ), #623, .T. ) ;
#95 = AXIS2_PLACEMENT_3D ( 'NONE', #405, #616, #154 ) ;
#96 = AXIS2_PLACEMENT_3D ( 'NONE', #630, #411, #618 ) ;
#97 = CARTESIAN_POINT ( 'NONE',  ( 0.000000000000000000, 0.1000000000000000056, 0.000000000000000000 ) ) ;
#98 = VERTEX_POINT ( 'NONE', #56 ) ;
#99 = AXIS2_PLACEMENT_3D ( 'NONE', #69, #223, #430 ) ;
#100 = PRODUCT_RELATED_PRODUCT_CATEGORY ( 'part', '', ( #175 ) ) ;
#101 = DIRECTION ( 'NONE',  ( 0.000000000000000000, 1.000000000000000000, 0.000000000000000000 ) ) ;
#102 = AXIS2_PLACEMENT_3D ( 'NONE', #458, #46, #249 ) ;
#103 = ORIENTED_EDGE ( 'NONE', *, *, #351, .T. ) ;
#104 = EDGE_CURVE ( 'NONE', #167, #514, #416, .T. ) ;
#105 = ORIENTED_EDGE ( 'NONE', *, *, #135, .F. ) ;
#106 = VERTEX_POINT ( 'NONE', #12 ) ;
#107 = DIRECTION ( 'NONE',  ( 0.000000000000000000, 0.000000000000000000, 1.000000000000000000 ) ) ;
#108 = CIRCLE ( 'NONE', #193, 0.09999999999999982514 ) ;
#109 = CARTESIAN_POINT ( 'NONE',  ( 0.000000000000000000, 0.1250000000000000000, -2.500000000000000000 ) ) ;
#110 = CARTESIAN_POINT ( 'NONE',  ( 0.000000000000000000, 0.000000000000000000, 3.400000000000000799 ) ) ;
#111 = DIRECTION ( 'NONE',  ( -0.000000000000000000, 1.000000000000000000, -0.000000000000000000 ) ) ;
#112 = AXIS2_PLACEMENT_3D ( 'NONE', #37, #394, #143 ) ;
#113 = ORIENTED_EDGE ( 'NONE', *, *, #355, .T. ) ;
#114 = DIRECTION ( 'NONE',  ( -1.000000000000000000, 0.000000000000000000, 0.000000000000000000 ) ) ;
#115 = DIRECTION ( 'NONE',  ( 0.000000000000000000, 0.000000000000000000, 1.000000000000000000 ) ) ;
#116 = EDGE_CURVE ( 'NONE', #318, #514, #527, .T. ) ;
#117 = CARTESIAN_POINT ( 'NONE',  ( 0.000000000000000000, 0.1000000000000000056, 2.600000000000000089 ) ) ;
#118 = VECTOR ( 'NONE', #159, 1000.000000000000000 ) ;
#119 = AXIS2_PLACEMENT_3D ( 'NONE', #577, #565, #422 ) ;
#120 = CARTESIAN_POINT ( 'NONE',  ( 0.000000000000000000, 2.000000000000000000, 0.000000000000000000 ) ) ;
#121 = EDGE_LOOP ( 'NONE', ( #588, #562, #311, #177 ) ) ;
#122 = CARTESIAN_POINT ( 'NONE',  ( 3.184081677783118191E-16, 0.1000000000000000056, -2.600000000000000089 ) ) ;
#123 = ORIENTED_EDGE ( 'NONE', *, *, #239, .T. ) ;
#124 = DIRECTION ( 'NONE',  ( 0.000000000000000000, 0.000000000000000000, 1.000000000000000000 ) ) ;
#125 = DIRECTION ( 'NONE',  ( 0.000000000000000000, 1.000000000000000000, 0.000000000000000000 ) ) ;
#126 = ADVANCED_FACE ( 'NONE', ( #368 ), #600, .T. ) ;
#127 = ORIENTED_EDGE ( 'NONE', *, *, #633, .F. ) ;
#128 = CIRCLE ( 'NONE', #49, 1.500000000000000222 ) ;
#129 = VERTEX_POINT ( 'NONE', #258 ) ;
#130 = CIRCLE ( 'NONE', #441, 1.600000000000000311 ) ;
#131 = CARTESIAN_POINT ( 'NONE',  ( 0.000000000000000000, 0.000000000000000000, 0.000000000000000000 ) ) ;
#132 = DIRECTION ( 'NONE',  ( 0.000000000000000000, 0.000000000000000000, 1.000000000000000000 ) ) ;
#133 = DIRECTION ( 'NONE',  ( 0.000000000000000000, 1.000000000000000000, 0.000000000000000000 ) ) ;
#134 = ORIENTED_EDGE ( 'NONE', *, *, #398, .F. ) ;
#135 = EDGE_CURVE ( 'NONE', #453, #470, #108, .T. ) ;
#136 = DIRECTION ( 'NONE',  ( 0.000000000000000000, 0.000000000000000000, 1.000000000000000000 ) ) ;
#137 = CIRCLE ( 'NONE', #485, 1.600000000000000311 ) ;
#138 = AXIS2_PLACEMENT_3D ( 'NONE', #426, #209, #569 ) ;
#139 = AXIS2_PLACEMENT_3D ( 'NONE', #455, #246, #602 ) ;
#140 = APPLICATION_PROTOCOL_DEFINITION ( 'draft international standard', 'automotive_design', 1998, #595 ) ;
#141 = DIRECTION ( 'NONE',  ( 0.000000000000000000, 0.000000000000000000, 1.000000000000000000 ) ) ;
#142 = ORIENTED_EDGE ( 'NONE', *, *, #13, .F. ) ;
#143 = DIRECTION ( 'NONE',  ( 0.000000000000000000, 0.000000000000000000, -1.000000000000000000 ) ) ;
#144 = LINE ( 'NONE', #297, #5 ) ;
#145 = EDGE_CURVE ( 'NONE', #462, #35, #475, .T. ) ;
#146 = ORIENTED_EDGE ( 'NONE', *, *, #409, .F. ) ;
#147 = DIRECTION ( 'NONE',  ( 0.000000000000000000, 0.000000000000000000, 1.000000000000000000 ) ) ;
#148 = CIRCLE ( 'NONE', #17, 0.1000000000000000472 ) ;
#149 = AXIS2_PLACEMENT_3D ( 'NONE', #70, #269, #482 ) ;
#150 = DIRECTION ( 'NONE',  ( 0.000000000000000000, 0.000000000000000000, -1.000000000000000000 ) ) ;
#151 = EDGE_LOOP ( 'NONE', ( #581, #381, #547, #347 ) ) ;
#152 = AXIS2_PLACEMENT_3D ( 'NONE', #14, #530, #173 ) ;
#153 = CIRCLE ( 'NONE', #102, 3.500000000000000444 ) ;
#154 = DIRECTION ( 'NONE',  ( 0.000000000000000000, 0.000000000000000000, 1.000000000000000000 ) ) ;
#155 = EDGE_LOOP ( 'NONE', ( #572, #628, #606, #323 ) ) ;
#156 = DIRECTION ( 'NONE',  ( 0.000000000000000000, 1.000000000000000000, 0.000000000000000000 ) ) ;
#157 = ORIENTED_EDGE ( 'NONE', *, *, #477, .F. ) ;
#158 = AXIS2_PLACEMENT_3D ( 'NONE', #612, #346, #150 ) ;
#159 = DIRECTION ( 'NONE',  ( -0.000000000000000000, 1.000000000000000000, -0.000000000000000000 ) ) ;
#160 = TOROIDAL_SURFACE ( 'NONE', #181, 2.600000000000000089, 0.1000000000000000056 ) ;
#161 = FACE_OUTER_BOUND ( 'NONE', #65, .T. ) ;
#162 =( NAMED_UNIT ( * ) PLANE_ANGLE_UNIT ( ) SI_UNIT ( $, .RADIAN. ) );
#163 = DIRECTION ( 'NONE',  ( 0.000000000000000000, 0.000000000000000000, 1.000000000000000000 ) ) ;
#164 = EDGE_CURVE ( 'NONE', #98, #216, #613, .T. ) ;
#165 = DIRECTION ( 'NONE',  ( 0.000000000000000000, -0.000000000000000000, 1.000000000000000000 ) ) ;
#166 = CARTESIAN_POINT ( 'NONE',  ( 0.000000000000000000, 1.875000000000000000, 1.600000000000000311 ) ) ;
#167 = VERTEX_POINT ( 'NONE', #488 ) ;
#168 = CARTESIAN_POINT ( 'NONE',  ( 0.000000000000000000, 0.000000000000000000, 0.000000000000000000 ) ) ;
#169 = DIRECTION ( 'NONE',  ( -0.000000000000000000, -1.000000000000000000, -0.000000000000000000 ) ) ;
#170 = CIRCLE ( 'NONE', #139, 2.500000000000000000 ) ;
#171 = EDGE_LOOP ( 'NONE', ( #146, #88, #28, #603 ) ) ;
#172 = EDGE_CURVE ( 'NONE', #435, #607, #567, .T. ) ;
#173 = DIRECTION ( 'NONE',  ( 0.000000000000000000, -0.000000000000000000, 1.000000000000000000 ) ) ;
#174 = DIRECTION ( 'NONE',  ( -0.000000000000000000, -1.000000000000000000, -0.000000000000000000 ) ) ;
#175 = PRODUCT ( 'Rolinera 3 x 7 x 2', 'Rolinera 3 x 7 x 2', '', ( #336 ) ) ;
#176 = DIRECTION ( 'NONE',  ( 0.000000000000000000, 0.000000000000000000, -1.000000000000000000 ) ) ;
#177 = ORIENTED_EDGE ( 'NONE', *, *, #279, .F. ) ;
#178 = DIRECTION ( 'NONE',  ( 0.000000000000000000, 0.000000000000000000, 1.000000000000000000 ) ) ;
#179 = DIRECTION ( 'NONE',  ( -0.000000000000000000, 1.000000000000000000, -0.000000000000000000 ) ) ;
#180 = ORIENTED_EDGE ( 'NONE', *, *, #272, .T. ) ;
#181 = AXIS2_PLACEMENT_3D ( 'NONE', #97, #294, #505 ) ;
#182 = FACE_OUTER_BOUND ( 'NONE', #535, .T. ) ;
#183 = AXIS2_PLACEMENT_3D ( 'NONE', #493, #26, #176 ) ;
#184 = VERTEX_POINT ( 'NONE', #375 ) ;
#185 = EDGE_CURVE ( 'NONE', #649, #80, #666, .T. ) ;
#186 =( GEOMETRIC_REPRESENTATION_CONTEXT ( 3 ) GLOBAL_UNCERTAINTY_ASSIGNED_CONTEXT ( ( #637 ) ) GLOBAL_UNIT_ASSIGNED_CONTEXT ( ( #33, #352, #345 ) ) REPRESENTATION_CONTEXT ( 'NONE', 'WORKASPACE' ) );
#187 = CARTESIAN_POINT ( 'NONE',  ( 0.000000000000000000, 0.1250000000000000000, 0.000000000000000000 ) ) ;
#188 = EDGE_LOOP ( 'NONE', ( #63, #443, #402, #20 ) ) ;
#189 = DIRECTION ( 'NONE',  ( 0.000000000000000000, 0.000000000000000000, 1.000000000000000000 ) ) ;
#190 = AXIS2_PLACEMENT_3D ( 'NONE', #92, #290, #241 ) ;
#191 = CIRCLE ( 'NONE', #349, 3.500000000000000444 ) ;
#192 = CIRCLE ( 'NONE', #6, 2.600000000000000089 ) ;
#193 = AXIS2_PLACEMENT_3D ( 'NONE', #542, #73, #580 ) ;
#194 = AXIS2_PLACEMENT_3D ( 'NONE', #281, #125, #534 ) ;
#195 = DIRECTION ( 'NONE',  ( 1.000000000000000000, -0.000000000000000000, 1.224646799147353207E-16 ) ) ;
#196 = ADVANCED_FACE ( 'NONE', ( #648, #442 ), #82, .T. ) ;
#197 = CARTESIAN_POINT ( 'NONE',  ( 0.000000000000000000, 0.1000000000000000472, 0.000000000000000000 ) ) ;
#198 = ORIENTED_EDGE ( 'NONE', *, *, #517, .F. ) ;
#199 = DIRECTION ( 'NONE',  ( 0.000000000000000000, 0.000000000000000000, -1.000000000000000000 ) ) ;
#200 = ORIENTED_EDGE ( 'NONE', *, *, #272, .F. ) ;
#201 = CARTESIAN_POINT ( 'NONE',  ( 0.000000000000000000, 1.774999999999999911, 0.000000000000000000 ) ) ;
#202 = ORIENTED_EDGE ( 'NONE', *, *, #288, .F. ) ;
#203 = COLOUR_RGB ( '',0.7921568627450980005, 0.8196078431372548767, 0.9333333333333333481 ) ;
#204 = CIRCLE ( 'NONE', #138, 2.500000000000000000 ) ;
#205 = DIRECTION ( 'NONE',  ( 0.000000000000000000, 1.000000000000000000, 0.000000000000000000 ) ) ;
#206 = ORIENTED_EDGE ( 'NONE', *, *, #552, .F. ) ;
#207 = ADVANCED_FACE ( 'NONE', ( #19 ), #356, .T. ) ;
#208 = ADVANCED_FACE ( 'NONE', ( #587 ), #284, .F. ) ;
#209 = DIRECTION ( 'NONE',  ( 0.000000000000000000, 1.000000000000000000, 0.000000000000000000 ) ) ;
#210 = DIRECTION ( 'NONE',  ( -0.000000000000000000, -1.000000000000000000, -0.000000000000000000 ) ) ;
#211 = CARTESIAN_POINT ( 'NONE',  ( 0.000000000000000000, 1.774999999999999911, 1.600000000000000311 ) ) ;
#212 = AXIS2_PLACEMENT_3D ( 'NONE', #50, #156, #264 ) ;
#213 = LINE ( 'NONE', #515, #315 ) ;
#214 = AXIS2_PLACEMENT_3D ( 'NONE', #414, #671, #321 ) ;
#215 = EDGE_CURVE ( 'NONE', #248, #25, #451, .T. ) ;
#216 = VERTEX_POINT ( 'NONE', #385 ) ;
#217 = VECTOR ( 'NONE', #374, 1000.000000000000000 ) ;
#218 = DIRECTION ( 'NONE',  ( -0.000000000000000000, -1.000000000000000000, -0.000000000000000000 ) ) ;
#219 = CARTESIAN_POINT ( 'NONE',  ( 0.000000000000000000, 1.875000000000000000, 2.500000000000000000 ) ) ;
#220 = EDGE_CURVE ( 'NONE', #470, #184, #350, .T. ) ;
#221 = DIRECTION ( 'NONE',  ( 1.000000000000000000, 0.000000000000000000, -1.224646799147353207E-16 ) ) ;
#222 = EDGE_CURVE ( 'NONE', #45, #492, #417, .T. ) ;
#223 = DIRECTION ( 'NONE',  ( 0.000000000000000000, 1.000000000000000000, 0.000000000000000000 ) ) ;
#224 = DIRECTION ( 'NONE',  ( -0.000000000000000000, -1.000000000000000000, -0.000000000000000000 ) ) ;
#225 = DIRECTION ( 'NONE',  ( 0.000000000000000000, 0.000000000000000000, 1.000000000000000000 ) ) ;
#226 = DIRECTION ( 'NONE',  ( 0.000000000000000000, 0.000000000000000000, 1.000000000000000000 ) ) ;
#227 = CARTESIAN_POINT ( 'NONE',  ( 0.000000000000000000, 2.000000000000000000, -3.500000000000000444 ) ) ;
#228 = CARTESIAN_POINT ( 'NONE',  ( 0.000000000000000000, 2.000000000000000000, 0.000000000000000000 ) ) ;
#229 = VERTEX_POINT ( 'NONE', #27 ) ;
#230 = CARTESIAN_POINT ( 'NONE',  ( 0.000000000000000000, 1.899999999999999911, 0.000000000000000000 ) ) ;
#231 = FACE_OUTER_BOUND ( 'NONE', #456, .T. ) ;
#232 = ADVANCED_FACE ( 'NONE', ( #231 ), #667, .T. ) ;
#233 = ORIENTED_EDGE ( 'NONE', *, *, #87, .F. ) ;
#234 = EDGE_CURVE ( 'NONE', #248, #470, #335, .T. ) ;
#235 = CARTESIAN_POINT ( 'NONE',  ( 1.959434878635765477E-16, 1.774999999999999911, -1.600000000000000311 ) ) ;
#236 = EDGE_LOOP ( 'NONE', ( #424, #103 ) ) ;
#237 = CARTESIAN_POINT ( 'NONE',  ( 0.000000000000000000, 0.2249999999999999500, 0.000000000000000000 ) ) ;
#238 = EDGE_LOOP ( 'NONE', ( #302, #3, #142, #631 ) ) ;
#239 = EDGE_CURVE ( 'NONE', #229, #167, #483, .T. ) ;
#240 = CARTESIAN_POINT ( 'NONE',  ( 4.163799117101001545E-16, 1.899999999999999911, -3.400000000000000799 ) ) ;
#241 = DIRECTION ( 'NONE',  ( 0.000000000000000000, 0.000000000000000000, 1.000000000000000000 ) ) ;
#242 = VERTEX_POINT ( 'NONE', #661 ) ;
#243 = AXIS2_PLACEMENT_3D ( 'NONE', #211, #265, #473 ) ;
#244 = EDGE_CURVE ( 'NONE', #167, #229, #170, .T. ) ;
#245 = CYLINDRICAL_SURFACE ( 'NONE', #158, 2.500000000000000000 ) ;
#246 = DIRECTION ( 'NONE',  ( -0.000000000000000000, -1.000000000000000000, -0.000000000000000000 ) ) ;
#247 = ORIENTED_EDGE ( 'NONE', *, *, #619, .T. ) ;
#248 = VERTEX_POINT ( 'NONE', #450 ) ;
#249 = DIRECTION ( 'NONE',  ( 0.000000000000000000, 0.000000000000000000, 1.000000000000000000 ) ) ;
#250 = DIRECTION ( 'NONE',  ( 0.000000000000000000, 0.000000000000000000, 1.000000000000000000 ) ) ;
#251 = ADVANCED_FACE ( 'NONE', ( #353 ), #348, .F. ) ;
#252 = EDGE_LOOP ( 'NONE', ( #653, #326, #503, #39 ) ) ;
#253 = AXIS2_PLACEMENT_3D ( 'NONE', #197, #205, #141 ) ;
#254 = AXIS2_PLACEMENT_3D ( 'NONE', #78, #539, #124 ) ;
#255 = DIRECTION ( 'NONE',  ( 0.000000000000000000, 1.000000000000000000, 0.000000000000000000 ) ) ;
#256 = CARTESIAN_POINT ( 'NONE',  ( 0.000000000000000000, 0.1250000000000000000, 0.000000000000000000 ) ) ;
#257 = CARTESIAN_POINT ( 'NONE',  ( 1.836970198721030181E-16, 2.000000000000000000, 1.500000000000000222 ) ) ;
#258 = CARTESIAN_POINT ( 'NONE',  ( 1.836970198721030181E-16, 0.2249999999999999500, 1.500000000000000222 ) ) ;
#259 = ORIENTED_EDGE ( 'NONE', *, *, #454, .T. ) ;
#260 = EDGE_CURVE ( 'NONE', #314, #242, #76, .T. ) ;
#261 = DIRECTION ( 'NONE',  ( 0.000000000000000000, 1.000000000000000000, 0.000000000000000000 ) ) ;
#262 = ORIENTED_EDGE ( 'NONE', *, *, #524, .T. ) ;
#263 = ORIENTED_EDGE ( 'NONE', *, *, #21, .T. ) ;
#264 = DIRECTION ( 'NONE',  ( 0.000000000000000000, -0.000000000000000000, 1.000000000000000000 ) ) ;
#265 = DIRECTION ( 'NONE',  ( -1.000000000000000000, 0.000000000000000000, 0.000000000000000000 ) ) ;
#266 = ORIENTED_EDGE ( 'NONE', *, *, #43, .F. ) ;
#267 = CARTESIAN_POINT ( 'NONE',  ( 3.061616997868383141E-16, 1.899999999999999911, -2.500000000000000000 ) ) ;
#268 = DIRECTION ( 'NONE',  ( -0.000000000000000000, -1.000000000000000000, -0.000000000000000000 ) ) ;
#269 = DIRECTION ( 'NONE',  ( 0.000000000000000000, 1.000000000000000000, 0.000000000000000000 ) ) ;
#270 = ADVANCED_FACE ( 'NONE', ( #557 ), #160, .T. ) ;
#271 = EDGE_LOOP ( 'NONE', ( #180, #259, #123, #521 ) ) ;
#272 = EDGE_CURVE ( 'NONE', #80, #649, #64, .T. ) ;
#273 = CYLINDRICAL_SURFACE ( 'NONE', #183, 3.500000000000000444 ) ;
#274 = AXIS2_PLACEMENT_3D ( 'NONE', #540, #179, #497 ) ;
#275 = DIRECTION ( 'NONE',  ( 0.000000000000000000, -1.000000000000000000, 0.000000000000000000 ) ) ;
#276 = FACE_BOUND ( 'NONE', #636, .T. ) ;
#277 = CARTESIAN_POINT ( 'NONE',  ( 3.184081677783118191E-16, 1.899999999999999911, -2.600000000000000089 ) ) ;
#278 = ORIENTED_EDGE ( 'NONE', *, *, #448, .F. ) ;
#279 = EDGE_CURVE ( 'NONE', #514, #318, #544, .T. ) ;
#280 = FACE_OUTER_BOUND ( 'NONE', #252, .T. ) ;
#281 = CARTESIAN_POINT ( 'NONE',  ( 0.000000000000000000, 1.875000000000000000, 0.000000000000000000 ) ) ;
#282 = ORIENTED_EDGE ( 'NONE', *, *, #234, .T. ) ;
#283 = FACE_OUTER_BOUND ( 'NONE', #543, .T. ) ;
#284 = CYLINDRICAL_SURFACE ( 'NONE', #536, 1.500000000000000222 ) ;
#285 = AXIS2_PLACEMENT_3D ( 'NONE', #583, #445, #136 ) ;
#286 = EDGE_LOOP ( 'NONE', ( #200, #510 ) ) ;
#287 = CARTESIAN_POINT ( 'NONE',  ( 0.000000000000000000, 2.000000000000000000, -1.500000000000000222 ) ) ;
#288 = EDGE_CURVE ( 'NONE', #462, #314, #389, .T. ) ;
#289 = ORIENTED_EDGE ( 'NONE', *, *, #234, .F. ) ;
#290 = DIRECTION ( 'NONE',  ( -0.000000000000000000, 1.000000000000000000, -0.000000000000000000 ) ) ;
#291 = ORIENTED_EDGE ( 'NONE', *, *, #222, .F. ) ;
#292 = EDGE_CURVE ( 'NONE', #80, #167, #144, .T. ) ;
#293 = SHAPE_DEFINITION_REPRESENTATION ( #663, #57 ) ;
#294 = DIRECTION ( 'NONE',  ( 0.000000000000000000, 1.000000000000000000, 0.000000000000000000 ) ) ;
#295 = ORIENTED_EDGE ( 'NONE', *, *, #484, .T. ) ;
#296 = AXIS2_PLACEMENT_3D ( 'NONE', #237, #449, #652 ) ;
#297 = CARTESIAN_POINT ( 'NONE',  ( 0.000000000000000000, 0.1250000000000000000, -2.500000000000000000 ) ) ;
#298 = EDGE_LOOP ( 'NONE', ( #341, #91 ) ) ;
#299 = CARTESIAN_POINT ( 'NONE',  ( 0.000000000000000000, 0.000000000000000000, 0.000000000000000000 ) ) ;
#300 = ADVANCED_FACE ( 'NONE', ( #44 ), #610, .T. ) ;
#301 = DIRECTION ( 'NONE',  ( -0.000000000000000000, -1.000000000000000000, -0.000000000000000000 ) ) ;
#302 = ORIENTED_EDGE ( 'NONE', *, *, #484, .F. ) ;
#303 = DIRECTION ( 'NONE',  ( 0.000000000000000000, 0.000000000000000000, 1.000000000000000000 ) ) ;
#304 = ORIENTED_EDGE ( 'NONE', *, *, #355, .F. ) ;
#305 = AXIS2_PLACEMENT_3D ( 'NONE', #310, #58, #163 ) ;
#306 = DIRECTION ( 'NONE',  ( -0.000000000000000000, -1.000000000000000000, -0.000000000000000000 ) ) ;
#307 = EDGE_CURVE ( 'NONE', #404, #216, #573, .T. ) ;
#308 = ORIENTED_EDGE ( 'NONE', *, *, #53, .T. ) ;
#309 = FILL_AREA_STYLE ('',( #60 ) ) ;
#310 = CARTESIAN_POINT ( 'NONE',  ( 0.000000000000000000, 1.899999999999999911, 0.000000000000000000 ) ) ;
#311 = ORIENTED_EDGE ( 'NONE', *, *, #398, .T. ) ;
#312 = LINE ( 'NONE', #66, #118 ) ;
#313 = CARTESIAN_POINT ( 'NONE',  ( 0.000000000000000000, 0.1000000000000000472, 0.000000000000000000 ) ) ;
#314 = VERTEX_POINT ( 'NONE', #47 ) ;
#315 = VECTOR ( 'NONE', #410, 1000.000000000000000 ) ;
#316 = CARTESIAN_POINT ( 'NONE',  ( 0.000000000000000000, 0.1249999999999999722, -1.600000000000000311 ) ) ;
#317 = DIRECTION ( 'NONE',  ( 0.000000000000000000, 1.000000000000000000, 0.000000000000000000 ) ) ;
#318 = VERTEX_POINT ( 'NONE', #401 ) ;
#319 = AXIS2_PLACEMENT_3D ( 'NONE', #131, #496, #643 ) ;
#320 = CARTESIAN_POINT ( 'NONE',  ( 0.000000000000000000, 1.774999999999999911, 0.000000000000000000 ) ) ;
#321 = DIRECTION ( 'NONE',  ( 0.000000000000000000, 0.000000000000000000, 1.000000000000000000 ) ) ;
#322 = ADVANCED_FACE ( 'NONE', ( #659 ), #245, .F. ) ;
#323 = ORIENTED_EDGE ( 'NONE', *, *, #244, .T. ) ;
#324 = DIRECTION ( 'NONE',  ( -0.000000000000000000, -1.000000000000000000, -0.000000000000000000 ) ) ;
#325 = DIRECTION ( 'NONE',  ( 0.000000000000000000, 0.000000000000000000, 1.000000000000000000 ) ) ;
#326 = ORIENTED_EDGE ( 'NONE', *, *, #43, .T. ) ;
#327 = DIRECTION ( 'NONE',  ( 0.000000000000000000, -1.000000000000000000, 0.000000000000000000 ) ) ;
#328 = CIRCLE ( 'NONE', #61, 0.09999999999999982514 ) ;
#329 = EDGE_LOOP ( 'NONE', ( #377, #291, #644, #54 ) ) ;
#330 = EDGE_CURVE ( 'NONE', #184, #470, #191, .T. ) ;
#331 = FACE_OUTER_BOUND ( 'NONE', #624, .T. ) ;
#332 = CARTESIAN_POINT ( 'NONE',  ( 0.000000000000000000, 0.1000000000000000472, 0.000000000000000000 ) ) ;
#333 = ORIENTED_EDGE ( 'NONE', *, *, #116, .T. ) ;
#334 = CARTESIAN_POINT ( 'NONE',  ( 4.225031457058368824E-16, 2.000000000000000000, -3.400000000000000799 ) ) ;
#335 = LINE ( 'NONE', #16, #15 ) ;
#336 = PRODUCT_CONTEXT ( 'NONE', #595, 'mechanical' ) ;
#337 = AXIS2_PLACEMENT_3D ( 'NONE', #201, #395, #605 ) ;
#338 = CARTESIAN_POINT ( 'NONE',  ( 0.000000000000000000, 1.899999999999999911, 3.400000000000000799 ) ) ;
#339 = AXIS2_PLACEMENT_3D ( 'NONE', #533, #133, #178 ) ;
#340 = CLOSED_SHELL ( 'NONE', ( #500, #641, #432, #506, #232, #67, #413, #498, #94, #208, #662, #468, #589, #541, #251, #423, #322, #196, #300, #270, #126, #601, #615, #207 ) ) ;
#341 = ORIENTED_EDGE ( 'NONE', *, *, #13, .T. ) ;
#342 = FACE_OUTER_BOUND ( 'NONE', #386, .T. ) ;
#343 = CARTESIAN_POINT ( 'NONE',  ( 0.000000000000000000, 0.1250000000000000000, 0.000000000000000000 ) ) ;
#344 = EDGE_LOOP ( 'NONE', ( #289, #400, #59, #419 ) ) ;
#345 =( NAMED_UNIT ( * ) SI_UNIT ( $, .STERADIAN. ) SOLID_ANGLE_UNIT ( ) );
#346 = DIRECTION ( 'NONE',  ( -0.000000000000000000, -1.000000000000000000, -0.000000000000000000 ) ) ;
#347 = ORIENTED_EDGE ( 'NONE', *, *, #330, .F. ) ;
#348 = CYLINDRICAL_SURFACE ( 'NONE', #190, 2.500000000000000000 ) ;
#349 = AXIS2_PLACEMENT_3D ( 'NONE', #554, #101, #512 ) ;
#350 = CIRCLE ( 'NONE', #516, 3.500000000000000444 ) ;
#351 = EDGE_CURVE ( 'NONE', #42, #435, #391, .T. ) ;
#352 =( NAMED_UNIT ( * ) PLANE_ANGLE_UNIT ( ) SI_UNIT ( $, .RADIAN. ) );
#353 = FACE_OUTER_BOUND ( 'NONE', #329, .T. ) ;
#354 = FACE_BOUND ( 'NONE', #660, .T. ) ;
#355 = EDGE_CURVE ( 'NONE', #314, #462, #192, .T. ) ;
#356 = TOROIDAL_SURFACE ( 'NONE', #366, 1.600000000000000311, 0.1000000000000000056 ) ;
#357 = CARTESIAN_POINT ( 'NONE',  ( 0.000000000000000000, 0.1250000000000000000, 0.000000000000000000 ) ) ;
#358 = VERTEX_POINT ( 'NONE', #461 ) ;
#359 = PLANE ( 'NONE',  #428 ) ;
#360 = CARTESIAN_POINT ( 'NONE',  ( 0.000000000000000000, 2.000000000000000000, 3.400000000000000799 ) ) ;
#361 = LINE ( 'NONE', #257, #74 ) ;
#362 = FACE_OUTER_BOUND ( 'NONE', #571, .T. ) ;
#363 = ORIENTED_EDGE ( 'NONE', *, *, #645, .F. ) ;
#364 = EDGE_CURVE ( 'NONE', #594, #25, #556, .T. ) ;
#365 = AXIS2_PLACEMENT_3D ( 'NONE', #230, #268, #490 ) ;
#366 = AXIS2_PLACEMENT_3D ( 'NONE', #494, #275, #24 ) ;
#367 = DIRECTION ( 'NONE',  ( 0.000000000000000000, 0.000000000000000000, 1.000000000000000000 ) ) ;
#368 = FACE_OUTER_BOUND ( 'NONE', #8, .T. ) ;
#369 = EDGE_LOOP ( 'NONE', ( #308, #614 ) ) ;
#370 = DIRECTION ( 'NONE',  ( 0.000000000000000000, 0.000000000000000000, 1.000000000000000000 ) ) ;
#371 = CIRCLE ( 'NONE', #551, 0.09999999999999982514 ) ;
#372 = DIRECTION ( 'NONE',  ( 1.224646799147353207E-16, 0.000000000000000000, -1.000000000000000000 ) ) ;
#373 = ORIENTED_EDGE ( 'NONE', *, *, #172, .T. ) ;
#374 = DIRECTION ( 'NONE',  ( -0.000000000000000000, -1.000000000000000000, -0.000000000000000000 ) ) ;
#375 = CARTESIAN_POINT ( 'NONE',  ( 0.000000000000000000, 0.1000000000000000472, -3.500000000000000444 ) ) ;
#376 = EDGE_CURVE ( 'NONE', #216, #607, #546, .T. ) ;
#377 = ORIENTED_EDGE ( 'NONE', *, *, #447, .F. ) ;
#378 = DIRECTION ( 'NONE',  ( 0.000000000000000000, 0.000000000000000000, 1.000000000000000000 ) ) ;
#379 = CIRCLE ( 'NONE', #243, 0.1000000000000000472 ) ;
#380 = DIRECTION ( 'NONE',  ( 0.000000000000000000, -1.000000000000000000, 0.000000000000000000 ) ) ;
#381 = ORIENTED_EDGE ( 'NONE', *, *, #619, .F. ) ;
#382 = CARTESIAN_POINT ( 'NONE',  ( 0.000000000000000000, 1.899999999999999911, 0.000000000000000000 ) ) ;
#383 = DIRECTION ( 'NONE',  ( 1.000000000000000000, -0.000000000000000000, 1.224646799147353207E-16 ) ) ;
#384 = ORIENTED_EDGE ( 'NONE', *, *, #364, .F. ) ;
#385 = CARTESIAN_POINT ( 'NONE',  ( 0.000000000000000000, 1.774999999999999911, -1.500000000000000222 ) ) ;
#386 = EDGE_LOOP ( 'NONE', ( #198, #93, #518, #471 ) ) ;
#387 = EDGE_CURVE ( 'NONE', #129, #607, #507, .T. ) ;
#388 = CARTESIAN_POINT ( 'NONE',  ( 3.061616997868383141E-16, 0.1250000000000000000, 2.500000000000000000 ) ) ;
#389 = CIRCLE ( 'NONE', #439, 2.600000000000000089 ) ;
#390 = DIRECTION ( 'NONE',  ( 0.000000000000000000, 0.000000000000000000, 1.000000000000000000 ) ) ;
#391 = CIRCLE ( 'NONE', #519, 1.600000000000000311 ) ;
#392 = AXIS2_PLACEMENT_3D ( 'NONE', #122, #466, #480 ) ;
#393 = ORIENTED_EDGE ( 'NONE', *, *, #21, .F. ) ;
#394 = DIRECTION ( 'NONE',  ( -0.000000000000000000, -1.000000000000000000, -0.000000000000000000 ) ) ;
#395 = DIRECTION ( 'NONE',  ( 0.000000000000000000, 1.000000000000000000, 0.000000000000000000 ) ) ;
#396 = ORIENTED_EDGE ( 'NONE', *, *, #75, .F. ) ;
#397 = DIRECTION ( 'NONE',  ( 0.000000000000000000, 0.000000000000000000, 1.000000000000000000 ) ) ;
#398 = EDGE_CURVE ( 'NONE', #229, #318, #328, .T. ) ;
#399 = ORIENTED_EDGE ( 'NONE', *, *, #220, .T. ) ;
#400 = ORIENTED_EDGE ( 'NONE', *, *, #633, .T. ) ;
#401 = CARTESIAN_POINT ( 'NONE',  ( 0.000000000000000000, 0.000000000000000000, 2.600000000000000089 ) ) ;
#402 = ORIENTED_EDGE ( 'NONE', *, *, #387, .T. ) ;
#403 = STYLED_ITEM ( 'NONE', ( #4 ), #460 ) ;
#404 = VERTEX_POINT ( 'NONE', #2 ) ;
#405 = CARTESIAN_POINT ( 'NONE',  ( 0.000000000000000000, 2.000000000000000000, 0.000000000000000000 ) ) ;
#406 = EDGE_LOOP ( 'NONE', ( #10, #262 ) ) ;
#407 = TOROIDAL_SURFACE ( 'NONE', #89, 2.600000000000000089, 0.1000000000000000056 ) ;
#408 = TOROIDAL_SURFACE ( 'NONE', #99, 1.600000000000000311, 0.1000000000000000056 ) ;
#409 = EDGE_CURVE ( 'NONE', #404, #129, #361, .T. ) ;
#410 = DIRECTION ( 'NONE',  ( -0.000000000000000000, -1.000000000000000000, -0.000000000000000000 ) ) ;
#411 = DIRECTION ( 'NONE',  ( 0.000000000000000000, 1.000000000000000000, 0.000000000000000000 ) ) ;
#412 = CARTESIAN_POINT ( 'NONE',  ( 3.061616997868383141E-16, 1.875000000000000000, -2.500000000000000000 ) ) ;
#413 = ADVANCED_FACE ( 'NONE', ( #670 ), #629, .F. ) ;
#414 = CARTESIAN_POINT ( 'NONE',  ( 0.000000000000000000, 1.899999999999999911, 0.000000000000000000 ) ) ;
#415 =( GEOMETRIC_REPRESENTATION_CONTEXT ( 3 ) GLOBAL_UNCERTAINTY_ASSIGNED_CONTEXT ( ( #622 ) ) GLOBAL_UNIT_ASSIGNED_CONTEXT ( ( #472, #162, #9 ) ) REPRESENTATION_CONTEXT ( 'NONE', 'WORKASPACE' ) );
#416 = CIRCLE ( 'NONE', #392, 0.09999999999999982514 ) ;
#417 = CIRCLE ( 'NONE', #194, 2.500000000000000000 ) ;
#418 = SURFACE_STYLE_FILL_AREA ( #309 ) ;
#419 = ORIENTED_EDGE ( 'NONE', *, *, #330, .T. ) ;
#420 = ORIENTED_EDGE ( 'NONE', *, *, #145, .F. ) ;
#421 = AXIS2_PLACEMENT_3D ( 'NONE', #72, #591, #367 ) ;
#422 = DIRECTION ( 'NONE',  ( 0.000000000000000000, 0.000000000000000000, 1.000000000000000000 ) ) ;
#423 = ADVANCED_FACE ( 'NONE', ( #469, #11 ), #359, .T. ) ;
#424 = ORIENTED_EDGE ( 'NONE', *, *, #75, .T. ) ;
#425 = FACE_OUTER_BOUND ( 'NONE', #298, .T. ) ;
#426 = CARTESIAN_POINT ( 'NONE',  ( 0.000000000000000000, 1.899999999999999911, 0.000000000000000000 ) ) ;
#427 = ORIENTED_EDGE ( 'NONE', *, *, #532, .F. ) ;
#428 = AXIS2_PLACEMENT_3D ( 'NONE', #476, #261, #165 ) ;
#429 = AXIS2_PLACEMENT_3D ( 'NONE', #313, #317, #68 ) ;
#430 = DIRECTION ( 'NONE',  ( 0.000000000000000000, 0.000000000000000000, 1.000000000000000000 ) ) ;
#431 = DIRECTION ( 'NONE',  ( 0.000000000000000000, 0.000000000000000000, 1.000000000000000000 ) ) ;
#432 = ADVANCED_FACE ( 'NONE', ( #465 ), #474, .T. ) ;
#433 = DIRECTION ( 'NONE',  ( 0.000000000000000000, -1.000000000000000000, 0.000000000000000000 ) ) ;
#434 = DIRECTION ( 'NONE',  ( 1.224646799147353454E-16, 0.000000000000000000, -1.000000000000000000 ) ) ;
#435 = VERTEX_POINT ( 'NONE', #316 ) ;
#436 = DIRECTION ( 'NONE',  ( 0.000000000000000000, 0.000000000000000000, 1.000000000000000000 ) ) ;
#437 = DIRECTION ( 'NONE',  ( -1.000000000000000000, 0.000000000000000000, 0.000000000000000000 ) ) ;
#438 = ORIENTED_EDGE ( 'NONE', *, *, #116, .F. ) ;
#439 = AXIS2_PLACEMENT_3D ( 'NONE', #502, #657, #397 ) ;
#440 = DIRECTION ( 'NONE',  ( 0.000000000000000000, 0.000000000000000000, -1.000000000000000000 ) ) ;
#441 = AXIS2_PLACEMENT_3D ( 'NONE', #256, #111, #7 ) ;
#442 = FACE_OUTER_BOUND ( 'NONE', #286, .T. ) ;
#443 = ORIENTED_EDGE ( 'NONE', *, *, #409, .T. ) ;
#444 = CARTESIAN_POINT ( 'NONE',  ( 0.000000000000000000, 0.2249999999999999500, 0.000000000000000000 ) ) ;
#445 = DIRECTION ( 'NONE',  ( -1.000000000000000000, -0.000000000000000000, -0.000000000000000000 ) ) ;
#446 = ORIENTED_EDGE ( 'NONE', *, *, #53, .F. ) ;
#447 = EDGE_CURVE ( 'NONE', #492, #35, #568, .T. ) ;
#448 = EDGE_CURVE ( 'NONE', #45, #242, #312, .T. ) ;
#449 = DIRECTION ( 'NONE',  ( 0.000000000000000000, -1.000000000000000000, 0.000000000000000000 ) ) ;
#450 = CARTESIAN_POINT ( 'NONE',  ( 4.286263797015737088E-16, 1.899999999999999911, 3.500000000000000444 ) ) ;
#451 = CIRCLE ( 'NONE', #621, 0.09999999999999982514 ) ;
#452 = AXIS2_PLACEMENT_3D ( 'NONE', #86, #550, #390 ) ;
#453 = VERTEX_POINT ( 'NONE', #110 ) ;
#454 = EDGE_CURVE ( 'NONE', #649, #229, #213, .T. ) ;
#455 = CARTESIAN_POINT ( 'NONE',  ( 0.000000000000000000, 0.1000000000000000056, 0.000000000000000000 ) ) ;
#456 = EDGE_LOOP ( 'NONE', ( #52, #531, #438, #134 ) ) ;
#457 = AXIS2_PLACEMENT_3D ( 'NONE', #299, #189, #655 ) ;
#458 = CARTESIAN_POINT ( 'NONE',  ( 0.000000000000000000, 1.899999999999999911, 0.000000000000000000 ) ) ;
#459 = CARTESIAN_POINT ( 'NONE',  ( 0.000000000000000000, 0.000000000000000000, 0.000000000000000000 ) ) ;
#460 = MANIFOLD_SOLID_BREP ( 'Redondeo1', #340 ) ;
#461 = CARTESIAN_POINT ( 'NONE',  ( 0.000000000000000000, 1.899999999999999911, -3.500000000000000444 ) ) ;
#462 = VERTEX_POINT ( 'NONE', #626 ) ;
#463 = AXIS2_PLACEMENT_3D ( 'NONE', #635, #174, #325 ) ;
#464 = ORIENTED_EDGE ( 'NONE', *, *, #532, .T. ) ;
#465 = FACE_OUTER_BOUND ( 'NONE', #538, .T. ) ;
#466 = DIRECTION ( 'NONE',  ( 1.000000000000000000, -0.000000000000000000, 1.224646799147353207E-16 ) ) ;
#467 = CIRCLE ( 'NONE', #479, 3.400000000000000799 ) ;
#468 = ADVANCED_FACE ( 'NONE', ( #425, #354 ), #561, .T. ) ;
#469 = FACE_BOUND ( 'NONE', #369, .T. ) ;
#470 = VERTEX_POINT ( 'NONE', #563 ) ;
#471 = ORIENTED_EDGE ( 'NONE', *, *, #1, .F. ) ;
#472 =( LENGTH_UNIT ( ) NAMED_UNIT ( * ) SI_UNIT ( .MILLI., .METRE. ) );
#473 = DIRECTION ( 'NONE',  ( 0.000000000000000000, 0.000000000000000000, 1.000000000000000000 ) ) ;
#474 = TOROIDAL_SURFACE ( 'NONE', #642, 2.600000000000000089, 0.1000000000000000056 ) ;
#475 = CIRCLE ( 'NONE', #558, 0.09999999999999982514 ) ;
#476 = CARTESIAN_POINT ( 'NONE',  ( 0.000000000000000000, 1.875000000000000000, 0.000000000000000000 ) ) ;
#477 = EDGE_CURVE ( 'NONE', #216, #404, #128, .T. ) ;
#478 = CARTESIAN_POINT ( 'NONE',  ( 1.959434878635765477E-16, 0.1249999999999999722, 1.600000000000000311 ) ) ;
#479 = AXIS2_PLACEMENT_3D ( 'NONE', #168, #634, #370 ) ;
#480 = DIRECTION ( 'NONE',  ( 1.224646799147353454E-16, 0.000000000000000000, -1.000000000000000000 ) ) ;
#481 = FACE_OUTER_BOUND ( 'NONE', #574, .T. ) ;
#482 = DIRECTION ( 'NONE',  ( 0.000000000000000000, 0.000000000000000000, 1.000000000000000000 ) ) ;
#483 = CIRCLE ( 'NONE', #463, 2.500000000000000000 ) ;
#484 = EDGE_CURVE ( 'NONE', #358, #248, #664, .T. ) ;
#485 = AXIS2_PLACEMENT_3D ( 'NONE', #18, #324, #225 ) ;
#486 = AXIS2_PLACEMENT_3D ( 'NONE', #627, #169, #115 ) ;
#487 = CARTESIAN_POINT ( 'NONE',  ( 0.000000000000000000, 0.2249999999999999500, 0.000000000000000000 ) ) ;
#488 = CARTESIAN_POINT ( 'NONE',  ( 0.000000000000000000, 0.1000000000000000056, -2.500000000000000000 ) ) ;
#489 = ORIENTED_EDGE ( 'NONE', *, *, #145, .T. ) ;
#490 = DIRECTION ( 'NONE',  ( 0.000000000000000000, 0.000000000000000000, 1.000000000000000000 ) ) ;
#491 = PRODUCT_DEFINITION_FORMATION_WITH_SPECIFIED_SOURCE ( 'ANY', '', #175, .NOT_KNOWN. ) ;
#492 = VERTEX_POINT ( 'NONE', #77 ) ;
#493 = CARTESIAN_POINT ( 'NONE',  ( 0.000000000000000000, 2.000000000000000000, 0.000000000000000000 ) ) ;
#494 = CARTESIAN_POINT ( 'NONE',  ( 0.000000000000000000, 0.2249999999999999500, 0.000000000000000000 ) ) ;
#495 = ORIENTED_EDGE ( 'NONE', *, *, #1, .T. ) ;
#496 = DIRECTION ( 'NONE',  ( -0.000000000000000000, -1.000000000000000000, -0.000000000000000000 ) ) ;
#497 = DIRECTION ( 'NONE',  ( 0.000000000000000000, 0.000000000000000000, 1.000000000000000000 ) ) ;
#498 = ADVANCED_FACE ( 'NONE', ( #481 ), #579, .F. ) ;
#499 = ORIENTED_EDGE ( 'NONE', *, *, #447, .T. ) ;
#500 = ADVANCED_FACE ( 'NONE', ( #280 ), #545, .T. ) ;
#501 = DIRECTION ( 'NONE',  ( 0.000000000000000000, 0.000000000000000000, 1.000000000000000000 ) ) ;
#502 = CARTESIAN_POINT ( 'NONE',  ( 0.000000000000000000, 2.000000000000000000, 0.000000000000000000 ) ) ;
#503 = ORIENTED_EDGE ( 'NONE', *, *, #560, .F. ) ;
#504 = FACE_OUTER_BOUND ( 'NONE', #171, .T. ) ;
#505 = DIRECTION ( 'NONE',  ( 0.000000000000000000, 0.000000000000000000, 1.000000000000000000 ) ) ;
#506 = ADVANCED_FACE ( 'NONE', ( #586 ), #599, .T. ) ;
#507 = CIRCLE ( 'NONE', #296, 1.500000000000000222 ) ;
#508 = DIRECTION ( 'NONE',  ( -0.000000000000000000, 1.000000000000000000, -0.000000000000000000 ) ) ;
#509 = DIRECTION ( 'NONE',  ( -0.000000000000000000, -1.000000000000000000, -0.000000000000000000 ) ) ;
#510 = ORIENTED_EDGE ( 'NONE', *, *, #185, .F. ) ;
#511 = AXIS2_PLACEMENT_3D ( 'NONE', #604, #548, #501 ) ;
#512 = DIRECTION ( 'NONE',  ( 0.000000000000000000, 0.000000000000000000, 1.000000000000000000 ) ) ;
#513 = ORIENTED_EDGE ( 'NONE', *, *, #164, .F. ) ;
#514 = VERTEX_POINT ( 'NONE', #32 ) ;
#515 = CARTESIAN_POINT ( 'NONE',  ( 3.061616997868383141E-16, 0.1250000000000000000, 2.500000000000000000 ) ) ;
#516 = AXIS2_PLACEMENT_3D ( 'NONE', #332, #79, #431 ) ;
#517 = EDGE_CURVE ( 'NONE', #98, #83, #137, .T. ) ;
#518 = ORIENTED_EDGE ( 'NONE', *, *, #307, .F. ) ;
#519 = AXIS2_PLACEMENT_3D ( 'NONE', #608, #508, #199 ) ;
#520 = AXIS2_PLACEMENT_3D ( 'NONE', #120, #306, #529 ) ;
#521 = ORIENTED_EDGE ( 'NONE', *, *, #292, .F. ) ;
#522 = SURFACE_SIDE_STYLE ('',( #418 ) ) ;
#523 = ORIENTED_EDGE ( 'NONE', *, *, #260, .F. ) ;
#524 = EDGE_CURVE ( 'NONE', #492, #45, #566, .T. ) ;
#525 = CARTESIAN_POINT ( 'NONE',  ( 1.959434878635765477E-16, 0.2249999999999999500, 1.600000000000000311 ) ) ;
#526 = ORIENTED_EDGE ( 'NONE', *, *, #524, .F. ) ;
#527 = CIRCLE ( 'NONE', #96, 2.600000000000000089 ) ;
#528 = DIRECTION ( 'NONE',  ( -0.000000000000000000, 1.000000000000000000, -0.000000000000000000 ) ) ;
#529 = DIRECTION ( 'NONE',  ( 0.000000000000000000, 0.000000000000000000, -1.000000000000000000 ) ) ;
#530 = DIRECTION ( 'NONE',  ( 0.000000000000000000, 1.000000000000000000, 0.000000000000000000 ) ) ;
#531 = ORIENTED_EDGE ( 'NONE', *, *, #104, .T. ) ;
#532 = EDGE_CURVE ( 'NONE', #106, #453, #669, .T. ) ;
#533 = CARTESIAN_POINT ( 'NONE',  ( 0.000000000000000000, 1.899999999999999911, 0.000000000000000000 ) ) ;
#534 = DIRECTION ( 'NONE',  ( 0.000000000000000000, 0.000000000000000000, 1.000000000000000000 ) ) ;
#535 = EDGE_LOOP ( 'NONE', ( #420, #304, #609, #393 ) ) ;
#536 = AXIS2_PLACEMENT_3D ( 'NONE', #228, #640, #596 ) ;
#537 = PLANE ( 'NONE',  #152 ) ;
#538 = EDGE_LOOP ( 'NONE', ( #202, #489, #233, #523 ) ) ;
#539 = DIRECTION ( 'NONE',  ( -0.000000000000000000, 1.000000000000000000, -0.000000000000000000 ) ) ;
#540 = CARTESIAN_POINT ( 'NONE',  ( 0.000000000000000000, 0.1250000000000000000, 0.000000000000000000 ) ) ;
#541 = ADVANCED_FACE ( 'NONE', ( #638 ), #273, .T. ) ;
#542 = CARTESIAN_POINT ( 'NONE',  ( 0.000000000000000000, 0.1000000000000000472, 3.400000000000000799 ) ) ;
#543 = EDGE_LOOP ( 'NONE', ( #513, #446, #495, #157 ) ) ;
#544 = CIRCLE ( 'NONE', #555, 2.600000000000000089 ) ;
#545 = TOROIDAL_SURFACE ( 'NONE', #632, 1.600000000000000311, 0.1000000000000000056 ) ;
#546 = LINE ( 'NONE', #287, #29 ) ;
#547 = ORIENTED_EDGE ( 'NONE', *, *, #135, .T. ) ;
#548 = DIRECTION ( 'NONE',  ( 0.000000000000000000, 1.000000000000000000, 0.000000000000000000 ) ) ;
#549 = APPLICATION_CONTEXT ( 'automotive_design' ) ;
#550 = DIRECTION ( 'NONE',  ( -1.000000000000000000, 0.000000000000000000, 0.000000000000000000 ) ) ;
#551 = AXIS2_PLACEMENT_3D ( 'NONE', #240, #195, #85 ) ;
#552 = EDGE_CURVE ( 'NONE', #358, #184, #576, .T. ) ;
#553 = APPLICATION_PROTOCOL_DEFINITION ( 'draft international standard', 'automotive_design', 1998, #549 ) ;
#554 = CARTESIAN_POINT ( 'NONE',  ( 0.000000000000000000, 0.1000000000000000472, 0.000000000000000000 ) ) ;
#555 = AXIS2_PLACEMENT_3D ( 'NONE', #459, #38, #147 ) ;
#556 = CIRCLE ( 'NONE', #95, 3.400000000000000799 ) ;
#557 = FACE_OUTER_BOUND ( 'NONE', #121, .T. ) ;
#558 = AXIS2_PLACEMENT_3D ( 'NONE', #277, #592, #434 ) ;
#559 = ORIENTED_EDGE ( 'NONE', *, *, #279, .T. ) ;
#560 = EDGE_CURVE ( 'NONE', #607, #129, #590, .T. ) ;
#561 = PLANE ( 'NONE',  #212 ) ;
#562 = ORIENTED_EDGE ( 'NONE', *, *, #239, .F. ) ;
#563 = CARTESIAN_POINT ( 'NONE',  ( 4.286263797015737088E-16, 0.1000000000000000472, 3.500000000000000444 ) ) ;
#564 = AXIS2_PLACEMENT_3D ( 'NONE', #343, #665, #90 ) ;
#565 = DIRECTION ( 'NONE',  ( 0.000000000000000000, 1.000000000000000000, 0.000000000000000000 ) ) ;
#566 = CIRCLE ( 'NONE', #421, 2.500000000000000000 ) ;
#567 = CIRCLE ( 'NONE', #285, 0.1000000000000000472 ) ;
#568 = LINE ( 'NONE', #412, #611 ) ;
#569 = DIRECTION ( 'NONE',  ( 0.000000000000000000, 0.000000000000000000, 1.000000000000000000 ) ) ;
#570 = CARTESIAN_POINT ( 'NONE',  ( 0.000000000000000000, 1.899999999999999911, 0.000000000000000000 ) ) ;
#571 = EDGE_LOOP ( 'NONE', ( #295, #282, #399, #206 ) ) ;
#572 = ORIENTED_EDGE ( 'NONE', *, *, #454, .F. ) ;
#573 = CIRCLE ( 'NONE', #337, 1.500000000000000222 ) ;
#574 = EDGE_LOOP ( 'NONE', ( #526, #499, #263, #278 ) ) ;
#575 = AXIS2_PLACEMENT_3D ( 'NONE', #235, #383, #372 ) ;
#576 = LINE ( 'NONE', #227, #217 ) ;
#577 = CARTESIAN_POINT ( 'NONE',  ( 0.000000000000000000, 2.000000000000000000, 0.000000000000000000 ) ) ;
#578 = ORIENTED_EDGE ( 'NONE', *, *, #387, .F. ) ;
#579 = CYLINDRICAL_SURFACE ( 'NONE', #254, 2.500000000000000000 ) ;
#580 = DIRECTION ( 'NONE',  ( 0.000000000000000000, 0.000000000000000000, 1.000000000000000000 ) ) ;
#581 = ORIENTED_EDGE ( 'NONE', *, *, #650, .F. ) ;
#582 = DIRECTION ( 'NONE',  ( 0.000000000000000000, 1.000000000000000000, 0.000000000000000000 ) ) ;
#583 = CARTESIAN_POINT ( 'NONE',  ( 0.000000000000000000, 0.2249999999999999500, -1.600000000000000311 ) ) ;
#584 = ORIENTED_EDGE ( 'NONE', *, *, #220, .F. ) ;
#585 = PRESENTATION_LAYER_ASSIGNMENT (  '', '', ( #403 ) ) ;
#586 = FACE_OUTER_BOUND ( 'NONE', #238, .T. ) ;
#587 = FACE_OUTER_BOUND ( 'NONE', #188, .T. ) ;
#588 = ORIENTED_EDGE ( 'NONE', *, *, #104, .F. ) ;
#589 = ADVANCED_FACE ( 'NONE', ( #331, #276 ), #537, .F. ) ;
#590 = CIRCLE ( 'NONE', #646, 1.500000000000000222 ) ;
#591 = DIRECTION ( 'NONE',  ( 0.000000000000000000, 1.000000000000000000, 0.000000000000000000 ) ) ;
#592 = DIRECTION ( 'NONE',  ( 1.000000000000000000, -0.000000000000000000, 1.224646799147353207E-16 ) ) ;
#593 = CIRCLE ( 'NONE', #22, 0.09999999999999982514 ) ;
#594 = VERTEX_POINT ( 'NONE', #334 ) ;
#595 = APPLICATION_CONTEXT ( 'automotive_design' ) ;
#596 = DIRECTION ( 'NONE',  ( 0.000000000000000000, 0.000000000000000000, -1.000000000000000000 ) ) ;
#597 = ORIENTED_EDGE ( 'NONE', *, *, #288, .T. ) ;
#598 = DIRECTION ( 'NONE',  ( 1.224646799147353454E-16, 0.000000000000000000, -1.000000000000000000 ) ) ;
#599 = TOROIDAL_SURFACE ( 'NONE', #339, 3.400000000000000799, 0.1000000000000000056 ) ;
#600 = TOROIDAL_SURFACE ( 'NONE', #305, 3.400000000000000799, 0.1000000000000000056 ) ;
#601 = ADVANCED_FACE ( 'NONE', ( #182 ), #407, .T. ) ;
#602 = DIRECTION ( 'NONE',  ( 0.000000000000000000, 0.000000000000000000, 1.000000000000000000 ) ) ;
#603 = ORIENTED_EDGE ( 'NONE', *, *, #560, .T. ) ;
#604 = CARTESIAN_POINT ( 'NONE',  ( 0.000000000000000000, 1.774999999999999911, 0.000000000000000000 ) ) ;
#605 = DIRECTION ( 'NONE',  ( 0.000000000000000000, 0.000000000000000000, 1.000000000000000000 ) ) ;
#606 = ORIENTED_EDGE ( 'NONE', *, *, #292, .T. ) ;
#607 = VERTEX_POINT ( 'NONE', #639 ) ;
#608 = CARTESIAN_POINT ( 'NONE',  ( 0.000000000000000000, 0.1250000000000000000, 0.000000000000000000 ) ) ;
#609 = ORIENTED_EDGE ( 'NONE', *, *, #260, .T. ) ;
#610 = TOROIDAL_SURFACE ( 'NONE', #253, 3.400000000000000799, 0.1000000000000000056 ) ;
#611 = VECTOR ( 'NONE', #528, 1000.000000000000000 ) ;
#612 = CARTESIAN_POINT ( 'NONE',  ( 0.000000000000000000, 0.1250000000000000000, 0.000000000000000000 ) ) ;
#613 = CIRCLE ( 'NONE', #575, 0.1000000000000000472 ) ;
#614 = ORIENTED_EDGE ( 'NONE', *, *, #517, .T. ) ;
#615 = ADVANCED_FACE ( 'NONE', ( #283 ), #408, .T. ) ;
#616 = DIRECTION ( 'NONE',  ( 0.000000000000000000, 1.000000000000000000, 0.000000000000000000 ) ) ;
#617 = SURFACE_STYLE_USAGE ( .BOTH. , #522 ) ;
#618 = DIRECTION ( 'NONE',  ( 0.000000000000000000, 0.000000000000000000, 1.000000000000000000 ) ) ;
#619 = EDGE_CURVE ( 'NONE', #453, #106, #467, .T. ) ;
#620 = DIRECTION ( 'NONE',  ( -1.224646799147353207E-16, 0.000000000000000000, -1.000000000000000000 ) ) ;
#621 = AXIS2_PLACEMENT_3D ( 'NONE', #338, #437, #132 ) ;
#622 = UNCERTAINTY_MEASURE_WITH_UNIT (LENGTH_MEASURE( 1.000000000000000082E-05 ), #472, 'distance_accuracy_value', 'NONE');
#623 = CYLINDRICAL_SURFACE ( 'NONE', #520, 3.500000000000000444 ) ;
#624 = EDGE_LOOP ( 'NONE', ( #247, #464 ) ) ;
#625 = TOROIDAL_SURFACE ( 'NONE', #511, 1.600000000000000311, 0.1000000000000000056 ) ;
#626 = CARTESIAN_POINT ( 'NONE',  ( 3.184081677783118191E-16, 2.000000000000000000, -2.600000000000000089 ) ) ;
#627 = CARTESIAN_POINT ( 'NONE',  ( 0.000000000000000000, 1.875000000000000000, 0.000000000000000000 ) ) ;
#628 = ORIENTED_EDGE ( 'NONE', *, *, #185, .T. ) ;
#629 = CYLINDRICAL_SURFACE ( 'NONE', #654, 2.500000000000000000 ) ;
#630 = CARTESIAN_POINT ( 'NONE',  ( 0.000000000000000000, 0.000000000000000000, 0.000000000000000000 ) ) ;
#631 = ORIENTED_EDGE ( 'NONE', *, *, #215, .F. ) ;
#632 = AXIS2_PLACEMENT_3D ( 'NONE', #487, #433, #23 ) ;
#633 = EDGE_CURVE ( 'NONE', #248, #358, #153, .T. ) ;
#634 = DIRECTION ( 'NONE',  ( -0.000000000000000000, -1.000000000000000000, -0.000000000000000000 ) ) ;
#635 = CARTESIAN_POINT ( 'NONE',  ( 0.000000000000000000, 0.1000000000000000056, 0.000000000000000000 ) ) ;
#636 = EDGE_LOOP ( 'NONE', ( #333, #559 ) ) ;
#637 = UNCERTAINTY_MEASURE_WITH_UNIT (LENGTH_MEASURE( 1.000000000000000082E-05 ), #33, 'distance_accuracy_value', 'NONE');
#638 = FACE_OUTER_BOUND ( 'NONE', #344, .T. ) ;
#639 = CARTESIAN_POINT ( 'NONE',  ( 0.000000000000000000, 0.2249999999999999500, -1.500000000000000222 ) ) ;
#640 = DIRECTION ( 'NONE',  ( -0.000000000000000000, -1.000000000000000000, -0.000000000000000000 ) ) ;
#641 = ADVANCED_FACE ( 'NONE', ( #342 ), #625, .T. ) ;
#642 = AXIS2_PLACEMENT_3D ( 'NONE', #570, #255, #303 ) ;
#643 = DIRECTION ( 'NONE',  ( 0.000000000000000000, 0.000000000000000000, 1.000000000000000000 ) ) ;
#644 = ORIENTED_EDGE ( 'NONE', *, *, #448, .T. ) ;
#645 = EDGE_CURVE ( 'NONE', #358, #594, #371, .T. ) ;
#646 = AXIS2_PLACEMENT_3D ( 'NONE', #444, #327, #440 ) ;
#647 = CYLINDRICAL_SURFACE ( 'NONE', #112, 1.500000000000000222 ) ;
#648 = FACE_BOUND ( 'NONE', #236, .T. ) ;
#649 = VERTEX_POINT ( 'NONE', #388 ) ;
#650 = EDGE_CURVE ( 'NONE', #106, #184, #593, .T. ) ;
#651 = DIRECTION ( 'NONE',  ( 1.000000000000000000, -0.000000000000000000, 1.224646799147353207E-16 ) ) ;
#652 = DIRECTION ( 'NONE',  ( 0.000000000000000000, 0.000000000000000000, -1.000000000000000000 ) ) ;
#653 = ORIENTED_EDGE ( 'NONE', *, *, #351, .F. ) ;
#654 = AXIS2_PLACEMENT_3D ( 'NONE', #357, #218, #55 ) ;
#655 = DIRECTION ( 'NONE',  ( 1.000000000000000000, 0.000000000000000000, 0.000000000000000000 ) ) ;
#656 = AXIS2_PLACEMENT_3D ( 'NONE', #187, #380, #226 ) ;
#657 = DIRECTION ( 'NONE',  ( -0.000000000000000000, -1.000000000000000000, -0.000000000000000000 ) ) ;
#658 = CARTESIAN_POINT ( 'NONE',  ( 4.163799117101001545E-16, 0.1000000000000000472, -3.400000000000000799 ) ) ;
#659 = FACE_OUTER_BOUND ( 'NONE', #155, .T. ) ;
#660 = EDGE_LOOP ( 'NONE', ( #113, #597 ) ) ;
#661 = CARTESIAN_POINT ( 'NONE',  ( 0.000000000000000000, 1.899999999999999911, 2.500000000000000000 ) ) ;
#662 = ADVANCED_FACE ( 'NONE', ( #504 ), #647, .F. ) ;
#663 = PRODUCT_DEFINITION_SHAPE ( 'NONE', 'NONE',  #36 ) ;
#664 = CIRCLE ( 'NONE', #365, 3.500000000000000444 ) ;
#665 = DIRECTION ( 'NONE',  ( -0.000000000000000000, 1.000000000000000000, -0.000000000000000000 ) ) ;
#666 = CIRCLE ( 'NONE', #274, 2.500000000000000000 ) ;
#667 = TOROIDAL_SURFACE ( 'NONE', #149, 2.600000000000000089, 0.1000000000000000056 ) ;
#668 = ORIENTED_EDGE ( 'NONE', *, *, #650, .T. ) ;
#669 = CIRCLE ( 'NONE', #319, 3.400000000000000799 ) ;
#670 = FACE_OUTER_BOUND ( 'NONE', #271, .T. ) ;
#671 = DIRECTION ( 'NONE',  ( 0.000000000000000000, 1.000000000000000000, 0.000000000000000000 ) ) ;
ENDSEC;
END-ISO-10303-21;
