ISO-10303-21;
HEADER;
FILE_DESCRIPTION (( 'STEP AP214' ),
    '1' );
FILE_NAME ('Rolinera 6 35 x 9 525 x 3 175.STEP',
    '2026-07-08T20:26:01',
    ( '' ),
    ( '' ),
    'SwSTEP 2.0',
    'SolidWorks 2026',
    '' );
FILE_SCHEMA (( 'AUTOMOTIVE_DESIGN' ));
ENDSEC;

DATA;
#1 = VERTEX_POINT ( 'NONE', #330 ) ;
#2 = AXIS2_PLACEMENT_3D ( 'NONE', #80, #411, #362 ) ;
#3 = DIRECTION ( 'NONE',  ( 0.000000000000000000, 1.000000000000000000, 0.000000000000000000 ) ) ;
#4 = CARTESIAN_POINT ( 'NONE',  ( 5.388445916248354013E-16, 0.1000000000000000056, 4.400000000000000355 ) ) ;
#5 = VERTEX_POINT ( 'NONE', #612 ) ;
#6 = CARTESIAN_POINT ( 'NONE',  ( 0.000000000000000000, 3.075000000000000178, -4.762500000000000178 ) ) ;
#7 = LINE ( 'NONE', #619, #495 ) ;
#8 = ORIENTED_EDGE ( 'NONE', *, *, #605, .T. ) ;
#9 = ADVANCED_FACE ( 'NONE', ( #106 ), #704, .T. ) ;
#10 = DIRECTION ( 'NONE',  ( 0.000000000000000000, 1.000000000000000000, 0.000000000000000000 ) ) ;
#11 = EDGE_LOOP ( 'NONE', ( #517, #485 ) ) ;
#12 = AXIS2_PLACEMENT_3D ( 'NONE', #167, #45, #91 ) ;
#13 = EDGE_CURVE ( 'NONE', #683, #339, #206, .T. ) ;
#14 = CIRCLE ( 'NONE', #568, 4.400000000000000355 ) ;
#15 = CARTESIAN_POINT ( 'NONE',  ( 0.000000000000000000, 0.000000000000000000, 0.000000000000000000 ) ) ;
#16 = CIRCLE ( 'NONE', #427, 3.700000000000000178 ) ;
#17 = TOROIDAL_SURFACE ( 'NONE', #462, 3.274999999999999911, 0.1000000000000000056 ) ;
#18 = DIRECTION ( 'NONE',  ( -0.000000000000000000, 1.000000000000000000, -0.000000000000000000 ) ) ;
#19 = VERTEX_POINT ( 'NONE', #552 ) ;
#20 = CYLINDRICAL_SURFACE ( 'NONE', #357, 4.762500000000000178 ) ;
#21 = CARTESIAN_POINT ( 'NONE',  ( 4.531193156845206201E-16, 3.075000000000000178, -3.700000000000000178 ) ) ;
#22 = VERTEX_POINT ( 'NONE', #93 ) ;
#23 = CARTESIAN_POINT ( 'NONE',  ( 3.888253587292846081E-16, 0.09999999999999982514, 3.174999999999999822 ) ) ;
#24 = CARTESIAN_POINT ( 'NONE',  ( 0.000000000000000000, 0.1000000000000000056, 0.000000000000000000 ) ) ;
#25 = ADVANCED_FACE ( 'NONE', ( #375 ), #649, .T. ) ;
#26 = ORIENTED_EDGE ( 'NONE', *, *, #47, .T. ) ;
#27 = CIRCLE ( 'NONE', #282, 3.700000000000000178 ) ;
#28 = CYLINDRICAL_SURFACE ( 'NONE', #661, 4.400000000000000355 ) ;
#29 = AXIS2_PLACEMENT_3D ( 'NONE', #708, #481, #374 ) ;
#30 = VECTOR ( 'NONE', #289, 1000.000000000000000 ) ;
#31 = ORIENTED_EDGE ( 'NONE', *, *, #623, .F. ) ;
#32 = VERTEX_POINT ( 'NONE', #442 ) ;
#33 = DIRECTION ( 'NONE',  ( 0.000000000000000000, 1.000000000000000000, 0.000000000000000000 ) ) ;
#34 = VERTEX_POINT ( 'NONE', #42 ) ;
#35 = EDGE_CURVE ( 'NONE', #202, #5, #137, .T. ) ;
#36 = DIRECTION ( 'NONE',  ( 0.000000000000000000, 0.000000000000000000, 1.000000000000000000 ) ) ;
#37 = VERTEX_POINT ( 'NONE', #224 ) ;
#38 = VERTEX_POINT ( 'NONE', #712 ) ;
#39 = TOROIDAL_SURFACE ( 'NONE', #161, 4.662499999999999645, 0.1000000000000000056 ) ;
#40 = DIRECTION ( 'NONE',  ( -0.000000000000000000, -1.000000000000000000, -0.000000000000000000 ) ) ;
#41 = AXIS2_PLACEMENT_3D ( 'NONE', #268, #156, #650 ) ;
#42 = CARTESIAN_POINT ( 'NONE',  ( 4.010718267207581624E-16, -8.809142651444723526E-17, -3.274999999999999911 ) ) ;
#43 = AXIS2_PLACEMENT_3D ( 'NONE', #443, #108, #107 ) ;
#44 = FACE_OUTER_BOUND ( 'NONE', #476, .T. ) ;
#45 = DIRECTION ( 'NONE',  ( -0.000000000000000000, 1.000000000000000000, -0.000000000000000000 ) ) ;
#46 = CYLINDRICAL_SURFACE ( 'NONE', #557, 4.400000000000000355 ) ;
#47 = EDGE_CURVE ( 'NONE', #22, #547, #333, .T. ) ;
#48 = DIRECTION ( 'NONE',  ( 0.000000000000000000, 0.000000000000000000, 1.000000000000000000 ) ) ;
#49 = FACE_OUTER_BOUND ( 'NONE', #387, .T. ) ;
#50 = CIRCLE ( 'NONE', #474, 0.09999999999999982514 ) ;
#51 = AXIS2_PLACEMENT_3D ( 'NONE', #520, #574, #352 ) ;
#52 = AXIS2_PLACEMENT_3D ( 'NONE', #134, #409, #309 ) ;
#53 = CIRCLE ( 'NONE', #236, 3.274999999999999911 ) ;
#54 = CARTESIAN_POINT ( 'NONE',  ( 0.000000000000000000, 3.174999999999999822, -4.762500000000000178 ) ) ;
#55 = DIRECTION ( 'NONE',  ( -1.000000000000000000, 0.000000000000000000, 0.000000000000000000 ) ) ;
#56 = ORIENTED_EDGE ( 'NONE', *, *, #179, .F. ) ;
#57 = ADVANCED_FACE ( 'NONE', ( #205 ), #39, .T. ) ;
#58 = CARTESIAN_POINT ( 'NONE',  ( 0.000000000000000000, 3.075000000000000178, 0.000000000000000000 ) ) ;
#59 = EDGE_LOOP ( 'NONE', ( #715, #213 ) ) ;
#60 = CARTESIAN_POINT ( 'NONE',  ( 0.000000000000000000, 3.075000000000000178, 0.000000000000000000 ) ) ;
#61 = DIRECTION ( 'NONE',  ( 0.000000000000000000, 1.000000000000000000, 0.000000000000000000 ) ) ;
#62 = EDGE_LOOP ( 'NONE', ( #302, #402, #645, #187 ) ) ;
#63 = AXIS2_PLACEMENT_3D ( 'NONE', #603, #549, #436 ) ;
#64 = DIRECTION ( 'NONE',  ( 0.000000000000000000, -0.000000000000000000, 1.000000000000000000 ) ) ;
#65 = CARTESIAN_POINT ( 'NONE',  ( 5.832380380939270108E-16, 3.075000000000000178, 4.762500000000000178 ) ) ;
#66 = EDGE_CURVE ( 'NONE', #622, #360, #123, .T. ) ;
#67 = ORIENTED_EDGE ( 'NONE', *, *, #275, .F. ) ;
#68 = CARTESIAN_POINT ( 'NONE',  ( 0.000000000000000000, 3.174999999999999822, 0.000000000000000000 ) ) ;
#69 = DIRECTION ( 'NONE',  ( -0.000000000000000000, -1.000000000000000000, -0.000000000000000000 ) ) ;
#70 = EDGE_CURVE ( 'NONE', #19, #38, #544, .T. ) ;
#71 = ORIENTED_EDGE ( 'NONE', *, *, #112, .F. ) ;
#72 = DIRECTION ( 'NONE',  ( -0.000000000000000000, -1.000000000000000000, -0.000000000000000000 ) ) ;
#73 = DIRECTION ( 'NONE',  ( 0.000000000000000000, 0.000000000000000000, 1.000000000000000000 ) ) ;
#74 = ORIENTED_EDGE ( 'NONE', *, *, #631, .F. ) ;
#75 = AXIS2_PLACEMENT_3D ( 'NONE', #58, #341, #64 ) ;
#76 = LINE ( 'NONE', #241, #571 ) ;
#77 = AXIS2_PLACEMENT_3D ( 'NONE', #643, #626, #457 ) ;
#78 = ORIENTED_EDGE ( 'NONE', *, *, #523, .F. ) ;
#79 = EDGE_CURVE ( 'NONE', #446, #599, #50, .T. ) ;
#80 = CARTESIAN_POINT ( 'NONE',  ( 0.000000000000000000, 3.174999999999999822, 0.000000000000000000 ) ) ;
#81 = CARTESIAN_POINT ( 'NONE',  ( 0.000000000000000000, 0.000000000000000000, 0.000000000000000000 ) ) ;
#82 = EDGE_LOOP ( 'NONE', ( #466, #713 ) ) ;
#83 = DIRECTION ( 'NONE',  ( -0.000000000000000000, -1.000000000000000000, -0.000000000000000000 ) ) ;
#84 = PRESENTATION_STYLE_ASSIGNMENT (( #529 ) ) ;
#85 = PRODUCT_DEFINITION_CONTEXT ( 'detailed design', #142, 'design' ) ;
#86 = EDGE_LOOP ( 'NONE', ( #258, #641 ) ) ;
#87 = CLOSED_SHELL ( 'NONE', ( #120, #653, #25, #57, #332, #203, #438, #322, #581, #9, #615, #371, #314, #548, #702, #288, #646, #499, #136, #104, #382, #212, #470, #569, #456, #180 ) ) ;
#88 = CARTESIAN_POINT ( 'NONE',  ( 0.000000000000000000, 0.1000000000000000056, 0.000000000000000000 ) ) ;
#89 = CIRCLE ( 'NONE', #662, 4.762500000000000178 ) ;
#90 = AXIS2_PLACEMENT_3D ( 'NONE', #349, #690, #181 ) ;
#91 = DIRECTION ( 'NONE',  ( 0.000000000000000000, 0.000000000000000000, 1.000000000000000000 ) ) ;
#92 = DIRECTION ( 'NONE',  ( 0.000000000000000000, 0.000000000000000000, 1.000000000000000000 ) ) ;
#93 = CARTESIAN_POINT ( 'NONE',  ( 5.388445916248354013E-16, 3.075000000000000178, -4.400000000000000355 ) ) ;
#94 = ORIENTED_EDGE ( 'NONE', *, *, #642, .T. ) ;
#95 = SHAPE_DEFINITION_REPRESENTATION ( #256, #667 ) ;
#96 = DIRECTION ( 'NONE',  ( 0.000000000000000000, -0.000000000000000000, 1.000000000000000000 ) ) ;
#97 = DIRECTION ( 'NONE',  ( 0.000000000000000000, 0.000000000000000000, -1.000000000000000000 ) ) ;
#98 = ORIENTED_EDGE ( 'NONE', *, *, #79, .F. ) ;
#99 = CARTESIAN_POINT ( 'NONE',  ( 0.000000000000000000, 3.075000000000000178, 4.400000000000000355 ) ) ;
#100 = AXIS2_PLACEMENT_3D ( 'NONE', #88, #326, #366 ) ;
#101 = DIRECTION ( 'NONE',  ( 0.000000000000000000, 0.000000000000000000, 1.000000000000000000 ) ) ;
#102 = CIRCLE ( 'NONE', #197, 3.174999999999999822 ) ;
#103 =( GEOMETRIC_REPRESENTATION_CONTEXT ( 3 ) GLOBAL_UNCERTAINTY_ASSIGNED_CONTEXT ( ( #540 ) ) GLOBAL_UNIT_ASSIGNED_CONTEXT ( ( #192, #480, #219 ) ) REPRESENTATION_CONTEXT ( 'NONE', 'WORKASPACE' ) );
#104 = ADVANCED_FACE ( 'NONE', ( #242, #342 ), #238, .T. ) ;
#105 = LINE ( 'NONE', #99, #316 ) ;
#106 = FACE_OUTER_BOUND ( 'NONE', #62, .T. ) ;
#107 = DIRECTION ( 'NONE',  ( 0.000000000000000000, 0.000000000000000000, 1.000000000000000000 ) ) ;
#108 = DIRECTION ( 'NONE',  ( -1.000000000000000000, 0.000000000000000000, 0.000000000000000000 ) ) ;
#109 = AXIS2_PLACEMENT_3D ( 'NONE', #434, #607, #97 ) ;
#110 = CARTESIAN_POINT ( 'NONE',  ( 0.000000000000000000, -8.809142651444723526E-17, 3.274999999999999911 ) ) ;
#111 = AXIS2_PLACEMENT_3D ( 'NONE', #618, #237, #562 ) ;
#112 = EDGE_CURVE ( 'NONE', #202, #38, #7, .T. ) ;
#113 = ORIENTED_EDGE ( 'NONE', *, *, #295, .F. ) ;
#114 = CARTESIAN_POINT ( 'NONE',  ( 0.000000000000000000, 0.000000000000000000, 0.000000000000000000 ) ) ;
#115 = CYLINDRICAL_SURFACE ( 'NONE', #182, 3.700000000000000178 ) ;
#116 = VERTEX_POINT ( 'NONE', #4 ) ;
#117 = CARTESIAN_POINT ( 'NONE',  ( 4.531193156845206201E-16, 3.174999999999999822, -3.700000000000000178 ) ) ;
#118 = DIRECTION ( 'NONE',  ( 0.000000000000000000, 0.000000000000000000, 1.000000000000000000 ) ) ;
#119 = ORIENTED_EDGE ( 'NONE', *, *, #439, .T. ) ;
#120 = ADVANCED_FACE ( 'NONE', ( #554 ), #306, .T. ) ;
#121 = DIRECTION ( 'NONE',  ( 0.000000000000000000, 0.000000000000000000, 1.000000000000000000 ) ) ;
#122 = CARTESIAN_POINT ( 'NONE',  ( 0.000000000000000000, 0.1000000000000000056, 0.000000000000000000 ) ) ;
#123 = CIRCLE ( 'NONE', #670, 4.762500000000000178 ) ;
#124 = ORIENTED_EDGE ( 'NONE', *, *, #642, .F. ) ;
#125 = TOROIDAL_SURFACE ( 'NONE', #718, 4.662499999999999645, 0.1000000000000000056 ) ;
#126 = CARTESIAN_POINT ( 'NONE',  ( 0.000000000000000000, 3.174999999999999822, 0.000000000000000000 ) ) ;
#127 = EDGE_CURVE ( 'NONE', #683, #622, #262, .T. ) ;
#128 = DIRECTION ( 'NONE',  ( 0.000000000000000000, 0.000000000000000000, 1.000000000000000000 ) ) ;
#129 = ORIENTED_EDGE ( 'NONE', *, *, #340, .T. ) ;
#130 = DIRECTION ( 'NONE',  ( 0.000000000000000000, 0.000000000000000000, 1.000000000000000000 ) ) ;
#131 = EDGE_CURVE ( 'NONE', #547, #22, #636, .T. ) ;
#132 = EDGE_LOOP ( 'NONE', ( #692, #119 ) ) ;
#133 = CARTESIAN_POINT ( 'NONE',  ( 0.000000000000000000, 3.075000000000000178, 0.000000000000000000 ) ) ;
#134 = CARTESIAN_POINT ( 'NONE',  ( 0.000000000000000000, 3.174999999999999822, 0.000000000000000000 ) ) ;
#135 = ORIENTED_EDGE ( 'NONE', *, *, #179, .T. ) ;
#136 = ADVANCED_FACE ( 'NONE', ( #49 ), #115, .T. ) ;
#137 = CIRCLE ( 'NONE', #608, 3.700000000000000178 ) ;
#138 = CIRCLE ( 'NONE', #100, 4.400000000000000355 ) ;
#139 = DIRECTION ( 'NONE',  ( 0.000000000000000000, 1.000000000000000000, 0.000000000000000000 ) ) ;
#140 = SURFACE_STYLE_FILL_AREA ( #473 ) ;
#141 = ORIENTED_EDGE ( 'NONE', *, *, #726, .F. ) ;
#142 = APPLICATION_CONTEXT ( 'automotive_design' ) ;
#143 = FACE_OUTER_BOUND ( 'NONE', #455, .T. ) ;
#144 = DIRECTION ( 'NONE',  ( 0.000000000000000000, 1.000000000000000000, 0.000000000000000000 ) ) ;
#145 = VERTEX_POINT ( 'NONE', #65 ) ;
#146 = CARTESIAN_POINT ( 'NONE',  ( 0.000000000000000000, 3.075000000000000178, 0.000000000000000000 ) ) ;
#147 = VERTEX_POINT ( 'NONE', #110 ) ;
#148 = MECHANICAL_DESIGN_GEOMETRIC_PRESENTATION_REPRESENTATION (  '', ( #273 ), #545 ) ;
#149 = CARTESIAN_POINT ( 'NONE',  ( 0.000000000000000000, 3.075000000000000178, 0.000000000000000000 ) ) ;
#150 = EDGE_CURVE ( 'NONE', #5, #19, #454, .T. ) ;
#151 = CIRCLE ( 'NONE', #609, 3.700000000000000178 ) ;
#152 = CARTESIAN_POINT ( 'NONE',  ( 0.000000000000000000, 0.000000000000000000, 0.000000000000000000 ) ) ;
#153 = VERTEX_POINT ( 'NONE', #560 ) ;
#154 = FACE_BOUND ( 'NONE', #82, .T. ) ;
#155 = CARTESIAN_POINT ( 'NONE',  ( 0.000000000000000000, 0.09999999999999982514, 0.000000000000000000 ) ) ;
#156 = DIRECTION ( 'NONE',  ( -0.000000000000000000, 1.000000000000000000, -0.000000000000000000 ) ) ;
#157 = ORIENTED_EDGE ( 'NONE', *, *, #464, .F. ) ;
#158 = EDGE_CURVE ( 'NONE', #410, #591, #27, .T. ) ;
#159 = ORIENTED_EDGE ( 'NONE', *, *, #579, .T. ) ;
#160 = DIRECTION ( 'NONE',  ( 0.000000000000000000, 0.000000000000000000, 1.000000000000000000 ) ) ;
#161 = AXIS2_PLACEMENT_3D ( 'NONE', #541, #664, #654 ) ;
#162 = CARTESIAN_POINT ( 'NONE',  ( 0.000000000000000000, 3.174999999999999822, 3.274999999999999911 ) ) ;
#163 = CIRCLE ( 'NONE', #530, 4.400000000000000355 ) ;
#164 = CIRCLE ( 'NONE', #249, 4.762500000000000178 ) ;
#165 = ORIENTED_EDGE ( 'NONE', *, *, #379, .T. ) ;
#166 = CARTESIAN_POINT ( 'NONE',  ( 0.000000000000000000, 0.000000000000000000, 0.000000000000000000 ) ) ;
#167 = CARTESIAN_POINT ( 'NONE',  ( 0.000000000000000000, 0.000000000000000000, 0.000000000000000000 ) ) ;
#168 = DIRECTION ( 'NONE',  ( -0.000000000000000000, -1.000000000000000000, -0.000000000000000000 ) ) ;
#169 = EDGE_CURVE ( 'NONE', #620, #147, #458, .T. ) ;
#170 = CYLINDRICAL_SURFACE ( 'NONE', #559, 3.174999999999999822 ) ;
#171 = FACE_OUTER_BOUND ( 'NONE', #372, .T. ) ;
#172 = CIRCLE ( 'NONE', #583, 0.09999999999999982514 ) ;
#173 = ORIENTED_EDGE ( 'NONE', *, *, #726, .T. ) ;
#174 = CARTESIAN_POINT ( 'NONE',  ( 0.000000000000000000, 3.174999999999999822, 0.000000000000000000 ) ) ;
#175 = ORIENTED_EDGE ( 'NONE', *, *, #127, .F. ) ;
#176 = FACE_BOUND ( 'NONE', #353, .T. ) ;
#177 = DIRECTION ( 'NONE',  ( 0.000000000000000000, -1.000000000000000000, 0.000000000000000000 ) ) ;
#178 = VERTEX_POINT ( 'NONE', #682 ) ;
#179 = EDGE_CURVE ( 'NONE', #395, #34, #172, .T. ) ;
#180 = ADVANCED_FACE ( 'NONE', ( #171 ), #556, .T. ) ;
#181 = DIRECTION ( 'NONE',  ( 0.000000000000000000, 0.000000000000000000, 1.000000000000000000 ) ) ;
#182 = AXIS2_PLACEMENT_3D ( 'NONE', #386, #504, #570 ) ;
#183 = ORIENTED_EDGE ( 'NONE', *, *, #415, .F. ) ;
#184 = CIRCLE ( 'NONE', #51, 3.700000000000000178 ) ;
#185 = DIRECTION ( 'NONE',  ( 0.000000000000000000, 1.000000000000000000, 0.000000000000000000 ) ) ;
#186 = DIRECTION ( 'NONE',  ( 1.224646799147353207E-16, 0.000000000000000000, -1.000000000000000000 ) ) ;
#187 = ORIENTED_EDGE ( 'NONE', *, *, #575, .F. ) ;
#188 = LINE ( 'NONE', #304, #610 ) ;
#189 = FACE_OUTER_BOUND ( 'NONE', #407, .T. ) ;
#190 = EDGE_CURVE ( 'NONE', #432, #591, #512, .T. ) ;
#191 = ORIENTED_EDGE ( 'NONE', *, *, #537, .T. ) ;
#192 =( LENGTH_UNIT ( ) NAMED_UNIT ( * ) SI_UNIT ( .MILLI., .METRE. ) );
#193 = CARTESIAN_POINT ( 'NONE',  ( 0.000000000000000000, 0.000000000000000000, 0.000000000000000000 ) ) ;
#194 = ORIENTED_EDGE ( 'NONE', *, *, #700, .F. ) ;
#195 = AXIS2_PLACEMENT_3D ( 'NONE', #146, #652, #376 ) ;
#196 = DIRECTION ( 'NONE',  ( 0.000000000000000000, 0.000000000000000000, 1.000000000000000000 ) ) ;
#197 = AXIS2_PLACEMENT_3D ( 'NONE', #301, #10, #196 ) ;
#198 = CYLINDRICAL_SURFACE ( 'NONE', #207, 3.700000000000000178 ) ;
#199 = ORIENTED_EDGE ( 'NONE', *, *, #707, .F. ) ;
#200 = EDGE_CURVE ( 'NONE', #617, #272, #369, .T. ) ;
#201 = DIRECTION ( 'NONE',  ( 1.000000000000000000, -0.000000000000000000, 1.224646799147353207E-16 ) ) ;
#202 = VERTEX_POINT ( 'NONE', #696 ) ;
#203 = ADVANCED_FACE ( 'NONE', ( #312 ), #28, .F. ) ;
#204 = CARTESIAN_POINT ( 'NONE',  ( 0.000000000000000000, 0.000000000000000000, 4.662499999999999645 ) ) ;
#205 = FACE_OUTER_BOUND ( 'NONE', #356, .T. ) ;
#206 = CIRCLE ( 'NONE', #616, 4.662499999999999645 ) ;
#207 = AXIS2_PLACEMENT_3D ( 'NONE', #24, #264, #459 ) ;
#208 = ORIENTED_EDGE ( 'NONE', *, *, #379, .F. ) ;
#209 = AXIS2_PLACEMENT_3D ( 'NONE', #551, #703, #424 ) ;
#210 = CARTESIAN_POINT ( 'NONE',  ( 4.531193156845206201E-16, 3.075000000000000178, -3.700000000000000178 ) ) ;
#211 = CIRCLE ( 'NONE', #403, 3.274999999999999911 ) ;
#212 = ADVANCED_FACE ( 'NONE', ( #189 ), #198, .T. ) ;
#213 = ORIENTED_EDGE ( 'NONE', *, *, #464, .T. ) ;
#214 = PRODUCT_RELATED_PRODUCT_CATEGORY ( 'part', '', ( #467 ) ) ;
#215 = CARTESIAN_POINT ( 'NONE',  ( 0.000000000000000000, 3.174999999999999822, 3.700000000000000178 ) ) ;
#216 = EDGE_CURVE ( 'NONE', #384, #116, #163, .T. ) ;
#217 = ORIENTED_EDGE ( 'NONE', *, *, #66, .F. ) ;
#218 = EDGE_LOOP ( 'NONE', ( #677, #398 ) ) ;
#219 =( NAMED_UNIT ( * ) SI_UNIT ( $, .STERADIAN. ) SOLID_ANGLE_UNIT ( ) );
#220 = CYLINDRICAL_SURFACE ( 'NONE', #195, 3.700000000000000178 ) ;
#221 = EDGE_LOOP ( 'NONE', ( #240, #705 ) ) ;
#222 = DIRECTION ( 'NONE',  ( 0.000000000000000000, 0.000000000000000000, 1.000000000000000000 ) ) ;
#223 = AXIS2_PLACEMENT_3D ( 'NONE', #578, #638, #73 ) ;
#224 = CARTESIAN_POINT ( 'NONE',  ( 0.000000000000000000, 0.000000000000000000, -4.400000000000000355 ) ) ;
#225 = CARTESIAN_POINT ( 'NONE',  ( 0.000000000000000000, 0.09999999999999982514, 0.000000000000000000 ) ) ;
#226 = DIRECTION ( 'NONE',  ( 0.000000000000000000, 1.000000000000000000, 0.000000000000000000 ) ) ;
#227 = EDGE_CURVE ( 'NONE', #5, #202, #184, .T. ) ;
#228 = DIRECTION ( 'NONE',  ( 0.000000000000000000, 1.000000000000000000, 0.000000000000000000 ) ) ;
#229 = CARTESIAN_POINT ( 'NONE',  ( 4.531193156845206201E-16, 0.1000000000000000056, 3.700000000000000178 ) ) ;
#230 = ORIENTED_EDGE ( 'NONE', *, *, #66, .T. ) ;
#231 = LINE ( 'NONE', #283, #285 ) ;
#232 = CARTESIAN_POINT ( 'NONE',  ( 0.000000000000000000, 3.075000000000000178, 0.000000000000000000 ) ) ;
#233 = CIRCLE ( 'NONE', #532, 3.274999999999999911 ) ;
#234 = ORIENTED_EDGE ( 'NONE', *, *, #513, .F. ) ;
#235 = CIRCLE ( 'NONE', #77, 4.762500000000000178 ) ;
#236 = AXIS2_PLACEMENT_3D ( 'NONE', #408, #83, #130 ) ;
#237 = DIRECTION ( 'NONE',  ( 0.000000000000000000, 1.000000000000000000, 0.000000000000000000 ) ) ;
#238 = PLANE ( 'NONE',  #426 ) ;
#239 = EDGE_CURVE ( 'NONE', #599, #620, #406, .T. ) ;
#240 = ORIENTED_EDGE ( 'NONE', *, *, #509, .T. ) ;
#241 = CARTESIAN_POINT ( 'NONE',  ( 5.832380380939270108E-16, 3.174999999999999822, 4.762500000000000178 ) ) ;
#242 = FACE_OUTER_BOUND ( 'NONE', #392, .T. ) ;
#243 = ORIENTED_EDGE ( 'NONE', *, *, #523, .T. ) ;
#244 = FACE_OUTER_BOUND ( 'NONE', #660, .T. ) ;
#245 = MANIFOLD_SOLID_BREP ( 'Redondeo1', #87 ) ;
#246 = FILL_AREA_STYLE_COLOUR ( '', #284 ) ;
#247 = ORIENTED_EDGE ( 'NONE', *, *, #575, .T. ) ;
#248 = AXIS2_PLACEMENT_3D ( 'NONE', #232, #61, #296 ) ;
#249 = AXIS2_PLACEMENT_3D ( 'NONE', #149, #40, #36 ) ;
#250 = VECTOR ( 'NONE', #695, 1000.000000000000000 ) ;
#251 = EDGE_CURVE ( 'NONE', #38, #19, #440, .T. ) ;
#252 = DIRECTION ( 'NONE',  ( 0.000000000000000000, 0.000000000000000000, 1.000000000000000000 ) ) ;
#253 = CARTESIAN_POINT ( 'NONE',  ( 0.000000000000000000, 3.174999999999999822, 0.000000000000000000 ) ) ;
#254 = EDGE_LOOP ( 'NONE', ( #694, #680, #129, #502 ) ) ;
#255 = CARTESIAN_POINT ( 'NONE',  ( 3.888253587292846081E-16, 3.075000000000000178, 3.174999999999999822 ) ) ;
#256 = PRODUCT_DEFINITION_SHAPE ( 'NONE', 'NONE',  #689 ) ;
#257 = CARTESIAN_POINT ( 'NONE',  ( 0.000000000000000000, 3.075000000000000178, 0.000000000000000000 ) ) ;
#258 = ORIENTED_EDGE ( 'NONE', *, *, #35, .T. ) ;
#259 = LINE ( 'NONE', #351, #448 ) ;
#260 = CARTESIAN_POINT ( 'NONE',  ( 0.000000000000000000, 0.1000000000000000056, 0.000000000000000000 ) ) ;
#261 = EDGE_LOOP ( 'NONE', ( #658, #194, #536, #576 ) ) ;
#262 = CIRCLE ( 'NONE', #368, 0.1000000000000002554 ) ;
#263 = AXIS2_PLACEMENT_3D ( 'NONE', #706, #160, #420 ) ;
#264 = DIRECTION ( 'NONE',  ( -0.000000000000000000, -1.000000000000000000, -0.000000000000000000 ) ) ;
#265 = ORIENTED_EDGE ( 'NONE', *, *, #70, .T. ) ;
#266 = EDGE_CURVE ( 'NONE', #145, #178, #521, .T. ) ;
#267 = ORIENTED_EDGE ( 'NONE', *, *, #275, .T. ) ;
#268 = CARTESIAN_POINT ( 'NONE',  ( 0.000000000000000000, 0.000000000000000000, 0.000000000000000000 ) ) ;
#269 = ORIENTED_EDGE ( 'NONE', *, *, #190, .F. ) ;
#270 = ORIENTED_EDGE ( 'NONE', *, *, #415, .T. ) ;
#271 = CARTESIAN_POINT ( 'NONE',  ( 0.000000000000000000, 0.09999999999999982514, -3.174999999999999822 ) ) ;
#272 = VERTEX_POINT ( 'NONE', #589 ) ;
#273 = STYLED_ITEM ( 'NONE', ( #84 ), #245 ) ;
#274 = CIRCLE ( 'NONE', #697, 4.662499999999999645 ) ;
#275 = EDGE_CURVE ( 'NONE', #272, #178, #274, .T. ) ;
#276 = PLANE ( 'NONE',  #672 ) ;
#277 = DIRECTION ( 'NONE',  ( 0.000000000000000000, 1.000000000000000000, 0.000000000000000000 ) ) ;
#278 = CYLINDRICAL_SURFACE ( 'NONE', #63, 4.400000000000000355 ) ;
#279 = CARTESIAN_POINT ( 'NONE',  ( 0.000000000000000000, 3.075000000000000178, 3.274999999999999911 ) ) ;
#280 = DIRECTION ( 'NONE',  ( 0.000000000000000000, 0.000000000000000000, -1.000000000000000000 ) ) ;
#281 = DIRECTION ( 'NONE',  ( 0.000000000000000000, 0.000000000000000000, 1.000000000000000000 ) ) ;
#282 = AXIS2_PLACEMENT_3D ( 'NONE', #722, #226, #565 ) ;
#283 = CARTESIAN_POINT ( 'NONE',  ( 0.000000000000000000, 3.174999999999999822, -3.174999999999999822 ) ) ;
#284 = COLOUR_RGB ( '',0.7921568627450980005, 0.8196078431372548767, 0.9333333333333333481 ) ;
#285 = VECTOR ( 'NONE', #168, 1000.000000000000000 ) ;
#286 = UNCERTAINTY_MEASURE_WITH_UNIT (LENGTH_MEASURE( 1.000000000000000082E-05 ), #627, 'distance_accuracy_value', 'NONE');
#287 = DIRECTION ( 'NONE',  ( 0.000000000000000000, 1.000000000000000000, 0.000000000000000000 ) ) ;
#288 = ADVANCED_FACE ( 'NONE', ( #691 ), #359, .F. ) ;
#289 = DIRECTION ( 'NONE',  ( -0.000000000000000000, -1.000000000000000000, -0.000000000000000000 ) ) ;
#290 = EDGE_LOOP ( 'NONE', ( #572, #94, #505, #78 ) ) ;
#291 = DIRECTION ( 'NONE',  ( 0.000000000000000000, 1.000000000000000000, 0.000000000000000000 ) ) ;
#292 = CARTESIAN_POINT ( 'NONE',  ( 0.000000000000000000, 3.075000000000000178, 0.000000000000000000 ) ) ;
#293 = ORIENTED_EDGE ( 'NONE', *, *, #491, .F. ) ;
#294 = FACE_OUTER_BOUND ( 'NONE', #514, .T. ) ;
#295 = EDGE_CURVE ( 'NONE', #617, #145, #89, .T. ) ;
#296 = DIRECTION ( 'NONE',  ( 0.000000000000000000, 0.000000000000000000, 1.000000000000000000 ) ) ;
#297 = ORIENTED_EDGE ( 'NONE', *, *, #47, .F. ) ;
#298 = FACE_OUTER_BOUND ( 'NONE', #566, .T. ) ;
#299 = DIRECTION ( 'NONE',  ( -0.000000000000000000, -1.000000000000000000, -0.000000000000000000 ) ) ;
#300 = VERTEX_POINT ( 'NONE', #693 ) ;
#301 = CARTESIAN_POINT ( 'NONE',  ( 0.000000000000000000, 3.075000000000000178, 0.000000000000000000 ) ) ;
#302 = ORIENTED_EDGE ( 'NONE', *, *, #295, .T. ) ;
#303 = EDGE_CURVE ( 'NONE', #34, #147, #496, .T. ) ;
#304 = CARTESIAN_POINT ( 'NONE',  ( 0.000000000000000000, 3.075000000000000178, 3.700000000000000178 ) ) ;
#305 = DIRECTION ( 'NONE',  ( -0.000000000000000000, 1.000000000000000000, -0.000000000000000000 ) ) ;
#306 = TOROIDAL_SURFACE ( 'NONE', #597, 4.662499999999999645, 0.1000000000000000056 ) ;
#307 = ORIENTED_EDGE ( 'NONE', *, *, #70, .F. ) ;
#308 = DIRECTION ( 'NONE',  ( 0.000000000000000000, 0.000000000000000000, 1.000000000000000000 ) ) ;
#309 = DIRECTION ( 'NONE',  ( 0.000000000000000000, 0.000000000000000000, -1.000000000000000000 ) ) ;
#310 = ORIENTED_EDGE ( 'NONE', *, *, #596, .T. ) ;
#311 = LINE ( 'NONE', #472, #250 ) ;
#312 = FACE_OUTER_BOUND ( 'NONE', #290, .T. ) ;
#313 = EDGE_LOOP ( 'NONE', ( #293, #135, #632, #510 ) ) ;
#314 = ADVANCED_FACE ( 'NONE', ( #44, #154 ), #276, .T. ) ;
#315 = ORIENTED_EDGE ( 'NONE', *, *, #251, .F. ) ;
#316 = VECTOR ( 'NONE', #490, 1000.000000000000000 ) ;
#317 = ORIENTED_EDGE ( 'NONE', *, *, #227, .F. ) ;
#318 = CARTESIAN_POINT ( 'NONE',  ( 0.000000000000000000, 3.174999999999999822, 0.000000000000000000 ) ) ;
#319 = DIRECTION ( 'NONE',  ( 0.000000000000000000, 0.000000000000000000, 1.000000000000000000 ) ) ;
#320 = FACE_BOUND ( 'NONE', #11, .T. ) ;
#321 = DIRECTION ( 'NONE',  ( -0.000000000000000000, 1.000000000000000000, -0.000000000000000000 ) ) ;
#322 = ADVANCED_FACE ( 'NONE', ( #602 ), #278, .F. ) ;
#323 = CYLINDRICAL_SURFACE ( 'NONE', #209, 3.700000000000000178 ) ;
#324 = ORIENTED_EDGE ( 'NONE', *, *, #509, .F. ) ;
#325 = ORIENTED_EDGE ( 'NONE', *, *, #491, .T. ) ;
#326 = DIRECTION ( 'NONE',  ( -0.000000000000000000, 1.000000000000000000, -0.000000000000000000 ) ) ;
#327 = AXIS2_PLACEMENT_3D ( 'NONE', #60, #3, #404 ) ;
#328 = ORIENTED_EDGE ( 'NONE', *, *, #719, .F. ) ;
#329 = CARTESIAN_POINT ( 'NONE',  ( 0.000000000000000000, 3.174999999999999822, 0.000000000000000000 ) ) ;
#330 = CARTESIAN_POINT ( 'NONE',  ( 0.000000000000000000, 3.075000000000000178, 3.700000000000000178 ) ) ;
#331 = CARTESIAN_POINT ( 'NONE',  ( 0.000000000000000000, 0.09999999999999982514, 0.000000000000000000 ) ) ;
#332 = ADVANCED_FACE ( 'NONE', ( #606 ), #323, .T. ) ;
#333 = CIRCLE ( 'NONE', #582, 4.400000000000000355 ) ;
#334 = LINE ( 'NONE', #54, #30 ) ;
#335 = TOROIDAL_SURFACE ( 'NONE', #111, 3.274999999999999911, 0.1000000000000000056 ) ;
#336 = DIRECTION ( 'NONE',  ( -0.000000000000000000, -1.000000000000000000, -0.000000000000000000 ) ) ;
#337 = ORIENTED_EDGE ( 'NONE', *, *, #579, .F. ) ;
#338 = DIRECTION ( 'NONE',  ( 0.000000000000000000, 0.000000000000000000, 1.000000000000000000 ) ) ;
#339 = VERTEX_POINT ( 'NONE', #204 ) ;
#340 = EDGE_CURVE ( 'NONE', #620, #395, #460, .T. ) ;
#341 = DIRECTION ( 'NONE',  ( 0.000000000000000000, 1.000000000000000000, 0.000000000000000000 ) ) ;
#342 = FACE_BOUND ( 'NONE', #86, .T. ) ;
#343 = ORIENTED_EDGE ( 'NONE', *, *, #190, .T. ) ;
#344 = CARTESIAN_POINT ( 'NONE',  ( 0.000000000000000000, 3.075000000000000178, 4.400000000000000355 ) ) ;
#345 = DIRECTION ( 'NONE',  ( 0.000000000000000000, 0.000000000000000000, 1.000000000000000000 ) ) ;
#346 = CIRCLE ( 'NONE', #41, 4.400000000000000355 ) ;
#347 = ORIENTED_EDGE ( 'NONE', *, *, #676, .T. ) ;
#348 = VECTOR ( 'NONE', #383, 1000.000000000000000 ) ;
#349 = CARTESIAN_POINT ( 'NONE',  ( 0.000000000000000000, 3.075000000000000178, 0.000000000000000000 ) ) ;
#350 = EDGE_LOOP ( 'NONE', ( #175, #324, #191, #217 ) ) ;
#351 = CARTESIAN_POINT ( 'NONE',  ( 5.388445916248354013E-16, 0.1000000000000000056, 4.400000000000000355 ) ) ;
#352 = DIRECTION ( 'NONE',  ( 0.000000000000000000, 0.000000000000000000, 1.000000000000000000 ) ) ;
#353 = EDGE_LOOP ( 'NONE', ( #337, #141 ) ) ;
#354 = DIRECTION ( 'NONE',  ( 0.000000000000000000, 1.000000000000000000, 0.000000000000000000 ) ) ;
#355 = DIRECTION ( 'NONE',  ( 1.000000000000000000, -0.000000000000000000, 1.224646799147353207E-16 ) ) ;
#356 = EDGE_LOOP ( 'NONE', ( #648, #604, #31, #419 ) ) ;
#357 = AXIS2_PLACEMENT_3D ( 'NONE', #68, #72, #515 ) ;
#358 = CARTESIAN_POINT ( 'NONE',  ( 0.000000000000000000, 0.09999999999999982514, -4.762500000000000178 ) ) ;
#359 = CYLINDRICAL_SURFACE ( 'NONE', #52, 3.174999999999999822 ) ;
#360 = VERTEX_POINT ( 'NONE', #595 ) ;
#361 = EDGE_CURVE ( 'NONE', #37, #300, #346, .T. ) ;
#362 = DIRECTION ( 'NONE',  ( 0.000000000000000000, 0.000000000000000000, 1.000000000000000000 ) ) ;
#363 = CARTESIAN_POINT ( 'NONE',  ( 0.000000000000000000, 0.1000000000000000056, 0.000000000000000000 ) ) ;
#364 = ORIENTED_EDGE ( 'NONE', *, *, #150, .T. ) ;
#365 = APPLICATION_PROTOCOL_DEFINITION ( 'draft international standard', 'automotive_design', 1998, #142 ) ;
#366 = DIRECTION ( 'NONE',  ( 0.000000000000000000, 0.000000000000000000, 1.000000000000000000 ) ) ;
#367 = ORIENTED_EDGE ( 'NONE', *, *, #707, .T. ) ;
#368 = AXIS2_PLACEMENT_3D ( 'NONE', #669, #679, #449 ) ;
#369 = CIRCLE ( 'NONE', #519, 0.1000000000000002554 ) ;
#370 = FACE_OUTER_BOUND ( 'NONE', #132, .T. ) ;
#371 = ADVANCED_FACE ( 'NONE', ( #320, #370 ), #430, .T. ) ;
#372 = EDGE_LOOP ( 'NONE', ( #461, #655, #373, #67 ) ) ;
#373 = ORIENTED_EDGE ( 'NONE', *, *, #266, .T. ) ;
#374 = DIRECTION ( 'NONE',  ( 0.000000000000000000, 0.000000000000000000, 1.000000000000000000 ) ) ;
#375 = FACE_OUTER_BOUND ( 'NONE', #313, .T. ) ;
#376 = DIRECTION ( 'NONE',  ( 0.000000000000000000, 0.000000000000000000, 1.000000000000000000 ) ) ;
#377 = DIRECTION ( 'NONE',  ( -0.000000000000000000, -1.000000000000000000, -0.000000000000000000 ) ) ;
#378 = PRODUCT_CONTEXT ( 'NONE', #477, 'mechanical' ) ;
#379 = EDGE_CURVE ( 'NONE', #116, #384, #138, .T. ) ;
#380 = CARTESIAN_POINT ( 'NONE',  ( 0.000000000000000000, 0.1000000000000000056, -4.400000000000000355 ) ) ;
#381 = EDGE_LOOP ( 'NONE', ( #328, #489, #247, #230 ) ) ;
#382 = ADVANCED_FACE ( 'NONE', ( #611 ), #46, .F. ) ;
#383 = DIRECTION ( 'NONE',  ( -0.000000000000000000, -1.000000000000000000, -0.000000000000000000 ) ) ;
#384 = VERTEX_POINT ( 'NONE', #380 ) ;
#385 = FACE_OUTER_BOUND ( 'NONE', #350, .T. ) ;
#386 = CARTESIAN_POINT ( 'NONE',  ( 0.000000000000000000, 3.075000000000000178, 0.000000000000000000 ) ) ;
#387 = EDGE_LOOP ( 'NONE', ( #269, #173, #367, #698 ) ) ;
#388 = VECTOR ( 'NONE', #299, 1000.000000000000000 ) ;
#389 = FACE_OUTER_BOUND ( 'NONE', #221, .T. ) ;
#390 = AXIS2_PLACEMENT_3D ( 'NONE', #225, #553, #48 ) ;
#391 = EDGE_CURVE ( 'NONE', #145, #617, #164, .T. ) ;
#392 = EDGE_LOOP ( 'NONE', ( #413, #208 ) ) ;
#393 = DIRECTION ( 'NONE',  ( -0.000000000000000000, -1.000000000000000000, -0.000000000000000000 ) ) ;
#394 = CARTESIAN_POINT ( 'NONE',  ( 4.010718267207581624E-16, 0.09999999999999982514, -3.274999999999999911 ) ) ;
#395 = VERTEX_POINT ( 'NONE', #271 ) ;
#396 = DIRECTION ( 'NONE',  ( -0.000000000000000000, -1.000000000000000000, -0.000000000000000000 ) ) ;
#397 = DIRECTION ( 'NONE',  ( 0.000000000000000000, 1.000000000000000000, 0.000000000000000000 ) ) ;
#398 = ORIENTED_EDGE ( 'NONE', *, *, #303, .T. ) ;
#399 = DIRECTION ( 'NONE',  ( 0.000000000000000000, -0.000000000000000000, 1.000000000000000000 ) ) ;
#400 = AXIS2_PLACEMENT_3D ( 'NONE', #543, #494, #425 ) ;
#401 =( NAMED_UNIT ( * ) PLANE_ANGLE_UNIT ( ) SI_UNIT ( $, .RADIAN. ) );
#402 = ORIENTED_EDGE ( 'NONE', *, *, #719, .T. ) ;
#403 = AXIS2_PLACEMENT_3D ( 'NONE', #453, #686, #252 ) ;
#404 = DIRECTION ( 'NONE',  ( 0.000000000000000000, 0.000000000000000000, 1.000000000000000000 ) ) ;
#405 = EDGE_CURVE ( 'NONE', #147, #34, #233, .T. ) ;
#406 = LINE ( 'NONE', #524, #598 ) ;
#407 = EDGE_LOOP ( 'NONE', ( #625, #701, #479, #635 ) ) ;
#408 = CARTESIAN_POINT ( 'NONE',  ( 0.000000000000000000, 3.174999999999999822, 0.000000000000000000 ) ) ;
#409 = DIRECTION ( 'NONE',  ( -0.000000000000000000, -1.000000000000000000, -0.000000000000000000 ) ) ;
#410 = VERTEX_POINT ( 'NONE', #215 ) ;
#411 = DIRECTION ( 'NONE',  ( 0.000000000000000000, 1.000000000000000000, 0.000000000000000000 ) ) ;
#412 = PRODUCT_DEFINITION_FORMATION_WITH_SPECIFIED_SOURCE ( 'ANY', '', #467, .NOT_KNOWN. ) ;
#413 = ORIENTED_EDGE ( 'NONE', *, *, #216, .F. ) ;
#414 = AXIS2_PLACEMENT_3D ( 'NONE', #193, #144, #92 ) ;
#415 = EDGE_CURVE ( 'NONE', #547, #525, #105, .T. ) ;
#416 = AXIS2_PLACEMENT_3D ( 'NONE', #126, #139, #573 ) ;
#417 = CARTESIAN_POINT ( 'NONE',  ( 5.388445916248354013E-16, 3.174999999999999822, -4.400000000000000355 ) ) ;
#418 = DIRECTION ( 'NONE',  ( 0.000000000000000000, 0.000000000000000000, 1.000000000000000000 ) ) ;
#419 = ORIENTED_EDGE ( 'NONE', *, *, #537, .F. ) ;
#420 = DIRECTION ( 'NONE',  ( 1.000000000000000000, 0.000000000000000000, 0.000000000000000000 ) ) ;
#421 = DIRECTION ( 'NONE',  ( 1.224646799147353454E-16, 0.000000000000000000, -1.000000000000000000 ) ) ;
#422 = EDGE_LOOP ( 'NONE', ( #435, #310, #590, #325 ) ) ;
#423 = EDGE_CURVE ( 'NONE', #32, #153, #639, .T. ) ;
#424 = DIRECTION ( 'NONE',  ( 0.000000000000000000, 0.000000000000000000, -1.000000000000000000 ) ) ;
#425 = DIRECTION ( 'NONE',  ( 0.000000000000000000, 0.000000000000000000, 1.000000000000000000 ) ) ;
#426 = AXIS2_PLACEMENT_3D ( 'NONE', #122, #177, #675 ) ;
#427 = AXIS2_PLACEMENT_3D ( 'NONE', #318, #659, #535 ) ;
#428 = CIRCLE ( 'NONE', #601, 4.662499999999999645 ) ;
#429 = CIRCLE ( 'NONE', #2, 4.400000000000000355 ) ;
#430 = PLANE ( 'NONE',  #600 ) ;
#431 = DIRECTION ( 'NONE',  ( 0.000000000000000000, 0.000000000000000000, 1.000000000000000000 ) ) ;
#432 = VERTEX_POINT ( 'NONE', #210 ) ;
#433 = CARTESIAN_POINT ( 'NONE',  ( 0.000000000000000000, 0.000000000000000000, 0.000000000000000000 ) ) ;
#434 = CARTESIAN_POINT ( 'NONE',  ( 0.000000000000000000, 3.174999999999999822, 0.000000000000000000 ) ) ;
#435 = ORIENTED_EDGE ( 'NONE', *, *, #239, .F. ) ;
#436 = DIRECTION ( 'NONE',  ( 0.000000000000000000, 0.000000000000000000, 1.000000000000000000 ) ) ;
#437 = ORIENTED_EDGE ( 'NONE', *, *, #513, .T. ) ;
#438 = ADVANCED_FACE ( 'NONE', ( #656 ), #220, .T. ) ;
#439 = EDGE_CURVE ( 'NONE', #591, #410, #16, .T. ) ;
#440 = CIRCLE ( 'NONE', #585, 3.700000000000000178 ) ;
#441 = FACE_OUTER_BOUND ( 'NONE', #261, .T. ) ;
#442 = CARTESIAN_POINT ( 'NONE',  ( 4.010718267207581624E-16, 3.174999999999999822, -3.274999999999999911 ) ) ;
#443 = CARTESIAN_POINT ( 'NONE',  ( 0.000000000000000000, 0.09999999999999982514, 4.662499999999999645 ) ) ;
#444 = DIRECTION ( 'NONE',  ( 0.000000000000000000, 0.000000000000000000, 1.000000000000000000 ) ) ;
#445 = DIRECTION ( 'NONE',  ( 1.224646799147353454E-16, 0.000000000000000000, -1.000000000000000000 ) ) ;
#446 = VERTEX_POINT ( 'NONE', #162 ) ;
#447 = DIRECTION ( 'NONE',  ( 0.000000000000000000, 0.000000000000000000, 1.000000000000000000 ) ) ;
#448 = VECTOR ( 'NONE', #588, 1000.000000000000000 ) ;
#449 = DIRECTION ( 'NONE',  ( 1.224646799147353207E-16, 0.000000000000000000, -1.000000000000000000 ) ) ;
#450 = ORIENTED_EDGE ( 'NONE', *, *, #266, .F. ) ;
#451 = PLANE ( 'NONE',  #75 ) ;
#452 = EDGE_LOOP ( 'NONE', ( #522, #471, #270, #534 ) ) ;
#453 = CARTESIAN_POINT ( 'NONE',  ( 0.000000000000000000, 3.174999999999999822, 0.000000000000000000 ) ) ;
#454 = LINE ( 'NONE', #229, #388 ) ;
#455 = EDGE_LOOP ( 'NONE', ( #74, #563, #724, #98 ) ) ;
#456 = ADVANCED_FACE ( 'NONE', ( #441 ), #335, .T. ) ;
#457 = DIRECTION ( 'NONE',  ( 0.000000000000000000, 0.000000000000000000, 1.000000000000000000 ) ) ;
#458 = CIRCLE ( 'NONE', #555, 0.09999999999999982514 ) ;
#459 = DIRECTION ( 'NONE',  ( 0.000000000000000000, 0.000000000000000000, -1.000000000000000000 ) ) ;
#460 = CIRCLE ( 'NONE', #29, 3.174999999999999822 ) ;
#461 = ORIENTED_EDGE ( 'NONE', *, *, #200, .F. ) ;
#462 = AXIS2_PLACEMENT_3D ( 'NONE', #331, #725, #222 ) ;
#463 = DIRECTION ( 'NONE',  ( 0.000000000000000000, 0.000000000000000000, 1.000000000000000000 ) ) ;
#464 = EDGE_CURVE ( 'NONE', #300, #37, #14, .T. ) ;
#465 = DIRECTION ( 'NONE',  ( 0.000000000000000000, 1.000000000000000000, 0.000000000000000000 ) ) ;
#466 = ORIENTED_EDGE ( 'NONE', *, *, #665, .F. ) ;
#467 = PRODUCT ( 'Rolinera 6 35 x 9 525 x 3 175', 'Rolinera 6 35 x 9 525 x 3 175', '', ( #378 ) ) ;
#468 = CARTESIAN_POINT ( 'NONE',  ( 5.771148040981903323E-16, 0.000000000000000000, -4.662499999999999645 ) ) ;
#469 = DIRECTION ( 'NONE',  ( 0.000000000000000000, 0.000000000000000000, 1.000000000000000000 ) ) ;
#470 = ADVANCED_FACE ( 'NONE', ( #385 ), #125, .T. ) ;
#471 = ORIENTED_EDGE ( 'NONE', *, *, #131, .F. ) ;
#472 = CARTESIAN_POINT ( 'NONE',  ( 5.388445916248354013E-16, 3.075000000000000178, -4.400000000000000355 ) ) ;
#473 = FILL_AREA_STYLE ('',( #246 ) ) ;
#474 = AXIS2_PLACEMENT_3D ( 'NONE', #279, #492, #319 ) ;
#475 = VECTOR ( 'NONE', #18, 1000.000000000000000 ) ;
#476 = EDGE_LOOP ( 'NONE', ( #437, #267 ) ) ;
#477 = APPLICATION_CONTEXT ( 'automotive_design' ) ;
#478 = DIRECTION ( 'NONE',  ( -0.000000000000000000, 1.000000000000000000, -0.000000000000000000 ) ) ;
#479 = ORIENTED_EDGE ( 'NONE', *, *, #112, .T. ) ;
#480 =( NAMED_UNIT ( * ) PLANE_ANGLE_UNIT ( ) SI_UNIT ( $, .RADIAN. ) );
#481 = DIRECTION ( 'NONE',  ( -0.000000000000000000, -1.000000000000000000, -0.000000000000000000 ) ) ;
#482 = ORIENTED_EDGE ( 'NONE', *, *, #200, .T. ) ;
#483 = EDGE_CURVE ( 'NONE', #153, #395, #231, .T. ) ;
#484 = CARTESIAN_POINT ( 'NONE',  ( 4.010718267207581624E-16, 3.075000000000000178, -3.274999999999999911 ) ) ;
#485 = ORIENTED_EDGE ( 'NONE', *, *, #631, .T. ) ;
#486 = AXIS2_PLACEMENT_3D ( 'NONE', #15, #629, #399 ) ;
#487 = DIRECTION ( 'NONE',  ( 0.000000000000000000, -0.000000000000000000, 1.000000000000000000 ) ) ;
#488 = DIRECTION ( 'NONE',  ( 0.000000000000000000, 0.000000000000000000, 1.000000000000000000 ) ) ;
#489 = ORIENTED_EDGE ( 'NONE', *, *, #391, .T. ) ;
#490 = DIRECTION ( 'NONE',  ( -0.000000000000000000, 1.000000000000000000, -0.000000000000000000 ) ) ;
#491 = EDGE_CURVE ( 'NONE', #395, #620, #687, .T. ) ;
#492 = DIRECTION ( 'NONE',  ( -1.000000000000000000, 0.000000000000000000, 0.000000000000000000 ) ) ;
#493 = DIRECTION ( 'NONE',  ( 0.000000000000000000, 0.000000000000000000, 1.000000000000000000 ) ) ;
#494 = DIRECTION ( 'NONE',  ( 0.000000000000000000, 1.000000000000000000, 0.000000000000000000 ) ) ;
#495 = VECTOR ( 'NONE', #336, 1000.000000000000000 ) ;
#496 = CIRCLE ( 'NONE', #414, 3.274999999999999911 ) ;
#497 = DIRECTION ( 'NONE',  ( -0.000000000000000000, 1.000000000000000000, -0.000000000000000000 ) ) ;
#498 = AXIS2_PLACEMENT_3D ( 'NONE', #681, #185, #463 ) ;
#499 = ADVANCED_FACE ( 'NONE', ( #176, #294 ), #451, .T. ) ;
#500 = CARTESIAN_POINT ( 'NONE',  ( 0.000000000000000000, 3.075000000000000178, 0.000000000000000000 ) ) ;
#501 = DIRECTION ( 'NONE',  ( 0.000000000000000000, 0.000000000000000000, 1.000000000000000000 ) ) ;
#502 = ORIENTED_EDGE ( 'NONE', *, *, #483, .F. ) ;
#503 = FACE_BOUND ( 'NONE', #59, .T. ) ;
#504 = DIRECTION ( 'NONE',  ( -0.000000000000000000, 1.000000000000000000, -0.000000000000000000 ) ) ;
#505 = ORIENTED_EDGE ( 'NONE', *, *, #361, .F. ) ;
#506 = AXIS2_PLACEMENT_3D ( 'NONE', #723, #397, #345 ) ;
#507 = CARTESIAN_POINT ( 'NONE',  ( 0.000000000000000000, 3.174999999999999822, 0.000000000000000000 ) ) ;
#508 = AXIS2_PLACEMENT_3D ( 'NONE', #674, #558, #716 ) ;
#509 = EDGE_CURVE ( 'NONE', #339, #683, #428, .T. ) ;
#510 = ORIENTED_EDGE ( 'NONE', *, *, #169, .F. ) ;
#511 = PLANE ( 'NONE',  #486 ) ;
#512 = LINE ( 'NONE', #21, #475 ) ;
#513 = EDGE_CURVE ( 'NONE', #178, #272, #673, .T. ) ;
#514 = EDGE_LOOP ( 'NONE', ( #561, #26 ) ) ;
#515 = DIRECTION ( 'NONE',  ( 0.000000000000000000, 0.000000000000000000, -1.000000000000000000 ) ) ;
#516 = CARTESIAN_POINT ( 'NONE',  ( 5.709915701024534566E-16, 3.075000000000000178, -4.662499999999999645 ) ) ;
#517 = ORIENTED_EDGE ( 'NONE', *, *, #700, .T. ) ;
#518 = DIRECTION ( 'NONE',  ( -0.000000000000000000, 1.000000000000000000, -0.000000000000000000 ) ) ;
#519 = AXIS2_PLACEMENT_3D ( 'NONE', #516, #355, #186 ) ;
#520 = CARTESIAN_POINT ( 'NONE',  ( 0.000000000000000000, 0.1000000000000000056, 0.000000000000000000 ) ) ;
#521 = CIRCLE ( 'NONE', #223, 0.1000000000000002554 ) ;
#522 = ORIENTED_EDGE ( 'NONE', *, *, #676, .F. ) ;
#523 = EDGE_CURVE ( 'NONE', #384, #37, #614, .T. ) ;
#524 = CARTESIAN_POINT ( 'NONE',  ( 3.888253587292846081E-16, 3.174999999999999822, 3.174999999999999822 ) ) ;
#525 = VERTEX_POINT ( 'NONE', #613 ) ;
#526 = CYLINDRICAL_SURFACE ( 'NONE', #90, 4.400000000000000355 ) ;
#527 = DIRECTION ( 'NONE',  ( 0.000000000000000000, 0.000000000000000000, -1.000000000000000000 ) ) ;
#528 = ORIENTED_EDGE ( 'NONE', *, *, #158, .F. ) ;
#529 = SURFACE_STYLE_USAGE ( .BOTH. , #584 ) ;
#530 = AXIS2_PLACEMENT_3D ( 'NONE', #260, #478, #128 ) ;
#531 = EDGE_LOOP ( 'NONE', ( #297, #347, #8, #183 ) ) ;
#532 = AXIS2_PLACEMENT_3D ( 'NONE', #433, #33, #493 ) ;
#533 = CIRCLE ( 'NONE', #43, 0.1000000000000002554 ) ;
#534 = ORIENTED_EDGE ( 'NONE', *, *, #665, .T. ) ;
#535 = DIRECTION ( 'NONE',  ( 0.000000000000000000, 0.000000000000000000, 1.000000000000000000 ) ) ;
#536 = ORIENTED_EDGE ( 'NONE', *, *, #79, .T. ) ;
#537 = EDGE_CURVE ( 'NONE', #339, #360, #533, .T. ) ;
#538 = APPLICATION_PROTOCOL_DEFINITION ( 'draft international standard', 'automotive_design', 1998, #477 ) ;
#539 = DIRECTION ( 'NONE',  ( 0.000000000000000000, 1.000000000000000000, 0.000000000000000000 ) ) ;
#540 = UNCERTAINTY_MEASURE_WITH_UNIT (LENGTH_MEASURE( 1.000000000000000082E-05 ), #192, 'distance_accuracy_value', 'NONE');
#541 = CARTESIAN_POINT ( 'NONE',  ( 0.000000000000000000, 0.09999999999999982514, 0.000000000000000000 ) ) ;
#542 = DIRECTION ( 'NONE',  ( -0.000000000000000000, -1.000000000000000000, -0.000000000000000000 ) ) ;
#543 = CARTESIAN_POINT ( 'NONE',  ( 0.000000000000000000, 0.09999999999999982514, 0.000000000000000000 ) ) ;
#544 = CIRCLE ( 'NONE', #12, 3.700000000000000178 ) ;
#545 =( GEOMETRIC_REPRESENTATION_CONTEXT ( 3 ) GLOBAL_UNCERTAINTY_ASSIGNED_CONTEXT ( ( #286 ) ) GLOBAL_UNIT_ASSIGNED_CONTEXT ( ( #627, #401, #634 ) ) REPRESENTATION_CONTEXT ( 'NONE', 'WORKASPACE' ) );
#546 = TOROIDAL_SURFACE ( 'NONE', #498, 3.274999999999999911, 0.1000000000000000056 ) ;
#547 = VERTEX_POINT ( 'NONE', #344 ) ;
#548 = ADVANCED_FACE ( 'NONE', ( #389, #503 ), #567, .F. ) ;
#549 = DIRECTION ( 'NONE',  ( -0.000000000000000000, 1.000000000000000000, -0.000000000000000000 ) ) ;
#550 = DIRECTION ( 'NONE',  ( 0.000000000000000000, 1.000000000000000000, 0.000000000000000000 ) ) ;
#551 = CARTESIAN_POINT ( 'NONE',  ( 0.000000000000000000, 0.1000000000000000056, 0.000000000000000000 ) ) ;
#552 = CARTESIAN_POINT ( 'NONE',  ( 4.531193156845206201E-16, 0.000000000000000000, 3.700000000000000178 ) ) ;
#553 = DIRECTION ( 'NONE',  ( -0.000000000000000000, -1.000000000000000000, -0.000000000000000000 ) ) ;
#554 = FACE_OUTER_BOUND ( 'NONE', #651, .T. ) ;
#555 = AXIS2_PLACEMENT_3D ( 'NONE', #666, #55, #118 ) ;
#556 = TOROIDAL_SURFACE ( 'NONE', #248, 4.662499999999999645, 0.1000000000000000056 ) ;
#557 = AXIS2_PLACEMENT_3D ( 'NONE', #647, #542, #280 ) ;
#558 = DIRECTION ( 'NONE',  ( 0.000000000000000000, 1.000000000000000000, 0.000000000000000000 ) ) ;
#559 = AXIS2_PLACEMENT_3D ( 'NONE', #174, #393, #621 ) ;
#560 = CARTESIAN_POINT ( 'NONE',  ( 0.000000000000000000, 3.075000000000000178, -3.174999999999999822 ) ) ;
#561 = ORIENTED_EDGE ( 'NONE', *, *, #131, .T. ) ;
#562 = DIRECTION ( 'NONE',  ( 0.000000000000000000, 0.000000000000000000, 1.000000000000000000 ) ) ;
#563 = ORIENTED_EDGE ( 'NONE', *, *, #423, .T. ) ;
#564 = DIRECTION ( 'NONE',  ( 0.000000000000000000, 0.000000000000000000, 1.000000000000000000 ) ) ;
#565 = DIRECTION ( 'NONE',  ( 0.000000000000000000, 0.000000000000000000, 1.000000000000000000 ) ) ;
#566 = EDGE_LOOP ( 'NONE', ( #56, #710, #580, #586 ) ) ;
#567 = PLANE ( 'NONE',  #508 ) ;
#568 = AXIS2_PLACEMENT_3D ( 'NONE', #114, #497, #338 ) ;
#569 = ADVANCED_FACE ( 'NONE', ( #298 ), #17, .T. ) ;
#570 = DIRECTION ( 'NONE',  ( 0.000000000000000000, 0.000000000000000000, 1.000000000000000000 ) ) ;
#571 = VECTOR ( 'NONE', #633, 1000.000000000000000 ) ;
#572 = ORIENTED_EDGE ( 'NONE', *, *, #216, .T. ) ;
#573 = DIRECTION ( 'NONE',  ( 0.000000000000000000, 0.000000000000000000, 1.000000000000000000 ) ) ;
#574 = DIRECTION ( 'NONE',  ( -0.000000000000000000, 1.000000000000000000, -0.000000000000000000 ) ) ;
#575 = EDGE_CURVE ( 'NONE', #617, #622, #334, .T. ) ;
#576 = ORIENTED_EDGE ( 'NONE', *, *, #685, .F. ) ;
#577 = FACE_BOUND ( 'NONE', #218, .T. ) ;
#578 = CARTESIAN_POINT ( 'NONE',  ( 0.000000000000000000, 3.075000000000000178, 4.662499999999999645 ) ) ;
#579 = EDGE_CURVE ( 'NONE', #1, #432, #151, .T. ) ;
#580 = ORIENTED_EDGE ( 'NONE', *, *, #169, .T. ) ;
#581 = ADVANCED_FACE ( 'NONE', ( #668 ), #170, .F. ) ;
#582 = AXIS2_PLACEMENT_3D ( 'NONE', #657, #277, #431 ) ;
#583 = AXIS2_PLACEMENT_3D ( 'NONE', #394, #727, #445 ) ;
#584 = SURFACE_SIDE_STYLE ('',( #140 ) ) ;
#585 = AXIS2_PLACEMENT_3D ( 'NONE', #81, #305, #630 ) ;
#586 = ORIENTED_EDGE ( 'NONE', *, *, #303, .F. ) ;
#587 = CIRCLE ( 'NONE', #699, 3.700000000000000178 ) ;
#588 = DIRECTION ( 'NONE',  ( -0.000000000000000000, -1.000000000000000000, -0.000000000000000000 ) ) ;
#589 = CARTESIAN_POINT ( 'NONE',  ( 5.771148040981903323E-16, 3.174999999999999822, -4.662499999999999645 ) ) ;
#590 = ORIENTED_EDGE ( 'NONE', *, *, #483, .T. ) ;
#591 = VERTEX_POINT ( 'NONE', #117 ) ;
#592 = FACE_OUTER_BOUND ( 'NONE', #381, .T. ) ;
#593 = DIRECTION ( 'NONE',  ( -0.000000000000000000, -1.000000000000000000, -0.000000000000000000 ) ) ;
#594 = EDGE_LOOP ( 'NONE', ( #317, #364, #265, #71 ) ) ;
#595 = CARTESIAN_POINT ( 'NONE',  ( 5.832380380939270108E-16, 0.09999999999999982514, 4.762500000000000178 ) ) ;
#596 = EDGE_CURVE ( 'NONE', #599, #153, #720, .T. ) ;
#597 = AXIS2_PLACEMENT_3D ( 'NONE', #292, #287, #501 ) ;
#598 = VECTOR ( 'NONE', #593, 1000.000000000000000 ) ;
#599 = VERTEX_POINT ( 'NONE', #255 ) ;
#600 = AXIS2_PLACEMENT_3D ( 'NONE', #711, #539, #487 ) ;
#601 = AXIS2_PLACEMENT_3D ( 'NONE', #166, #396, #447 ) ;
#602 = FACE_OUTER_BOUND ( 'NONE', #531, .T. ) ;
#603 = CARTESIAN_POINT ( 'NONE',  ( 0.000000000000000000, 3.075000000000000178, 0.000000000000000000 ) ) ;
#604 = ORIENTED_EDGE ( 'NONE', *, *, #127, .T. ) ;
#605 = EDGE_CURVE ( 'NONE', #688, #525, #429, .T. ) ;
#606 = FACE_OUTER_BOUND ( 'NONE', #594, .T. ) ;
#607 = DIRECTION ( 'NONE',  ( -0.000000000000000000, -1.000000000000000000, -0.000000000000000000 ) ) ;
#608 = AXIS2_PLACEMENT_3D ( 'NONE', #717, #321, #281 ) ;
#609 = AXIS2_PLACEMENT_3D ( 'NONE', #500, #228, #444 ) ;
#610 = VECTOR ( 'NONE', #518, 1000.000000000000000 ) ;
#611 = FACE_OUTER_BOUND ( 'NONE', #628, .T. ) ;
#612 = CARTESIAN_POINT ( 'NONE',  ( 4.531193156845206201E-16, 0.1000000000000000056, 3.700000000000000178 ) ) ;
#613 = CARTESIAN_POINT ( 'NONE',  ( 0.000000000000000000, 3.174999999999999822, 4.400000000000000355 ) ) ;
#614 = LINE ( 'NONE', #624, #348 ) ;
#615 = ADVANCED_FACE ( 'NONE', ( #577, #244 ), #511, .F. ) ;
#616 = AXIS2_PLACEMENT_3D ( 'NONE', #152, #377, #101 ) ;
#617 = VERTEX_POINT ( 'NONE', #6 ) ;
#618 = CARTESIAN_POINT ( 'NONE',  ( 0.000000000000000000, 3.075000000000000178, 0.000000000000000000 ) ) ;
#619 = CARTESIAN_POINT ( 'NONE',  ( 0.000000000000000000, 0.1000000000000000056, -3.700000000000000178 ) ) ;
#620 = VERTEX_POINT ( 'NONE', #23 ) ;
#621 = DIRECTION ( 'NONE',  ( 0.000000000000000000, 0.000000000000000000, -1.000000000000000000 ) ) ;
#622 = VERTEX_POINT ( 'NONE', #358 ) ;
#623 = EDGE_CURVE ( 'NONE', #360, #622, #235, .T. ) ;
#624 = CARTESIAN_POINT ( 'NONE',  ( 0.000000000000000000, 0.1000000000000000056, -4.400000000000000355 ) ) ;
#625 = ORIENTED_EDGE ( 'NONE', *, *, #150, .F. ) ;
#626 = DIRECTION ( 'NONE',  ( 0.000000000000000000, 1.000000000000000000, 0.000000000000000000 ) ) ;
#627 =( LENGTH_UNIT ( ) NAMED_UNIT ( * ) SI_UNIT ( .MILLI., .METRE. ) );
#628 = EDGE_LOOP ( 'NONE', ( #124, #165, #243, #157 ) ) ;
#629 = DIRECTION ( 'NONE',  ( 0.000000000000000000, 1.000000000000000000, 0.000000000000000000 ) ) ;
#630 = DIRECTION ( 'NONE',  ( 0.000000000000000000, 0.000000000000000000, 1.000000000000000000 ) ) ;
#631 = EDGE_CURVE ( 'NONE', #32, #446, #211, .T. ) ;
#632 = ORIENTED_EDGE ( 'NONE', *, *, #405, .F. ) ;
#633 = DIRECTION ( 'NONE',  ( -0.000000000000000000, -1.000000000000000000, -0.000000000000000000 ) ) ;
#634 =( NAMED_UNIT ( * ) SI_UNIT ( $, .STERADIAN. ) SOLID_ANGLE_UNIT ( ) );
#635 = ORIENTED_EDGE ( 'NONE', *, *, #251, .T. ) ;
#636 = CIRCLE ( 'NONE', #506, 4.400000000000000355 ) ;
#637 = FACE_OUTER_BOUND ( 'NONE', #452, .T. ) ;
#638 = DIRECTION ( 'NONE',  ( -1.000000000000000000, 0.000000000000000000, 0.000000000000000000 ) ) ;
#639 = CIRCLE ( 'NONE', #709, 0.09999999999999982514 ) ;
#640 = CIRCLE ( 'NONE', #416, 4.400000000000000355 ) ;
#641 = ORIENTED_EDGE ( 'NONE', *, *, #227, .T. ) ;
#642 = EDGE_CURVE ( 'NONE', #116, #300, #259, .T. ) ;
#643 = CARTESIAN_POINT ( 'NONE',  ( 0.000000000000000000, 0.09999999999999982514, 0.000000000000000000 ) ) ;
#644 = DIRECTION ( 'NONE',  ( -0.000000000000000000, -1.000000000000000000, -0.000000000000000000 ) ) ;
#645 = ORIENTED_EDGE ( 'NONE', *, *, #623, .T. ) ;
#646 = ADVANCED_FACE ( 'NONE', ( #637 ), #526, .F. ) ;
#647 = CARTESIAN_POINT ( 'NONE',  ( 0.000000000000000000, 0.1000000000000000056, 0.000000000000000000 ) ) ;
#648 = ORIENTED_EDGE ( 'NONE', *, *, #13, .F. ) ;
#649 = TOROIDAL_SURFACE ( 'NONE', #400, 3.274999999999999911, 0.1000000000000000056 ) ;
#650 = DIRECTION ( 'NONE',  ( 0.000000000000000000, 0.000000000000000000, 1.000000000000000000 ) ) ;
#651 = EDGE_LOOP ( 'NONE', ( #113, #482, #234, #450 ) ) ;
#652 = DIRECTION ( 'NONE',  ( -0.000000000000000000, 1.000000000000000000, -0.000000000000000000 ) ) ;
#653 = ADVANCED_FACE ( 'NONE', ( #143 ), #546, .T. ) ;
#654 = DIRECTION ( 'NONE',  ( 0.000000000000000000, 0.000000000000000000, 1.000000000000000000 ) ) ;
#655 = ORIENTED_EDGE ( 'NONE', *, *, #391, .F. ) ;
#656 = FACE_OUTER_BOUND ( 'NONE', #671, .T. ) ;
#657 = CARTESIAN_POINT ( 'NONE',  ( 0.000000000000000000, 3.075000000000000178, 0.000000000000000000 ) ) ;
#658 = ORIENTED_EDGE ( 'NONE', *, *, #423, .F. ) ;
#659 = DIRECTION ( 'NONE',  ( 0.000000000000000000, 1.000000000000000000, 0.000000000000000000 ) ) ;
#660 = EDGE_LOOP ( 'NONE', ( #315, #307 ) ) ;
#661 = AXIS2_PLACEMENT_3D ( 'NONE', #363, #69, #527 ) ;
#662 = AXIS2_PLACEMENT_3D ( 'NONE', #257, #644, #469 ) ;
#663 = AXIS2_PLACEMENT_3D ( 'NONE', #507, #291, #121 ) ;
#664 = DIRECTION ( 'NONE',  ( 0.000000000000000000, 1.000000000000000000, 0.000000000000000000 ) ) ;
#665 = EDGE_CURVE ( 'NONE', #525, #688, #640, .T. ) ;
#666 = CARTESIAN_POINT ( 'NONE',  ( 0.000000000000000000, 0.09999999999999982514, 3.274999999999999911 ) ) ;
#667 = ADVANCED_BREP_SHAPE_REPRESENTATION ( 'Rolinera 6 35 x 9 525 x 3 175', ( #245, #263 ), #103 ) ;
#668 = FACE_OUTER_BOUND ( 'NONE', #254, .T. ) ;
#669 = CARTESIAN_POINT ( 'NONE',  ( 5.709915701024534566E-16, 0.09999999999999982514, -4.662499999999999645 ) ) ;
#670 = AXIS2_PLACEMENT_3D ( 'NONE', #155, #550, #488 ) ;
#671 = EDGE_LOOP ( 'NONE', ( #159, #343, #528, #199 ) ) ;
#672 = AXIS2_PLACEMENT_3D ( 'NONE', #329, #714, #96 ) ;
#673 = CIRCLE ( 'NONE', #663, 4.662499999999999645 ) ;
#674 = CARTESIAN_POINT ( 'NONE',  ( 0.000000000000000000, 0.000000000000000000, 0.000000000000000000 ) ) ;
#675 = DIRECTION ( 'NONE',  ( 0.000000000000000000, 0.000000000000000000, 1.000000000000000000 ) ) ;
#676 = EDGE_CURVE ( 'NONE', #22, #688, #311, .T. ) ;
#677 = ORIENTED_EDGE ( 'NONE', *, *, #405, .T. ) ;
#678 = CARTESIAN_POINT ( 'NONE',  ( 0.000000000000000000, 0.09999999999999982514, 0.000000000000000000 ) ) ;
#679 = DIRECTION ( 'NONE',  ( 1.000000000000000000, -0.000000000000000000, 1.224646799147353207E-16 ) ) ;
#680 = ORIENTED_EDGE ( 'NONE', *, *, #239, .T. ) ;
#681 = CARTESIAN_POINT ( 'NONE',  ( 0.000000000000000000, 3.075000000000000178, 0.000000000000000000 ) ) ;
#682 = CARTESIAN_POINT ( 'NONE',  ( 0.000000000000000000, 3.174999999999999822, 4.662499999999999645 ) ) ;
#683 = VERTEX_POINT ( 'NONE', #468 ) ;
#684 = PRESENTATION_LAYER_ASSIGNMENT (  '', '', ( #273 ) ) ;
#685 = EDGE_CURVE ( 'NONE', #153, #599, #102, .T. ) ;
#686 = DIRECTION ( 'NONE',  ( -0.000000000000000000, -1.000000000000000000, -0.000000000000000000 ) ) ;
#687 = CIRCLE ( 'NONE', #390, 3.174999999999999822 ) ;
#688 = VERTEX_POINT ( 'NONE', #417 ) ;
#689 = PRODUCT_DEFINITION ( 'UNKNOWN', '', #412, #85 ) ;
#690 = DIRECTION ( 'NONE',  ( -0.000000000000000000, 1.000000000000000000, -0.000000000000000000 ) ) ;
#691 = FACE_OUTER_BOUND ( 'NONE', #422, .T. ) ;
#692 = ORIENTED_EDGE ( 'NONE', *, *, #158, .T. ) ;
#693 = CARTESIAN_POINT ( 'NONE',  ( 5.388445916248354013E-16, 0.000000000000000000, 4.400000000000000355 ) ) ;
#694 = ORIENTED_EDGE ( 'NONE', *, *, #685, .T. ) ;
#695 = DIRECTION ( 'NONE',  ( -0.000000000000000000, 1.000000000000000000, -0.000000000000000000 ) ) ;
#696 = CARTESIAN_POINT ( 'NONE',  ( 0.000000000000000000, 0.1000000000000000056, -3.700000000000000178 ) ) ;
#697 = AXIS2_PLACEMENT_3D ( 'NONE', #253, #465, #418 ) ;
#698 = ORIENTED_EDGE ( 'NONE', *, *, #439, .F. ) ;
#699 = AXIS2_PLACEMENT_3D ( 'NONE', #133, #354, #308 ) ;
#700 = EDGE_CURVE ( 'NONE', #446, #32, #53, .T. ) ;
#701 = ORIENTED_EDGE ( 'NONE', *, *, #35, .F. ) ;
#702 = ADVANCED_FACE ( 'NONE', ( #592 ), #20, .T. ) ;
#703 = DIRECTION ( 'NONE',  ( -0.000000000000000000, -1.000000000000000000, -0.000000000000000000 ) ) ;
#704 = CYLINDRICAL_SURFACE ( 'NONE', #109, 4.762500000000000178 ) ;
#705 = ORIENTED_EDGE ( 'NONE', *, *, #13, .T. ) ;
#706 = CARTESIAN_POINT ( 'NONE',  ( 0.000000000000000000, 0.000000000000000000, 0.000000000000000000 ) ) ;
#707 = EDGE_CURVE ( 'NONE', #1, #410, #188, .T. ) ;
#708 = CARTESIAN_POINT ( 'NONE',  ( 0.000000000000000000, 0.09999999999999982514, 0.000000000000000000 ) ) ;
#709 = AXIS2_PLACEMENT_3D ( 'NONE', #484, #201, #421 ) ;
#710 = ORIENTED_EDGE ( 'NONE', *, *, #340, .F. ) ;
#711 = CARTESIAN_POINT ( 'NONE',  ( 0.000000000000000000, 3.174999999999999822, 0.000000000000000000 ) ) ;
#712 = CARTESIAN_POINT ( 'NONE',  ( 0.000000000000000000, 0.000000000000000000, -3.700000000000000178 ) ) ;
#713 = ORIENTED_EDGE ( 'NONE', *, *, #605, .F. ) ;
#714 = DIRECTION ( 'NONE',  ( 0.000000000000000000, 1.000000000000000000, 0.000000000000000000 ) ) ;
#715 = ORIENTED_EDGE ( 'NONE', *, *, #361, .T. ) ;
#716 = DIRECTION ( 'NONE',  ( 0.000000000000000000, -0.000000000000000000, 1.000000000000000000 ) ) ;
#717 = CARTESIAN_POINT ( 'NONE',  ( 0.000000000000000000, 0.1000000000000000056, 0.000000000000000000 ) ) ;
#718 = AXIS2_PLACEMENT_3D ( 'NONE', #678, #721, #564 ) ;
#719 = EDGE_CURVE ( 'NONE', #145, #360, #76, .T. ) ;
#720 = CIRCLE ( 'NONE', #327, 3.174999999999999822 ) ;
#721 = DIRECTION ( 'NONE',  ( 0.000000000000000000, 1.000000000000000000, 0.000000000000000000 ) ) ;
#722 = CARTESIAN_POINT ( 'NONE',  ( 0.000000000000000000, 3.174999999999999822, 0.000000000000000000 ) ) ;
#723 = CARTESIAN_POINT ( 'NONE',  ( 0.000000000000000000, 3.075000000000000178, 0.000000000000000000 ) ) ;
#724 = ORIENTED_EDGE ( 'NONE', *, *, #596, .F. ) ;
#725 = DIRECTION ( 'NONE',  ( 0.000000000000000000, 1.000000000000000000, 0.000000000000000000 ) ) ;
#726 = EDGE_CURVE ( 'NONE', #432, #1, #587, .T. ) ;
#727 = DIRECTION ( 'NONE',  ( 1.000000000000000000, -0.000000000000000000, 1.224646799147353207E-16 ) ) ;
ENDSEC;
END-ISO-10303-21;
